<?xml version="1.0" encoding="utf-8"?>
<!-- Generator: Adobe Illustrator 19.2.1, SVG Export Plug-In . SVG Version: 6.00 Build 0)  -->
<svg version="1.1" id="Layer_1" xmlns="http://www.w3.org/2000/svg" xmlns:xlink="http://www.w3.org/1999/xlink" x="0px" y="0px"
	 viewBox="0 0 32 40" style="enable-background:new 0 0 32 40;" xml:space="preserve" width="41px" height="50px">
<style type="text/css">
	.st0{fill:#BE913A;}
	.st1{fill:#FFFFFF;}
</style>
<path id="Fill-1_1_" class="st0" d="M16.1,23.8c-4.2,0-7.5-3.4-7.5-7.6s3.4-7.6,7.5-7.6s7.5,3.4,7.5,7.6S20.3,23.8,16.1,23.8
	 M15.5,0.5C7.8,0.8,1.4,6.8,0.7,14.5c-0.2,1.5-0.1,3,0.2,4.5c0,0,0,0.2,0.1,0.5c0.2,1.1,0.6,2.1,1,3.1c1.6,3.7,5.1,9.9,13.2,16.6
	c0.5,0.4,1.2,0.4,1.7,0c8.1-6.7,11.7-12.9,13.2-16.6c0.5-1,0.8-2,1-3.1c0.1-0.3,0.1-0.5,0.1-0.5c0.2-1,0.3-1.9,0.3-3
	C31.6,7.3,24.4,0.2,15.5,0.5"/>
<path class="st1" d="M16,40c-0.4,0-0.8-0.1-1.2-0.4C8.6,34.4,4.1,28.7,1.5,22.8c-0.4-1-0.8-2.1-1-3.2c-0.1-0.3-0.1-0.5-0.1-0.6
	C0,17.4,0,15.9,0.2,14.4C0.9,6.5,7.5,0.3,15.5,0h0c4.5-0.2,8.6,1.5,11.8,4.5c3.1,3,4.8,7.1,4.8,11.5c0,1.1-0.1,2-0.3,3.1
	c0,0,0,0,0,0c0,0,0,0.2-0.1,0.6c-0.2,1.2-0.5,2.2-1,3.2c-1.3,3.2-4.8,9.7-13.4,16.8C16.9,39.9,16.5,40,16,40z M15.5,1
	C8,1.3,1.8,7.1,1.2,14.6C1,15.9,1,17.3,1.3,18.9c0,0.1,0,0.2,0.1,0.4c0.2,1.1,0.6,2.1,1,3.1c2.5,5.8,6.9,11.3,13.1,16.4
	c0.3,0.2,0.8,0.2,1.1,0c8.4-6.9,11.8-13.2,13.1-16.4c0.5-0.9,0.8-1.9,1-3c0.1-0.3,0.1-0.4,0.1-0.4c0.2-1.1,0.3-2,0.3-3
	c0-4.1-1.5-7.9-4.5-10.7C23.6,2.4,19.7,0.9,15.5,1L15.5,1z M16.1,24.3c-4.5,0-8-3.6-8-8.1c0-4.5,3.6-8.1,8-8.1s8,3.6,8,8.1
	C24.1,20.7,20.6,24.3,16.1,24.3z M16.1,9.1c-3.9,0-7,3.2-7,7.1c0,4,3.1,7.1,7,7.1s7-3.1,7-7.1C23.1,12.3,20,9.1,16.1,9.1z"/>
</svg>
