<?xml version="1.0" encoding="utf-8"?>
<!-- Generator: Adobe Illustrator 19.2.1, SVG Export Plug-In . SVG Version: 6.00 Build 0)  -->
<svg version="1.1" id="Layer_1" xmlns="http://www.w3.org/2000/svg" xmlns:xlink="http://www.w3.org/1999/xlink" x="0px" y="0px"
	 viewBox="0 0 30 34" style="enable-background:new 0 0 30 34;" xml:space="preserve">
<style type="text/css">
	.st0{fill:#BE913A;}
	.st1{fill:#060707;}
</style>
<path id="Fill-1" class="st0" d="M23.8,24.8V26c0,0.3,0,0.4-0.5,0.4h-2.9c-0.4,0-0.6-0.1-0.6-0.2c0-0.7,0.2-1.1,0.8-1.3l3-1
	c0.1,0,0.1,0,0.2-0.1C23.8,24.1,23.8,24.6,23.8,24.8 M23.1,22.8l-2.9,1c-1.1,0.4-1.6,1.2-1.6,2.5c0,0.8,0.8,1.4,1.9,1.4h2.9
	c1.1,0,1.7-0.6,1.7-1.7v-1.2c0-0.6,0-1.3-0.4-1.8C24.2,22.6,23.6,22.5,23.1,22.8"/>
<path id="Fill-3" class="st0" d="M9.4,26.4H6.5c-0.1,0-0.2,0-0.2,0c0,0,0,0,0,0c0,0,0-0.1,0-0.4v-1.1c0-0.1,0-0.2,0-0.3
	c0-0.2,0-0.5,0-0.7c0,0,0.1,0,0.1,0l2.8,1c0.4,0.1,0.8,0.4,0.8,1.3C10,26.3,9.8,26.4,9.4,26.4 M9.6,23.8l-2.8-1
	c-0.6-0.2-1.1-0.2-1.5,0.2C5,23.4,5,24.1,5,24.6c0,0.1,0,0.2,0,0.3V26c0,0.4,0,1.7,1.5,1.7h2.9c1.1,0,1.9-0.6,1.9-1.4
	C11.3,25,10.7,24.1,9.6,23.8"/>
<path id="Fill-5" class="st1" d="M28.8,15c0,0.3-0.3,0.6-0.6,0.6h-0.6v-3.2v-1.3c0-0.3-0.3-0.6-0.6-0.6s-0.6,0.3-0.6,0.6v1.3v3.8
	c0,1-1,2.2-2.5,2.4c-5.9,0.9-11.7,0.9-17.6,0c-1.5-0.2-2.4-1.4-2.4-2.4v-4.4v-0.6c0-0.3-0.3-0.6-0.6-0.6s-0.6,0.3-0.6,0.6v0.6v3.8
	H1.9c-0.3,0-0.6-0.3-0.6-0.6V9.3c0-0.3,0.3-0.6,0.6-0.6h1.2c0.3,0,0.6-0.3,0.6-0.6V7.9c0-1,0.9-2.2,2.4-2.4c1-0.1,2.1-0.3,3.3-0.4
	c0.1,0.1,0.2,0.2,0.3,0.3c0.3,0.3,0.7,0.7,1.5,0.7h7.5c0.9,0,1.3-0.5,1.7-0.9c0,0,0.1-0.1,0.1-0.1c1.2,0.1,2.3,0.2,3.4,0.4
	c1.5,0.2,2.4,1.4,2.4,2.4V8c0,0.3,0.3,0.6,0.6,0.6h1.2c0.3,0,0.6,0.3,0.6,0.6V15z M24.9,30.1c-0.3,0.1-0.5,0.3-0.5,0.6v1.3
	c0,0.3-0.3,0.6-0.6,0.6h-1.9c-0.3,0-0.6-0.3-0.6-0.6v-1.3c0-0.3-0.3-0.6-0.6-0.6H9.4c-0.3,0-0.6,0.3-0.6,0.6v1.3
	c0,0.3-0.3,0.6-0.6,0.6H6.2c-0.3,0-0.6-0.3-0.6-0.6v-1.3c0-0.3-0.2-0.6-0.5-0.6c-0.8-0.1-1.4-0.8-1.4-1.8v-9.5
	c0.6,0.5,1.3,0.9,2.2,1c3,0.4,6,0.7,9,0.7s6-0.2,9-0.7c0.9-0.1,1.7-0.5,2.3-1.1v9.6C26.2,29.3,25.7,30,24.9,30.1L24.9,30.1z
	 M5.7,2.7c6.5-2,12.1-2,18.7,0c1,0.3,1.8,1.4,1.9,2.5c-0.6-0.5-1.4-0.9-2.2-1c-1.2-0.2-2.4-0.3-3.7-0.4c-0.2,0-0.3,0-0.4,0.1
	c-0.2,0.1-0.3,0.3-0.4,0.4c-0.3,0.3-0.4,0.5-0.7,0.5h-7.5c-0.2,0-0.3-0.1-0.6-0.3c-0.2-0.2-0.4-0.4-0.7-0.6C9.8,3.9,9.7,3.9,9.6,3.9
	C8.2,4,7.1,4.1,6,4.3c-0.8,0.1-1.6,0.5-2.2,1C3.9,4.2,4.7,3,5.7,2.7L5.7,2.7z M28.1,7.4h-0.6V5.5c0-1.7-1.3-3.5-2.8-4
	c-6.8-2-12.6-2-19.4,0C3.7,2,2.5,3.8,2.5,5.5v1.9H1.9C0.8,7.4,0,8.3,0,9.3V15c0,1,0.8,1.9,1.9,1.9h0.6v11.5c0,1.3,0.7,2.4,1.9,2.9
	v0.8c0,1,0.8,1.9,1.9,1.9h1.9c1,0,1.9-0.9,1.9-1.9v-0.6h10v0.6c0,1,0.8,1.9,1.9,1.9h1.9c1,0,1.9-0.9,1.9-1.9v-0.9
	c1.1-0.5,1.9-1.6,1.9-2.8V16.9h0.6c1,0,1.9-0.9,1.9-1.9V9.3C30,8.3,29.2,7.4,28.1,7.4L28.1,7.4z"/>
</svg>
