<?xml version="1.0" encoding="utf-8"?>
<!-- Generator: Adobe Illustrator 19.2.1, SVG Export Plug-In . SVG Version: 6.00 Build 0)  -->
<svg version="1.1" id="Layer_1" xmlns="http://www.w3.org/2000/svg" xmlns:xlink="http://www.w3.org/1999/xlink" x="0px" y="0px"
	 viewBox="0 0 16 16" style="enable-background:new 0 0 16 16;" xml:space="preserve">
<style type="text/css">
	.st0{filter:url(#Adobe_OpacityMaskFilter);}
	.st1{fill:#FFFFFF;}
	.st2{mask:url(#mask-2);fill:#060707;}
	.st3{filter:url(#Adobe_OpacityMaskFilter_1_);}
	.st4{mask:url(#mask-4);fill:#060707;}
	.st5{filter:url(#Adobe_OpacityMaskFilter_2_);}
	.st6{mask:url(#mask-6);fill:#060707;}
	.st7{fill:#BE913A;}
	.st8{fill:#060707;}
</style>
<g id="Group-3">
	<g id="Clip-2">
	</g>
	<defs>
		<filter id="Adobe_OpacityMaskFilter" filterUnits="userSpaceOnUse" x="0" y="0" width="16" height="16">
			<feColorMatrix  type="matrix" values="1 0 0 0 0  0 1 0 0 0  0 0 1 0 0  0 0 0 1 0"/>
		</filter>
	</defs>
	<mask maskUnits="userSpaceOnUse" x="0" y="0" width="16" height="16" id="mask-2">
		<g class="st0">
			<polygon id="path-1" class="st1" points="0,16 0,0 16,0 16,16 			"/>
		</g>
	</mask>
	<path id="Fill-1" class="st2" d="M14.6,15H1.4C1.2,15,1,14.8,1,14.6v-8h14v8C15,14.8,14.8,15,14.6,15 M14.6,1.5H13v1h1.5
		C14.8,2.5,15,2.7,15,3v2.6H1V3c0-0.2,0.2-0.4,0.4-0.4h1.8v1.3c0,0.3,0.2,0.5,0.5,0.5s0.5-0.2,0.5-0.5V2.5h0v-1h0v-1
		C4.3,0.2,4.1,0,3.8,0S3.3,0.2,3.3,0.5v1H1.4C0.6,1.5,0,2.2,0,3v11.6C0,15.4,0.6,16,1.4,16h13.1c0.8,0,1.4-0.6,1.4-1.4V3
		C16,2.2,15.4,1.5,14.6,1.5"/>
</g>
<g id="Group-6" transform="translate(8.800000, 0.000000)">
	<g id="Clip-5">
	</g>
	<defs>
		<filter id="Adobe_OpacityMaskFilter_1_" filterUnits="userSpaceOnUse" x="0.4" y="0" width="2.6" height="4.3">
			<feColorMatrix  type="matrix" values="1 0 0 0 0  0 1 0 0 0  0 0 1 0 0  0 0 0 1 0"/>
		</filter>
	</defs>
	<mask maskUnits="userSpaceOnUse" x="0.4" y="0" width="2.6" height="4.3" id="mask-4">
		<g class="st3">
			<polygon id="path-3" class="st1" points="3.1,0 0.4,0 0.4,4.3 3.1,4.3 			"/>
		</g>
	</mask>
	<path id="Fill-4" class="st4" d="M2.1,3.8c0,0.3,0.2,0.5,0.5,0.5c0.3,0,0.5-0.2,0.5-0.5V0.5C3.1,0.2,2.8,0,2.6,0
		C2.3,0,2.1,0.2,2.1,0.5v1H0.4v1h1.6V3.8z"/>
</g>
<g id="Group-9" transform="translate(4.800000, 0.000000)">
	<g id="Clip-8">
	</g>
	<defs>
		<filter id="Adobe_OpacityMaskFilter_2_" filterUnits="userSpaceOnUse" x="0.7" y="0" width="2.6" height="4.3">
			<feColorMatrix  type="matrix" values="1 0 0 0 0  0 1 0 0 0  0 0 1 0 0  0 0 0 1 0"/>
		</filter>
	</defs>
	<mask maskUnits="userSpaceOnUse" x="0.7" y="0" width="2.6" height="4.3" id="mask-6">
		<g class="st5">
			<polygon id="path-5" class="st1" points="3.3,0 0.7,0 0.7,4.3 3.3,4.3 			"/>
		</g>
	</mask>
	<path id="Fill-7" class="st6" d="M2.3,3.8c0,0.3,0.2,0.5,0.5,0.5c0.3,0,0.5-0.2,0.5-0.5V2.5h0v-1h0v-1C3.3,0.2,3.1,0,2.8,0
		C2.5,0,2.3,0.2,2.3,0.5v1H0.7v1h1.6V3.8z"/>
</g>
<polygon id="Fill-10" class="st7" points="2.8,11.4 4,11.4 4,10.2 2.8,10.2 "/>
<polygon id="Fill-12" class="st7" points="5.1,11.4 6.3,11.4 6.3,10.2 5.1,10.2 "/>
<polygon id="Fill-13" class="st7" points="7.4,11.4 8.6,11.4 8.6,10.2 7.4,10.2 "/>
<polygon id="Fill-14" class="st7" points="9.7,11.4 10.9,11.4 10.9,10.2 9.7,10.2 "/>
<polygon id="Fill-15" class="st7" points="12,11.4 13.2,11.4 13.2,10.2 12,10.2 "/>
<polygon id="Fill-16" class="st7" points="5.1,9.1 6.3,9.1 6.3,8 5.1,8 "/>
<polygon id="Fill-17" class="st7" points="7.4,9.1 8.6,9.1 8.6,8 7.4,8 "/>
<polygon id="Fill-18" class="st7" points="9.7,9.1 10.9,9.1 10.9,8 9.7,8 "/>
<polygon id="Fill-19" class="st7" points="12,9.1 13.2,9.1 13.2,8 12,8 "/>
<polygon id="Fill-20" class="st7" points="2.8,13.7 4,13.7 4,12.5 2.8,12.5 "/>
<polygon id="Fill-21" class="st8" points="5.1,13.7 6.3,13.7 6.3,12.5 5.1,12.5 "/>
<polygon id="Fill-22" class="st8" points="7.4,13.7 8.6,13.7 8.6,12.5 7.4,12.5 "/>
<polygon id="Fill-23" class="st8" points="9.7,13.7 10.9,13.7 10.9,12.5 9.7,12.5 "/>
</svg>
