<?xml version="1.0" encoding="utf-8"?>
<!-- Generator: Adobe Illustrator 19.2.1, SVG Export Plug-In . SVG Version: 6.00 Build 0)  -->
<svg version="1.1" id="Layer_1" xmlns="http://www.w3.org/2000/svg" xmlns:xlink="http://www.w3.org/1999/xlink" x="0px" y="0px"
	 viewBox="0 0 50 50" style="enable-background:new 0 0 50 50;" xml:space="preserve">
<style type="text/css">
	.st0{fill:#060707;}
</style>
<g id="back">
	<path class="st0" d="M49,1v48H1V1H49 M50,0H0v50h50V0L50,0z"/>
</g>
<g id="close" transform="translate(20.000000, 19.000000)">
	<path id="Shape" d="M10.4,9.6L7.3,6l3.2-3.6c0.5-0.5,0.5-1.4,0-2s-1.4-0.5-2,0L5.4,3.9L2.4,0.4c-0.5-0.5-1.4-0.5-2,0
		c-0.5,0.5-0.5,1.4,0,2L3.6,6L0.4,9.6c-0.5,0.5-0.5,1.4,0,2s1.4,0.5,2,0l3.1-3.5l3.1,3.5c0.5,0.5,1.4,0.5,2,0S11,10.2,10.4,9.6
		L10.4,9.6z"/>
</g>
</svg>
