<?xml version="1.0" encoding="utf-8"?>
<!-- Generator: Adobe Illustrator 19.2.1, SVG Export Plug-In . SVG Version: 6.00 Build 0)  -->
<svg version="1.1" id="Layer_1" xmlns="http://www.w3.org/2000/svg" xmlns:xlink="http://www.w3.org/1999/xlink" x="0px" y="0px"
	 viewBox="0 0 45 50" style="enable-background:new 0 0 45 50;" xml:space="preserve">
<style type="text/css">
	.st0{fill:#BD9042;}
	.st1{fill:#060707;}
	.st2{fill:#4C4C4C;}
</style>
<g id="Parkchester_Careers" transform="translate(-1118.000000, -990.000000)">
	<g id="Group" transform="translate(55.000000, 990.000000)">
		<g id="Company-Car" transform="translate(1063.000000, 0.000000)">
			<g>
				<path id="Combined-Shape" class="st0" d="M7.2,32.1c-1.5,0-3.1-1.1-3.1-2.6v-1.9H1.3c-0.2,0-0.5-0.1-0.6-0.2l0,0h0
					c-0.2-0.2-0.2-0.4-0.2-0.6v-8.4c0-1.9,1.1-3.1,2.5-3.9l0.5-0.3l-1.6-0.3c-0.2,0-0.3-0.1-0.4-0.2c0,0,0,0-0.1-0.1
					c-0.5-0.5-0.6-1.3-0.5-1.9c0-0.6,0.2-1.3,0.5-1.8c0.1-0.2,0.3-0.3,0.6-0.4l3.9-0.6h0l1.1-3c0,0,0,0,0-0.1C8.3,2.5,10.9,1,14,0.4
					l0.7-0.1c3.8-0.3,7.6-0.3,11.4,0.1l0.2,0c3.5,0.7,6.8,2.2,8.3,5.5c0,0,0,0,0,0.1L35.7,9l0.1-0.1c0.1,0,0.2,0,0.3,0l3.9,0.6
					c0.2,0,0.4,0.2,0.6,0.4c0.3,0.5,0.5,1.2,0.6,1.8c0,0.6-0.1,1.3-0.5,1.9c0,0,0,0.1-0.1,0.1c-0.1,0.1-0.3,0.2-0.4,0.2l-2,0.4
					l0.4,0.2c1.4,0.8,2.5,2,2.5,3.9v8.4c0,0.5-0.4,0.8-0.9,0.8h0l-0.2,0h-2.6v2.1c0,0.1,0,0.1,0,0.2c-0.4,1.5-1.6,2.2-3.1,2.2
					c-1.7,0-3.5-0.5-3.6-2.6c0,0,0,0,0-0.1v-1.7H10.9v1.7c0,0.1,0,0.1,0,0.2C10.4,31.4,9.1,32.1,7.2,32.1z M36.3,26l0.2,0h2.8v-7.6
					c0-1.5-1-2.3-2.9-3.1c-0.2-0.1-0.4-0.3-0.5-0.5L33,6.5l-0.4-0.8C30.5,2.2,25.2,1.5,20,1.5c-5.2,0-9.1,0.7-11.1,4.2L8.5,6.5
					l-2.9,8.2c-0.1,0.2-0.2,0.4-0.5,0.5c-2,0.8-2.9,1.7-2.9,3.1V26h2.8l0.2,0H36.3z M34.2,30.5c0.7,0,1.1-0.2,1.3-0.5l0.1-0.3v-1.9
					h-3.4v1.7l0.1,0.5C32.6,30.2,33.1,30.4,34.2,30.5z M7.2,30.5c1,0,1.5-0.2,1.7-0.7l0.2-0.5v-1.6H5.8v1.9
					C5.8,29.8,6.3,30.4,7.2,30.5z M4.5,12.7l0.7-1.9l-2.6,0.4l0,0.1c0,0.2-0.1,0.3-0.1,0.5c0,0.2,0,0.4,0,0.5L4.5,12.7z M37,12.8
					l2.4-0.5c0-0.2,0-0.3,0-0.5c0-0.2-0.1-0.4-0.1-0.5l0-0.1l-3.1-0.5L37,12.8z"/>
				<path id="Combined-Shape_1_" class="st1" d="M5.3,50c-0.4,0-0.7-0.2-0.8-0.6L0.1,38.1c-0.2-0.5,0.1-1,0.5-1.2l4.9-1.8
					c0.5-0.2,1,0.1,1.2,0.5l0.2,0.5l0,0c3.2-3,7.1-4,11.9-2.2c1.5,0.6,3.1,0.9,4.8,0.9c2.2,0,4.3,0.1,5.8,0.5c0.8,0.2,1.5,0.6,2,1.2
					c0.5,0.7,0.7,1.4,0.5,2.3c0,0.3-0.1,0.5-0.3,0.8l0,0l5.7-1.9c1.2-0.4,2.7-0.9,3.9-0.9c1.4,0,2.7,0.5,3.5,2
					c0.5,1,0.4,1.9-0.3,2.8c-0.6,0.6-1.5,1.1-2.6,1.5l-0.4,0.1l-10.9,4.4c0,0,0,0-0.1,0C29.7,47.8,29,48,28.2,48
					c-0.6,0-1.2-0.1-1.9-0.2l-0.6-0.1l-9.5-1c-0.9-0.1-2.9-0.1-4.7,0.1L11,46.7l0.1,0.2c0.2,0.5-0.1,1-0.5,1.2l-4.9,1.8
					C5.5,50,5.4,50,5.3,50z M28,46.1c0.5,0,1,0,1.4-0.1l0.3-0.1l10.9-4.4c0,0,0.1,0,0.1,0c1.3-0.4,1.9-0.8,2.2-1.1
					c0.2-0.2,0.2-0.4,0.1-0.8c-0.4-0.8-1-1-1.8-1c-0.9,0-2,0.4-3.4,0.8l-6.5,2.2l-0.3,0.1c-0.8,0.4-1.8,0.5-3,0.2l-3.8-1.2l-0.9-0.2
					c-2.2-0.3-4.1-0.2-5.1-0.1c-0.5,0.1-1-0.3-1-0.8c-0.1-0.5,0.3-1,0.8-1c1.2-0.2,3.3-0.3,5.6,0.1l1,0.2l1,0.1c1,0.1,2,0.1,2.7,0
					c0.5,0,0.9-0.1,1.2-0.2c0.2-0.1,0.3-0.1,0.4-0.2l0-0.2c0-0.4-0.1-0.7-0.2-0.8c-0.2-0.2-0.5-0.4-1-0.6c-1.1-0.3-2.9-0.4-5.3-0.4
					c-1.9,0-3.7-0.3-5.5-1c-4.4-1.6-7.6-0.6-10.5,2.4l0,0l2.7,7.1l0.1,0c2.3-0.4,5-0.3,6.1-0.2l9.5,1c0,0,0.1,0,0.1,0
					C26.9,46,27.5,46.1,28,46.1z M5.8,47.9L9,46.7l-0.1-0.2l-0.1-0.2l0-0.1l-3.2-8.3l0-0.1l0,0l-0.3-0.7l-3.2,1.2L5.8,47.9z"/>
				<polygon id="Path" class="st2" points="40,13 40,13 39.4,12.5 				"/>
				<polygon id="Path_1_" class="st2" points="2,13 2.6,12.5 2,13 				"/>
				<path id="Combined-Shape_2_" class="st0" d="M8,15.4c-0.6,0-1.1-0.5-0.9-1.1l2.5-6.9c1.5-3.9,6.9-5,11.6-4.8
					c4.6,0.2,9.7,1.9,10.5,4.8l2.1,7c0.2,0.6-0.3,1.1-0.9,1.1C24.6,14.8,16.3,14.8,8,15.4z M31.9,13.7l-1.7-5.8
					c-0.4-1.7-4.2-3.4-9-3.6c-4.6-0.2-8.8,1-9.9,3.7l-2.1,5.7l1.8-0.1c1-0.1,2-0.1,2.9-0.1l2.4-0.1L13,10.6
					c-0.4-0.3-0.4-0.8-0.1-1.2C13.2,9,13.7,9,14.1,9.3l4.9,3.9l0,0l0.9,0c1,0,2,0,2.9,0l1.8,0l-3.4-2.7c-0.4-0.3-0.4-0.8-0.1-1.2
					C21.5,9,22,9,22.4,9.3l4.9,3.9l0.1,0.2l0.1,0c0.8,0,1.6,0.1,2.4,0.1L31.9,13.7z"/>
				<path id="Combined-Shape_3_" class="st0" d="M33.3,24.2c-1.9,0-3.5-1.5-3.5-3.5c0-1.9,1.6-3.5,3.5-3.5c1.9,0,3.5,1.5,3.5,3.5
					C36.8,22.7,35.2,24.2,33.3,24.2z M33.3,22.5c1,0,1.8-0.8,1.8-1.8c0-1-0.8-1.8-1.8-1.8c-1,0-1.8,0.8-1.8,1.8
					C31.5,21.7,32.3,22.5,33.3,22.5z"/>
				<path id="Combined-Shape_4_" class="st0" d="M7.9,24.2c-1.9,0-3.5-1.5-3.5-3.5c0-1.9,1.6-3.5,3.5-3.5c1.9,0,3.5,1.5,3.5,3.5
					C11.4,22.7,9.9,24.2,7.9,24.2z M7.9,22.5c1,0,1.8-0.8,1.8-1.8c0-1-0.8-1.8-1.8-1.8c-1,0-1.8,0.8-1.8,1.8
					C6.1,21.7,6.9,22.5,7.9,22.5z"/>
			</g>
		</g>
	</g>
</g>
</svg>
