<svg width="40px" height="40px" viewBox="0 0 40 40" version="1.1" xmlns="http://www.w3.org/2000/svg" xmlns:xlink="http://www.w3.org/1999/xlink">
    <g stroke="none" stroke-width="1" fill="none" fill-rule="evenodd">
        <g transform="translate(-1135.000000, -6852.000000)">
            <g transform="translate(0.000000, 6573.000000)">
                <g transform="translate(1135.000000, 279.000000)">
                    <rect x="0" y="0" width="40" height="40"></rect>
                    <g>
                        <rect stroke="#FFFFFF" opacity="0.2" x="0.5" y="0.5" width="39" height="39"></rect>
                        <path d="M17.926179,27.2088429 C16.0748582,27.2088429 14.7387591,26.0047037 14.7387591,24.5587959 C14.7387591,23.1411101 16.3969862,21.9604892 18.2473919,21.9811853 C18.6784211,21.9868297 19.0810811,22.0573848 19.4462205,22.1787394 C20.4501251,22.89746 21.1712525,23.3029163 21.3744128,24.1213547 C21.4128485,24.2878645 21.4338967,24.4571966 21.4338967,24.6321731 C21.4338967,26.0790216 20.5269965,27.2088429 17.926179,27.2088429 M18.4121164,18.7271872 C17.1702764,18.6886171 15.9897505,17.2991533 15.7756086,15.6227658 C15.5614667,13.9463782 16.3942407,12.6632173 17.6360808,12.7008467 C18.8770057,12.7394167 20.0584467,14.0837253 20.2725886,15.7610536 C20.4867305,17.4374412 19.6539564,18.7657573 18.4121164,18.7271872 M20.986395,21.2097836 C20.5507901,20.8927563 19.7189311,20.1222954 19.7189311,19.6688617 C19.7189311,19.1364064 19.8662681,18.8758231 20.6432188,18.2511759 C21.4403026,17.6105362 22.0049417,16.710254 22.0049417,15.664158 C22.0049417,14.4167451 21.4650113,13.2022578 20.4510402,12.8015052 L21.9793179,12.8015052 L23.0582637,12 L18.2373254,12 C16.0776036,12 14.0432554,13.6829727 14.0432554,15.6321731 C14.0432554,17.6246472 15.516625,19.2323612 17.7147825,19.2323612 C17.8685254,19.2323612 18.0158624,19.229539 18.161369,19.2182502 C18.0195229,19.4985889 17.9161125,19.8156162 17.9161125,20.1429915 C17.9161125,20.6970837 18.2062107,21.1467545 18.5731804,21.5126999 C18.2958941,21.5126999 18.0277591,21.5211665 17.7376609,21.5211665 C15.0608871,21.5211665 13,23.2728128 13,25.0912512 C13,26.8805268 15.2594717,28 17.9353304,28 C20.986395,28 22.6729913,26.2201317 22.6729913,24.4299153 C22.6729913,22.9952963 22.2602648,22.1354657 20.986395,21.2097836 M28,18.8730009 L26.1239705,18.8730009 L26.1239705,16.9444967 L24.6130803,16.9444967 L24.6130803,18.8730009 L22.7370508,18.8730009 L22.7370508,20.4261524 L24.6130803,20.4261524 L24.6130803,22.3546566 L26.1239705,22.3546566 L26.1239705,20.4261524 L28,20.4261524 L28,18.8730009" id="Shape" fill="#FFFFFF"></path>
                    </g>
                </g>
            </g>
        </g>
    </g>
</svg>