<?xml version="1.0" encoding="UTF-8"?>
<svg width="33px" height="41px" viewBox="0 0 33 41" version="1.1" xmlns="http://www.w3.org/2000/svg" xmlns:xlink="http://www.w3.org/1999/xlink">
    <!-- Generator: sketchtool 46.2 (44496) - http://www.bohemiancoding.com/sketch -->
    <title>0278F10D-7C2C-4D23-9BAF-5BE05628C2E1</title>
    <desc>Created with sketchtool.</desc>
    <defs></defs>
    <g id="Desktop-design" stroke="none" stroke-width="1" fill="none" fill-rule="evenodd">
        <g id="Parkchester_HP_C1" transform="translate(-584.000000, -2856.000000)">
            <g id="The-Neighborhood" transform="translate(0.000000, 2574.000000)">
                <g id="map-pin" transform="translate(585.000000, 283.000000)">
                    <rect id="Background" x="0" y="0" width="30.9677419" height="40"></rect>
                    <path d="M15.4390968,23.1218065 C11.295871,23.1218065 7.93845161,19.7643871 7.93845161,15.6211613 C7.93845161,11.4779355 11.295871,8.12180645 15.4390968,8.12180645 C19.5823226,8.12180645 22.9397419,11.4779355 22.9397419,15.6211613 C22.9397419,19.7643871 19.5823226,23.1218065 15.4390968,23.1218065 M14.892,0.0095483871 C7.2003871,0.279225806 0.812,6.28051613 0.0739354839,13.9385806 C-0.0770322581,15.4701935 0.00941935484,16.9553548 0.280387097,18.376 C0.280387097,18.376 0.303612903,18.5424516 0.383612903,18.859871 C0.621032258,19.9230968 0.978451613,20.9553548 1.42232258,21.9230968 C2.97070968,25.5901935 6.55006452,31.7256774 14.5823226,38.4005161 C15.0739355,38.8134194 15.7965161,38.8134194 16.295871,38.4005161 C24.328129,31.7334194 27.9074839,25.5979355 29.4636129,21.9153548 C29.9152258,20.9476129 30.2649032,19.9230968 30.5036129,18.852129 C30.5745806,18.5424516 30.6068387,18.3682581 30.6068387,18.3682581 C30.7887742,17.4147097 30.8842581,16.4392258 30.8842581,15.4392258 C30.8842581,6.7243871 23.6700645,-0.300129032 14.892,0.0095483871" id="Fill-1" stroke="#FFFFFF" fill="#BE913A"></path>
                </g>
            </g>
        </g>
    </g>
</svg>