<svg version="1.1" xmlns="http://www.w3.org/2000/svg" xmlns:xlink="http://www.w3.org/1999/xlink" x="0px" y="0px"
	 viewBox="0 0 40 50" style="enable-background:new 0 0 40 50;" xml:space="preserve">
<style type="text/css">
	.st0{fill:#060707;}
	.st1{fill:#BD9042;}
</style>
<g>
	<g transform="translate(-520.000000, -990.000000)">
		<g transform="translate(55.000000, 990.000000)">
			<g transform="translate(465.000000, 0.000000)">
				<path class="st0" d="M4.6,50c-0.3,0-0.6-0.2-0.7-0.5l-3.8-9.8c-0.2-0.4,0.1-0.9,0.5-1l4.2-1.6
					c0.4-0.1,0.9,0.1,1,0.5L5.9,38l0,0c2.8-2.6,6.1-3.4,10.3-1.9c1.3,0.5,2.7,0.8,4.2,0.8c1.9,0,3.7,0,5,0.4
					c0.7,0.2,1.3,0.5,1.7,1.1c0.4,0.6,0.6,1.2,0.5,2c0,0.2-0.1,0.5-0.2,0.7l0,0l5-1.6c1.1-0.3,2.3-0.8,3.4-0.8c1.2,0,2.3,0.4,3,1.7
					c0.4,0.8,0.4,1.7-0.3,2.4c-0.5,0.5-1.3,1-2.2,1.3l-0.4,0.1l-9.4,3.8c0,0,0,0-0.1,0c-0.6,0.2-1.2,0.3-1.8,0.3
					c-0.5,0-1.1-0.1-1.6-0.2l-0.5-0.1L14.1,47c-0.8-0.1-2.5-0.1-4,0.1l-0.6,0.1l0.1,0.2c0.2,0.4-0.1,0.9-0.5,1L4.9,50
					C4.8,50,4.7,50,4.6,50z M24.2,46.7c0.5,0,0.9,0,1.2-0.1l0.3-0.1l9.4-3.8c0,0,0.1,0,0.1,0c1.1-0.3,1.7-0.7,1.9-0.9
					c0.2-0.2,0.2-0.4,0.1-0.6c-0.4-0.7-0.9-0.9-1.6-0.8c-0.8,0-1.8,0.3-2.9,0.7l-5.6,1.9l-0.2,0.1c-0.7,0.3-1.6,0.5-2.6,0.1L21,42
					l-0.8-0.1c-1.9-0.3-3.5-0.2-4.4-0.1c-0.4,0.1-0.8-0.2-0.9-0.7c-0.1-0.4,0.2-0.8,0.7-0.9c1-0.1,2.8-0.2,4.9,0.1l0.8,0.2l0.9,0.1
					c0.9,0.1,1.7,0.1,2.4,0c0.4,0,0.8-0.1,1-0.2c0.2-0.1,0.3-0.1,0.3-0.2l0-0.2c0-0.4-0.1-0.6-0.2-0.7c-0.1-0.2-0.4-0.4-0.9-0.5
					c-1-0.3-2.5-0.4-4.6-0.4c-1.7,0-3.2-0.3-4.7-0.9c-3.8-1.4-6.6-0.5-9.1,2.1l0,0l2.4,6.1l0.1,0c1.9-0.4,4.3-0.3,5.3-0.2l8.2,0.9
					c0,0,0.1,0,0.1,0C23.2,46.6,23.8,46.7,24.2,46.7z M5,48.2l2.7-1l-0.1-0.2l-0.1-0.2l0-0.1l-2.8-7.1l0-0.1l0,0l-0.2-0.6l-2.7,1
					L5,48.2z"/>
				<path class="st1" d="M10.4,32.2c-0.5,0-0.9-0.5-0.8-1c0.4-1.2,0.4-2.1,0.2-2.9l-0.3-0.7l-1-0.8
					C3.9,23,3.2,16.3,5.3,11.3l0.1-0.2l-0.3,0c-0.6-0.1-1.2-0.4-1.6-0.8l-0.1-0.1l-0.1,0c-0.2,0.1-0.5,0.1-0.7,0.1
					c-0.3,0-0.6-0.1-0.8-0.3C0.3,8.9,0.1,7.3,0.4,6c0.2-0.6,0.4-1.2,0.7-1.6c0.3-0.4,0.6-0.8,1-1c0,0,0.1,0,0.1-0.1
					c0.4-0.2,0.9,0,1.1,0.4c0.2,0.3,0,0.7-0.2,1L2.9,4.7c0,0-0.2,0.2-0.5,0.5C2.3,5.6,2.1,6,2,6.4C1.8,7,1.8,7.7,2.2,8.3l0.2,0.3
					L2.4,8.3C2.2,7.4,2.4,6.5,3,5.9c0.3-0.3,0.7-0.4,1.1-0.4c0.4,0,0.7,0.1,1,0.3c0.6,0.4,0.9,1,0.8,1.6C5.8,8,5.5,8.5,5.2,8.9
					C5.1,9,5.1,9.1,5,9.2L4.8,9.3L5,9.4c0.3,0.1,0.6,0.1,0.9,0.1l0.3,0L6.5,9c0.3-0.5,0.7-1,1.1-1.4C11,4,17.2,2.4,23.4,3.3l0.7,0.1
					l0.1-0.2c1.5-2.2,4.3-3.5,6.7-3.1c0.4,0.1,0.7,0.5,0.6,0.9l-0.3,1.4l0.3-0.1c1.3-0.3,2.8-0.3,4,0.3c0.4,0.2,0.6,0.6,0.4,0.9
					c-0.4,1.2-0.9,2.4-1.7,3.6l-0.4,0.7l0.1,0.1c0.8,0.7,1.6,1.5,2.4,2.3l1.2,1.6l1.8,0.1c0.4,0,0.8,0.4,0.8,0.8v7.8
					c0,0.4-0.4,0.8-0.8,0.8h-2l-0.7,1.3c-0.9,1.4-2,2.7-3.5,3.8L32.1,27l-0.4,0.5c-0.9,1.1-0.6,2.3-0.2,3.7c0.1,0.5-0.3,1-0.8,1
					h-5.4c-0.4,0-0.8-0.3-0.8-0.8c0-2-1.7-3.2-3.7-3.2c-2,0-3.7,1.1-3.7,3.2c0,0.4-0.4,0.8-0.8,0.8H10.4z M27.9,4.5L27.9,4.5
					c0.4-0.5,0.9-0.9,1.5-1.3l0,0l0.4-1.6l-0.1,0c-1.1,0.1-2.3,0.7-3.3,1.5l-0.6,0.7L26.4,4c0.3,0.1,0.7,0.2,1,0.3L27.9,4.5z
					 M32.5,6.8l0.7-1c0.3-0.5,0.6-1.1,0.8-1.6l0.1-0.4l-0.1,0c-0.8-0.2-1.7-0.1-2.6,0.2c-0.6,0.2-1.1,0.4-1.5,0.7l-0.5,0.4l0.9,0.4
					c0.6,0.3,1.2,0.7,1.9,1.1L32.5,6.8z M4,7.9c0.2-0.3,0.3-0.5,0.3-0.6c0-0.1,0-0.1-0.1-0.1C4.1,7.1,4.1,7.1,4,7.1l0,0.1
					c0,0.1-0.1,0.2-0.1,0.4c0,0.1,0,0.2,0,0.2L4,7.9L4,7.9z M15.5,30.6l0-0.4c0.6-2.5,3-3.7,5.2-3.7c2.2,0,4.6,1.2,5.2,3.6l0,0.3
					h3.7l-0.1-0.3c-0.2-1.4-0.2-2.9,1.4-4.4c0,0,0.1-0.1,0.1-0.1c2.4-1.5,3.8-3.3,4.9-5.6c0.1-0.3,0.4-0.4,0.7-0.4h1.7v-6.3L37,13.3
					c-0.3,0-0.5-0.1-0.6-0.4C29.7,2.8,14.5,2.6,8.8,8.7c-4.2,4.5-4.4,13.8,1.8,17.8c0.1,0.1,0.2,0.2,0.3,0.3
					c0.5,1.1,0.7,2.2,0.5,3.5l-0.1,0.4H15.5z"/>
				<path class="st1" d="M33.3,13.6c-0.3,0-0.7-0.2-0.8-0.5c-0.1-0.3-0.2-0.4-0.3-0.5c0,0-0.1-0.1-0.2-0.1
					c-0.1,0-0.2,0-0.4,0c-0.4,0-0.8-0.3-0.8-0.8c0-0.4,0.4-0.8,0.8-0.8c0.3,0,0.6,0,0.9,0.1c0.3,0.1,0.5,0.2,0.7,0.4
					c0.4,0.3,0.6,0.8,0.7,1.2c0.1,0.4-0.1,0.8-0.5,1C33.5,13.6,33.4,13.6,33.3,13.6L33.3,13.6z"/>
				<path class="st1" d="M23.7,8c-0.1,0-0.1,0-0.2,0c-2.6-0.6-4.9-0.4-7.2,0c-0.4,0.1-0.8-0.2-0.9-0.6
					c-0.1-0.4,0.2-0.8,0.7-0.9c2.4-0.4,4.9-0.6,7.8,0c0.4,0.1,0.7,0.5,0.6,0.9C24.4,7.7,24.1,8,23.7,8L23.7,8z"/>
			</g>
		</g>
	</g>
</g>
</svg>
