<?xml version="1.0" encoding="UTF-8"?>
<svg width="59px" height="45px" viewBox="0 0 59 45" version="1.1" xmlns="http://www.w3.org/2000/svg" xmlns:xlink="http://www.w3.org/1999/xlink">
    <!-- Generator: sketchtool 46.2 (44496) - http://www.bohemiancoding.com/sketch -->
    <title>17FB9E63-6A9C-4D31-BA12-A2A5942F41E9</title>
    <desc>Created with sketchtool.</desc>
    <defs>
        <polygon id="path-1" points="58.7113636 44.9995909 58.7113636 1.03731818 0.00034182441 1.03731818 0.00034182441 44.9995909"></polygon>
    </defs>
    <g id="Desktop-design" stroke="none" stroke-width="1" fill="none" fill-rule="evenodd">
        <g id="Parkchester_HP_C1" transform="translate(-865.000000, -2326.000000)">
            <g id="Amenities-&amp;-Facilities" transform="translate(0.000000, 1692.000000)">
                <g id="icons" transform="translate(74.000000, 431.000000)">
                    <g id="Group" transform="translate(791.000000, 202.000000)">
                        <g id="parking">
                            <rect id="Background" x="0" y="0" width="60" height="46.3636364"></rect>
                            <g id="Page-1">
                                <path d="M12.5237727,24.3842727 L3.34104545,24.3842727 C2.87059091,24.3842727 2.48877273,24.7660909 2.48877273,25.2365455 C2.48877273,25.707 2.87059091,26.0888182 3.34104545,26.0888182 L12.5237727,26.0888182 C14.0074091,26.0888182 15.2155909,27.2956364 15.2155909,28.7806364 C15.2155909,29.1038182 14.9510455,29.367 14.6278636,29.367 L3.01922727,29.367 C2.54877273,29.367 2.16695455,29.7488182 2.16695455,30.2192727 C2.16695455,30.6897273 2.54877273,31.0715455 3.01922727,31.0715455 L14.6278636,31.0715455 C15.8919545,31.0715455 16.9201364,30.0433636 16.9201364,28.7806364 C16.9201364,26.3560909 14.9469545,24.3842727 12.5237727,24.3842727" id="Fill-1" fill="#BE913A"></path>
                                <path d="M55.6881818,29.3674091 L44.0795455,29.3674091 C43.7563636,29.3674091 43.4918182,29.1042273 43.4918182,28.7796818 C43.4918182,27.2960455 44.6986364,26.0892273 46.1836364,26.0892273 L55.3677273,26.0892273 C55.8381818,26.0892273 56.22,25.7074091 56.22,25.2369545 C56.22,24.7665 55.8381818,24.3846818 55.3677273,24.3846818 L46.1836364,24.3846818 C43.7590909,24.3846818 41.7872727,26.3565 41.7872727,28.7796818 C41.7872727,30.0437727 42.8154545,31.0719545 44.0795455,31.0719545 L55.6881818,31.0719545 C56.1586364,31.0719545 56.5404545,30.6901364 56.5404545,30.2196818 C56.5404545,29.7492273 56.1586364,29.3674091 55.6881818,29.3674091" id="Fill-3" fill="#BE913A"></path>
                                <path d="M35.8420909,34.6715455 L22.8643636,34.6715455 C22.3939091,34.6715455 22.0120909,35.0533636 22.0120909,35.5238182 C22.0120909,35.9942727 22.3939091,36.3760909 22.8643636,36.3760909 L35.8420909,36.3760909 C36.3125455,36.3760909 36.6943636,35.9942727 36.6943636,35.5238182 C36.6943636,35.0533636 36.3125455,34.6715455 35.8420909,34.6715455" id="Fill-5" fill="#BE913A"></path>
                                <path d="M22.0239545,27.7281818 C22.0239545,27.2577273 21.6421364,26.8759091 21.1716818,26.8759091 C20.7012273,26.8759091 20.3194091,27.2577273 20.3194091,27.7281818 L20.3194091,31.5136364 C20.3194091,31.9840909 20.7012273,32.3659091 21.1716818,32.3659091 C21.6421364,32.3659091 22.0239545,31.9840909 22.0239545,31.5136364 L22.0239545,27.7281818 Z" id="Fill-7" fill="#BE913A"></path>
                                <path d="M25.2625909,32.3656364 C25.7330455,32.3656364 26.1148636,31.9838182 26.1148636,31.5133636 L26.1148636,27.7279091 C26.1148636,27.2574545 25.7330455,26.8756364 25.2625909,26.8756364 C24.7921364,26.8756364 24.4103182,27.2574545 24.4103182,27.7279091 L24.4103182,31.5133636 C24.4103182,31.9838182 24.7921364,32.3656364 25.2625909,32.3656364" id="Fill-9" fill="#BE913A"></path>
                                <path d="M29.3535,32.3656364 C29.8239545,32.3656364 30.2057727,31.9838182 30.2057727,31.5133636 L30.2057727,27.7279091 C30.2057727,27.2574545 29.8239545,26.8756364 29.3535,26.8756364 C28.8830455,26.8756364 28.5012273,27.2574545 28.5012273,27.7279091 L28.5012273,31.5133636 C28.5012273,31.9838182 28.8830455,32.3656364 29.3535,32.3656364" id="Fill-11" fill="#BE913A"></path>
                                <path d="M33.4444091,32.3656364 C33.9148636,32.3656364 34.2966818,31.9838182 34.2966818,31.5133636 L34.2966818,27.7279091 C34.2966818,27.2574545 33.9148636,26.8756364 33.4444091,26.8756364 C32.9739545,26.8756364 32.5921364,27.2574545 32.5921364,27.7279091 L32.5921364,31.5133636 C32.5921364,31.9838182 32.9739545,32.3656364 33.4444091,32.3656364" id="Fill-13" fill="#BE913A"></path>
                                <path d="M37.5353182,26.8759091 C37.0648636,26.8759091 36.6830455,27.2577273 36.6830455,27.7281818 L36.6830455,31.5136364 C36.6830455,31.9840909 37.0648636,32.3659091 37.5353182,32.3659091 C38.0057727,32.3659091 38.3875909,31.9840909 38.3875909,31.5136364 L38.3875909,27.7281818 C38.3875909,27.2577273 38.0057727,26.8759091 37.5353182,26.8759091" id="Fill-15" fill="#BE913A"></path>
                                <g id="Group-19" transform="translate(0.000000, 0.326864)">
                                    <mask id="mask-2" fill="white">
                                        <use xlink:href="#path-1"></use>
                                    </mask>
                                    <g id="Clip-18"></g>
                                    <path d="M56.565,16.0700455 C56.5227273,16.2255 56.3809091,16.3332273 56.22,16.3332273 L53.5090909,16.3332273 L52.6322727,14.0559545 L56.6468182,14.0559545 C56.8022727,14.0559545 56.8922727,14.1432273 56.9331818,14.1964091 C56.9727273,14.2495909 57.0340909,14.3600455 56.9931818,14.5086818 L56.565,16.0700455 Z M54.1186364,41.9450455 C54.1186364,42.6895909 53.5118182,43.2950455 52.7672727,43.2950455 L47.8309091,43.2950455 C47.0863636,43.2950455 46.4795455,42.6895909 46.4795455,41.9450455 L46.4795455,40.0536818 L52.4236364,40.0536818 C52.7181818,40.0536818 53.0031818,40.0209545 53.28,39.9609545 C53.3318182,39.9500455 53.3795455,39.9282273 53.43,39.9145909 C53.6577273,39.8573182 53.8813636,39.7877727 54.0913636,39.6936818 C54.1009091,39.6895909 54.1090909,39.6882273 54.1186364,39.6841364 L54.1186364,41.9450455 Z M12.2277273,41.9450455 C12.2277273,42.6895909 11.6222727,43.2950455 10.8763636,43.2950455 L5.94,43.2950455 C5.19545455,43.2950455 4.59,42.6895909 4.59,41.9450455 L4.59,39.6841364 C4.59818182,39.6882273 4.60636364,39.6895909 4.61454545,39.6923182 C4.82727273,39.7877727 5.05227273,39.8586818 5.28272727,39.9159545 C5.33045455,39.9295909 5.37681818,39.9514091 5.42590909,39.9609545 C5.70272727,40.0209545 5.98909091,40.0536818 6.28363636,40.0536818 L12.2277273,40.0536818 L12.2277273,41.9450455 Z M2.49272727,16.3332273 C2.33181818,16.3332273 2.18863636,16.2241364 2.14636364,16.0686818 L1.71818182,14.5086818 C1.67727273,14.3600455 1.73863636,14.2495909 1.77954545,14.1964091 C1.81909091,14.1432273 1.90909091,14.0559545 2.06454545,14.0559545 L6.07909091,14.0559545 L5.20227273,16.3332273 L2.49272727,16.3332273 Z M54.8359091,35.9368636 C54.8359091,36.4973182 54.6368182,37.0073182 54.315,37.4164091 C54.3109091,37.4205 54.3068182,37.4232273 54.3027273,37.4273182 C54.1868182,37.5732273 54.0572727,37.7027727 53.9168182,37.8173182 C53.9154545,37.8173182 53.9154545,37.8186818 53.9140909,37.8200455 C53.7818182,37.9250455 53.64,38.0136818 53.4913636,38.0886818 C53.4763636,38.0968636 53.4613636,38.1064091 53.4463636,38.1132273 C53.31,38.1786818 53.1681818,38.2264091 53.0222727,38.2659545 C52.995,38.2727727 52.9718182,38.2836818 52.9445455,38.2891364 C52.7740909,38.3286818 52.6009091,38.3491364 52.4236364,38.3491364 L45.6272727,38.3491364 L13.08,38.3491364 L6.28363636,38.3491364 C6.10636364,38.3491364 5.93181818,38.3286818 5.76272727,38.2891364 C5.73681818,38.2836818 5.71227273,38.2727727 5.68636364,38.2659545 C5.54045455,38.2277727 5.39590909,38.1786818 5.25954545,38.1132273 C5.24590909,38.1064091 5.23227273,38.0982273 5.21863636,38.0914091 C4.90909091,37.9345909 4.63090909,37.7109545 4.40454545,37.4273182 C4.39909091,37.4205 4.39227273,37.4177727 4.38818182,37.4109545 C4.06909091,37.0018636 3.87136364,36.4945909 3.87136364,35.9368636 L3.87136364,28.8077727 C3.87136364,26.1923182 4.33090909,23.6286818 5.19954545,21.1686818 C13.2163636,22.1177727 21.285,22.6018636 29.3536364,22.6018636 C37.4222727,22.6018636 45.4909091,22.1177727 53.5063636,21.1686818 C54.3763636,23.6273182 54.8359091,26.1909545 54.8359091,28.8077727 L54.8359091,35.9368636 Z M10.4727273,7.38231818 C11.5404545,4.60595455 14.2568182,2.74186364 17.2309091,2.74186364 L41.4763636,2.74186364 C44.4504545,2.74186364 47.1668182,4.60595455 48.2345455,7.38231818 L52.9036364,19.5186818 C37.2695455,21.3377727 21.4377273,21.3377727 5.80363636,19.5186818 L6.58227273,17.4936818 C6.58227273,17.4936818 6.58363636,17.4923182 6.58363636,17.4923182 L8.11636364,13.5091364 C8.11636364,13.5091364 8.11636364,13.5091364 8.11636364,13.5077727 L10.4727273,7.38231818 Z M58.2872727,13.1627727 C57.8945455,12.6459545 57.2959091,12.3514091 56.6468182,12.3514091 L51.9736364,12.3514091 L49.8259091,6.77004545 C48.5059091,3.3405 45.15,1.03731818 41.4763636,1.03731818 L17.2309091,1.03731818 C13.5559091,1.03731818 10.2013636,3.3405 8.88136364,6.77004545 L6.735,12.3514091 L2.06454545,12.3514091 C1.41545455,12.3514091 0.818181818,12.6459545 0.424090909,13.1627727 C0.0313636364,13.6782273 -0.0968181818,14.3341364 0.075,14.9600455 L0.501818182,16.5200455 C0.747272727,17.4132273 1.56545455,18.0377727 2.49272727,18.0377727 L4.54636364,18.0377727 L3.81272727,19.9414091 C2.72045455,22.7832273 2.16681818,25.7655 2.16681818,28.8077727 L2.16681818,35.9368636 C2.16681818,36.7973182 2.43272727,37.5936818 2.88545455,38.2550455 L2.88545455,41.9450455 C2.88545455,43.6291364 4.25590909,44.9995909 5.94,44.9995909 L10.8763636,44.9995909 C12.5604545,44.9995909 13.9322727,43.6291364 13.9322727,41.9450455 L13.9322727,40.0536818 L44.775,40.0536818 L44.775,41.9450455 C44.775,43.6291364 46.1454545,44.9995909 47.8309091,44.9995909 L52.7672727,44.9995909 C54.4513636,44.9995909 55.8231818,43.6291364 55.8231818,41.9450455 L55.8231818,38.2536818 C56.2745455,37.5936818 56.5404545,36.7959545 56.5404545,35.9368636 L56.5404545,28.8077727 C56.5404545,25.7641364 55.9868182,22.7805 54.8931818,19.9414091 L54.1609091,18.0377727 L56.22,18.0377727 C57.1472727,18.0377727 57.9654545,17.4132273 58.2095455,16.5200455 L58.6377273,14.9600455 C58.8081818,14.3341364 58.6813636,13.6782273 58.2872727,13.1627727 L58.2872727,13.1627727 Z" id="Fill-17" fill="#060707" mask="url(#mask-2)"></path>
                                </g>
                            </g>
                        </g>
                    </g>
                </g>
            </g>
        </g>
    </g>
</svg>