<?xml version="1.0" encoding="UTF-8"?>
<svg width="51px" height="50px" viewBox="0 0 51 50" version="1.1" xmlns="http://www.w3.org/2000/svg" xmlns:xlink="http://www.w3.org/1999/xlink">
    <!-- Generator: sketchtool 46.2 (44496) - http://www.bohemiancoding.com/sketch -->
    <title>A8338451-D7F0-47A1-A7E0-5E525FAAB503</title>
    <desc>Created with sketchtool.</desc>
    <defs>
        <polygon id="path-1" points="0 49.9648837 50.0918605 49.9648837 50.0918605 -0.00023255814 0 -0.00023255814"></polygon>
    </defs>
    <g id="Desktop-design" stroke="none" stroke-width="1" fill="none" fill-rule="evenodd">
        <g id="Parkchester_HP_C1" transform="translate(-74.000000, -2223.000000)">
            <g id="Amenities-&amp;-Facilities" transform="translate(0.000000, 1692.000000)">
                <g id="icons" transform="translate(74.000000, 431.000000)">
                    <g id="Group" transform="translate(0.000000, 100.000000)">
                        <g id="post-office">
                            <rect id="Background" x="0" y="0" width="51.1627907" height="50"></rect>
                            <g id="Page-1">
                                <path d="M4.05383721,16.6311628 C4.12709302,16.6311628 4.18755814,16.5706977 4.18755814,16.4974419 L4.18755814,16.0602326 C4.18755814,15.9869767 4.12709302,15.9276744 4.05383721,15.9276744 L3.85383721,15.9276744 L3.85383721,16.6311628 L4.05383721,16.6311628 Z M4.05383721,15.0393023 C4.61662791,15.0393023 5.07593023,15.4962791 5.07593023,16.0602326 L5.07593023,16.4974419 C5.07593023,17.0602326 4.61662791,17.5195349 4.05383721,17.5195349 L3.85383721,17.5195349 L3.85383721,19.0660465 C3.85383721,19.3113953 3.655,19.5102326 3.40965116,19.5102326 C3.16430233,19.5102326 2.96546512,19.3113953 2.96546512,19.0660465 L2.96546512,15.4834884 C2.96546512,15.2381395 3.16430233,15.0393023 3.40965116,15.0393023 L4.05383721,15.0393023 Z" id="Fill-1" fill="#BE913A"></path>
                                <path d="M6.58837209,16.0905814 L6.58837209,18.4580233 C6.58837209,18.5475581 6.51395349,18.6219767 6.41627907,18.6219767 C6.32674419,18.6219767 6.25348837,18.5475581 6.25348837,18.4580233 L6.25348837,16.0905814 C6.25348837,15.9987209 6.32790698,15.9266279 6.42325581,15.9266279 C6.51395349,15.9266279 6.58837209,16.0010465 6.58837209,16.0905814 M6.41627907,15.0394186 C5.8372093,15.0394186 5.36511628,15.5103488 5.36511628,16.0905814 L5.36511628,18.4580233 C5.36511628,19.0382558 5.8372093,19.509186 6.42325581,19.509186 C7.00348837,19.509186 7.4755814,19.0382558 7.4755814,18.4580233 L7.4755814,16.0905814 C7.4755814,15.5103488 7,15.0394186 6.41627907,15.0394186" id="Fill-3" fill="#BE913A"></path>
                                <path d="M8.82081395,15.0390698 C8.2394186,15.0390698 7.76616279,15.5123256 7.76616279,16.0937209 L7.76616279,16.5506977 C7.76616279,17.0844186 8.20104651,17.5193023 8.73476744,17.5193023 L8.94988372,17.5193023 C8.97081395,17.5193023 8.98825581,17.5355814 8.98825581,17.5565116 L8.98825581,18.4553488 C8.98825581,18.5472093 8.91267442,18.6216279 8.82081395,18.6216279 C8.72895349,18.6216279 8.65453488,18.5472093 8.65453488,18.4553488 L8.65453488,18.3681395 C8.65453488,18.1227907 8.45569767,17.9239535 8.21034884,17.9239535 C7.965,17.9239535 7.76616279,18.1227907 7.76616279,18.3681395 L7.76616279,18.4553488 C7.76616279,19.0367442 8.2394186,19.51 8.82081395,19.51 C9.4022093,19.51 9.87546512,19.0367442 9.87546512,18.4553488 L9.87546512,17.5565116 C9.87546512,17.0472093 9.46151163,16.6309302 8.94988372,16.6309302 L8.73476744,16.6309302 C8.6905814,16.6309302 8.65453488,16.5948837 8.65453488,16.5506977 L8.65453488,16.0937209 C8.65453488,16.0018605 8.72895349,15.9274419 8.82081395,15.9274419 C8.91267442,15.9274419 8.98825581,16.0018605 8.98825581,16.0937209 L8.98825581,16.1797674 C8.98825581,16.4251163 9.18709302,16.6239535 9.43127907,16.6239535 C9.67662791,16.6239535 9.87546512,16.4251163 9.87546512,16.1797674 L9.87546512,16.0937209 C9.87546512,15.5123256 9.4022093,15.0390698 8.82081395,15.0390698" id="Fill-5" fill="#BE913A"></path>
                                <path d="M11.8311628,15.0390698 L10.6090698,15.0390698 C10.3637209,15.0390698 10.1648837,15.237907 10.1648837,15.4832558 C10.1648837,15.7286047 10.3637209,15.9274419 10.6090698,15.9274419 L10.7765116,15.9274419 L10.7765116,19.065814 C10.7765116,19.3111628 10.9753488,19.51 11.2206977,19.51 C11.4660465,19.51 11.6637209,19.3111628 11.6637209,19.065814 L11.6637209,15.9274419 L11.8311628,15.9274419 C12.0765116,15.9274419 12.2753488,15.7286047 12.2753488,15.4832558 C12.2753488,15.237907 12.0765116,15.0390698 11.8311628,15.0390698" id="Fill-7" fill="#BE913A"></path>
                                <path d="M15.2206977,16.0905814 L15.2206977,18.4580233 C15.2206977,18.5475581 15.1474419,18.6219767 15.0497674,18.6219767 C14.9590698,18.6219767 14.885814,18.5475581 14.885814,18.4580233 L14.885814,16.0905814 C14.885814,15.9987209 14.9602326,15.9266279 15.0555814,15.9266279 C15.1474419,15.9266279 15.2206977,16.0010465 15.2206977,16.0905814 M15.0497674,15.0394186 C14.4695349,15.0394186 13.9974419,15.5103488 13.9974419,16.0905814 L13.9974419,18.4580233 C13.9974419,19.0382558 14.4695349,19.509186 15.0555814,19.509186 C15.635814,19.509186 16.107907,19.0382558 16.107907,18.4580233 L16.107907,16.0905814 C16.107907,15.5103488 15.6323256,15.0394186 15.0497674,15.0394186" id="Fill-9" fill="#BE913A"></path>
                                <path d="M18.064186,15.0390698 L16.842093,15.0390698 C16.5967442,15.0390698 16.397907,15.237907 16.397907,15.4832558 L16.397907,19.065814 C16.397907,19.3111628 16.5967442,19.51 16.842093,19.51 C17.0874419,19.51 17.2862791,19.3111628 17.2862791,19.065814 L17.2862791,17.5193023 L17.7548837,17.5193023 C17.9990698,17.5193023 18.197907,17.3204651 18.197907,17.0751163 C18.197907,16.8297674 17.9990698,16.6309302 17.7548837,16.6309302 L17.2862791,16.6309302 L17.2862791,15.9274419 L18.064186,15.9274419 C18.3095349,15.9274419 18.5083721,15.7286047 18.5083721,15.4832558 C18.5083721,15.237907 18.3095349,15.0390698 18.064186,15.0390698" id="Fill-11" fill="#BE913A"></path>
                                <path d="M20.4634884,15.0390698 L19.2413953,15.0390698 C18.9960465,15.0390698 18.7972093,15.237907 18.7972093,15.4832558 L18.7972093,19.065814 C18.7972093,19.3111628 18.9960465,19.51 19.2413953,19.51 C19.4867442,19.51 19.6855814,19.3111628 19.6855814,19.065814 L19.6855814,17.5193023 L20.154186,17.5193023 C20.3995349,17.5193023 20.5983721,17.3204651 20.5983721,17.0751163 C20.5983721,16.8297674 20.3995349,16.6309302 20.154186,16.6309302 L19.6855814,16.6309302 L19.6855814,15.9274419 L20.4634884,15.9274419 C20.7088372,15.9274419 20.9076744,15.7286047 20.9076744,15.4832558 C20.9076744,15.237907 20.7088372,15.0390698 20.4634884,15.0390698" id="Fill-13" fill="#BE913A"></path>
                                <path d="M21.6422093,15.0390698 C21.3968605,15.0390698 21.1980233,15.237907 21.1980233,15.4832558 L21.1980233,19.065814 C21.1980233,19.3111628 21.3968605,19.51 21.6422093,19.51 C21.8875581,19.51 22.0863953,19.3111628 22.0863953,19.065814 L22.0863953,15.4832558 C22.0863953,15.237907 21.8875581,15.0390698 21.6422093,15.0390698" id="Fill-15" fill="#BE913A"></path>
                                <path d="M23.4340698,15.0390698 C22.8526744,15.0390698 22.3794186,15.5123256 22.3794186,16.0937209 L22.3794186,18.4553488 C22.3794186,19.0367442 22.8526744,19.51 23.4340698,19.51 C24.0154651,19.51 24.4887209,19.0367442 24.4887209,18.4553488 L24.4887209,18.3681395 C24.4887209,18.1227907 24.2898837,17.9239535 24.0445349,17.9239535 C23.799186,17.9239535 23.6015116,18.1227907 23.6015116,18.3681395 L23.6015116,18.4553488 C23.6015116,18.5472093 23.5259302,18.6216279 23.4340698,18.6216279 C23.3422093,18.6216279 23.2677907,18.5472093 23.2677907,18.4553488 L23.2677907,16.0937209 C23.2677907,16.0018605 23.3422093,15.9274419 23.4340698,15.9274419 C23.5259302,15.9274419 23.6015116,16.0018605 23.6015116,16.0937209 L23.6015116,16.1797674 C23.6015116,16.4251163 23.799186,16.6239535 24.0445349,16.6239535 C24.2898837,16.6239535 24.4887209,16.4251163 24.4887209,16.1797674 L24.4887209,16.0937209 C24.4887209,15.5123256 24.0154651,15.0390698 23.4340698,15.0390698" id="Fill-17" fill="#BE913A"></path>
                                <path d="M26.4444186,15.927093 C26.6897674,15.927093 26.8886047,15.7282558 26.8886047,15.482907 C26.8886047,15.2375581 26.6897674,15.0387209 26.4444186,15.0387209 L25.2223256,15.0387209 C24.9769767,15.0387209 24.7781395,15.2375581 24.7781395,15.482907 L24.7781395,19.0654651 C24.7781395,19.310814 24.9769767,19.5096512 25.2223256,19.5096512 L26.4444186,19.5096512 C26.6897674,19.5096512 26.8886047,19.310814 26.8886047,19.0654651 C26.8886047,18.8201163 26.6897674,18.6212791 26.4444186,18.6212791 L25.6665116,18.6212791 L25.6665116,17.5189535 L26.1351163,17.5189535 C26.3804651,17.5189535 26.5793023,17.3201163 26.5793023,17.0747674 C26.5793023,16.8294186 26.3804651,16.6305814 26.1351163,16.6305814 L25.6665116,16.6305814 L25.6665116,15.927093 L26.4444186,15.927093 Z" id="Fill-19" fill="#BE913A"></path>
                                <mask id="mask-2" fill="white">
                                    <use xlink:href="#path-1"></use>
                                </mask>
                                <g id="Clip-22"></g>
                                <path d="M17.0186047,42.7927907 L22.1639535,42.7927907 L22.1639535,32.3695349 L17.0186047,32.3695349 L17.0186047,42.7927907 Z M10.4209302,42.7927907 L15.5651163,42.7927907 L15.5651163,32.3695349 L10.4209302,32.3695349 L10.4209302,42.7927907 Z M10.4209302,30.9160465 L22.1639535,30.9160465 L22.1639535,26.7788372 L10.4209302,26.7788372 L10.4209302,30.9160465 Z M22.8906977,25.3265116 L9.69418605,25.3265116 C9.29302326,25.3265116 8.96744186,25.652093 8.96744186,26.0532558 L8.96744186,43.5195349 C8.96744186,43.9206977 9.29302326,44.2462791 9.69418605,44.2462791 L22.8906977,44.2462791 C23.2906977,44.2462791 23.6174419,43.9206977 23.6174419,43.5195349 L23.6174419,26.0532558 C23.6174419,25.652093 23.2906977,25.3265116 22.8906977,25.3265116 L22.8906977,25.3265116 Z" id="Fill-21" fill="#BE913A" mask="url(#mask-2)"></path>
                                <path d="M38.537907,35.9466279 C38.1367442,35.9466279 37.8111628,36.2722093 37.8111628,36.6733721 L37.8111628,38.6175581 C37.8111628,39.0187209 38.1367442,39.3443023 38.537907,39.3443023 C38.9390698,39.3443023 39.2646512,39.0187209 39.2646512,38.6175581 L39.2646512,36.6733721 C39.2646512,36.2722093 38.9390698,35.9466279 38.537907,35.9466279" id="Fill-23" fill="#BE913A" mask="url(#mask-2)"></path>
                                <path d="M44.3268605,48.5113953 L41.862907,48.5113953 L41.862907,26.052093 C41.862907,25.652093 41.5373256,25.3253488 41.1361628,25.3253488 L28.3361628,25.3253488 C27.935,25.3253488 27.6094186,25.652093 27.6094186,26.052093 L27.6094186,48.5113953 L5.69546512,48.5113953 L5.69546512,22.5881395 L44.3268605,22.5881395 L44.3268605,48.5113953 Z M29.062907,48.5113953 L40.4094186,48.5113953 L40.4094186,26.7788372 L29.062907,26.7788372 L29.062907,48.5113953 Z M48.6303488,13.8567442 L48.5745349,21.1346512 L45.0536047,21.1346512 L1.45360465,21.1346512 L1.45360465,13.5823256 L28.179186,13.5823256 L27.7105814,12.1288372 L0.726860465,12.1288372 C0.325697674,12.1288372 0.00011627907,12.4544186 0.00011627907,12.8555814 L0.00011627907,21.8613953 C0.00011627907,22.2625581 0.325697674,22.5881395 0.726860465,22.5881395 L4.24197674,22.5881395 L4.24197674,49.2381395 C4.24197674,49.6393023 4.56872093,49.9648837 4.96872093,49.9648837 L28.3361628,49.9648837 L41.1361628,49.9648837 L45.0536047,49.9648837 C45.4547674,49.9648837 45.7803488,49.6393023 45.7803488,49.2381395 L45.7803488,22.5881395 L49.2954651,22.5881395 C49.6954651,22.5881395 50.0198837,22.2660465 50.0222093,21.8672093 L50.0919767,12.8613953 C50.0943023,12.6474419 50.0001163,12.4602326 49.8547674,12.3265116 C49.8931395,13.2183721 48.6303488,13.8567442 48.6303488,13.8567442 L48.6303488,13.8567442 Z" id="Fill-24" fill="#060707" mask="url(#mask-2)"></path>
                                <path d="M48.3387209,12.4239535 L31.2352326,17.9402326 C31.1736047,17.9576744 31.1084884,17.9274419 31.0875581,17.865814 L27.805,7.69023256 L37.4515116,11.0088372 C37.6154651,11.0646512 37.7863953,11.0913953 37.955,11.0913953 C38.4561628,11.0913953 38.9445349,10.8518605 39.2445349,10.4297674 L45.132907,2.10186047 L48.4131395,12.2751163 C48.4305814,12.3286047 48.3910465,12.4065116 48.3387209,12.4239535 L48.3387209,12.4239535 Z M43.5259302,1.85534884 L38.0573256,9.58906977 C38.0259302,9.6344186 37.9724419,9.65186047 37.9224419,9.6344186 L28.9654651,6.55302326 L43.5259302,1.85534884 Z M46.3294186,1.07627907 C46.2073256,0.698372093 45.9445349,0.394883721 45.6015116,0.200697674 C45.5980233,0.198372093 45.5968605,0.194883721 45.5933721,0.19255814 C45.5910465,0.190232558 45.5887209,0.190232558 45.5863953,0.189069767 C45.5724419,0.180930233 45.5643023,0.166976744 45.5503488,0.16 C45.5224419,0.146046512 45.4922093,0.148372093 45.4643023,0.135581395 C45.3933721,0.104186047 45.3236047,0.0820930233 45.2503488,0.0739534884 C44.9538372,-0.00976744186 44.6468605,-0.0341860465 44.3515116,0.0623255814 L27.2480233,5.57976744 C26.9503488,5.67627907 26.7154651,5.87511628 26.5247674,6.11465116 C26.4712791,6.16348837 26.4294186,6.22046512 26.3910465,6.2844186 C26.3747674,6.31232558 26.3468605,6.32976744 26.3317442,6.35883721 C26.3236047,6.37511628 26.3247674,6.39372093 26.3177907,6.41 C26.3177907,6.41 26.3177907,6.41 26.3177907,6.41 L26.3166279,6.41116279 C26.1480233,6.7727907 26.1131395,7.17627907 26.2352326,7.55767442 L27.710814,12.1286047 L28.1794186,13.582093 L29.705,18.31 C29.832907,18.71 30.1096512,19.0367442 30.4817442,19.2274419 C30.7073256,19.3413953 30.9515116,19.4006977 31.1968605,19.4006977 C31.3584884,19.4006977 31.5212791,19.3739535 31.6805814,19.3239535 L48.6305814,13.8565116 C48.6305814,13.8565116 49.8933721,13.2193023 49.855,12.3262791 C49.8561628,12.16 49.849186,11.9925581 49.7968605,11.8297674 L46.3294186,1.07627907 Z" id="Fill-25" fill="#BE913A" mask="url(#mask-2)"></path>
                            </g>
                        </g>
                    </g>
                </g>
            </g>
        </g>
    </g>
</svg>