<?xml version="1.0" encoding="utf-8"?>
<!-- Generator: Adobe Illustrator 19.2.1, SVG Export Plug-In . SVG Version: 6.00 Build 0)  -->
<svg version="1.1" id="Layer_1" xmlns="http://www.w3.org/2000/svg" xmlns:xlink="http://www.w3.org/1999/xlink" x="0px" y="0px"
	 viewBox="0 0 50 50" style="enable-background:new 0 0 50 50;" xml:space="preserve">
<style type="text/css">
	.st0{fill:#060707;}
	.st1{fill:#BE913A;}
</style>
<title>Premier Service</title>
<desc>Created with Sketch.</desc>
<g id="Desktop-design">
	<g id="Parkchester_About-Us" transform="translate(-75.000000, -2422.000000)">
		<g id="Our-Commitment" transform="translate(75.000000, 2348.000000)">
			<g id="Group" transform="translate(0.000000, 74.000000)">
				<g id="Premier-Service">
					<g>
						<g id="Group-3" transform="translate(0.000000, 4.000000)">
							<path id="Fill-1" class="st0" d="M6.7,39.8H2.6c-0.6,0-1.1-0.5-1.1-1.1V3.3c0-0.6,0.5-1.1,1.1-1.1h4.1V39.8z M7.4,0.8H2.6
								C1.1,0.8,0,1.9,0,3.3v35.4c0,1.4,1.1,2.5,2.6,2.5h4.9c0.4,0,0.7-0.3,0.7-0.7v-39C8.1,1.1,7.8,0.8,7.4,0.8L7.4,0.8z"/>
						</g>
						<path id="Fill-4" class="st0" d="M48.5,42.7c0,0.6-0.5,1.1-1.1,1.1h-4.1V6.2h4.1c0.6,0,1.1,0.5,1.1,1.1V42.7z M47.4,4.8h-4.9
							c-0.4,0-0.7,0.3-0.7,0.7v39c0,0.4,0.3,0.7,0.7,0.7h4.9c1.4,0,2.6-1.1,2.6-2.5V7.3C50,5.9,48.9,4.8,47.4,4.8L47.4,4.8z"/>
						<path id="Fill-6" class="st0" d="M12.9,39.4h14.6c0.4,0,0.7-0.3,0.7-0.7c0-0.4-0.3-0.7-0.7-0.7H12.9c-0.4,0-0.7,0.3-0.7,0.7
							C12.2,39.1,12.5,39.4,12.9,39.4"/>
						<path id="Fill-8" class="st0" d="M30.7,39.4h6.4c0.4,0,0.7-0.3,0.7-0.7c0-0.4-0.3-0.7-0.7-0.7h-6.4c-0.4,0-0.7,0.3-0.7,0.7
							C29.9,39.1,30.3,39.4,30.7,39.4"/>
						<path id="Fill-10" class="st0" d="M37.1,40.9H22.5c-0.4,0-0.7,0.3-0.7,0.7c0,0.4,0.3,0.7,0.7,0.7h14.6c0.4,0,0.7-0.3,0.7-0.7
							C37.8,41.2,37.5,40.9,37.1,40.9"/>
						<path id="Fill-12" class="st0" d="M12.9,42.4h6.4c0.4,0,0.7-0.3,0.7-0.7c0-0.4-0.3-0.7-0.7-0.7h-6.4c-0.4,0-0.7,0.3-0.7,0.7
							C12.2,42,12.5,42.4,12.9,42.4"/>
						<path id="Fill-14" class="st0" d="M37.1,44l-24.2-0.1h0c-0.4,0-0.7,0.3-0.7,0.7c0,0.4,0.3,0.7,0.7,0.7l24.2,0.1h0
							c0.4,0,0.7-0.3,0.7-0.7C37.8,44.3,37.5,44,37.1,44"/>
						<path id="Fill-16" class="st1" d="M27.4,25.6c0.3-0.2,0.4-0.7,0.2-1c-0.2-0.3-0.7-0.4-1-0.2c-1,0.6-2.4,0.6-3.5,0
							c-0.3-0.2-0.8-0.1-1,0.2c-0.2,0.3-0.1,0.8,0.2,1c0.8,0.5,1.6,0.7,2.5,0.7C25.8,26.3,26.6,26,27.4,25.6"/>
						<path id="Fill-18" class="st1" d="M20.9,18.8c-0.4,0-0.7,0.3-0.7,0.7v1.4c0,0.4,0.3,0.7,0.7,0.7c0.4,0,0.7-0.3,0.7-0.7v-1.4
							C21.6,19.1,21.3,18.8,20.9,18.8"/>
						<path id="Fill-20" class="st1" d="M28.9,21.6c0.4,0,0.7-0.3,0.7-0.7v-1.4c0-0.4-0.3-0.7-0.7-0.7c-0.4,0-0.7,0.3-0.7,0.7v1.4
							C28.2,21.3,28.5,21.6,28.9,21.6"/>
						<path id="Fill-22" class="st1" d="M13.9,33.9c0.4-1,1.3-1.8,2.3-2.1l4.8-1.4c1.2,0.9,2.6,1.4,4,1.4c1.4,0,2.9-0.5,4-1.4
							l4.8,1.4c1.1,0.3,1.9,1.1,2.3,2.1H13.9z M24.7,29.3h0.5c1,0,2-0.2,2.8-0.5l0.1,0.7c-1.8,1.4-4.4,1.4-6.2,0l0.1-0.6
							C22.8,29.1,23.7,29.3,24.7,29.3L24.7,29.3z M18.1,21.4V17c0-0.9,0.2-1.8,0.6-2.6c2.3,1.4,4.6,2,7.2,1.8c0.2,0,0.5-0.2,0.6-0.4
							c0.1-0.2,0.1-0.5,0-0.7l-0.6-1.2c1.7,0.6,3.6,0.9,5.2,0.3c0.4,0.9,0.6,1.8,0.6,2.8v4.4c0,2.5-1.4,4.6-3.4,5.7
							c-0.1,0-0.1,0-0.1,0.1c-0.9,0.5-1.9,0.7-3,0.7h-0.5C21,27.8,18.1,24.9,18.1,21.4L18.1,21.4z M24.9,6.5c4.6,0,9.3,2.4,9.3,7.8
							c0,1.5-0.4,2.9-1,4.2V17c0-1.5-0.4-2.9-1.2-4.1c-0.2-0.3-0.7-0.4-1-0.2c-1.4,0.8-3.3,0.6-6.4-0.8c-0.3-0.1-0.6-0.1-0.8,0.2
							c-0.2,0.2-0.3,0.6-0.1,0.8l1,1.9c-2-0.1-3.8-0.7-5.8-2c-0.2-0.1-0.4-0.2-0.6-0.1c-0.2,0-0.4,0.2-0.5,0.3
							c-0.7,1.2-1.1,2.6-1.1,4v1.3c-0.5-1.4-0.8-2.7-0.8-4C15.9,9.5,19.4,6.5,24.9,6.5L24.9,6.5z M34.2,30.5l-4.7-1.3l-0.2-1.1
							c2.2-1.4,3.7-3.8,3.8-6.5c1.5-2.4,2.5-4.6,2.5-7.3c0-5.6-4.3-9.3-10.7-9.3c-6.3,0-10.5,3.7-10.5,9.3c0,2.3,0.7,4.6,2.3,7.3
							c0.1,2.8,1.7,5.3,4,6.6l-0.2,0.9l-4.7,1.3c-1.9,0.5-3.3,2.1-3.6,4.1c0,0.2,0,0.4,0.2,0.6c0.1,0.2,0.3,0.3,0.6,0.3h24.2
							c0.2,0,0.4-0.1,0.6-0.3c0.1-0.2,0.2-0.4,0.2-0.6C37.5,32.6,36.1,31,34.2,30.5L34.2,30.5z"/>
						<path id="Fill-24" class="st1" d="M41.9,47.5c0,0.6-0.5,1.1-1.1,1.1H9.2c-0.6,0-1.1-0.5-1.1-1.1V2.5c0-0.6,0.5-1.1,1.1-1.1
							h31.5c0.6,0,1.1,0.5,1.1,1.1V47.5z M40.8,0H9.2C7.8,0,6.7,1.1,6.7,2.5v44.9c0,1.4,1.1,2.5,2.6,2.5h31.5c1.4,0,2.6-1.1,2.6-2.5
							V2.5C43.3,1.1,42.2,0,40.8,0L40.8,0z"/>
					</g>
				</g>
			</g>
		</g>
	</g>
</g>
</svg>
