<?xml version="1.0" encoding="utf-8"?>
<!-- Generator: Adobe Illustrator 19.2.1, SVG Export Plug-In . SVG Version: 6.00 Build 0)  -->
<svg version="1.1" id="Layer_1" xmlns="http://www.w3.org/2000/svg" xmlns:xlink="http://www.w3.org/1999/xlink" x="0px" y="0px"
	 viewBox="0 0 50 50" style="enable-background:new 0 0 50 50;" xml:space="preserve">
<style type="text/css">
	.st0{fill:#BE913A;}
	.st1{filter:url(#Adobe_OpacityMaskFilter);}
	.st2{fill:#FFFFFF;}
	.st3{mask:url(#mask-2);fill:#060707;}
	.st4{fill:#060707;}
</style>
<title>Quick Response</title>
<desc>Created with Sketch.</desc>
<g id="Desktop-design">
	<g id="Parkchester_About-Us" transform="translate(-375.000000, -2422.000000)">
		<g id="Our-Commitment" transform="translate(75.000000, 2348.000000)">
			<g id="Group" transform="translate(300.000000, 74.000000)">
				<g id="Quick-Response">
					<g>
						<path id="Fill-1" class="st0" d="M25,21.5c2.1,0,3.9,2.2,3.9,4.7c0,2.7-0.2,4-3.9,4s-3.9-1.3-3.9-4
							C21.1,23.6,22.9,21.5,25,21.5 M25,31.5c4.9,0,5.3-2.5,5.3-5.4c0-3.3-2.4-6.1-5.3-6.1s-5.3,2.8-5.3,6.1
							C19.7,29.1,20.1,31.5,25,31.5"/>
						<path id="Fill-3" class="st0" d="M31.4,37.6H18.6v-0.9c0-2.1,3.2-3.2,6.4-3.2c1.7,0,3.4,0.3,4.6,0.9c1.2,0.6,1.8,1.4,1.8,2.3
							V37.6z M25,32.1c-3.8,0-7.8,1.4-7.8,4.6v1.6c0,0.4,0.3,0.7,0.7,0.7h14.2c0.4,0,0.7-0.3,0.7-0.7v-1.6
							C32.8,33.6,28.8,32.1,25,32.1L25,32.1z"/>
						<g id="Group-7" transform="translate(0.000000, 13.000000)">
							<g id="Clip-6">
							</g>
							<defs>
								<filter id="Adobe_OpacityMaskFilter" filterUnits="userSpaceOnUse" x="0" y="0.2" width="50" height="36.8">
									<feColorMatrix  type="matrix" values="1 0 0 0 0  0 1 0 0 0  0 0 1 0 0  0 0 0 1 0"/>
								</filter>
							</defs>
							<mask maskUnits="userSpaceOnUse" x="0" y="0.2" width="50" height="36.8" id="mask-2">
								<g class="st1">
									<polygon id="path-1" class="st2" points="25,37 0,37 0,0.2 50,0.2 50,37 									"/>
								</g>
							</mask>
							<path id="Fill-5" class="st3" d="M46.5,35.6h-43c-0.9,0-1.7-0.6-2-1.5h46.9C48.2,34.9,47.4,35.6,46.5,35.6L46.5,35.6z
								 M45.1,29l2.7,3.6H2.2L4.9,29H45.1z M50,33.2c0,0,0-0.1,0-0.1c0,0,0-0.1-0.1-0.1c0,0,0-0.1,0-0.1l-3.8-5l-2-23.2
								c0-0.4-0.4-0.7-0.8-0.7c-0.4,0-0.7,0.4-0.7,0.8l1.9,22.7H5.4l2-23.1c0.1-1.6,1.4-2.7,3-2.7h20.3c0.4,0,0.7-0.3,0.7-0.7
								s-0.3-0.7-0.7-0.7H10.4C8.1,0.2,6.1,2,5.9,4.3l-2,23.6l-3.8,5c0,0,0,0.1,0,0.1c0,0,0,0.1-0.1,0.1c0,0,0,0.1,0,0.1
								c0,0,0,0.1,0,0.1v0.2C0,35.4,1.6,37,3.5,37h43c1.9,0,3.5-1.6,3.5-3.5L50,33.2C50,33.3,50,33.3,50,33.2L50,33.2z"/>
						</g>
						<path id="Fill-8" class="st4" d="M8.9,37.6l1.7-20.1h20.1c0.4,0,0.7-0.3,0.7-0.7c0-0.4-0.3-0.7-0.7-0.7H9.9
							c-0.4,0-0.7,0.3-0.7,0.7L7.4,38.3c0,0.2,0.1,0.4,0.2,0.5c0.1,0.1,0.3,0.2,0.5,0.2h33.7c0.2,0,0.4-0.1,0.5-0.2
							c0.1-0.1,0.2-0.3,0.2-0.5l-1.7-20.6c0-0.4-0.4-0.7-0.8-0.7c-0.4,0-0.7,0.4-0.7,0.8l1.6,19.8H8.9z"/>
						<path id="Fill-10" class="st4" d="M6.7,44.5h3.4c0.4,0,0.7-0.3,0.7-0.7c0-0.4-0.3-0.7-0.7-0.7H6.7C6.3,43,6,43.4,6,43.8
							C6,44.2,6.3,44.5,6.7,44.5"/>
						<path id="Fill-12" class="st4" d="M13.4,44.5h3.4c0.4,0,0.7-0.3,0.7-0.7c0-0.4-0.3-0.7-0.7-0.7h-3.4c-0.4,0-0.7,0.3-0.7,0.7
							C12.7,44.2,13,44.5,13.4,44.5"/>
						<path id="Fill-14" class="st4" d="M20.1,44.5h3.4c0.4,0,0.7-0.3,0.7-0.7c0-0.4-0.3-0.7-0.7-0.7h-3.4c-0.4,0-0.7,0.3-0.7,0.7
							C19.3,44.2,19.7,44.5,20.1,44.5"/>
						<path id="Fill-16" class="st4" d="M26.7,44.5h3.4c0.4,0,0.7-0.3,0.7-0.7c0-0.4-0.3-0.7-0.7-0.7h-3.4c-0.4,0-0.7,0.3-0.7,0.7
							C26,44.2,26.3,44.5,26.7,44.5"/>
						<path id="Fill-18" class="st4" d="M33.4,44.5h3.4c0.4,0,0.7-0.3,0.7-0.7c0-0.4-0.3-0.7-0.7-0.7h-3.4c-0.4,0-0.7,0.3-0.7,0.7
							C32.7,44.2,33,44.5,33.4,44.5"/>
						<path id="Fill-20" class="st4" d="M40.1,44.5h3.4c0.4,0,0.7-0.3,0.7-0.7c0-0.4-0.3-0.7-0.7-0.7h-3.4c-0.4,0-0.7,0.3-0.7,0.7
							C39.3,44.2,39.7,44.5,40.1,44.5"/>
						<path id="Fill-22" class="st0" d="M48.6,11.2c0,3.2-2.6,5.8-5.8,5.8h-5.5c-0.1,0-0.2,0-0.3,0.1L31.4,20V7.3
							c0-3.2,2.6-5.8,5.8-5.8h5.5c3.2,0,5.8,2.6,5.8,5.8V11.2z M42.7,0h-5.5c-4,0-7.3,3.3-7.3,7.3v13.9c0,0.3,0.1,0.5,0.3,0.6
							c0.1,0.1,0.2,0.1,0.4,0.1c0.1,0,0.2,0,0.3-0.1l6.4-3.3h5.4c4,0,7.3-3.3,7.3-7.3v-4C50,3.3,46.7,0,42.7,0L42.7,0z"/>
						<path id="Fill-24" class="st4" d="M33.9,6.7h6.5c0.4,0,0.7-0.3,0.7-0.7c0-0.4-0.3-0.7-0.7-0.7h-6.5c-0.4,0-0.7,0.3-0.7,0.7
							C33.2,6.4,33.5,6.7,33.9,6.7"/>
						<path id="Fill-26" class="st4" d="M42.3,6.7h3C45.7,6.7,46,6.4,46,6c0-0.4-0.3-0.7-0.7-0.7h-3c-0.4,0-0.7,0.3-0.7,0.7
							C41.6,6.4,41.9,6.7,42.3,6.7"/>
						<path id="Fill-28" class="st4" d="M45.3,7.7h-6.6C38.3,7.7,38,8,38,8.4c0,0.4,0.3,0.7,0.7,0.7h6.6c0.4,0,0.7-0.3,0.7-0.7
							C46,8,45.7,7.7,45.3,7.7"/>
						<path id="Fill-30" class="st4" d="M33.9,9.1h2.9c0.4,0,0.7-0.3,0.7-0.7c0-0.4-0.3-0.7-0.7-0.7h-2.9c-0.4,0-0.7,0.3-0.7,0.7
							C33.2,8.8,33.5,9.1,33.9,9.1"/>
						<path id="Fill-32" class="st4" d="M33.9,11.4h6.5c0.4,0,0.7-0.3,0.7-0.7c0-0.4-0.3-0.7-0.7-0.7h-6.5c-0.4,0-0.7,0.3-0.7,0.7
							C33.2,11.1,33.5,11.4,33.9,11.4"/>
						<path id="Fill-34" class="st4" d="M45.3,11.4c0.4,0,0.7-0.3,0.7-0.7c0-0.4-0.3-0.7-0.7-0.7h-3c-0.4,0-0.7,0.3-0.7,0.7
							c0,0.4,0.3,0.7,0.7,0.7H45.3z"/>
						<path id="Fill-36" class="st4" d="M45.3,12.3h-6.6c-0.4,0-0.7,0.3-0.7,0.7c0,0.4,0.3,0.7,0.7,0.7h6.6c0.4,0,0.7-0.3,0.7-0.7
							C46,12.7,45.7,12.3,45.3,12.3"/>
						<path id="Fill-38" class="st4" d="M36.8,12.3h-2.9c-0.4,0-0.7,0.3-0.7,0.7c0,0.4,0.3,0.7,0.7,0.7h2.9c0.4,0,0.7-0.3,0.7-0.7
							C37.5,12.6,37.2,12.3,36.8,12.3"/>
					</g>
				</g>
			</g>
		</g>
	</g>
</g>
</svg>
