<?xml version="1.0" encoding="utf-8"?>
<!-- Generator: Adobe Illustrator 19.2.1, SVG Export Plug-In . SVG Version: 6.00 Build 0)  -->
<svg version="1.1" id="Layer_1" xmlns="http://www.w3.org/2000/svg" xmlns:xlink="http://www.w3.org/1999/xlink" x="0px" y="0px"
	 viewBox="0 0 113 80" style="enable-background:new 0 0 113 80;" xml:space="preserve">
<style type="text/css">
	.st0{opacity:0.3;enable-background:new    ;}
	.st1{fill:#E3E0C2;}
</style>
<title>‘‘</title>
<desc>Created with Sketch.</desc>
<g class="st0">
	<path class="st1" d="M37.5,50.4c2.9,3.1,4.4,7.2,4.4,12.2c0,5.4-1.8,9.7-5.3,12.8c-3.5,3.1-8.3,4.7-14.3,4.7
		c-7,0-12.5-2.7-16.4-8.1C2,66.5,0,58.7,0,48.7c0-9,2-17.4,6-25.1c4-7.7,10-15.5,18.1-23.3C24.3,0.1,24.6,0,25,0
		c0.6,0,1.1,0.3,1.5,0.9c0.4,0.6,0.4,1.1,0,1.5c-9.8,10-14.8,21.9-14.8,35.5c0,5.6,1,9.7,3,12.3c1.8-3,5.5-4.5,11.1-4.5
		C30.7,45.7,34.6,47.3,37.5,50.4z"/>
	<path class="st1" d="M108.6,50.4c2.9,3.1,4.4,7.2,4.4,12.2c0,5.4-1.8,9.7-5.3,12.8c-3.5,3.1-8.3,4.7-14.3,4.7
		c-7,0-12.5-2.7-16.4-8.1c-3.9-5.4-5.9-13.1-5.9-23.2c0-9,2-17.4,6-25.1c4-7.7,10-15.5,18.1-23.3C95.4,0.1,95.7,0,96.1,0
		c0.6,0,1.1,0.3,1.5,0.9C98,1.5,98,2,97.6,2.4c-9.8,10-14.8,21.9-14.8,35.5c0,5.6,1,9.7,3,12.3c1.8-3,5.5-4.5,11.2-4.5
		C101.9,45.7,105.7,47.3,108.6,50.4z"/>
</g>
</svg>
