<?xml version="1.0" encoding="UTF-8"?>
<svg width="16px" height="16px" viewBox="0 0 16 16" version="1.1" xmlns="http://www.w3.org/2000/svg" xmlns:xlink="http://www.w3.org/1999/xlink">
    <!-- Generator: sketchtool 46.2 (44496) - http://www.bohemiancoding.com/sketch -->
    <title>FC43BF59-A1DE-4F12-89EA-E5C97E38E5E2</title>
    <desc>Created with sketchtool.</desc>
    <defs>
        <polygon id="path-1" points="6.2 0.337456619 6.2 6.4 3.16872831 6.4 0.137456619 6.4 0.137456619 0.337456619 6.2 0.337456619"></polygon>
    </defs>
    <g id="Desktop-design" stroke="none" stroke-width="1" fill="none" fill-rule="evenodd">
        <g id="Parkchester_HP_C1" transform="translate(-1107.000000, -19.000000)">
            <g id="1st-screen" transform="translate(55.000000, 19.000000)">
                <g id="Header">
                    <g id="Residents-portal" transform="translate(1059.600000, 8.000000) scale(-1, 1) translate(-1059.600000, -8.000000) translate(1052.000000, 0.000000)">
                        <rect id="Background" x="0" y="0" width="15.2" height="16"></rect>
                        <g id="Page-1">
                            <path d="M2,5.25 L0,5.25 L0,4.75 L1.7504,4.75 L1.7504,0.5004 L0,0.5004 L0,0.0004 L2,0.0004 C2.1384,0.0004 2.2496,0.1116 2.2496,0.25 L2.2496,5.0004 C2.2496,5.138 2.1384,5.25 2,5.25" id="Fill-1" fill="#060707"></path>
                            <path d="M7.75,5.15552 L9.5004,7.14112 L9.5004,5.08752 L8.63,4.00032 L7.9996,4.00032 C7.862,4.00032 7.75,4.11232 7.75,4.24992 L7.75,5.15552 Z M8.5564,9.20672 C8.5196,9.20672 8.482,9.20512 8.4444,9.20192 C8.1108,9.17232 7.81,9.01632 7.5956,8.76112 L5.6332,6.49632 C4.7748,6.44912 3.3796,5.88832 2.8252,4.50032 L2.0004,4.50032 L2.0004,4.00032 L3.0004,4.00032 C3.1076,4.00032 3.2028,4.06912 3.2372,4.17072 C3.6812,5.50352 5.014,6.00032 5.75,6.00032 C5.8228,6.00032 5.8916,6.03152 5.9388,6.08592 L7.9764,8.43632 C8.1068,8.59232 8.2876,8.68592 8.4884,8.70352 C8.6892,8.72112 8.8828,8.66032 9.0356,8.53232 C9.1884,8.40432 9.282,8.22352 9.2996,8.02272 C9.3172,7.82272 9.2564,7.62832 9.1284,7.47552 L7.3124,5.41552 C7.2724,5.36992 7.25,5.31072 7.25,5.24992 L7.25,4.24992 C7.25,3.83632 7.5868,3.50032 7.9996,3.50032 L8.75,3.50032 C8.826,3.50032 8.898,3.53472 8.9452,3.59392 L9.9452,4.84352 C9.9804,4.88832 10.0004,4.94352 10.0004,5.00032 L10.0004,7.87472 C10.0004,8.21952 10.2804,8.50032 10.6252,8.50032 C10.97,8.50032 11.25,8.21952 11.25,7.87472 L11.25,4.34032 C11.25,4.17552 11.1948,4.01312 11.0948,3.88272 L9.1772,1.38992 C8.9892,1.14592 8.6932,1.00032 8.3844,1.00032 L2.0004,1.00032 L2.0004,0.50032 L8.3844,0.50032 C8.8468,0.50032 9.2916,0.71872 9.5732,1.08512 L11.4908,3.57792 C11.658,3.79552 11.75,4.06592 11.75,4.34032 L11.75,7.87472 C11.75,8.49552 11.2452,9.00032 10.6252,9.00032 C10.2316,9.00032 9.8852,8.79712 9.6844,8.49072 C9.6084,8.65232 9.4972,8.79712 9.3572,8.91552 C9.1308,9.10512 8.85,9.20672 8.5564,9.20672 L8.5564,9.20672 Z" id="Fill-3" fill="#060707"></path>
                            <path d="M9.75,11.25 C9.6116,11.25 9.5004,11.138 9.5004,11.0004 L9.5004,8.4996 C9.5004,8.362 9.6116,8.25 9.75,8.25 C9.8884,8.25 9.9996,8.362 9.9996,8.4996 L9.9996,11.0004 C9.9996,11.138 9.8884,11.25 9.75,11.25" id="Fill-5" fill="#BE913A"></path>
                            <path d="M6.25072,15.5 L6.87872,15.5 L8.84432,12.9952 C8.90672,12.9152 9.01152,12.8808 9.10912,12.9088 C9.23152,12.944 9.35632,12.9608 9.47792,12.9608 C10.22432,12.9608 10.83152,12.3544 10.83152,11.608 C10.83152,10.8616 10.22432,10.2544 9.47792,10.2544 C8.73232,10.2544 8.12512,10.8616 8.12512,11.608 C8.12512,11.888 8.21072,12.1576 8.37312,12.3872 C8.43552,12.476 8.43392,12.5952 8.36912,12.6816 L7.50272,13.8344 L7.50032,14.252 C7.49872,14.3888 7.38752,14.5 7.24992,14.5 L7.00192,14.5 L6.25072,15.5 Z M7.00032,16 L5.74992,16 C5.65552,16 5.56832,15.9464 5.52672,15.8616 C5.48432,15.7768 5.49312,15.6752 5.54992,15.6 L6.67712,14.1 C6.72512,14.0368 6.79872,14 6.87712,14 L7.00192,14 L7.00352,13.748 C7.00352,13.6944 7.02112,13.6424 7.05312,13.6 L7.86512,12.5192 C7.70752,12.2416 7.62512,11.9296 7.62512,11.608 C7.62512,10.5856 8.45632,9.7544 9.47792,9.7544 C10.50032,9.7544 11.33152,10.5856 11.33152,11.608 C11.33152,12.6296 10.50032,13.4608 9.47792,13.4608 C9.36512,13.4608 9.25232,13.4504 9.13872,13.4288 L7.19712,15.904 C7.14912,15.9648 7.07632,16 7.00032,16 L7.00032,16 Z" id="Fill-7" fill="#BE913A"></path>
                            <g id="Group-11" transform="translate(8.800000, 9.600000)">
                                <mask id="mask-2" fill="white">
                                    <use xlink:href="#path-1"></use>
                                </mask>
                                <g id="Clip-10"></g>
                                <path d="M3.2,6.4 C3.1376,6.4 3.076,6.3768 3.0272,6.3304 L1.42,4.7944 L1.0624,5.152 C0.9648,5.2496 0.8072,5.2496 0.7096,5.152 L0.2104,4.6536 C0.1584,4.6016 0.132,4.5296 0.1384,4.456 L0.2304,3.3256 L0.7288,3.3664 L0.6464,4.3816 L0.8864,4.6216 L1.2392,4.268 C1.336,4.172 1.4904,4.1704 1.5888,4.264 L3.196,5.8 L5.5968,3.4 L4.0232,1.8264 C3.976,1.78 3.9496,1.7152 3.9496,1.6488 C3.9504,1.5824 3.9776,1.5184 4.0248,1.4712 L4.42,1.084 L4.1816,0.8464 L1.7216,1.048 L1.6808,0.5496 L4.256,0.3384 C4.3288,0.332 4.4008,0.3584 4.4528,0.4104 L4.952,0.9088 C4.9992,0.956 5.0256,1.0208 5.0248,1.0872 C5.0248,1.1544 4.9976,1.2176 4.9504,1.2648 L4.5552,1.652 L6.1264,3.2232 C6.2248,3.3208 6.2248,3.4792 6.1264,3.5768 L3.3768,6.3264 C3.328,6.3752 3.264,6.4 3.2,6.4" id="Fill-9" fill="#BE913A" mask="url(#mask-2)"></path>
                            </g>
                        </g>
                    </g>
                </g>
            </g>
        </g>
    </g>
</svg>