<?xml version="1.0" encoding="utf-8"?>
<!-- Generator: Adobe Illustrator 19.2.1, SVG Export Plug-In . SVG Version: 6.00 Build 0)  -->
<svg version="1.1" id="Layer_1" xmlns="http://www.w3.org/2000/svg" xmlns:xlink="http://www.w3.org/1999/xlink" x="0px" y="0px"
	 viewBox="0 0 37 50" style="enable-background:new 0 0 37 50;" xml:space="preserve">
<style type="text/css">
	.st0{fill:#BE913A;}
	.st1{fill:#060707;}
</style>
<title>Responsibility</title>
<desc>Created with Sketch.</desc>
<g id="Desktop-design">
	<g id="Parkchester_About-Us" transform="translate(-688.000000, -2422.000000)">
		<g id="Our-Commitment" transform="translate(75.000000, 2348.000000)">
			<g id="Group" transform="translate(613.000000, 74.000000)">
				<g id="Responsibility">
					<g>
						<path id="Fill-1" class="st0" d="M6.8,28.2c-0.4,0-0.7,0.3-0.7,0.7l0,0c0,0.4,0.3,0.7,0.7,0.7l0,0h11.5c0.4,0,0.7-0.3,0.7-0.7
							l0,0c0-0.4-0.3-0.7-0.7-0.7l0,0H6.8z"/>
						<path id="Fill-3" class="st0" d="M21.5,28.2c-0.4,0-0.7,0.3-0.7,0.7l0,0c0,0.4,0.3,0.7,0.7,0.7l0,0h5.2c0.4,0,0.7-0.3,0.7-0.7
							l0,0c0-0.4-0.3-0.7-0.7-0.7l0,0H21.5z"/>
						<path id="Fill-5" class="st0" d="M6.8,32C6.4,32,6,32.3,6,32.7l0,0c0,0.4,0.3,0.7,0.7,0.7l0,0h5.1c0.4,0,0.7-0.3,0.7-0.7l0,0
							c0-0.4-0.3-0.7-0.7-0.7l0,0H6.8z"/>
						<path id="Fill-7" class="st0" d="M6.8,24.3C6.4,24.3,6,24.6,6,25l0,0c0,0.4,0.3,0.7,0.7,0.7l0,0h20.1c0.4,0,0.7-0.3,0.7-0.7
							l0,0c0-0.4-0.3-0.7-0.7-0.7l0,0H6.8z"/>
						<path id="Fill-10" class="st0" d="M15.2,19.9c-0.4,0-0.7,0.3-0.7,0.7l0,0c0,0.4,0.3,0.7,0.7,0.7l0,0h11.7
							c0.4,0,0.7-0.3,0.7-0.7l0,0c0-0.4-0.3-0.7-0.7-0.7l0,0H15.2z"/>
						<path id="Fill-12" class="st0" d="M6.8,19.9c-0.4,0-0.7,0.3-0.7,0.7l0,0c0,0.4,0.3,0.7,0.7,0.7l0,0h5.1c0.4,0,0.7-0.3,0.7-0.7
							l0,0c0-0.4-0.3-0.7-0.7-0.7l0,0H6.8z"/>
						<path id="Fill-14" class="st0" d="M13.7,40.7c-0.1,0.4,0.1,0.8,0.4,0.9l0,0c0.4,0.1,0.8-0.1,0.9-0.4l0,0c1.2-3.2,1.9-4,2-4.2
							l0,0c0.3,0.5,0.6,2.2,0.8,3.1l0,0c0.3,1.8,0.5,2.7,1.3,2.7l0,0h0c0.8,0,0.9-0.8,1.2-2.1l0,0c0.1-0.5,0.2-1.3,0.4-1.7l0,0
							c0.2,0.2,0.3,0.5,0.5,0.7l0,0c0.5,0.7,1,1.5,1.8,1.3l0,0c0.8-0.1,1-1.1,1.1-1.9l0,0c0,0,0-0.1,0-0.1l0,0
							c0.3,0.4,0.7,0.8,1.3,0.9l0,0c1.2,0.2,2.2-1,2.9-2l0,0c0.2-0.3,0.2-0.8-0.2-1l0,0c-0.3-0.2-0.8-0.2-1,0.2l0,0
							c-1,1.4-1.5,1.4-1.5,1.4l0,0c-0.1,0-0.4-0.4-0.5-0.6l0,0c-0.3-0.4-0.6-1-1.3-0.9l0,0c-0.9,0.2-1,1.2-1.1,2l0,0
							c0,0,0,0.1,0,0.1l0,0c-0.1-0.1-0.1-0.2-0.2-0.2l0,0c-0.5-0.8-1-1.6-1.9-1.5l0,0c-0.8,0.1-1.2,0.9-1.4,1.9l0,0
							c-0.3-1.9-0.7-3.5-1.9-3.7l0,0c0,0-0.1,0-0.1,0l0,0C16.2,35.5,15.3,36.5,13.7,40.7"/>
						<path id="Fill-16" class="st1" d="M8.4,0c-1.6,0-3,1.2-3.3,2.7l0,0H3.2C2.8,2.7,2.5,3,2.5,3.4l0,0v1.7H0.7
							C0.3,5.1,0,5.5,0,5.9l0,0v43.4C0,49.7,0.3,50,0.7,50l0,0h33.1c0.4,0,0.7-0.3,0.7-0.7l0,0v-1.7h1.8c0.4,0,0.7-0.3,0.7-0.7l0,0
							V3.4c0-0.4-0.3-0.7-0.7-0.7l0,0H11.7C11.4,1.2,10,0,8.4,0z M8.4,1.4c0.8,0,1.5,0.5,1.8,1.2l0,0H6.6C6.9,2,7.6,1.4,8.4,1.4
							L8.4,1.4z M6.5,4.1h29.1v42h-1V16.4c0-0.1,0-0.2-0.1-0.3l0,0c0-0.1-0.1-0.2-0.2-0.2l0,0L23.7,5.4c-0.1-0.1-0.1-0.1-0.2-0.2
							l0,0c-0.1,0-0.2-0.1-0.3-0.1l0,0h-9.8c-0.1-0.3-0.3-0.6-0.7-0.6l0,0c-0.4,0-0.6,0.3-0.7,0.6l0,0H6.5V4.1z M3.9,5.1H5v-1H3.9
							V5.1z M13.4,13.5V6.6h9l0,9.8c0,0.2,0.1,0.4,0.2,0.5l0,0c0.1,0.1,0.3,0.2,0.5,0.2l0,0h9.9v31.4H1.5v-42H5v6.9
							c0,2.3,1.9,4.2,4.2,4.2l0,0C11.5,17.7,13.4,15.8,13.4,13.5L13.4,13.5z M6.5,13.5V6.6H12v6.9c0,1.5-1.2,2.7-2.7,2.7l0,0
							C7.7,16.2,6.5,15,6.5,13.5L6.5,13.5z M23.9,7.6l8.1,8.1h-8.1L23.9,7.6z"/>
					</g>
				</g>
			</g>
		</g>
	</g>
</g>
</svg>
