<?xml version="1.0" encoding="utf-8"?>
<!-- Generator: Adobe Illustrator 19.2.1, SVG Export Plug-In . SVG Version: 6.00 Build 0)  -->
<svg version="1.1" id="Layer_1" xmlns="http://www.w3.org/2000/svg" xmlns:xlink="http://www.w3.org/1999/xlink" x="0px" y="0px"
	 viewBox="0 0 24 24" style="enable-background:new 0 0 24 24;" xml:space="preserve">
<style type="text/css">
	.st0{fill:#BE913A;}
</style>
<title>search</title>
<desc>Created with Sketch.</desc>
<g id="Desktop-design">
	<g id="Parkchester_The-Neighborhood" transform="translate(-901.000000, -397.000000)">
		<g id="search" transform="translate(355.000000, 397.000000)">
			<g transform="translate(546.000000, 0.000000)">
				<path class="st0" d="M10.1,18.3c-4.7,0-8.5-3.8-8.5-8.4s3.8-8.4,8.5-8.4s8.5,3.8,8.5,8.4S14.8,18.3,10.1,18.3L10.1,18.3z
					 M23.8,22.7l-6.2-6.1c1.6-1.8,2.6-4.1,2.6-6.7c0-5.5-4.5-9.9-10.1-9.9S0,4.4,0,9.9c0,5.5,4.5,9.9,10.1,9.9
					c2.4,0,4.6-0.8,6.4-2.2l6.2,6.1c0.3,0.3,0.8,0.3,1.1,0C24.1,23.5,24.1,23,23.8,22.7L23.8,22.7z"/>
			</g>
		</g>
	</g>
</g>
</svg>
