<?xml version="1.0" encoding="UTF-8"?>
<svg width="49px" height="50px" viewBox="0 0 49 50" version="1.1" xmlns="http://www.w3.org/2000/svg" xmlns:xlink="http://www.w3.org/1999/xlink">
    <!-- Generator: sketchtool 46.2 (44496) - http://www.bohemiancoding.com/sketch -->
    <title>82C226ED-665F-4EB4-BDD4-AE3685C08F9E</title>
    <desc>Created with sketchtool.</desc>
    <defs>
        <polygon id="path-1" points="0 49.0156818 49.0159091 49.0156818 49.0159091 -0.000227272727 0 -0.000227272727"></polygon>
    </defs>
    <g id="Desktop-design" stroke="none" stroke-width="1" fill="none" fill-rule="evenodd">
        <g id="Parkchester_HP_C1" transform="translate(-475.000000, -2123.000000)">
            <g id="Amenities-&amp;-Facilities" transform="translate(0.000000, 1692.000000)">
                <g id="icons" transform="translate(74.000000, 431.000000)">
                    <g id="Group" transform="translate(401.000000, 0.000000)">
                        <g id="shop">
                            <rect id="Background" x="0" y="0" width="50" height="50"></rect>
                            <g id="Page-1">
                                <path d="M44.3392045,19.6877273 C46.0948864,19.6877273 47.5198864,18.2718182 47.5835227,16.5093182 L41.0403409,1.42068182 L36.7846591,1.42068182 L41.0551136,16.1934091 C41.0653409,16.2275 41.0596591,16.2604545 41.0642045,16.2934091 C41.06875,16.3263636 41.0835227,16.3559091 41.0835227,16.39 C41.0835227,18.2081818 42.54375,19.6877273 44.3392045,19.6877273 Z M36.4073864,19.6877273 C38.1767045,19.6877273 39.6153409,18.2479545 39.6551136,16.465 L35.30625,1.42068182 L30.9948864,1.42068182 L33.14375,16.2888636 C33.1460227,16.3059091 33.1392045,16.3229545 33.1403409,16.34 C33.1414773,16.3570455 33.1505682,16.3729545 33.1505682,16.39 C33.1505682,18.2081818 34.6119318,19.6877273 36.4073864,19.6877273 Z M28.4744318,19.6877273 C30.2596591,19.6877273 31.7107955,18.2240909 31.7278409,16.4206818 L29.5596591,1.42068182 L25.2176136,1.42068182 L25.2176136,16.39 C25.2176136,18.2081818 26.6778409,19.6877273 28.4744318,19.6877273 Z M23.7971591,16.39 L23.7971591,1.42068182 L19.45625,1.42068182 L17.2892045,16.4206818 C17.3051136,18.2240909 18.75625,19.6877273 20.5414773,19.6877273 C22.3369318,19.6877273 23.7971591,18.2081818 23.7971591,16.39 Z M15.8755682,16.34 C15.8767045,16.3229545 15.8698864,16.3059091 15.8721591,16.2888636 L18.0210227,1.42068182 L13.7096591,1.42068182 L9.36079545,16.465 C9.40056818,18.2479545 10.8392045,19.6877273 12.6096591,19.6877273 C14.4051136,19.6877273 15.8653409,18.2081818 15.8653409,16.39 C15.8653409,16.3729545 15.8744318,16.3570455 15.8755682,16.34 Z M7.95965909,16.1922727 L12.23125,1.42068182 L7.97556818,1.42068182 L1.43238636,16.5093182 C1.49602273,18.2718182 2.92102273,19.6877273 4.67670455,19.6877273 C6.47215909,19.6877273 7.93238636,18.2081818 7.93238636,16.39 C7.93238636,16.3559091 7.94715909,16.3263636 7.95170455,16.2934091 C7.95625,16.2604545 7.95056818,16.2263636 7.95965909,16.1922727 Z M49.0153409,16.39 C49.0153409,18.7468182 47.2892045,20.6877273 45.0494318,21.0354545 C44.3482955,21.2013636 43.6289773,21.0354545 43.6289773,21.0354545 C42.2528409,20.8218182 41.0789773,20.0093182 40.3732955,18.8604545 C39.5482955,20.2036364 38.0857955,21.1081818 36.4073864,21.1081818 C34.7289773,21.1081818 33.2653409,20.2036364 32.4403409,18.8604545 C31.6153409,20.2036364 30.1528409,21.1081818 28.4744318,21.1081818 C26.7960227,21.1081818 25.3323864,20.2036364 24.5073864,18.8604545 C23.6823864,20.2036364 22.2198864,21.1081818 20.5414773,21.1081818 C18.8630682,21.1081818 17.4005682,20.2036364 16.5755682,18.8604545 C15.7505682,20.2036364 14.2880682,21.1081818 12.6096591,21.1081818 C10.9301136,21.1081818 9.46761364,20.2036364 8.64261364,18.8604545 C7.93693182,20.0093182 6.76306818,20.8218182 5.38693182,21.0354545 C4.80397727,21.165 3.96647727,21.0354545 3.96647727,21.0354545 C1.72556818,20.6877273 0.000568181818,18.7468182 0.000568181818,16.39 C0.000568181818,16.3888636 0.000568181818,16.3888636 0.000568181818,16.3877273 C0.000568181818,16.3434091 0.01875,16.2990909 0.0278409091,16.2547727 C0.0369318182,16.2059091 0.0392045455,16.1547727 0.0585227273,16.1104545 C0.0585227273,16.1093182 0.0585227273,16.1081818 0.0585227273,16.1081818 L6.85852273,0.4275 C6.97102273,0.168409091 7.22670455,0.000227272727 7.50965909,0.000227272727 L13.1755682,0.000227272727 L18.8414773,0.000227272727 L24.5073864,0.000227272727 L30.1744318,0.000227272727 L35.8403409,0.000227272727 L41.50625,0.000227272727 C41.7892045,0.000227272727 42.0448864,0.168409091 42.1573864,0.4275 L48.95625,16.1081818 C48.9573864,16.1081818 48.9573864,16.1093182 48.9573864,16.1104545 C48.9767045,16.1547727 48.9789773,16.2059091 48.9880682,16.2547727 C48.9971591,16.2990909 49.0153409,16.3434091 49.0153409,16.3877273 C49.0153409,16.3888636 49.0153409,16.3888636 49.0153409,16.39 Z" id="Fill-1" fill="#BE913A"></path>
                                <mask id="mask-2" fill="white">
                                    <use xlink:href="#path-1"></use>
                                </mask>
                                <g id="Clip-4"></g>
                                <path d="M9.85568182,47.5952273 L21.6681818,47.5952273 L21.6681818,28.2929545 L9.85568182,28.2929545 L9.85568182,47.5952273 Z M43.6284091,21.0361364 L43.6284091,47.5952273 L23.0886364,47.5952273 L23.0886364,27.5827273 C23.0886364,27.1895455 22.7704545,26.8725 22.3784091,26.8725 L9.14545455,26.8725 C8.75340909,26.8725 8.43522727,27.1895455 8.43522727,27.5827273 L8.43522727,47.5952273 L5.38636364,47.5952273 L5.38636364,21.0361364 C4.80340909,21.1656818 3.96590909,21.0361364 3.96590909,21.0361364 L3.96590909,48.3054545 C3.96590909,48.6975 4.28409091,49.0156818 4.67613636,49.0156818 L9.14545455,49.0156818 L22.3784091,49.0156818 L44.3386364,49.0156818 C44.7318182,49.0156818 45.0488636,48.6975 45.0488636,48.3054545 L45.0488636,21.0361364 C44.3488636,21.2009091 43.6284091,21.0361364 43.6284091,21.0361364 L43.6284091,21.0361364 Z" id="Fill-3" fill="#060707" mask="url(#mask-2)"></path>
                                <path d="M19.6715909,36.4352273 C19.2795455,36.4352273 18.9613636,36.7534091 18.9613636,37.1454545 L18.9613636,40.0215909 C18.9613636,40.4136364 19.2795455,40.7318182 19.6715909,40.7318182 C20.0636364,40.7318182 20.3818182,40.4136364 20.3818182,40.0215909 L20.3818182,37.1454545 C20.3818182,36.7534091 20.0636364,36.4352273 19.6715909,36.4352273" id="Fill-5" fill="#BE913A" mask="url(#mask-2)"></path>
                                <path d="M34.2022727,41.7077273 L39.1602273,41.7077273 L39.1602273,33.6622727 L34.2022727,33.6622727 L34.2022727,41.7077273 Z M27.825,41.7077273 L32.7818182,41.7077273 L32.7818182,33.6622727 L27.825,33.6622727 L27.825,41.7077273 Z M27.825,32.2418182 L39.1602273,32.2418182 L39.1602273,28.2929545 L27.825,28.2929545 L27.825,32.2418182 Z M39.8704545,26.8725 L27.1147727,26.8725 C26.7227273,26.8725 26.4045455,27.1895455 26.4045455,27.5827273 L26.4045455,42.4179545 C26.4045455,42.8111364 26.7227273,43.1281818 27.1147727,43.1281818 L39.8704545,43.1281818 C40.2625,43.1281818 40.5806818,42.8111364 40.5806818,42.4179545 L40.5806818,27.5827273 C40.5806818,27.1895455 40.2625,26.8725 39.8704545,26.8725 L39.8704545,26.8725 Z" id="Fill-6" fill="#060707" mask="url(#mask-2)"></path>
                            </g>
                        </g>
                    </g>
                </g>
            </g>
        </g>
    </g>
</svg>