
<svg width="34px" height="49px" viewBox="0 0 34 49" version="1.1" xmlns="http://www.w3.org/2000/svg" xmlns:xlink="http://www.w3.org/1999/xlink">
    <g id="Desktop-design" stroke="none" stroke-width="1" fill="none" fill-rule="evenodd">
        <g id="Parkchester_HP_C1" transform="translate(-483.000000, -2223.000000)">
            <g id="Amenities-&amp;-Facilities" transform="translate(0.000000, 1692.000000)">
                <g id="icons" transform="translate(74.000000, 431.000000)">
                    <g id="Group" transform="translate(409.000000, 100.000000)">
                        <g id="train">
                            <rect id="Background" x="0" y="0" width="34.0909091" height="50"></rect>
                            <g id="Page-1">
                                <path d="M4.39386364,46.0110227 L4.85068182,45.15875 L28.4245455,45.15875 L28.8825,46.0110227 L4.39386364,46.0110227 Z M27.2063636,42.8860227 L27.6631818,43.7382955 L5.61204545,43.7382955 L6.06886364,42.8860227 L27.2063636,42.8860227 Z M31.5052273,47.8985227 L27.1040909,39.6882955 C26.9177273,39.3439773 26.4893182,39.2132955 26.1427273,39.3985227 C25.7972727,39.58375 25.6665909,40.0144318 25.8518182,40.3598864 L26.445,41.4655682 L6.83022727,41.4655682 L7.42340909,40.3598864 C7.60863636,40.0144318 7.47909091,39.58375 7.13363636,39.3985227 C6.78704545,39.2132955 6.3575,39.3428409 6.17227273,39.6882955 L1.77113636,47.8985227 C1.58477273,48.2439773 1.71545455,48.6746591 2.06090909,48.8598864 C2.16772727,48.9167045 2.2825,48.9439773 2.39613636,48.9439773 C2.64840909,48.9439773 2.89386364,48.80875 3.02227273,48.5689773 L3.6325,47.4314773 L29.6438636,47.4314773 L30.2529545,48.5689773 C30.3813636,48.80875 30.6268182,48.9439773 30.8802273,48.9439773 C30.9927273,48.9439773 31.1075,48.9167045 31.2154545,48.8598864 C31.5609091,48.6746591 31.6904545,48.2439773 31.5052273,47.8985227 L31.5052273,47.8985227 Z" id="Fill-1" fill="#060707"></path>
                                <path d="M27.5329545,27.5468182 C28.2670455,27.5468182 28.8647727,28.1445455 28.8647727,28.8786364 C28.8647727,29.6138636 28.2670455,30.2115909 27.5329545,30.2115909 C26.7988636,30.2115909 26.2,29.6138636 26.2,28.8786364 C26.2,28.1445455 26.7988636,27.5468182 27.5329545,27.5468182 M27.5329545,31.6320455 C29.05,31.6320455 30.2852273,30.3968182 30.2852273,28.8786364 C30.2852273,27.3604545 29.05,26.1263636 27.5329545,26.1263636 C26.0147727,26.1263636 24.7795455,27.3604545 24.7795455,28.8786364 C24.7795455,30.3968182 26.0147727,31.6320455 27.5329545,31.6320455" id="Fill-3" fill="#060707"></path>
                                <path d="M5.74340909,27.5468182 C6.4775,27.5468182 7.07522727,28.1445455 7.07522727,28.8786364 C7.07522727,29.6138636 6.4775,30.2115909 5.74340909,30.2115909 C5.00931818,30.2115909 4.41045455,29.6138636 4.41045455,28.8786364 C4.41045455,28.1445455 5.00931818,27.5468182 5.74340909,27.5468182 M5.74340909,31.6320455 C7.26045455,31.6320455 8.49568182,30.3968182 8.49568182,28.8786364 C8.49568182,27.3604545 7.26045455,26.1263636 5.74340909,26.1263636 C4.22522727,26.1263636 2.99,27.3604545 2.99,28.8786364 C2.99,30.3968182 4.22522727,31.6320455 5.74340909,31.6320455" id="Fill-5" fill="#060707"></path>
                                <path d="M1.9525,38.8694318 C1.89909091,38.8694318 1.85477273,38.8580682 1.80818182,38.8489773 L16.6377273,32.2069318 L31.4672727,38.8489773 C31.4206818,38.8580682 31.3763636,38.8694318 31.3229545,38.8694318 L1.9525,38.8694318 Z M33.2593182,15.1773864 C33.2559091,15.1501136 33.2627273,15.1228409 33.2559091,15.0944318 L31.5365909,7.90011364 C30.7115909,4.45125 27.6593182,2.04215909 24.1127273,2.04215909 L18.6809091,2.04215909 C18.2888636,2.04215909 17.9706818,2.36034091 17.9706818,2.75238636 C17.9706818,3.14556818 18.2888636,3.46261364 18.6809091,3.46261364 L24.1127273,3.46261364 C26.9990909,3.46261364 29.4843182,5.42284091 30.1547727,8.23079545 L31.8547727,15.3432955 L31.8547727,37.4671591 L16.9286364,30.7796591 C16.7445455,30.6967045 16.5320455,30.6967045 16.3479545,30.7796591 L1.42068182,37.4671591 L1.42068182,15.3432955 L3.12068182,8.23079545 C3.79227273,5.42284091 6.27636364,3.46261364 9.16272727,3.46261364 L14.5945455,3.46261364 C14.9865909,3.46261364 15.3047727,3.14556818 15.3047727,2.75238636 C15.3047727,2.36034091 14.9865909,2.04215909 14.5945455,2.04215909 L9.16272727,2.04215909 C5.61613636,2.04215909 2.56386364,4.45125 1.74,7.90011364 L0.0195454545,15.0944318 C0.0127272727,15.1228409 0.0195454545,15.1501136 0.0161363636,15.1773864 C0.0127272727,15.2057955 0.000227272727,15.2307955 0.000227272727,15.2592045 L0.000227272727,38.5626136 C0.000227272727,39.5148864 0.876363636,40.2898864 1.9525,40.2898864 L31.3229545,40.2898864 C32.4002273,40.2898864 33.2752273,39.5148864 33.2752273,38.5626136 L33.2752273,15.2592045 C33.2752273,15.2307955 33.2627273,15.2057955 33.2593182,15.1773864 L33.2593182,15.1773864 Z" id="Fill-7" fill="#BE913A"></path>
                                <path d="M15.9276136,10.4598864 L15.9276136,12.3780682 L4.56284091,14.74625 C4.31284091,14.7985227 4.15147727,14.6621591 4.09352273,14.6007955 C4.03556818,14.5405682 3.90602273,14.3723864 3.96738636,14.1257955 L5.15715909,9.42238636 C5.35375,8.64511364 6.05147727,8.10193182 6.85375,8.10193182 L15.9276136,8.10193182 L15.9276136,10.4598864 Z M17.3480682,10.4598864 L17.3480682,8.10193182 L26.4207955,8.10193182 C27.2230682,8.10193182 27.9219318,8.64511364 28.1185227,9.42352273 L29.3082955,14.1257955 C29.3696591,14.3723864 29.24125,14.5405682 29.1821591,14.6007955 C29.1230682,14.6621591 28.9628409,14.7985227 28.7128409,14.74625 L17.3480682,12.3780682 L17.3480682,10.4598864 Z M3.77988636,9.07465909 L2.59125,13.7780682 C2.42647727,14.4269318 2.60488636,15.1019318 3.06852273,15.5848864 C3.43784091,15.9689773 3.93670455,16.1780682 4.45488636,16.1780682 C4.58670455,16.1780682 4.71965909,16.1644318 4.85261364,16.1371591 L16.6378409,13.6814773 L28.4230682,16.1371591 C28.5560227,16.1644318 28.6889773,16.1780682 28.8207955,16.1780682 C29.3401136,16.1780682 29.8389773,15.9689773 30.2071591,15.5848864 C30.6707955,15.1019318 30.8492045,14.4269318 30.6855682,13.7780682 L29.4957955,9.07465909 C29.1389773,7.66556818 27.8753409,6.68147727 26.4207955,6.68147727 L16.6378409,6.68147727 L6.85375,6.68147727 C5.40034091,6.68147727 4.13556818,7.66556818 3.77988636,9.07465909 L3.77988636,9.07465909 Z" id="Fill-9" fill="#BE913A"></path>
                                <path d="M16.6381818,1.42045455 C17.3722727,1.42045455 17.97,2.01818182 17.97,2.75227273 C17.97,3.4875 17.3722727,4.08522727 16.6381818,4.08522727 C15.9040909,4.08522727 15.3052273,3.4875 15.3052273,2.75227273 C15.3052273,2.01818182 15.9040909,1.42045455 16.6381818,1.42045455 M16.6381818,5.50568182 C18.1563636,5.50568182 19.3904545,4.27045455 19.3904545,2.75227273 C19.3904545,1.23409091 18.1563636,-7.10542736e-15 16.6381818,-7.10542736e-15 C15.12,-7.10542736e-15 13.8847727,1.23409091 13.8847727,2.75227273 C13.8847727,4.27045455 15.12,5.50568182 16.6381818,5.50568182" id="Fill-11" fill="#060707"></path>
                            </g>
                        </g>
                    </g>
                </g>
            </g>
        </g>
    </g>
</svg>