<?xml version="1.0" encoding="UTF-8"?>
<svg width="57px" height="50px" viewBox="0 0 57 50" version="1.1" xmlns="http://www.w3.org/2000/svg" xmlns:xlink="http://www.w3.org/1999/xlink">
    <!-- Generator: sketchtool 46.2 (44496) - http://www.bohemiancoding.com/sketch -->
    <title>CECA6925-7DAC-4AF4-9804-CC3430FB5CA5</title>
    <desc>Created with sketchtool.</desc>
    <defs>
        <polygon id="path-1" points="40.63 11.7294 40.63 0.6584 0.0812 0.6584 0.0812 11.7294 40.63 11.7294"></polygon>
        <polygon id="path-3" points="0.3453 0 2.7853 0 2.7853 8.5366 0.3453 8.5366 0.3453 0"></polygon>
        <polygon id="path-5" points="0.927 0 3.367 0 3.367 8.5366 0.927 8.5366 0.927 0"></polygon>
    </defs>
    <g id="Desktop-design" stroke="none" stroke-width="1" fill="none" fill-rule="evenodd">
        <g id="Parkchester_Careers" transform="translate(-812.000000, -990.000000)">
            <g id="icons" transform="translate(155.000000, 990.000000)">
                <g id="20-PTO-days" transform="translate(657.000000, 0.000000)">
                    <g>
                        <path d="M3.591,46.439 L2.219,46.439 C1.545,46.439 1,45.893 1,45.219 C1,44.546 1.545,44 2.219,44 L3.591,44 C4.265,44 4.811,44.546 4.811,45.219 C4.811,45.893 4.265,46.439 3.591,46.439" id="Fill-36" stroke="#FFFFFF" stroke-width="0.5" fill="#060707"></path>
                        <path d="M9.591,46.439 L8.219,46.439 C7.545,46.439 7,45.893 7,45.219 C7,44.546 7.545,44 8.219,44 L9.591,44 C10.265,44 10.811,44.546 10.811,45.219 C10.811,45.893 10.265,46.439 9.591,46.439" id="Fill-36" stroke="#FFFFFF" stroke-width="0.5" fill="#060707"></path>
                        <path d="M3.591,42.439 L2.219,42.439 C1.545,42.439 1,41.893 1,41.219 C1,40.546 1.545,40 2.219,40 L3.591,40 C4.265,40 4.811,40.546 4.811,41.219 C4.811,41.893 4.265,42.439 3.591,42.439" id="Fill-37" stroke="#FFFFFF" stroke-width="0.5" fill="#060707"></path>
                        <path d="M9.591,42.439 L8.219,42.439 C7.545,42.439 7,41.893 7,41.219 C7,40.546 7.545,40 8.219,40 L9.591,40 C10.265,40 10.811,40.546 10.811,41.219 C10.811,41.893 10.265,42.439 9.591,42.439" id="Fill-37" stroke="#FFFFFF" stroke-width="0.5" fill="#060707"></path>
                        <path d="M3.591,38.439 L2.219,38.439 C1.545,38.439 1,37.893 1,37.219 C1,36.546 1.545,36 2.219,36 L3.591,36 C4.265,36 4.811,36.546 4.811,37.219 C4.811,37.893 4.265,38.439 3.591,38.439" id="Fill-38" stroke="#FFFFFF" stroke-width="0.5" fill="#060707"></path>
                        <path d="M9.591,38.439 L8.219,38.439 C7.545,38.439 7,37.893 7,37.219 C7,36.546 7.545,36 8.219,36 L9.591,36 C10.265,36 10.811,36.546 10.811,37.219 C10.811,37.893 10.265,38.439 9.591,38.439" id="Fill-38" stroke="#FFFFFF" stroke-width="0.5" fill="#060707"></path>
                        <path d="M3.591,34.439 L2.219,34.439 C1.545,34.439 1,33.893 1,33.219 C1,32.546 1.545,32 2.219,32 L3.591,32 C4.265,32 4.811,32.546 4.811,33.219 C4.811,33.893 4.265,34.439 3.591,34.439" id="Fill-39" stroke="#FFFFFF" stroke-width="0.5" fill="#060707"></path>
                        <path d="M9.591,34.439 L8.219,34.439 C7.545,34.439 7,33.893 7,33.219 C7,32.546 7.545,32 8.219,32 L9.591,32 C10.265,32 10.811,32.546 10.811,33.219 C10.811,33.893 10.265,34.439 9.591,34.439" id="Fill-39" stroke="#FFFFFF" stroke-width="0.5" fill="#060707"></path>
                        <path d="M3.591,31.439 L2.219,31.439 C1.545,31.439 1,30.893 1,30.219 C1,29.546 1.545,29 2.219,29 L3.591,29 C4.265,29 4.811,29.546 4.811,30.219 C4.811,30.893 4.265,31.439 3.591,31.439" id="Fill-40" stroke="#FFFFFF" stroke-width="0.5" fill="#060707"></path>
                        <path d="M9.591,31.439 L8.219,31.439 C7.545,31.439 7,30.893 7,30.219 C7,29.546 7.545,29 8.219,29 L9.591,29 C10.265,29 10.811,29.546 10.811,30.219 C10.811,30.893 10.265,31.439 9.591,31.439" id="Fill-40" stroke="#FFFFFF" stroke-width="0.5" fill="#060707"></path>
                        <g id="Group-3" transform="translate(16.000000, 3.000000)">
                            <mask id="mask-2" fill="white">
                                <use xlink:href="#path-1"></use>
                            </mask>
                            <g id="Clip-2"></g>
                            <path d="M2.5202,9.2904 L38.1912,9.2904 L38.1912,4.3174 C38.1912,3.6444 37.6442,3.0974 36.9712,3.0974 L3.7402,3.0974 C3.0672,3.0974 2.5202,3.6444 2.5202,4.3174 L2.5202,9.2904 Z M39.4102,11.7294 L1.3002,11.7294 C0.6262,11.7294 0.0812,11.1834 0.0812,10.5104 L0.0812,4.3174 C0.0812,2.2994 1.7222,0.6584 3.7402,0.6584 L36.9712,0.6584 C38.9892,0.6584 40.6302,2.2994 40.6302,4.3174 L40.6302,10.5104 C40.6302,11.1834 40.0842,11.7294 39.4102,11.7294 L39.4102,11.7294 Z" id="Fill-1" fill="#BD9042" mask="url(#mask-2)"></path>
                        </g>
                        <g id="Group-6" transform="translate(26.000000, 0.000000)">
                            <mask id="mask-4" fill="white">
                                <use xlink:href="#path-3"></use>
                            </mask>
                            <g id="Clip-5"></g>
                            <path d="M1.5653,8.5366 C0.8913,8.5366 0.3453,7.9906 0.3453,7.3166 L0.3453,1.2196 C0.3453,0.5456 0.8913,-0.0004 1.5653,-0.0004 C2.2393,-0.0004 2.7853,0.5456 2.7853,1.2196 L2.7853,7.3166 C2.7853,7.9906 2.2393,8.5366 1.5653,8.5366" id="Fill-4" fill="#BD9042" mask="url(#mask-4)"></path>
                        </g>
                        <g id="Group-9" transform="translate(43.000000, 0.000000)">
                            <mask id="mask-6" fill="white">
                                <use xlink:href="#path-5"></use>
                            </mask>
                            <g id="Clip-8"></g>
                            <path d="M2.147,8.5366 C1.473,8.5366 0.927,7.9906 0.927,7.3166 L0.927,1.2196 C0.927,0.5456 1.473,-0.0004 2.147,-0.0004 C2.821,-0.0004 3.367,0.5456 3.367,1.2196 L3.367,7.3166 C3.367,7.9906 2.821,8.5366 2.147,8.5366" id="Fill-7" fill="#BD9042" mask="url(#mask-6)"></path>
                        </g>
                        <path d="M37.575,30.8689 L35.136,30.8689 C34.462,30.8689 33.916,30.3229 33.916,29.6489 C33.916,28.9759 34.462,28.4299 35.136,28.4299 L37.575,28.4299 C38.249,28.4299 38.795,28.9759 38.795,29.6489 C38.795,30.3229 38.249,30.8689 37.575,30.8689" id="Fill-10" fill="#BD9042"></path>
                        <path d="M29.0384,30.8689 L26.5994,30.8689 C25.9254,30.8689 25.3794,30.3229 25.3794,29.6489 C25.3794,28.9759 25.9254,28.4299 26.5994,28.4299 L29.0384,28.4299 C29.7124,28.4299 30.2584,28.9759 30.2584,29.6489 C30.2584,30.3229 29.7124,30.8689 29.0384,30.8689" id="Fill-12" fill="#BD9042"></path>
                        <path d="M46.1116,30.8689 L43.6726,30.8689 C42.9986,30.8689 42.4526,30.3229 42.4526,29.6489 C42.4526,28.9759 42.9986,28.4299 43.6726,28.4299 L46.1116,28.4299 C46.7856,28.4299 47.3316,28.9759 47.3316,29.6489 C47.3316,30.3229 46.7856,30.8689 46.1116,30.8689" id="Fill-14" fill="#BD9042"></path>
                        <path d="M37.575,23.5518 L35.136,23.5518 C34.462,23.5518 33.916,23.0058 33.916,22.3318 C33.916,21.6588 34.462,21.1128 35.136,21.1128 L37.575,21.1128 C38.249,21.1128 38.795,21.6588 38.795,22.3318 C38.795,23.0058 38.249,23.5518 37.575,23.5518" id="Fill-16" fill="#BD9042"></path>
                        <path d="M29.0384,23.5518 L26.5994,23.5518 C25.9254,23.5518 25.3794,23.0058 25.3794,22.3318 C25.3794,21.6588 25.9254,21.1128 26.5994,21.1128 L29.0384,21.1128 C29.7124,21.1128 30.2584,21.6588 30.2584,22.3318 C30.2584,23.0058 29.7124,23.5518 29.0384,23.5518" id="Fill-18" fill="#BD9042"></path>
                        <path d="M46.1116,23.5518 L43.6726,23.5518 C42.9986,23.5518 42.4526,23.0058 42.4526,22.3318 C42.4526,21.6588 42.9986,21.1128 43.6726,21.1128 L46.1116,21.1128 C46.7856,21.1128 47.3316,21.6588 47.3316,22.3318 C47.3316,23.0058 46.7856,23.5518 46.1116,23.5518" id="Fill-20" fill="#BD9042"></path>
                        <path d="M21.2652,46.189 L18.6742,46.189 C17.9992,46.189 17.4542,45.643 17.4542,44.969 C17.4542,44.296 17.9992,43.75 18.6742,43.75 L21.2652,43.75 C21.9392,43.75 22.4852,44.296 22.4852,44.969 C22.4852,45.643 21.9392,46.189 21.2652,46.189" id="Fill-42" stroke="#FFFFFF" stroke-width="0.5" fill="#060707"></path>
                        <path d="M21.2652,42.3781 L18.6742,42.3781 C17.9992,42.3781 17.4542,41.8321 17.4542,41.1581 C17.4542,40.4851 17.9992,39.9391 18.6742,39.9391 L21.2652,39.9391 C21.9392,39.9391 22.4852,40.4851 22.4852,41.1581 C22.4852,41.8321 21.9392,42.3781 21.2652,42.3781" id="Fill-43" stroke="#FFFFFF" stroke-width="0.5" fill="#060707"></path>
                        <path d="M21.2652,38.5671 L18.6742,38.5671 C17.9992,38.5671 17.4542,38.0211 17.4542,37.3471 C17.4542,36.6741 17.9992,36.1281 18.6742,36.1281 L21.2652,36.1281 C21.9392,36.1281 22.4852,36.6741 22.4852,37.3471 C22.4852,38.0211 21.9392,38.5671 21.2652,38.5671" id="Fill-44" stroke="#FFFFFF" stroke-width="0.5" fill="#060707"></path>
                        <path d="M15.0152,46.189 L13.6432,46.189 C12.9692,46.189 12.4242,45.643 12.4242,44.969 C12.4242,44.296 12.9692,43.75 13.6432,43.75 L15.0152,43.75 C15.6892,43.75 16.2352,44.296 16.2352,44.969 C16.2352,45.643 15.6892,46.189 15.0152,46.189" id="Fill-46" stroke="#FFFFFF" stroke-width="0.5" fill="#060707"></path>
                        <path d="M15.0152,42.3781 L13.6432,42.3781 C12.9692,42.3781 12.4242,41.8321 12.4242,41.1581 C12.4242,40.4851 12.9692,39.9391 13.6432,39.9391 L15.0152,39.9391 C15.6892,39.9391 16.2352,40.4851 16.2352,41.1581 C16.2352,41.8321 15.6892,42.3781 15.0152,42.3781" id="Fill-47" stroke="#FFFFFF" stroke-width="0.5" fill="#060707"></path>
                        <path d="M15.0152,38.5671 L13.6432,38.5671 C12.9692,38.5671 12.4242,38.0211 12.4242,37.3471 C12.4242,36.6741 12.9692,36.1281 13.6432,36.1281 L15.0152,36.1281 C15.6892,36.1281 16.2352,36.6741 16.2352,37.3471 C16.2352,38.0211 15.6892,38.5671 15.0152,38.5671" id="Fill-48" stroke="#FFFFFF" stroke-width="0.5" fill="#060707"></path>
                        <path d="M32.6982,46.189 L30.1072,46.189 C29.4322,46.189 28.8872,45.643 28.8872,44.969 C28.8872,44.296 29.4322,43.75 30.1072,43.75 L32.6982,43.75 C33.3722,43.75 33.9182,44.296 33.9182,44.969 C33.9182,45.643 33.3722,46.189 32.6982,46.189" id="Fill-50" stroke="#FFFFFF" stroke-width="0.5" fill="#060707"></path>
                        <path d="M26.4482,46.189 L25.0762,46.189 C24.4022,46.189 23.8572,45.643 23.8572,44.969 C23.8572,44.296 24.4022,43.75 25.0762,43.75 L26.4482,43.75 C27.1222,43.75 27.6682,44.296 27.6682,44.969 C27.6682,45.643 27.1222,46.189 26.4482,46.189" id="Fill-52" stroke="#FFFFFF" stroke-width="0.5" fill="#060707"></path>
                        <path d="M55.4104,12.2904 L17.3004,12.2904 C16.6264,12.2904 16.0814,12.8364 16.0814,13.5104 L16.0814,29.8784 L18.5204,29.8784 L18.5204,14.7294 L54.1904,14.7294 L54.1904,38.6434 C54.1904,39.3154 53.6444,39.8624 52.9714,39.8624 L36.3574,39.8624 L36.3574,42.3014 L52.9714,42.3014 C54.9884,42.3014 56.6304,40.6604 56.6304,38.6434 L56.6304,13.5104 C56.6304,12.8364 56.0844,12.2904 55.4104,12.2904" id="Fill-22" fill="#BD9042"></path>
                        <path d="M25.857,47.122 L31.857,47.122 L31.857,41.939 L25.857,41.939 L25.857,47.122 Z M32.698,50 L25.076,50 C24.402,50 23.857,49.454 23.857,48.78 L23.857,41.159 C23.857,40.485 24.402,39.939 25.076,39.939 L32.698,39.939 C33.372,39.939 33.918,40.485 33.918,41.159 L33.918,48.78 C33.918,49.454 33.372,50 32.698,50 L32.698,50 Z" id="Fill-25" fill="#060707"></path>
                        <path d="M14.424,47.122 L20.424,47.122 L20.424,34.317 L14.424,34.317 L14.424,47.122 Z M21.265,50 L13.643,50 C12.969,50 12.424,49.454 12.424,48.78 L12.424,33.537 C12.424,32.863 12.969,32.317 13.643,32.317 L21.265,32.317 C21.939,32.317 22.485,32.863 22.485,33.537 L22.485,48.78 C22.485,49.454 21.939,50 21.265,50 L21.265,50 Z" id="Fill-27" fill="#060707"></path>
                        <path d="M3,47.427 L9,47.427 L9,27 L3,27 L3,47.427 Z M9.841,50 L2.219,50 C1.545,50 1,49.759 1,49.085 L1,26.22 C1,25.546 1.545,25 2.219,25 L9.841,25 C10.515,25 11.061,25.546 11.061,26.22 L11.061,49.085 C11.061,49.759 10.8829668,50 10.2089668,50 L9.841,50 Z" id="Fill-28" fill="#060707"></path>
                        <polygon id="Fill-53" fill="#FFFFFF" points="0.991 48.781 33.918 48.781 33.918 45.122 0.991 45.122"></polygon>
                        <path d="M33.689,50 L1.219,50 C0.545,50 0,49.454 0,48.78 C0,48.107 0.545,47.561 1.219,47.561 L33.689,47.561 C34.363,47.561 34.909,48.107 34.909,48.78 C34.909,49.454 34.363,50 33.689,50" id="Fill-54" fill="#060707"></path>
                    </g>
                </g>
            </g>
        </g>
    </g>
</svg>