<?xml version="1.0" encoding="UTF-8"?>
<svg width="58px" height="50px" viewBox="0 0 58 50" version="1.1" xmlns="http://www.w3.org/2000/svg" xmlns:xlink="http://www.w3.org/1999/xlink">
    <!-- Generator: sketchtool 46.2 (44496) - http://www.bohemiancoding.com/sketch -->
    <title>218F9DDD-D4B2-4661-BB0C-D7F402198AF2</title>
    <desc>Created with sketchtool.</desc>
    <defs></defs>
    <g id="Desktop-design" stroke="none" stroke-width="1" fill="none" fill-rule="evenodd">
        <g id="Parkchester_Careers" transform="translate(-411.000000, -990.000000)">
            <g id="icons" transform="translate(155.000000, 990.000000)">
                <g id="Health-Insurance" transform="translate(256.000000, 0.000000)">
                    <path d="M40.7573246,49.999 C40.6413246,50.003 40.5173246,49.983 40.4013246,49.939 L31.3453246,46.394 C30.8773246,46.206 30.6413246,45.675 30.8253246,45.203 L32.3283246,41.366 C32.5123246,40.895 33.0433246,40.663 33.5153246,40.851 L33.6233246,40.887 L33.6553246,39.835 C33.9233246,36.87 35.4453246,34.508 38.6593246,32.861 C39.7943246,32.306 40.7893246,31.55 41.6723246,30.583 C42.8553246,29.296 44.0023246,28.073 45.0783246,27.434 C46.3133246,26.702 47.6553246,26.67 48.7633246,27.929 L48.9263246,28.205 L50.6373246,24.236 C51.0493246,23.289 51.5243246,22.186 52.2003246,21.402 C52.9473246,20.535 53.9943246,20.02 55.3973246,20.355 C56.2963246,20.603 56.9083246,21.239 57.0283246,22.186 C57.1083246,22.801 56.9723246,23.493 56.6883246,24.232 L56.3963246,24.912 L53.2833246,33.676 C53.2793246,33.692 53.2673246,33.72 53.2553246,33.74 C52.8633246,34.628 52.2003246,35.455 51.1413246,36.222 L50.7333246,36.502 L45.1413246,41.454 C44.6223246,41.926 43.5713246,43.029 42.7673246,44.172 L42.6163246,44.424 L42.8793246,44.592 C43.1313246,44.839 43.2313246,45.227 43.0913246,45.583 L41.5883246,49.416 C41.4483246,49.771 41.1173246,49.991 40.7573246,49.999 Z M40.8893246,43.732 L41.2413246,43.149 C42.1643246,41.822 43.3433246,40.607 43.9183246,40.087 L49.5583246,35.091 C49.5943246,35.059 49.6343246,35.031 49.6703246,35.007 C50.4973246,34.476 51.0013246,33.96 51.3173246,33.473 L51.5683246,33.009 L54.6703246,24.276 C54.6863246,24.244 54.6983246,24.212 54.7103246,24.184 C55.1573246,23.261 55.2413246,22.705 55.2093246,22.418 C55.1853246,22.266 55.1533246,22.194 54.9383246,22.13 C54.3383246,21.99 53.9663246,22.162 53.5873246,22.601 C53.1313246,23.129 52.7673246,23.944 52.3243246,24.968 L50.1733246,29.951 L50.0223246,30.431 C49.7743246,31.039 49.3423246,31.618 48.5673246,32.054 L45.8653246,33.613 L44.7543246,34.504 C43.7193246,35.431 42.9793246,36.362 42.6043246,36.93 C42.3243246,37.349 41.7563246,37.465 41.3333246,37.182 C40.9133246,36.898 40.7973246,36.33 41.0773246,35.907 C41.6043246,35.123 42.6603246,33.816 44.1503246,32.609 L44.7543246,32.146 L45.3213246,31.634 C45.8693246,31.119 46.3493246,30.611 46.7043246,30.151 C47.1003246,29.648 47.2563246,29.316 47.3083246,29.144 L47.3203246,29.08 L47.2163246,28.976 C46.8403246,28.641 46.5243246,28.712 46.0133246,29.012 C45.2173246,29.484 44.2703246,30.471 43.0273246,31.822 C41.9963246,32.949 40.8213246,33.848 39.4863246,34.504 C36.6883246,35.931 35.5213246,37.905 35.4453246,40.551 L35.4773246,41.618 L40.8893246,43.732 Z M40.2143246,47.893 L41.0493246,45.771 L40.8533246,45.719 L40.7893246,45.663 L33.7033246,42.893 L32.8713246,45.019 L40.2143246,47.893 Z" id="Combined-Shape" fill="#060707"></path>
                    <path d="M16.2893246,49.999 C15.9333246,49.991 15.5973246,49.771 15.4583246,49.416 L13.9553246,45.583 C13.8193246,45.227 13.9153246,44.839 14.1713246,44.592 L14.4343246,44.42 L14.2793246,44.172 C13.4833246,43.029 12.4283246,41.926 11.9043246,41.454 L6.31332458,36.502 L5.90532458,36.222 C4.85032458,35.455 4.18332458,34.628 3.79132458,33.74 C3.78332458,33.72 3.77532458,33.692 3.76732458,33.676 L0.658324576,24.912 L0.362324576,24.232 C0.0823245761,23.493 -0.0576754239,22.801 0.0223245761,22.186 C0.142324576,21.235 0.757324576,20.603 1.65332458,20.355 C3.06032458,20.02 4.10732458,20.539 4.85032458,21.402 C5.52632458,22.186 5.99732458,23.289 6.41332458,24.236 L8.12332458,28.205 L8.29132458,27.929 C9.40632458,26.654 10.7293246,26.698 11.9723246,27.434 C13.0523246,28.073 14.1953246,29.296 15.3783246,30.583 C16.2653246,31.55 17.2563246,32.306 18.3913246,32.861 C21.6053246,34.508 23.1273246,36.874 23.3953246,39.839 L23.4273246,40.887 L23.5313246,40.851 C24.0033246,40.663 24.5383246,40.895 24.7223246,41.366 L26.2253246,45.203 C26.4093246,45.675 26.1773246,46.206 25.7053246,46.394 L16.6493246,49.939 C16.5293246,49.983 16.4053246,50.003 16.2893246,49.999 Z M16.1613246,43.732 L21.5693246,41.618 L21.6013246,40.551 C21.5293246,37.905 20.3663246,35.935 17.5683246,34.504 C16.2293246,33.848 15.0543246,32.949 14.0193246,31.822 C12.7803246,30.471 11.8323246,29.484 11.0373246,29.012 C10.5263246,28.712 10.2103246,28.641 9.83032458,28.976 L9.73032458,29.08 L9.74232458,29.144 C9.79432458,29.308 9.94232458,29.64 10.3463246,30.151 C10.7013246,30.611 11.1773246,31.119 11.7333246,31.634 L12.2923246,32.146 L12.9003246,32.609 C14.3903246,33.816 15.4463246,35.123 15.9733246,35.907 C16.2533246,36.33 16.1413246,36.898 15.7173246,37.182 C15.2983246,37.465 14.7263246,37.349 14.4423246,36.93 C14.0673246,36.362 13.3273246,35.431 12.2923246,34.504 L11.1853246,33.613 L8.48332458,32.054 C7.71232458,31.618 7.27632458,31.039 7.02832458,30.431 L6.87732458,29.951 L4.72632458,24.968 C4.28332458,23.944 3.91932458,23.129 3.46332458,22.601 C3.08432458,22.17 2.71632458,21.99 2.11232458,22.13 C1.90132458,22.194 1.86132458,22.258 1.84532458,22.418 C1.80532458,22.705 1.89732458,23.261 2.34032458,24.184 C2.35232458,24.212 2.36832458,24.244 2.37632458,24.276 L5.48232458,33.009 L5.73332458,33.473 C6.04932458,33.96 6.55332458,34.476 7.38032458,35.007 C7.42032458,35.031 7.45632458,35.059 7.49232458,35.091 L13.1313246,40.087 C13.7033246,40.607 14.8823246,41.822 15.8093246,43.149 L16.1613246,43.732 Z M16.8363246,47.893 L24.1823246,45.019 L23.3473246,42.893 L16.2653246,45.663 L16.1933246,45.719 L16.0013246,45.771 L16.8363246,47.893 Z" id="Combined-Shape" fill="#060707"></path>
                    <path d="M28.2953246,31.626 C27.8443246,31.594 27.3723246,31.446 26.8643246,31.147 L26.8283246,31.111 C21.1653246,27.042 15.5813246,22.713 12.7243246,17.805 L12.2283246,16.862 L8.56732458,16.862 C8.14332458,16.862 7.80032458,16.518 7.80032458,16.099 C7.80032458,15.675 8.14332458,15.327 8.56732458,15.327 L11.5533246,15.327 L11.4453246,15.068 C10.9613246,13.665 10.7133246,12.218 10.7573246,10.719 C10.7573246,4.824 15.4183246,0 21.2053246,0 C24.1513246,0 26.8163246,1.259 28.7073246,3.269 L28.7553246,3.317 L29.4703246,2.618 C31.3013246,0.991 33.6873246,0 36.3053246,0 C41.7243246,0 46.1653246,4.244 46.6963246,9.632 L46.7523246,10.695 L46.7523246,10.727 L46.7243246,12.306 C46.6403246,13.297 46.4443246,14.244 46.1493246,15.163 L45.9573246,15.671 L49.9743246,15.671 C50.3973246,15.671 50.7413246,16.019 50.7413246,16.438 C50.7413246,16.862 50.3973246,17.206 49.9743246,17.206 L45.2853246,17.206 L44.9743246,17.817 C42.0843246,22.953 36.1373246,27.03 30.4453246,30.975 L30.4133246,30.991 C29.8703246,31.33 29.3183246,31.566 28.7393246,31.622 C28.5913246,31.634 28.4433246,31.638 28.2953246,31.626 Z M29.6063246,20.923 L33.0153246,13.269 C33.2793246,12.681 34.1103246,12.661 34.4023246,13.237 L35.6333246,15.671 L44.3223246,15.671 L44.3823246,15.543 C44.9903246,14.044 45.2973246,12.462 45.2173246,10.763 L45.2173246,10.727 C45.2173246,5.631 41.1973246,1.53 36.3053246,1.53 C33.7673246,1.53 31.4773246,2.626 29.8503246,4.388 C29.7463246,4.5 29.6303246,4.604 29.4983246,4.692 C29.0793246,4.956 28.6153246,4.968 28.2033246,4.78 C27.9593246,4.668 27.7603246,4.496 27.5963246,4.324 C25.9653246,2.602 23.7033246,1.53 21.2053246,1.53 C16.3053246,1.53 12.2923246,5.631 12.2923246,10.739 C12.2443246,12.286 12.5523246,13.777 13.1513246,15.231 L13.1953246,15.327 L18.0673246,15.327 L19.1393246,13.872 C19.4503246,13.449 20.0863246,13.457 20.3903246,13.888 L22.6723246,17.17 L25.6253246,8.761 C25.8813246,8.029 26.9443246,8.101 27.1003246,8.857 L29.6063246,20.923 Z M28.5993246,30.095 C28.7553246,30.083 28.9073246,30.039 29.0713246,29.975 L29.5943246,29.696 L32.6683246,27.549 C37.0883246,24.408 41.0093246,21.282 43.2473246,17.733 L43.5513246,17.206 L35.1663246,17.206 C34.8743246,17.206 34.6103246,17.042 34.4823246,16.786 L33.7593246,15.367 L30.0383246,23.721 C29.8903246,24.056 29.5623246,24.2 29.2583246,24.164 C28.9513246,24.132 28.6633246,23.924 28.5913246,23.561 L26.1613246,11.87 L23.6233246,19.092 C23.4153246,19.68 22.6283246,19.788 22.2723246,19.276 L19.7423246,15.643 L19.0753246,16.55 C18.9273246,16.746 18.6993246,16.862 18.4553246,16.862 L13.9633246,16.862 L14.2553246,17.382 C16.4333246,20.927 20.2223246,24.268 24.6223246,27.589 L27.6803246,29.836 L28.1473246,30.047 C28.2993246,30.095 28.4473246,30.111 28.5993246,30.095 Z" id="Combined-Shape" fill="#BD9042"></path>
                    <path d="M14.8983246,9.548 C14.7983246,9.556 14.6943246,9.536 14.5983246,9.5 C14.2033246,9.344 14.0073246,8.905 14.1593246,8.509 C14.9903246,6.367 16.4213246,4.584 18.8473246,3.473 C19.2263246,3.297 19.6863246,3.465 19.8623246,3.853 C20.0383246,4.236 19.8703246,4.692 19.4863246,4.868 C17.4683246,5.791 16.2933246,7.242 15.5893246,9.06 C15.4743246,9.356 15.1983246,9.54 14.8983246,9.548 L14.8983246,9.548 Z" id="Path" fill="#BD9042"></path>
                </g>
            </g>
        </g>
    </g>
</svg>