<?xml version="1.0" encoding="UTF-8"?>
<svg width="40px" height="50px" viewBox="0 0 40 50" version="1.1" xmlns="http://www.w3.org/2000/svg" xmlns:xlink="http://www.w3.org/1999/xlink">
    <!-- Generator: sketchtool 46.2 (44496) - http://www.bohemiancoding.com/sketch -->
    <title>87209087-D827-47A8-91B2-4CE01BA5C056</title>
    <desc>Created with sketchtool.</desc>
    <defs></defs>
    <g id="Desktop-design" stroke="none" stroke-width="1" fill="none" fill-rule="evenodd">
        <g id="Parkchester_Careers" transform="translate(-620.000000, -990.000000)">
            <g id="icons" transform="translate(155.000000, 990.000000)">
                <g id="Paid-Sick-Days" transform="translate(465.000000, 0.000000)">
                    <path d="M4.44087523,49.9993143 C4.13487523,49.9893143 3.85287523,49.7993143 3.73787523,49.4973143 L0.0488752323,39.7433143 C-0.100124768,39.3393143 0.102875232,38.8913143 0.503875232,38.7393143 L4.63387523,37.1743143 C5.03787523,37.0253143 5.48887523,37.2253143 5.63887523,37.6293143 L5.78787523,38.0193143 L5.80487523,38.0023143 C8.53987523,35.3993143 11.7578752,34.5613143 15.8128752,36.1023143 C17.0928752,36.6113143 18.4328752,36.8653143 19.8648752,36.8763143 C21.7218752,36.8893143 23.5098752,36.9263143 24.7588752,37.3133143 C25.3968752,37.5103143 25.9978752,37.8333143 26.4048752,38.3723143 C26.8258752,38.9323143 26.9578752,39.6183143 26.8668752,40.3783143 C26.8428752,40.6193143 26.7578752,40.8433143 26.6288752,41.0403143 L26.5988752,41.0773143 L31.4278752,39.4383143 C32.4598752,39.0923143 33.6748752,38.6783143 34.7398752,38.6543143 C35.9078752,38.6303143 36.9898752,39.0583143 37.6888752,40.3413143 C38.0998752,41.1583143 38.0418752,42.0143143 37.4348752,42.7233143 C36.9598752,43.2733143 36.1998752,43.6873143 35.2488752,44.0093143 L34.8728752,44.1253143 L25.6688752,47.9433143 C25.6548752,47.9493143 25.6308752,47.9603143 25.6178752,47.9633143 C25.0748752,48.1433143 24.4808752,48.2453143 23.8258752,48.2413143 C23.3298752,48.2383143 22.8008752,48.1843143 22.2238752,48.0613143 L21.7078752,47.9363143 L13.7288752,47.0433143 C12.9728752,46.9653143 11.3158752,46.9183143 9.80987523,47.1043143 L9.25587523,47.1893143 L9.32787523,47.3833143 C9.47987523,47.7833143 9.27687523,48.2383143 8.87587523,48.3873143 L4.74587523,49.9523143 C4.64387523,49.9893143 4.53887523,50.0033143 4.44087523,49.9993143 Z M23.6318752,46.6773143 C24.0938752,46.6973143 24.4908752,46.6503143 24.8408752,46.5653143 L25.1118752,46.4903143 L34.3088752,42.6723143 C34.3328752,42.6623143 34.3598752,42.6523143 34.3868752,42.6453143 C35.4528752,42.3293143 36.0098752,41.9873143 36.2468752,41.7083143 C36.4168752,41.5153143 36.4468752,41.3383143 36.3078752,41.0603143 C35.9478752,40.3983143 35.4558752,40.1983143 34.7778752,40.2123143 C33.9998752,40.2293143 33.0538752,40.5343143 31.9268752,40.9143143 L26.4358752,42.7813143 L26.2288752,42.8863143 C25.5298752,43.2083143 24.7078752,43.3543143 23.7138752,43.0183143 L20.5138752,41.9833143 L19.7498752,41.8413143 C17.9268752,41.5523143 16.3118752,41.6443143 15.4568752,41.7693143 C15.0328752,41.8343143 14.6388752,41.5393143 14.5738752,41.1143143 C14.5098752,40.6873143 14.8048752,40.2903143 15.2328752,40.2253143 C16.2168752,40.0833143 17.9918752,39.9843143 19.9978752,40.3003143 L20.8118752,40.4533143 L21.6878752,40.5413143 C22.5568752,40.6053143 23.3538752,40.6193143 24.0018752,40.5613143 C24.4368752,40.5173143 24.7728752,40.4493143 25.0098752,40.3613143 C25.1968752,40.2933143 25.2778752,40.2323143 25.3158752,40.2053143 L25.3328752,40.0353143 C25.3498752,39.6653143 25.2648752,39.4513143 25.1558752,39.3093143 C25.0238752,39.1293143 24.7688752,38.9493143 24.2938752,38.8033143 C23.3338752,38.5053143 21.8678752,38.4503143 19.8548752,38.4333143 C18.2398752,38.4233143 16.7058752,38.1383143 15.2458752,37.5543143 C11.5678752,36.1563143 8.84887523,37.0183143 6.39887523,39.6113143 L6.39187523,39.6183143 L8.69287523,45.7103143 L8.75387523,45.6963143 C10.6548752,45.3293143 12.9418752,45.3943143 13.8958752,45.4923143 L21.9218752,46.3923143 C21.9628752,46.3953143 22.0028752,46.4053143 22.0408752,46.4153143 C22.6478752,46.5783143 23.1708752,46.6563143 23.6318752,46.6773143 Z M4.92287523,48.2183143 L7.59287523,47.2063143 L7.53587523,47.0503143 L7.43087523,46.8403143 L7.41987523,46.7483143 L4.73187523,39.6313143 L4.69887523,39.5573143 L4.69487523,39.5333143 L4.45787523,38.9083143 L1.78287523,39.9203143 L4.92287523,48.2183143 Z" id="Combined-Shape" fill="#060707"></path>
                    <path d="M10.1288752,32.2023143 C9.60287523,32.2023143 9.22587523,31.6933143 9.38187523,31.1913143 C9.76187523,29.9793143 9.80287523,29.0733143 9.57887523,28.2523143 L9.33387523,27.5943143 L8.31587523,26.8333143 C3.80587523,22.9513143 3.16787523,16.2693143 5.17987523,11.2833143 L5.27187523,11.0663143 L4.94587523,11.0493143 C4.31787523,10.9443143 3.79887523,10.6653143 3.39487523,10.2923143 L3.34087523,10.2313143 L3.24287523,10.2723143 C3.00787523,10.3573143 2.77087523,10.4013143 2.54287523,10.3973143 C2.28587523,10.3913143 1.98687523,10.3193143 1.73187523,10.1053143 C0.258875232,8.88731435 0.0828752323,7.31631435 0.401875232,6.02631435 C0.557875232,5.40231435 0.825875232,4.84231435 1.11787523,4.39731435 C1.39587523,3.97631435 1.74587523,3.58631435 2.10587523,3.38231435 C2.13587523,3.36231435 2.17387523,3.34531435 2.20787523,3.32831435 C2.59787523,3.14531435 3.06287523,3.31131435 3.24587523,3.70131435 C3.40587523,4.04431435 3.29387523,4.44131435 3.00487523,4.65831435 L2.87587523,4.73631435 C2.82887523,4.76031435 2.64187523,4.92331435 2.41787523,5.25631435 C2.21087523,5.56831435 2.02387523,5.96831435 1.91587523,6.40331435 C1.75987523,7.02431435 1.77687523,7.69631435 2.18387523,8.31031435 L2.41087523,8.60531435 L2.33987523,8.29731435 C2.17687523,7.42431435 2.30587523,6.47131435 2.89287523,5.91431435 C3.16787523,5.65631435 3.53387523,5.50331435 3.95187523,5.51731435 C4.31187523,5.52731435 4.65087523,5.66631435 4.96287523,5.86731435 C5.56687523,6.25731435 5.80487523,6.85131435 5.73987523,7.46831435 C5.68287523,8.01131435 5.39387523,8.51031435 5.08487523,8.89731435 C5.01087523,8.99231435 4.93287523,9.08431435 4.84387523,9.17231435 L4.69487523,9.32131435 L4.86087523,9.41031435 C5.10587523,9.51231435 5.40387523,9.55631435 5.76087523,9.51531435 L6.03887523,9.53931435 L6.34787523,9.04031435 C6.68387523,8.52131435 7.06087523,8.03531435 7.46787523,7.59731435 C10.7698752,4.01031435 16.7968752,2.40531435 22.7868752,3.30131435 L23.5168752,3.42731435 L23.6048752,3.21631435 C25.1148752,1.04131435 27.8198752,-0.333685653 30.1378752,0.0703143469 C30.5758752,0.145314347 30.8608752,0.572314347 30.7658752,1.00331435 L30.4568752,2.40831435 L30.7388752,2.33431435 C32.0458752,2.03231435 33.4568752,2.07931435 34.6178752,2.60931435 C34.9808752,2.77231435 35.1578752,3.18231435 35.0358752,3.55931435 C34.6448752,4.75331435 34.1258752,5.94131435 33.4198752,7.11931435 L32.9818752,7.78131435 L33.1008752,7.87631435 C33.9188752,8.56531435 34.6858752,9.33831435 35.3988752,10.1903143 L36.5658752,11.7923143 L38.2768752,11.8743143 C38.6908752,11.8973143 39.0158752,12.2403143 39.0158752,12.6543143 L39.0158752,20.4903143 C39.0158752,20.9253143 38.6628752,21.2713143 38.2358752,21.2713143 L36.3008752,21.2713143 L35.5718752,22.6013143 C34.6858752,24.0173143 33.5928752,25.2793143 32.1198752,26.3923143 L31.2848752,26.9763143 L30.8848752,27.4373143 C30.0468752,28.5813143 30.3008752,29.7083143 30.6608752,31.1673143 C30.7828752,31.6563143 30.4098752,32.1313143 29.9038752,32.1313143 L24.5888752,32.1313143 C24.1578752,32.1313143 23.8088752,31.7813143 23.8088752,31.3503143 C23.8088752,29.3073143 22.1358752,28.1773143 20.2078752,28.1773143 C18.2938752,28.1773143 16.6108752,29.2973143 16.6108752,31.4223143 C16.6108752,31.8563143 16.2578752,32.2023143 15.8298752,32.2023143 L10.1288752,32.2023143 Z M27.2398752,4.46531435 L27.2538752,4.44131435 C27.5998752,3.95331435 28.0918752,3.52231435 28.6648752,3.16931435 L28.7028752,3.14831435 L29.0448752,1.57431435 L28.9228752,1.58031435 C27.8538752,1.69231435 26.6828752,2.23931435 25.7428752,3.11831435 L25.1528752,3.79631435 L25.7698752,3.96331435 C26.0958752,4.06131435 26.4218752,4.16631435 26.7478752,4.27831435 L27.2398752,4.46531435 Z M31.7328752,6.83031435 L32.3878752,5.78231435 C32.6838752,5.24631435 32.9378752,4.70631435 33.1548752,4.16631435 L33.2938752,3.80731435 L33.2198752,3.79031435 C32.4258752,3.62731435 31.5158752,3.70131435 30.6638752,3.97031435 C30.0868752,4.14931435 29.5848752,4.40131435 29.1948752,4.68931435 L28.7428752,5.09331435 L29.5988752,5.51731435 C30.2128752,5.84331435 30.8168752,6.20331435 31.4038752,6.59631435 L31.7328752,6.83031435 Z M3.86687523,7.93731435 C4.08787523,7.64831435 4.17887523,7.42431435 4.19287523,7.30231435 C4.19587523,7.25131435 4.20587523,7.23131435 4.11787523,7.17731435 C4.03987523,7.12931435 3.98587523,7.10231435 3.93787523,7.08831435 L3.89787523,7.16631435 C3.87387523,7.24131435 3.84287523,7.35331435 3.83287523,7.51631435 C3.82987523,7.59131435 3.82987523,7.66931435 3.83287523,7.75031435 L3.85687523,7.93731435 L3.86687523,7.93731435 Z M15.1308752,30.6453143 L15.1718752,30.2813143 C15.7178752,27.7943143 18.0528752,26.6203143 20.2078752,26.6203143 C22.3558752,26.6203143 24.6948752,27.7873143 25.2438752,30.2273143 L25.2818752,30.5703143 L28.9328752,30.5703143 L28.8618752,30.2343143 C28.6308752,28.8663143 28.7088752,27.3253143 30.2198752,25.8363143 C30.2568752,25.7983143 30.2978752,25.7643143 30.3418752,25.7373143 C32.6628752,24.2303143 34.0478752,22.4083143 35.1438752,20.1513143 C35.2728752,19.8833143 35.5448752,19.7133143 35.8428752,19.7133143 L37.4548752,19.7133143 L37.4548752,13.3943143 L36.1178752,13.3263143 C35.8668752,13.3133143 35.6358752,13.1803143 35.4998752,12.9663143 C29.0008752,2.76131435 14.1428752,2.64931435 8.61487523,8.65031435 C4.47787523,13.1233143 4.31487523,22.4933143 10.4068752,26.4573143 C10.5288752,26.5313143 10.6208752,26.6433143 10.6848752,26.7723143 C11.2148752,27.8793143 11.3938752,28.9883143 11.1938752,30.2883143 L11.1088752,30.6453143 L15.1308752,30.6453143 Z" id="Combined-Shape" fill="#BD9042"></path>
                    <path d="M32.5268752,13.5873143 C32.1918752,13.5873143 31.8828752,13.3743143 31.7808752,13.0413143 C31.6988752,12.7763143 31.6078752,12.6413143 31.5258752,12.5663143 C31.4858752,12.5323143 31.4378752,12.4983143 31.3668752,12.4713143 C31.2888752,12.4473143 31.1798752,12.4273143 31.0138752,12.4233143 C30.5828752,12.4233143 30.2368752,12.0743143 30.2398752,11.6393143 C30.2398752,11.2123143 30.5898752,10.8663143 31.0208752,10.8663143 C31.3258752,10.8663143 31.6078752,10.9103143 31.8718752,10.9983143 C32.1408752,11.0933143 32.3678752,11.2293143 32.5648752,11.4023143 C32.9478752,11.7453143 33.1448752,12.1893143 33.2668752,12.5733143 C33.3958752,12.9833143 33.1688752,13.4213143 32.7578752,13.5543143 C32.6798752,13.5773143 32.5988752,13.5873143 32.5268752,13.5873143 L32.5268752,13.5873143 Z" id="Path" fill="#BD9042"></path>
                    <path d="M23.1338752,7.98131435 C23.0828752,7.97831435 23.0278752,7.97431435 22.9768752,7.96131435 C20.4318752,7.40431435 18.1788752,7.58431435 15.9388752,7.96731435 C15.5178752,8.04231435 15.1108752,7.75731435 15.0388752,7.32931435 C14.9648752,6.90931435 15.2498752,6.50531435 15.6738752,6.43031435 C18.0118752,6.03031435 20.4898752,5.82331435 23.3098752,6.43731435 C23.7308752,6.52831435 23.9958752,6.94631435 23.9038752,7.36731435 C23.8258752,7.73731435 23.4968752,7.98431435 23.1338752,7.98131435 L23.1338752,7.98131435 Z" id="Path" fill="#BD9042"></path>
                </g>
            </g>
        </g>
    </g>
</svg>