<?xml version="1.0" encoding="UTF-8"?>
<svg width="50px" height="50px" viewBox="0 0 50 50" version="1.1" xmlns="http://www.w3.org/2000/svg" xmlns:xlink="http://www.w3.org/1999/xlink">
    <!-- Generator: sketchtool 46.2 (44496) - http://www.bohemiancoding.com/sketch -->
    <title>356ABC28-72C3-4309-90B9-9FB332816543</title>
    <desc>Created with sketchtool.</desc>
    <defs></defs>
    <g id="Desktop-design" stroke="none" stroke-width="1" fill="none" fill-rule="evenodd">
        <g id="Parkchester_About-Us" transform="translate(-75.000000, -2422.000000)">
            <g id="Our-Commitment" transform="translate(75.000000, 2348.000000)">
                <g id="Group" transform="translate(0.000000, 74.000000)">
                    <g id="Premier-Service">
                        <g>
                            <g id="Group-3" transform="translate(0.000000, 4.000000)" fill="#060707">
                                <path d="M6.6036,39.7637 L2.5246,39.7637 C1.9316,39.7637 1.4486,39.2807 1.4486,38.6867 L1.4486,3.3127 C1.4486,2.7197 1.9316,2.2367 2.5246,2.2367 L6.6036,2.2367 L6.6036,39.7637 Z M7.3286,0.7877 L2.5246,0.7877 C1.1326,0.7877 -0.0004,1.9207 -0.0004,3.3127 L-0.0004,38.6867 C-0.0004,40.0797 1.1326,41.2127 2.5246,41.2127 L7.3286,41.2127 C7.7286,41.2127 8.0526,40.8887 8.0526,40.4887 L8.0526,1.5127 C8.0526,1.1117 7.7286,0.7877 7.3286,0.7877 L7.3286,0.7877 Z" id="Fill-1"></path>
                            </g>
                            <path d="M47.9867,42.6872 C47.9867,43.2812 47.5037,43.7642 46.9107,43.7642 L42.8317,43.7642 L42.8317,6.2372 L46.9107,6.2372 C47.5037,6.2372 47.9867,6.7192 47.9867,7.3132 L47.9867,42.6872 Z M46.9107,4.7882 L42.1077,4.7882 C41.7077,4.7882 41.3827,5.1122 41.3827,5.5122 L41.3827,44.4882 C41.3827,44.8882 41.7077,45.2122 42.1077,45.2122 L46.9107,45.2122 C48.3027,45.2122 49.4357,44.0792 49.4357,42.6872 L49.4357,7.3132 C49.4357,5.9202 48.3027,4.7882 46.9107,4.7882 L46.9107,4.7882 Z" id="Fill-4" fill="#060707"></path>
                            <path d="M12.7498,39.3817 L27.1918,39.3817 C27.5918,39.3817 27.9168,39.0577 27.9168,38.6567 C27.9168,38.2567 27.5918,37.9327 27.1918,37.9327 L12.7498,37.9327 C12.3498,37.9327 12.0258,38.2567 12.0258,38.6567 C12.0258,39.0577 12.3498,39.3817 12.7498,39.3817" id="Fill-6" fill="#060707"></path>
                            <path d="M30.3204,39.3817 L36.6854,39.3817 C37.0864,39.3817 37.4104,39.0577 37.4104,38.6567 C37.4104,38.2567 37.0864,37.9327 36.6854,37.9327 L30.3204,37.9327 C29.9204,37.9327 29.5954,38.2567 29.5954,38.6567 C29.5954,39.0577 29.9204,39.3817 30.3204,39.3817" id="Fill-8" fill="#060707"></path>
                            <path d="M36.6858,40.9133 L22.2438,40.9133 C21.8438,40.9133 21.5188,41.2373 21.5188,41.6383 C21.5188,42.0383 21.8438,42.3623 22.2438,42.3623 L36.6858,42.3623 C37.0858,42.3623 37.4098,42.0383 37.4098,41.6383 C37.4098,41.2373 37.0858,40.9133 36.6858,40.9133" id="Fill-10" fill="#060707"></path>
                            <path d="M12.7498,42.3623 L19.1148,42.3623 C19.5158,42.3623 19.8398,42.0383 19.8398,41.6373 C19.8398,41.2373 19.5158,40.9133 19.1148,40.9133 L12.7498,40.9133 C12.3498,40.9133 12.0258,41.2373 12.0258,41.6373 C12.0258,42.0383 12.3498,42.3623 12.7498,42.3623" id="Fill-12" fill="#060707"></path>
                            <path d="M36.6886,43.9782 L12.7526,43.8942 L12.7496,43.8942 C12.3506,43.8942 12.0266,44.2162 12.0256,44.6152 C12.0246,45.0162 12.3476,45.3422 12.7466,45.3432 L36.6826,45.4272 L36.6856,45.4272 C37.0846,45.4272 37.4096,45.1042 37.4106,44.7052 C37.4116,44.3052 37.0886,43.9792 36.6886,43.9782" id="Fill-14" fill="#060707"></path>
                            <path d="M27.0959,25.5677 C27.4339,25.3547 27.5369,24.9077 27.3239,24.5687 C27.1109,24.2307 26.6629,24.1277 26.3249,24.3407 C25.2919,24.9887 23.9329,24.9887 22.9019,24.3407 C22.5629,24.1287 22.1159,24.2287 21.9029,24.5687 C21.6899,24.9067 21.7919,25.3547 22.1309,25.5677 C22.8779,26.0367 23.7369,26.2857 24.6129,26.2857 C25.4899,26.2857 26.3479,26.0377 27.0959,25.5677" id="Fill-16" fill="#BE913A"></path>
                            <path d="M20.6626,18.7768 C20.2626,18.7768 19.9386,19.1008 19.9386,19.5008 L19.9386,20.8558 C19.9386,21.2568 20.2626,21.5808 20.6626,21.5808 C21.0626,21.5808 21.3876,21.2568 21.3876,20.8558 L21.3876,19.5008 C21.3876,19.1008 21.0626,18.7768 20.6626,18.7768" id="Fill-18" fill="#BE913A"></path>
                            <path d="M28.5636,21.5808 C28.9636,21.5808 29.2886,21.2568 29.2886,20.8558 L29.2886,19.5008 C29.2886,19.1008 28.9636,18.7768 28.5636,18.7768 C28.1636,18.7768 27.8386,19.1008 27.8386,19.5008 L27.8386,20.8558 C27.8386,21.2568 28.1636,21.5808 28.5636,21.5808" id="Fill-20" fill="#BE913A"></path>
                            <path d="M13.7048,33.9321 C14.1228,32.9471 14.9688,32.1761 16.0218,31.8721 L20.7258,30.5131 C21.8878,31.4571 23.2978,31.9531 24.7208,31.9531 C26.1428,31.9531 27.5518,31.4571 28.7138,30.5151 L33.4138,31.8721 C34.4668,32.1761 35.3128,32.9471 35.7308,33.9321 L13.7048,33.9321 Z M24.3788,29.2911 L24.8488,29.2911 C25.8408,29.2911 26.7868,29.0991 27.6638,28.7641 L27.7828,29.4401 C25.9998,30.8611 23.4398,30.8611 21.6548,29.4361 L21.7578,28.8361 C22.5798,29.1251 23.4588,29.2911 24.3788,29.2911 L24.3788,29.2911 Z M17.9068,21.3701 L17.9068,16.9801 C17.9068,16.0791 18.0968,15.1901 18.4598,14.3711 C20.7688,15.7811 23.0448,16.3561 25.5498,16.1741 C25.7918,16.1571 26.0088,16.0191 26.1288,15.8081 C26.2478,15.5971 26.2538,15.3411 26.1448,15.1251 L25.5198,13.8871 C27.2298,14.4771 29.0798,14.8081 30.6818,14.1881 C31.1008,15.0571 31.3198,16.0101 31.3198,16.9801 L31.3198,21.3701 C31.3198,23.8211 29.9508,25.9571 27.9378,27.0551 C27.8878,27.0761 27.8378,27.0941 27.7948,27.1251 C26.9098,27.5801 25.9098,27.8421 24.8488,27.8421 L24.3788,27.8421 C20.8098,27.8421 17.9068,24.9391 17.9068,21.3701 L17.9068,21.3701 Z M24.6098,6.4511 C29.1668,6.4511 33.7648,8.8771 33.7648,14.2951 C33.7648,15.8121 33.3928,17.1711 32.7688,18.5371 L32.7688,16.9801 C32.7688,15.5241 32.3658,14.0991 31.6048,12.8581 C31.3978,12.5191 30.9558,12.4111 30.6168,12.6141 C29.2688,13.4181 27.3228,13.1811 24.3038,11.8441 C24.0238,11.7201 23.6958,11.7851 23.4858,12.0071 C23.2748,12.2291 23.2258,12.5601 23.3638,12.8331 L24.3338,14.7531 C22.3408,14.6931 20.5298,14.0491 18.5898,12.7321 C18.4238,12.6201 18.2208,12.5801 18.0258,12.6241 C17.8308,12.6671 17.6618,12.7891 17.5598,12.9611 C16.8388,14.1771 16.4578,15.5661 16.4578,16.9801 L16.4578,18.2511 C15.9198,16.8651 15.6748,15.6001 15.6748,14.2951 C15.6748,9.5301 19.1818,6.4511 24.6098,6.4511 L24.6098,6.4511 Z M33.8158,30.4791 L29.2018,29.1471 L29.0158,28.0931 C31.2058,26.7301 32.6818,24.3341 32.7578,21.5891 C34.2338,19.1691 35.2138,16.9861 35.2138,14.2951 C35.2138,8.7371 30.9518,5.0021 24.6098,5.0021 C18.3988,5.0021 14.2258,8.7371 14.2258,14.2951 C14.2258,16.6061 14.9218,18.8591 16.4678,21.5741 C16.5408,24.4031 18.1008,26.8621 20.3958,28.2051 L20.2358,29.1461 L15.6198,30.4791 C13.7448,31.0211 12.3378,32.6171 12.0348,34.5441 C12.0008,34.7531 12.0618,34.9661 12.1988,35.1271 C12.3368,35.2881 12.5378,35.3811 12.7498,35.3811 L36.6858,35.3811 C36.8978,35.3811 37.0988,35.2881 37.2368,35.1271 C37.3738,34.9661 37.4348,34.7531 37.4008,34.5441 C37.0978,32.6171 35.6908,31.0211 33.8158,30.4791 L33.8158,30.4791 Z" id="Fill-22" fill="#BE913A"></path>
                            <path d="M41.3831,47.475 C41.3831,48.068 40.9001,48.551 40.3071,48.551 L9.1281,48.551 C8.5351,48.551 8.0531,48.068 8.0531,47.475 L8.0531,2.525 C8.0531,1.932 8.5351,1.449 9.1281,1.449 L40.3071,1.449 C40.9001,1.449 41.3831,1.932 41.3831,2.525 L41.3831,47.475 Z M40.3071,0 L9.1281,0 C7.7361,0 6.6041,1.133 6.6041,2.525 L6.6041,47.475 C6.6041,48.867 7.7361,50 9.1281,50 L40.3071,50 C41.6991,50 42.8321,48.867 42.8321,47.475 L42.8321,2.525 C42.8321,1.133 41.6991,0 40.3071,0 L40.3071,0 Z" id="Fill-24" fill="#BE913A"></path>
                        </g>
                    </g>
                </g>
            </g>
        </g>
    </g>
</svg>