<?xml version="1.0" encoding="UTF-8"?>
<svg width="50px" height="50px" viewBox="0 0 50 50" version="1.1" xmlns="http://www.w3.org/2000/svg" xmlns:xlink="http://www.w3.org/1999/xlink">
    <!-- Generator: sketchtool 46.2 (44496) - http://www.bohemiancoding.com/sketch -->
    <title>E318188B-7FC3-4718-8156-B319A6B69852</title>
    <desc>Created with sketchtool.</desc>
    <defs>
        <polygon id="path-1" points="24.9998 37 0 37 0 0.213 49.9996 0.213 49.9996 37"></polygon>
    </defs>
    <g id="Desktop-design" stroke="none" stroke-width="1" fill="none" fill-rule="evenodd">
        <g id="Parkchester_About-Us" transform="translate(-375.000000, -2422.000000)">
            <g id="Our-Commitment" transform="translate(75.000000, 2348.000000)">
                <g id="Group" transform="translate(300.000000, 74.000000)">
                    <g id="Quick-Response">
                        <g>
                            <path d="M25,21.4698 C27.063,21.4698 28.873,23.6468 28.873,26.1278 C28.873,28.8108 28.708,30.0998 25,30.0998 C21.292,30.0998 21.127,28.8108 21.127,26.1278 C21.127,23.6468 22.937,21.4698 25,21.4698 M25,31.5488 C29.921,31.5488 30.322,29.0938 30.322,26.1278 C30.322,22.8178 27.884,20.0208 25,20.0208 C22.116,20.0208 19.678,22.8178 19.678,26.1278 C19.678,29.0938 20.079,31.5488 25,31.5488" id="Fill-1" fill="#BE913A"></path>
                            <path d="M31.3981,37.6259 L18.6021,37.6259 L18.6021,36.7549 C18.6021,34.6719 21.8211,33.5819 25.0001,33.5819 C26.7331,33.5819 28.4021,33.9109 29.5801,34.4839 C30.7861,35.0699 31.3981,35.8349 31.3981,36.7549 L31.3981,37.6259 Z M25.0001,32.1329 C21.2211,32.1329 17.1531,33.5799 17.1531,36.7549 L17.1531,38.3499 C17.1531,38.7509 17.4771,39.0749 17.8771,39.0749 L32.1231,39.0749 C32.5231,39.0749 32.8471,38.7509 32.8471,38.3499 L32.8471,36.7549 C32.8471,33.5799 28.7791,32.1329 25.0001,32.1329 L25.0001,32.1329 Z" id="Fill-3" fill="#BE913A"></path>
                            <g id="Group-7" transform="translate(0.000000, 13.000000)">
                                <mask id="mask-2" fill="white">
                                    <use xlink:href="#path-1"></use>
                                </mask>
                                <g id="Clip-6"></g>
                                <path d="M46.4936,35.551 L3.5066,35.551 C2.5656,35.551 1.7696,34.915 1.5256,34.051 L48.4736,34.051 C48.2306,34.915 47.4346,35.551 46.4936,35.551 L46.4936,35.551 Z M45.0926,28.998 L47.8186,32.602 L2.1806,32.602 L4.9066,28.998 L45.0926,28.998 Z M49.9826,33.242 C49.9776,33.193 49.9696,33.146 49.9536,33.098 C49.9376,33.051 49.9156,33.008 49.8906,32.966 C49.8756,32.941 49.8716,32.913 49.8536,32.889 L46.0806,27.901 L44.0946,4.685 C44.0606,4.288 43.7156,3.983 43.3106,4.026 C42.9126,4.059 42.6166,4.41 42.6506,4.809 L44.5966,27.549 L5.4036,27.549 L7.3846,4.405 C7.5226,2.841 8.8096,1.662 10.3786,1.662 L30.6636,1.662 C31.0636,1.662 31.3876,1.338 31.3876,0.938 C31.3876,0.538 31.0636,0.213 30.6636,0.213 L10.3786,0.213 C8.0536,0.213 6.1456,1.96 5.9406,4.279 L3.9196,27.901 L0.1466,32.889 C0.1286,32.913 0.1246,32.941 0.1096,32.966 C0.0846,33.008 0.0626,33.051 0.0456,33.098 C0.0296,33.146 0.0226,33.193 0.0166,33.242 C0.0136,33.271 -0.0004,33.296 -0.0004,33.326 L-0.0004,33.493 C-0.0004,35.426 1.5736,37 3.5066,37 L46.4936,37 C48.4266,37 49.9996,35.426 49.9996,33.493 L49.9996,33.326 C49.9996,33.296 49.9866,33.271 49.9826,33.242 L49.9826,33.242 Z" id="Fill-5" fill="#060707" mask="url(#mask-2)"></path>
                            </g>
                            <path d="M8.9231,37.6259 L10.5801,17.4889 L30.6631,17.4889 C31.0641,17.4889 31.3881,17.1649 31.3881,16.7649 C31.3881,16.3639 31.0641,16.0399 30.6631,16.0399 L9.9121,16.0399 C9.5351,16.0399 9.2211,16.3289 9.1901,16.7049 L7.4141,38.2909 C7.3981,38.4929 7.4661,38.6919 7.6041,38.8409 C7.7411,38.9899 7.9341,39.0749 8.1361,39.0749 L41.8641,39.0749 C42.0671,39.0749 42.2601,38.9899 42.3971,38.8409 C42.5341,38.6919 42.6031,38.4929 42.5861,38.2909 L40.8931,17.7179 C40.8611,17.3199 40.5231,17.0199 40.1121,17.0559 C39.7131,17.0879 39.4161,17.4379 39.4491,17.8369 L41.0771,37.6259 L8.9231,37.6259 Z" id="Fill-8" fill="#060707"></path>
                            <path d="M6.7253,44.4791 L10.0963,44.4791 C10.4963,44.4791 10.8213,44.1551 10.8213,43.7551 C10.8213,43.3541 10.4963,43.0301 10.0963,43.0301 L6.7253,43.0301 C6.3253,43.0301 6.0003,43.3541 6.0003,43.7551 C6.0003,44.1551 6.3253,44.4791 6.7253,44.4791" id="Fill-10" fill="#060707"></path>
                            <path d="M13.3923,44.4791 L16.7633,44.4791 C17.1633,44.4791 17.4883,44.1551 17.4883,43.7551 C17.4883,43.3541 17.1633,43.0301 16.7633,43.0301 L13.3923,43.0301 C12.9923,43.0301 12.6673,43.3541 12.6673,43.7551 C12.6673,44.1551 12.9923,44.4791 13.3923,44.4791" id="Fill-12" fill="#060707"></path>
                            <path d="M20.0593,44.4791 L23.4303,44.4791 C23.8303,44.4791 24.1543,44.1551 24.1543,43.7551 C24.1543,43.3541 23.8303,43.0301 23.4303,43.0301 L20.0593,43.0301 C19.6593,43.0301 19.3343,43.3541 19.3343,43.7551 C19.3343,44.1551 19.6593,44.4791 20.0593,44.4791" id="Fill-14" fill="#060707"></path>
                            <path d="M26.7263,44.4791 L30.0973,44.4791 C30.4973,44.4791 30.8213,44.1551 30.8213,43.7551 C30.8213,43.3541 30.4973,43.0301 30.0973,43.0301 L26.7263,43.0301 C26.3263,43.0301 26.0013,43.3541 26.0013,43.7551 C26.0013,44.1551 26.3263,44.4791 26.7263,44.4791" id="Fill-16" fill="#060707"></path>
                            <path d="M33.3933,44.4791 L36.7643,44.4791 C37.1643,44.4791 37.4883,44.1551 37.4883,43.7551 C37.4883,43.3541 37.1643,43.0301 36.7643,43.0301 L33.3933,43.0301 C32.9933,43.0301 32.6693,43.3541 32.6693,43.7551 C32.6693,44.1551 32.9933,44.4791 33.3933,44.4791" id="Fill-18" fill="#060707"></path>
                            <path d="M40.0603,44.4791 L43.4313,44.4791 C43.8313,44.4791 44.1553,44.1551 44.1553,43.7551 C44.1553,43.3541 43.8313,43.0301 43.4313,43.0301 L40.0603,43.0301 C39.6603,43.0301 39.3363,43.3541 39.3363,43.7551 C39.3363,44.1551 39.6603,44.4791 40.0603,44.4791" id="Fill-20" fill="#060707"></path>
                            <path d="M48.551,11.2443 C48.551,14.4473 45.945,17.0533 42.742,17.0533 L37.197,17.0533 C37.081,17.0533 36.967,17.0813 36.865,17.1343 L31.388,19.9623 L31.388,7.2583 C31.388,4.0553 33.994,1.4493 37.197,1.4493 L42.742,1.4493 C45.945,1.4493 48.551,4.0553 48.551,7.2583 L48.551,11.2443 Z M42.742,0.0003 L37.197,0.0003 C33.195,0.0003 29.939,3.2553 29.939,7.2583 L29.939,21.1513 C29.939,21.4043 30.071,21.6393 30.287,21.7703 C30.402,21.8403 30.533,21.8763 30.664,21.8763 C30.777,21.8763 30.892,21.8493 30.996,21.7953 L37.373,18.5023 L42.742,18.5023 C46.744,18.5023 50,15.2463 50,11.2443 L50,7.2583 C50,3.2553 46.744,0.0003 42.742,0.0003 L42.742,0.0003 Z" id="Fill-22" fill="#BE913A"></path>
                            <path d="M33.9078,6.7491 L40.4528,6.7491 C40.8528,6.7491 41.1768,6.4251 41.1768,6.0241 C41.1768,5.6241 40.8528,5.3001 40.4528,5.3001 L33.9078,5.3001 C33.5078,5.3001 33.1828,5.6241 33.1828,6.0241 C33.1828,6.4251 33.5078,6.7491 33.9078,6.7491" id="Fill-24" fill="#060707"></path>
                            <path d="M42.2881,6.7491 L45.2571,6.7491 C45.6571,6.7491 45.9821,6.4251 45.9821,6.0241 C45.9821,5.6241 45.6571,5.3001 45.2571,5.3001 L42.2881,5.3001 C41.8881,5.3001 41.5631,5.6241 41.5631,6.0241 C41.5631,6.4251 41.8881,6.7491 42.2881,6.7491" id="Fill-26" fill="#060707"></path>
                            <path d="M45.3061,7.6903 L38.6831,7.6903 C38.2831,7.6903 37.9591,8.0143 37.9591,8.4153 C37.9591,8.8153 38.2831,9.1393 38.6831,9.1393 L45.3061,9.1393 C45.7061,9.1393 46.0311,8.8153 46.0311,8.4153 C46.0311,8.0143 45.7061,7.6903 45.3061,7.6903" id="Fill-28" fill="#060707"></path>
                            <path d="M33.9078,9.0974 L36.7828,9.0974 C37.1828,9.0974 37.5068,8.7734 37.5068,8.3724 C37.5068,7.9724 37.1828,7.6484 36.7828,7.6484 L33.9078,7.6484 C33.5078,7.6484 33.1828,7.9724 33.1828,8.3724 C33.1828,8.7734 33.5078,9.0974 33.9078,9.0974" id="Fill-30" fill="#060707"></path>
                            <path d="M33.9078,11.3796 L40.4528,11.3796 C40.8528,11.3796 41.1768,11.0556 41.1768,10.6546 C41.1768,10.2546 40.8528,9.9306 40.4528,9.9306 L33.9078,9.9306 C33.5078,9.9306 33.1828,10.2546 33.1828,10.6546 C33.1828,11.0556 33.5078,11.3796 33.9078,11.3796" id="Fill-32" fill="#060707"></path>
                            <path d="M45.2574,11.3796 C45.6574,11.3796 45.9824,11.0556 45.9824,10.6546 C45.9824,10.2546 45.6574,9.9306 45.2574,9.9306 L42.2884,9.9306 C41.8884,9.9306 41.5634,10.2546 41.5634,10.6546 C41.5634,11.0556 41.8884,11.3796 42.2884,11.3796 L45.2574,11.3796 Z" id="Fill-34" fill="#060707"></path>
                            <path d="M45.3061,12.3435 L38.6831,12.3435 C38.2831,12.3435 37.9591,12.6675 37.9591,13.0675 C37.9591,13.4685 38.2831,13.7925 38.6831,13.7925 L45.3061,13.7925 C45.7061,13.7925 46.0311,13.4685 46.0311,13.0675 C46.0311,12.6675 45.7061,12.3435 45.3061,12.3435" id="Fill-36" fill="#060707"></path>
                            <path d="M36.7826,12.3016 L33.9076,12.3016 C33.5076,12.3016 33.1836,12.6256 33.1836,13.0266 C33.1836,13.4266 33.5076,13.7506 33.9076,13.7506 L36.7826,13.7506 C37.1826,13.7506 37.5076,13.4266 37.5076,13.0266 C37.5076,12.6256 37.1826,12.3016 36.7826,12.3016" id="Fill-38" fill="#060707"></path>
                        </g>
                    </g>
                </g>
            </g>
        </g>
    </g>
</svg>