<?xml version="1.0" encoding="UTF-8"?>
<svg width="37px" height="50px" viewBox="0 0 37 50" version="1.1" xmlns="http://www.w3.org/2000/svg" xmlns:xlink="http://www.w3.org/1999/xlink">
    <!-- Generator: sketchtool 46.2 (44496) - http://www.bohemiancoding.com/sketch -->
    <title>A6191A64-E783-41C2-BB28-6F2ED51693F1</title>
    <desc>Created with sketchtool.</desc>
    <defs></defs>
    <g id="Desktop-design" stroke="none" stroke-width="1" fill="none" fill-rule="evenodd">
        <g id="Parkchester_About-Us" transform="translate(-688.000000, -2422.000000)">
            <g id="Our-Commitment" transform="translate(75.000000, 2348.000000)">
                <g id="Group" transform="translate(613.000000, 74.000000)">
                    <g id="Responsibility">
                        <g>
                            <path d="M6.705,28.189 C6.305,28.189 5.98,28.513 5.98,28.914 L5.98,28.914 C5.98,29.314 6.305,29.638 6.705,29.638 L6.705,29.638 L18.146,29.638 C18.545,29.638 18.87,29.314 18.87,28.914 L18.87,28.914 C18.87,28.513 18.545,28.189 18.146,28.189 L18.146,28.189 L6.705,28.189 Z" id="Fill-1" fill="#BE913A"></path>
                            <path d="M21.353,28.189 C20.954,28.189 20.629,28.513 20.629,28.914 L20.629,28.914 C20.629,29.314 20.954,29.638 21.353,29.638 L21.353,29.638 L26.545,29.638 C26.945,29.638 27.269,29.314 27.269,28.914 L27.269,28.914 C27.269,28.513 26.945,28.189 26.545,28.189 L26.545,28.189 L21.353,28.189 Z" id="Fill-3" fill="#BE913A"></path>
                            <path d="M6.705,31.97 C6.305,31.97 5.98,32.294 5.98,32.695 L5.98,32.695 C5.98,33.095 6.305,33.419 6.705,33.419 L6.705,33.419 L11.73,33.419 C12.13,33.419 12.454,33.095 12.454,32.695 L12.454,32.695 C12.454,32.294 12.13,31.97 11.73,31.97 L11.73,31.97 L6.705,31.97 Z" id="Fill-5" fill="#BE913A"></path>
                            <path d="M6.705,24.271 C6.305,24.271 5.98,24.595 5.98,24.995 L5.98,24.995 C5.98,25.395 6.305,25.72 6.705,25.72 L6.705,25.72 L26.629,25.72 C27.029,25.72 27.354,25.395 27.354,24.995 L27.354,24.995 C27.354,24.595 27.029,24.271 26.629,24.271 L26.629,24.271 L6.705,24.271 Z" id="Fill-7" fill="#BE913A"></path>
                            <path d="M15.053,19.916 C14.652,19.916 14.328,20.24 14.328,20.64 L14.328,20.64 C14.328,21.04 14.652,21.365 15.053,21.365 L15.053,21.365 L26.629,21.365 C27.029,21.365 27.354,21.04 27.354,20.64 L27.354,20.64 C27.354,20.24 27.029,19.916 26.629,19.916 L26.629,19.916 L15.053,19.916 Z" id="Fill-10" fill="#BE913A"></path>
                            <path d="M6.705,19.86 C6.305,19.86 5.98,20.184 5.98,20.584 L5.98,20.584 C5.98,20.984 6.305,21.309 6.705,21.309 L6.705,21.309 L11.73,21.309 C12.13,21.309 12.454,20.984 12.454,20.584 L12.454,20.584 C12.454,20.184 12.13,19.86 11.73,19.86 L11.73,19.86 L6.705,19.86 Z" id="Fill-12" fill="#BE913A"></path>
                            <path d="M13.572,40.706 C13.432,41.08 13.624,41.498 13.999,41.636 L13.999,41.636 C14.372,41.777 14.792,41.584 14.93,41.21 L14.93,41.21 C16.113,38.024 16.775,37.219 16.939,37.027 L16.939,37.027 C17.264,37.524 17.56,39.232 17.708,40.086 L17.708,40.086 C18.016,41.858 18.173,42.758 19.014,42.758 L19.014,42.758 L19.041,42.758 C19.835,42.738 19.982,41.921 20.206,40.685 L20.206,40.685 C20.287,40.232 20.44,39.39 20.609,38.949 L20.609,38.949 C20.762,39.14 20.944,39.419 21.07,39.611 L21.07,39.611 C21.549,40.342 22.04,41.096 22.829,40.961 L22.829,40.961 C23.661,40.816 23.791,39.867 23.895,39.105 L23.895,39.105 C23.9,39.067 23.906,39.026 23.911,38.983 L23.911,38.983 C24.19,39.367 24.578,39.759 25.162,39.844 L25.162,39.844 C26.35,40.025 27.363,38.81 28.021,37.886 L28.021,37.886 C28.253,37.56 28.176,37.107 27.85,36.875 L27.85,36.875 C27.525,36.644 27.072,36.72 26.84,37.045 L26.84,37.045 C25.83,38.464 25.377,38.421 25.372,38.41 L25.372,38.41 C25.234,38.39 24.988,37.995 24.871,37.805 L24.871,37.805 C24.622,37.404 24.242,36.795 23.559,36.945 L23.559,36.945 C22.703,37.126 22.568,38.114 22.46,38.908 L22.46,38.908 C22.453,38.952 22.447,39.002 22.439,39.054 L22.439,39.054 C22.382,38.97 22.328,38.887 22.282,38.818 L22.282,38.818 C21.777,38.045 21.254,37.241 20.42,37.332 L20.42,37.332 C19.63,37.413 19.265,38.215 19.025,39.204 L19.025,39.204 C18.685,37.311 18.285,35.657 17.133,35.531 L17.133,35.531 C17.085,35.525 17.037,35.523 16.989,35.523 L16.989,35.523 C16.087,35.523 15.135,36.495 13.572,40.706" id="Fill-14" fill="#BE913A"></path>
                            <path d="M8.333,0 C6.711,0 5.354,1.152 5.036,2.681 L5.036,2.681 L3.19,2.681 C2.79,2.681 2.465,3.005 2.465,3.405 L2.465,3.405 L2.465,5.146 L0.725,5.146 C0.324,5.146 0,5.471 0,5.87 L0,5.87 L0,49.275 C0,49.676 0.324,50 0.725,50 L0.725,50 L33.505,50 C33.906,50 34.23,49.676 34.23,49.275 L34.23,49.275 L34.23,47.535 L35.971,47.535 C36.371,47.535 36.696,47.21 36.696,46.81 L36.696,46.81 L36.696,3.405 C36.696,3.005 36.371,2.681 35.971,2.681 L35.971,2.681 L11.632,2.681 C11.313,1.152 9.956,0 8.333,0 Z M8.333,1.449 C9.149,1.449 9.843,1.962 10.121,2.681 L10.121,2.681 L6.546,2.681 C6.824,1.962 7.518,1.449 8.333,1.449 L8.333,1.449 Z M6.413,4.13 L35.247,4.13 L35.247,46.086 L34.23,46.086 L34.23,16.419 C34.23,16.325 34.211,16.232 34.175,16.144 L34.175,16.144 C34.139,16.056 34.086,15.975 34.017,15.906 L34.017,15.906 L23.47,5.358 C23.402,5.29 23.322,5.237 23.234,5.201 L23.234,5.201 C23.145,5.165 23.052,5.146 22.958,5.146 L22.958,5.146 L13.28,5.146 C13.221,4.805 12.938,4.54 12.579,4.54 L12.579,4.54 C12.221,4.54 11.938,4.805 11.879,5.146 L11.879,5.146 L6.413,5.146 L6.413,4.13 Z M3.914,5.146 L4.963,5.146 L4.963,4.13 L3.914,4.13 L3.914,5.146 Z M13.304,13.5 L13.304,6.595 L22.234,6.595 L22.232,16.419 C22.232,16.611 22.308,16.795 22.444,16.931 L22.444,16.931 C22.58,17.067 22.765,17.144 22.956,17.144 L22.956,17.144 L32.781,17.144 L32.781,48.551 L1.449,48.551 L1.449,6.595 L4.964,6.595 L4.964,13.5 C4.964,15.8 6.834,17.67 9.134,17.67 L9.134,17.67 C11.434,17.67 13.304,15.8 13.304,13.5 L13.304,13.5 Z M6.413,13.5 L6.413,6.595 L11.855,6.595 L11.855,13.5 C11.855,15 10.634,16.221 9.134,16.221 L9.134,16.221 C7.633,16.221 6.413,15 6.413,13.5 L6.413,13.5 Z M23.683,7.619 L31.757,15.695 L23.681,15.695 L23.683,7.619 Z" id="Fill-16" fill="#060707"></path>
                        </g>
                    </g>
                </g>
            </g>
        </g>
    </g>
</svg>