
<svg version="1.1" xmlns="http://www.w3.org/2000/svg" xmlns:xlink="http://www.w3.org/1999/xlink" x="0px" y="0px"
	 viewBox="0 0 57 50" style="enable-background:new 0 0 57 50;" xml:space="preserve">
<style type="text/css">
	.st0{fill:#BD9042;}
	.st1{fill:#060707;}
</style>
<g>
	<path class="st0" d="M39.2,29.6c0-0.7-0.5-1.2-1.2-1.2h-2.4c-0.7,0-1.2,0.5-1.2,1.2c0,0.7,0.5,1.2,1.2,1.2h2.4
		C38.6,30.9,39.2,30.3,39.2,29.6z"/>
	<path class="st0" d="M29.4,28.4H27c-0.7,0-1.2,0.5-1.2,1.2c0,0.7,0.5,1.2,1.2,1.2h2.4c0.7,0,1.2-0.5,1.2-1.2
		C30.6,29,30.1,28.4,29.4,28.4z"/>
	<path class="st0" d="M44,30.9h2.4c0.7,0,1.2-0.5,1.2-1.2c0-0.7-0.5-1.2-1.2-1.2H44c-0.7,0-1.2,0.5-1.2,1.2
		C42.8,30.3,43.4,30.9,44,30.9z"/>
	<path class="st0" d="M35.5,23.6h2.4c0.7,0,1.2-0.5,1.2-1.2c0-0.7-0.5-1.2-1.2-1.2h-2.4c-0.7,0-1.2,0.5-1.2,1.2
		C34.3,23,34.8,23.6,35.5,23.6z"/>
	<path class="st0" d="M29.4,21.1H27c-0.7,0-1.2,0.5-1.2,1.2c0,0.7,0.5,1.2,1.2,1.2h2.4c0.7,0,1.2-0.5,1.2-1.2
		C30.6,21.7,30.1,21.1,29.4,21.1z"/>
	<path class="st0" d="M44,23.6h2.4c0.7,0,1.2-0.5,1.2-1.2c0-0.7-0.5-1.2-1.2-1.2H44c-0.7,0-1.2,0.5-1.2,1.2
		C42.8,23,43.4,23.6,44,23.6z"/>
	<path class="st0" d="M57,13.5V7.3c0-2-1.6-3.7-3.7-3.7h-6.6V1.2c0-0.7-0.5-1.2-1.2-1.2c-0.7,0-1.2,0.5-1.2,1.2v2.4H29.2V1.2
		c0-0.7-0.5-1.2-1.2-1.2s-1.2,0.5-1.2,1.2v2.4h-6.6c-2,0-3.7,1.6-3.7,3.7v6.2c0,0,0,0,0,0v16.4h2.4V14.7h35.7v23.9
		c0,0.7-0.5,1.2-1.2,1.2H36.7v2.4h16.6c2,0,3.7-1.6,3.7-3.7L57,13.5C57,13.5,57,13.5,57,13.5z M54.6,12.3H18.9v-5
		c0-0.7,0.5-1.2,1.2-1.2h6.6v1.2c0,0.7,0.5,1.2,1.2,1.2s1.2-0.5,1.2-1.2V6.1h15.1v1.2c0,0.7,0.5,1.2,1.2,1.2c0.7,0,1.2-0.5,1.2-1.2
		V6.1h6.6c0.7,0,1.2,0.5,1.2,1.2V12.3z"/>
</g>
<path class="st1" d="M32.7,39.9h-7.6c-0.7,0-1.2,0.5-1.2,1.2v4h3.5c0-0.1,0-0.1,0-0.2c0-0.5-0.4-1-1-1h-0.6v-2.1h6V44h-1.7
	c-0.5,0-1,0.4-1,1c0,0.1,0,0.1,0,0.2h4.8v-4C33.9,40.5,33.4,39.9,32.7,39.9z"/>
<path class="st1" d="M16,45c0-0.5-0.4-1-1-1h-0.6v-1.9H15c0.5,0,1-0.4,1-1c0-0.5-0.4-1-1-1h-0.6v-1.9H15c0.5,0,1-0.4,1-1
	c0-0.5-0.4-1-1-1h-0.6v-2.1h6v2.1h-1.7c-0.5,0-1,0.4-1,1c0,0.5,0.4,1,1,1h1.7v1.9h-1.7c-0.5,0-1,0.4-1,1c0,0.5,0.4,1,1,1h1.7V44
	h-1.7c-0.5,0-1,0.4-1,1c0,0.1,0,0.1,0,0.2h4.7V33.5c0-0.7-0.5-1.2-1.2-1.2h-7.6c-0.7,0-1.2,0.5-1.2,1.2v11.6H16C16,45.1,16,45,16,45
	z"/>
<path class="st1" d="M3.6,44.2H3v-2.1h0.6c0.5,0,1-0.4,1-1c0-0.5-0.4-1-1-1H3v-2.1h0.6c0.5,0,1-0.4,1-1c0-0.5-0.4-1-1-1H3v-2.1h0.6
	c0.5,0,1-0.4,1-1c0-0.5-0.4-1-1-1H3v-1.1h0.6c0.5,0,1-0.4,1-1c0-0.5-0.4-1-1-1H3V27h6v2.2H8.2c-0.5,0-1,0.4-1,1c0,0.5,0.4,1,1,1H9
	v1.1H8.2c-0.5,0-1,0.4-1,1c0,0.5,0.4,1,1,1H9v2.1H8.2c-0.5,0-1,0.4-1,1c0,0.5,0.4,1,1,1H9v2.1H8.2c-0.5,0-1,0.4-1,1c0,0.5,0.4,1,1,1
	H9v2.1H8.2c-0.5,0-0.9,0.4-0.9,0.9h3.8V26.2c0-0.7-0.5-1.2-1.2-1.2H2.2C1.5,25,1,25.5,1,26.2v18.9h3.5C4.5,44.6,4.1,44.2,3.6,44.2z"
	/>
<path id="Fill-54" class="st1" d="M33.7,50H1.2C0.5,50,0,49.5,0,48.8c0-0.7,0.5-1.2,1.2-1.2h32.5c0.7,0,1.2,0.5,1.2,1.2
	C34.9,49.5,34.4,50,33.7,50"/>
</svg>
