<?xml version="1.0" encoding="utf-8"?>
<!-- Generator: Adobe Illustrator 19.2.1, SVG Export Plug-In . SVG Version: 6.00 Build 0)  -->
<svg version="1.1" id="Layer_1" xmlns="http://www.w3.org/2000/svg" xmlns:xlink="http://www.w3.org/1999/xlink" x="0px" y="0px"
	 viewBox="0 0 50 50" style="enable-background:new 0 0 50 50;" xml:space="preserve">
<style type="text/css">
	.st0{fill:none;}
	.st1{fill:#060707;}
	.st2{fill:#BE913A;}
</style>
<path class="st0" d="M32.6,30.9c1.5,1,3,1.6,4.5,1.7l-0.7-1.4c-0.1-0.3-0.1-0.6,0.1-0.8c0.2-0.2,0.5-0.3,0.8-0.2
	c2.5,1.1,4.1,1.3,5.2,0.6c0.3-0.2,0.8-0.1,1,0.2c0.6,1.1,1,2.3,1,3.5v0.7c0.4-0.9,0.6-1.9,0.6-2.9c0-4.4-3.8-6.4-7.5-6.4
	c-4.5,0-7.3,2.5-7.3,6.4c0,0.9,0.1,1.7,0.4,2.6v-0.4c0-1.2,0.3-2.4,0.9-3.4c0.1-0.2,0.3-0.3,0.5-0.3C32.2,30.7,32.4,30.8,32.6,30.9z
	"/>
<path class="st0" d="M39.9,1.4H4.1c-1.4,0-2.6,1.2-2.6,2.6v23c0,1.4,1.2,2.6,2.6,2.6h20.5l-1.7-3.3H6.6v1.2c0,0.4-0.3,0.7-0.7,0.7
	c-0.4,0-0.7-0.3-0.7-0.7v-1.2H4c-0.4,0-0.7-0.3-0.7-0.7C3.3,25.3,3.6,25,4,25h1.1V4.7c0-0.4,0.3-0.7,0.7-0.7c0.4,0,0.7,0.3,0.7,0.7
	V25H8v-0.4c0-0.4,0.3-0.7,0.7-0.7c0.4,0,0.7,0.3,0.7,0.7V25h8v-0.4c0-0.4,0.3-0.7,0.7-0.7s0.7,0.3,0.7,0.7V25h3.3l-0.8-1.6
	c-0.1-0.2-0.1-0.5,0-0.7c0.1-0.2,0.4-0.3,0.6-0.3h4.5v-0.4c0-0.4,0.3-0.7,0.7-0.7c0.4,0,0.7,0.3,0.7,0.7v0.4h7.6v-0.4
	c0-0.4,0.3-0.7,0.7-0.7c0.4,0,0.7,0.3,0.7,0.7v0.4h5.6V4.1C42.5,2.6,41.3,1.4,39.9,1.4z M18.9,20.7c0,0.4-0.3,0.7-0.7,0.7
	c-0.4,0-0.7-0.3-0.7-0.7v-2.6c0-0.4,0.3-0.7,0.7-0.7c0.4,0,0.7,0.3,0.7,0.7V20.7z M27.9,18.8c0,0.4-0.3,0.7-0.7,0.7
	c-0.4,0-0.7-0.3-0.7-0.7v-2.1c0-0.4,0.3-0.7,0.7-0.7c0.4,0,0.7,0.3,0.7,0.7V18.8z M27.9,13.6c0,0.4-0.3,0.7-0.7,0.7
	c-0.4,0-0.7-0.3-0.7-0.7v-2.1c0-0.4,0.3-0.7,0.7-0.7c0.4,0,0.7,0.3,0.7,0.7V13.6z M36.9,17.6c0,0.4-0.3,0.7-0.7,0.7
	c-0.4,0-0.7-0.3-0.7-0.7v-2.8c0-0.4,0.3-0.7,0.7-0.7c0.4,0,0.7,0.3,0.7,0.7V17.6z M36.9,9.9v0.6c0,0.4-0.3,0.7-0.7,0.7
	c-0.4,0-0.7-0.3-0.7-0.7V9.9c-0.8-0.3-1.3-1-1.3-1.9c0-0.1,0-0.2,0-0.3c-1.6-0.6-3.3-0.9-5.1-0.9c-0.2,0.6-0.6,1-1.2,1.2v0.6
	c0,0.4-0.3,0.7-0.7,0.7c-0.4,0-0.7-0.3-0.7-0.7V7.9c-0.3-0.1-0.5-0.2-0.7-0.4c-0.8,0.5-1.6,1.2-2.3,1.9c-1,1-1.9,2-3.3,2.5
	c-0.1,0.8-0.6,1.4-1.3,1.7v0.6c0,0.4-0.3,0.7-0.7,0.7c-0.4,0-0.7-0.3-0.7-0.7v-0.6c-0.4-0.2-0.8-0.5-1-0.9c-2.3,0.6-4.3,1.9-5.9,3.6
	c0.2,0.3,0.3,0.7,0.3,1.1c0,0.9-0.6,1.6-1.3,1.9v0.6c0,0.4-0.3,0.7-0.7,0.7c-0.4,0-0.7-0.3-0.7-0.7v-0.6c-0.8-0.3-1.3-1-1.3-1.9
	c0-1.1,0.9-2.1,2.1-2.1c0.2,0,0.4,0,0.6,0.1c1.8-2,4.2-3.4,6.8-4.1c0.2-1,1-1.7,2-1.7c0.7,0,1.3,0.3,1.7,0.9c1-0.4,1.8-1.2,2.6-2.1
	c0.8-0.8,1.6-1.7,2.7-2.2c0-0.1,0-0.1,0-0.2c0-1.1,0.9-2.1,2.1-2.1c0.9,0,1.6,0.6,1.9,1.3c2.1-0.1,4,0.3,5.8,1.1
	c0.4-0.3,0.8-0.5,1.3-0.5c1.1,0,2.1,0.9,2.1,2.1C38.3,8.8,37.7,9.6,36.9,9.9z"/>
<rect x="22.7" y="35.9" class="st0" width="3.1" height="2.7"/>
<circle class="st0" cx="27.2" cy="6" r="0.6"/>
<circle class="st0" cx="8.7" cy="17.4" r="0.6"/>
<circle class="st0" cx="36.2" cy="7.9" r="0.6"/>
<path class="st0" d="M37.4,44.9c-0.7,0-1.4-0.1-2.1-0.3l0,0.3c1.4,1.1,3.4,1.1,4.8,0L40,44.5c-0.7,0.3-1.5,0.4-2.3,0.4H37.4z"/>
<circle class="st0" cx="18.1" cy="11.7" r="0.6"/>
<path class="st0" d="M27.2,35.2v4.1c0,0,0,0,0,0s0,0,0,0v3.9c0,0,0,0,0,0s0,0,0,0v2.3c0,0.6,0.2,1.2,0.5,1.7
	c0.6-0.8,1.3-1.3,2.3-1.6l3.8-1.1l0.1-0.6c-1.9-1.1-3.2-3.2-3.3-5.6c-1.3-2.3-1.9-4.2-1.9-6.1c0-4.7,3.5-7.9,8.8-7.9
	c5.4,0,9,3.2,9,7.9c0,2.4-1,4.4-2,6.1c-0.1,2.3-1.3,4.3-3.1,5.4l0.1,0.7l3.8,1.1c1.1,0.3,1.9,1,2.5,1.9c0.5-0.5,0.8-1.2,0.8-2V26.7
	c0-1.6-1.3-3-3-3H23.2l4,7.7c0.1,0.1,0.1,0.2,0.1,0.3V35.2C27.2,35.2,27.2,35.2,27.2,35.2C27.2,35.2,27.2,35.2,27.2,35.2z"/>
<path class="st0" d="M44.9,47.1L41,46c-1,0.8-2.2,1.2-3.4,1.2c-1.2,0-2.4-0.4-3.4-1.2l-3.9,1.1c-0.7,0.2-1.2,0.6-1.6,1.1
	c0.4,0.2,0.9,0.3,1.3,0.3h15.4c0.3,0,0.7-0.1,1-0.2C46.2,47.7,45.6,47.3,44.9,47.1z"/>
<path class="st0" d="M12.3,40.1c-1.4,0-2.7,1.1-2.9,2.4h16.4v-2.4H12.3z"/>
<path class="st0" d="M1.4,30.1v1.7c0,1.4,1.2,2.6,2.6,2.6h21.7v-2.6l-0.4-0.8H4.1C3.1,31.1,2.2,30.8,1.4,30.1z"/>
<path class="st0" d="M37.8,43.5c2.9,0,5.3-2.4,5.3-5.3v-3.7c0-0.8-0.2-1.5-0.5-2.2c-1.3,0.4-2.7,0.2-4-0.2l0.4,0.8
	c0.1,0.2,0.1,0.5,0,0.7c-0.1,0.2-0.3,0.3-0.6,0.4c-2.1,0.1-4-0.3-5.9-1.4c-0.3,0.6-0.4,1.3-0.4,2v3.7c0,2.9,2.4,5.3,5.3,5.3H37.8z
	 M40.1,36.6c0-0.4,0.3-0.7,0.7-0.7c0.4,0,0.7,0.3,0.7,0.7v1.1c0,0.4-0.3,0.7-0.7,0.7c-0.4,0-0.7-0.3-0.7-0.7V36.6z M35,37.8
	c0,0.4-0.3,0.7-0.7,0.7s-0.7-0.3-0.7-0.7v-1.1c0-0.4,0.3-0.7,0.7-0.7s0.7,0.3,0.7,0.7V37.8z M35.2,40.8c0.2-0.3,0.7-0.4,1-0.2
	c0.8,0.5,1.9,0.5,2.7,0c0.3-0.2,0.8-0.1,1,0.2s0.1,0.8-0.2,1c-0.6,0.4-1.4,0.6-2.1,0.6c-0.8,0-1.5-0.2-2.1-0.6
	C35.1,41.6,35,41.1,35.2,40.8z"/>
<g>
	<path class="st1" d="M27.2,21.1c-0.4,0-0.7,0.3-0.7,0.7v0.4h1.4v-0.4C27.9,21.4,27.6,21.1,27.2,21.1z"/>
	<path class="st1" d="M27.2,10.9c-0.4,0-0.7,0.3-0.7,0.7v2.1c0,0.4,0.3,0.7,0.7,0.7c0.4,0,0.7-0.3,0.7-0.7v-2.1
		C27.9,11.2,27.6,10.9,27.2,10.9z"/>
	<path class="st1" d="M27.2,16c-0.4,0-0.7,0.3-0.7,0.7v2.1c0,0.4,0.3,0.7,0.7,0.7c0.4,0,0.7-0.3,0.7-0.7v-2.1
		C27.9,16.3,27.6,16,27.2,16z"/>
	<path class="st1" d="M17.4,18.1v2.6c0,0.4,0.3,0.7,0.7,0.7c0.4,0,0.7-0.3,0.7-0.7v-2.6c0-0.4-0.3-0.7-0.7-0.7
		C17.7,17.3,17.4,17.7,17.4,18.1z"/>
	<path class="st1" d="M36.2,21.1c-0.4,0-0.7,0.3-0.7,0.7v0.4h1.4v-0.4C36.9,21.4,36.6,21.1,36.2,21.1z"/>
	<path class="st1" d="M36.2,14c-0.4,0-0.7,0.3-0.7,0.7v2.8c0,0.4,0.3,0.7,0.7,0.7c0.4,0,0.7-0.3,0.7-0.7v-2.8
		C36.9,14.3,36.6,14,36.2,14z"/>
	<polygon class="st1" points="27.2,43.2 27.2,43.2 27.2,43.2 	"/>
	<path class="st1" d="M39.9,0L39.9,0H4.1C1.8,0,0,1.8,0,4.1v23v4.8c0,2.2,1.8,4.1,4.1,4.1h17.2v2.7h-9c-2.4,0-4.4,2-4.4,4.4v0.2
		c0,0.4,0.3,0.7,0.7,0.7h17.2v-1.4H9.4c0.2-1.4,1.4-2.4,2.9-2.4h13.5v-1.4h-3.1v-2.7h3.1v-1.4H4.1c-1.4,0-2.6-1.2-2.6-2.6v-1.7
		c0.7,0.6,1.6,1,2.6,1h21.3l-0.7-1.4H4.1c-1.4,0-2.6-1.2-2.6-2.6v-23c0-1.4,1.2-2.6,2.6-2.6h35.8c1.4,0,2.6,1.2,2.6,2.6v18.2h1.5
		V4.1C43.9,1.8,42.1,0,39.9,0z"/>
	<polygon class="st1" points="27.2,39.4 27.2,39.3 27.2,39.3 	"/>
	<polygon class="st1" points="27.2,35.2 27.2,35.2 27.2,35.2 	"/>
</g>
<g>
	<path class="st2" d="M8,19.3v0.6c0,0.4,0.3,0.7,0.7,0.7c0.4,0,0.7-0.3,0.7-0.7v-0.6c0.8-0.3,1.3-1,1.3-1.9c0-0.4-0.1-0.7-0.3-1.1
		c1.6-1.7,3.7-3,5.9-3.6c0.2,0.4,0.6,0.7,1,0.9v0.6c0,0.4,0.3,0.7,0.7,0.7c0.4,0,0.7-0.3,0.7-0.7v-0.6c0.7-0.3,1.2-0.9,1.3-1.7
		c1.3-0.5,2.3-1.5,3.3-2.5c0.7-0.8,1.5-1.5,2.3-1.9c0.2,0.2,0.4,0.3,0.7,0.4v0.6c0,0.4,0.3,0.7,0.7,0.7c0.4,0,0.7-0.3,0.7-0.7V7.9
		c0.6-0.2,1-0.7,1.2-1.2c1.8,0,3.5,0.2,5.1,0.9c0,0.1,0,0.2,0,0.3c0,0.9,0.6,1.6,1.3,1.9v0.6c0,0.4,0.3,0.7,0.7,0.7
		c0.4,0,0.7-0.3,0.7-0.7V9.9c0.8-0.3,1.3-1,1.3-1.9c0-1.1-0.9-2.1-2.1-2.1c-0.5,0-0.9,0.2-1.3,0.5c-1.8-0.8-3.8-1.1-5.8-1.1
		c-0.3-0.8-1-1.3-1.9-1.3c-1.1,0-2.1,0.9-2.1,2.1c0,0.1,0,0.1,0,0.2c-1,0.6-1.9,1.4-2.7,2.2c-0.8,0.9-1.6,1.6-2.6,2.1
		c-0.4-0.5-1-0.9-1.7-0.9c-1,0-1.9,0.7-2,1.7c-2.6,0.7-5,2.1-6.8,4.1c-0.2-0.1-0.4-0.1-0.6-0.1c-1.1,0-2.1,0.9-2.1,2.1
		C6.6,18.3,7.2,19,8,19.3z M36.2,7.3c0.3,0,0.6,0.3,0.6,0.6c0,0.3-0.3,0.6-0.6,0.6s-0.6-0.3-0.6-0.6C35.6,7.6,35.9,7.3,36.2,7.3z
		 M27.2,5.4c0.3,0,0.6,0.3,0.6,0.6c0,0.3-0.3,0.6-0.6,0.6c-0.3,0-0.6-0.3-0.6-0.6C26.6,5.7,26.8,5.4,27.2,5.4z M18.1,11.1
		c0.3,0,0.6,0.3,0.6,0.6c0,0.3-0.3,0.6-0.6,0.6c-0.3,0-0.6-0.3-0.6-0.6C17.5,11.4,17.8,11.1,18.1,11.1z M8.7,16.8
		c0.3,0,0.6,0.3,0.6,0.6C9.3,17.7,9,18,8.7,18s-0.6-0.3-0.6-0.6C8.1,17.1,8.3,16.8,8.7,16.8z"/>
	<path class="st2" d="M35.4,41.8c0.6,0.4,1.4,0.6,2.1,0.6c0.8,0,1.5-0.2,2.1-0.6c0.3-0.2,0.4-0.7,0.2-1s-0.7-0.4-1-0.2
		c-0.8,0.5-1.9,0.5-2.7,0c-0.3-0.2-0.8-0.1-1,0.2C35,41.1,35.1,41.6,35.4,41.8z"/>
	<path class="st2" d="M34.3,38.5c0.4,0,0.7-0.3,0.7-0.7v-1.1c0-0.4-0.3-0.7-0.7-0.7s-0.7,0.3-0.7,0.7v1.1
		C33.5,38.2,33.9,38.5,34.3,38.5z"/>
	<path class="st2" d="M40.8,38.5c0.4,0,0.7-0.3,0.7-0.7v-1.1c0-0.4-0.3-0.7-0.7-0.7c-0.4,0-0.7,0.3-0.7,0.7v1.1
		C40.1,38.2,40.5,38.5,40.8,38.5z"/>
	<path class="st2" d="M45.6,22.3h-1.6h-1.5h-5.6h-1.4h-7.6h-1.4H22c-0.3,0-0.5,0.1-0.6,0.3c-0.1,0.2-0.1,0.5,0,0.7l0.8,1.6h-3.3
		v-0.4c0-0.4-0.3-0.7-0.7-0.7s-0.7,0.3-0.7,0.7V25h-8v-0.4c0-0.4-0.3-0.7-0.7-0.7c-0.4,0-0.7,0.3-0.7,0.7V25H6.6V4.7
		c0-0.4-0.3-0.7-0.7-0.7c-0.4,0-0.7,0.3-0.7,0.7V25H4c-0.4,0-0.7,0.3-0.7,0.7c0,0.4,0.3,0.7,0.7,0.7h1.1v1.2c0,0.4,0.3,0.7,0.7,0.7
		c0.4,0,0.7-0.3,0.7-0.7v-1.2h16.4l1.7,3.3l0.7,1.4l0.4,0.8v2.6v1.4v2.7v1.4v2.4V44v1.6c0,1.4,0.6,2.6,1.6,3.4c0,0,0.1,0.1,0.1,0.1
		c0.8,0.6,1.7,1,2.7,1h15.4c0.8,0,1.5-0.2,2.1-0.6c0,0,0,0,0,0c0,0,0.1,0,0.1,0c1.3-0.8,2.2-2.2,2.2-3.8V26.7
		C50,24.3,48,22.3,45.6,22.3z M45.6,48.6H30.2c-0.5,0-0.9-0.1-1.3-0.3c0.4-0.5,0.9-1,1.6-1.1l3.9-1.1c1,0.8,2.2,1.2,3.4,1.2
		c1.2,0,2.4-0.4,3.4-1.2l3.9,1.1c0.7,0.2,1.3,0.7,1.7,1.3C46.2,48.5,45.9,48.6,45.6,48.6z M43.5,31c-0.2-0.3-0.6-0.4-1-0.2
		c-1.1,0.6-2.7,0.4-5.2-0.6c-0.3-0.1-0.6-0.1-0.8,0.2c-0.2,0.2-0.3,0.6-0.1,0.8l0.7,1.4c-1.6-0.1-3-0.6-4.5-1.7
		c-0.2-0.1-0.4-0.2-0.6-0.1c-0.2,0-0.4,0.2-0.5,0.3c-0.6,1-0.9,2.2-0.9,3.4v0.4c-0.3-0.9-0.4-1.7-0.4-2.6c0-3.9,2.9-6.4,7.3-6.4
		c3.7,0,7.5,2,7.5,6.4c0,1-0.2,2-0.6,2.9v-0.7C44.5,33.3,44.1,32.1,43.5,31z M32.1,34.5c0-0.7,0.1-1.4,0.4-2
		c1.9,1.1,3.8,1.6,5.9,1.4c0.2,0,0.5-0.2,0.6-0.4c0.1-0.2,0.1-0.5,0-0.7l-0.4-0.8c1.3,0.4,2.7,0.6,4,0.2c0.3,0.7,0.5,1.4,0.5,2.2
		v3.7c0,2.9-2.4,5.3-5.3,5.3h-0.4c-2.9,0-5.3-2.4-5.3-5.3V34.5z M40.1,44.9c-1.4,1.1-3.4,1.1-4.8,0l0-0.3c0.7,0.2,1.4,0.3,2.1,0.3
		h0.4c0.8,0,1.5-0.1,2.3-0.4L40.1,44.9z M48.6,45.6c0,0.8-0.3,1.5-0.8,2c-0.6-0.9-1.4-1.6-2.5-1.9l-3.8-1.1l-0.1-0.7
		c1.8-1.2,3-3.2,3.1-5.4c1.1-1.8,2-3.7,2-6.1c0-4.7-3.6-7.9-9-7.9c-5.2,0-8.8,3.2-8.8,7.9c0,1.9,0.6,3.8,1.9,6.1
		c0.1,2.4,1.4,4.4,3.3,5.6l-0.1,0.6L30,45.7c-0.9,0.3-1.7,0.8-2.3,1.6c-0.3-0.5-0.5-1.1-0.5-1.7v-2.3v0v-3.9v0v-4.1v0v-3.5
		c0-0.1,0-0.2-0.1-0.3l-4-7.7h22.4c1.6,0,3,1.3,3,3V45.6z"/>
</g>
</svg>
