<?xml version="1.0" encoding="utf-8"?>
<!-- Generator: Adobe Illustrator 19.2.1, SVG Export Plug-In . SVG Version: 6.00 Build 0)  -->
<svg version="1.1" id="Layer_1" xmlns="http://www.w3.org/2000/svg" xmlns:xlink="http://www.w3.org/1999/xlink" x="0px" y="0px"
	 viewBox="0 0 40 40" style="enable-background:new 0 0 40 40;" xml:space="preserve">
<style type="text/css">
	.st0{opacity:0.2;enable-background:new    ;}
	.st1{fill:#060707;}
</style>
<title>arrow _down</title>
<desc>Created with Sketch.</desc>
<g id="Desktop-design">
	<g id="Parkchester_Photo-Gallery" transform="translate(-120.000000, -2613.000000)">
		<g id="Life-at-Parkchester" transform="translate(80.000000, 1750.000000)">
			<g id="Group" transform="translate(0.000000, 103.000000)">
				<g id="arrow-_down" transform="translate(40.000000, 760.000000)">
					<g id="facebook">
						<g id="Rectangle-2" class="st0">
							<path class="st1" d="M39,1v38H1V1H39 M40,0H0v40h40V0L40,0z"/>
						</g>
						<path id="Page-1" class="st1" d="M12.5,16.7c-0.1-0.1-0.2-0.2-0.2-0.4c0-0.2,0.1-0.3,0.2-0.4c0.2-0.2,0.6-0.2,0.8,0l7,7l7-7
							c0.2-0.2,0.6-0.2,0.8,0c0.2,0.2,0.2,0.6,0,0.8l-7.4,7.4c-0.2,0.2-0.6,0.2-0.8,0L12.5,16.7z"/>
					</g>
				</g>
			</g>
		</g>
	</g>
</g>
</svg>
