<?xml version="1.0" encoding="utf-8"?>
<!-- Generator: Adobe Illustrator 19.2.1, SVG Export Plug-In . SVG Version: 6.00 Build 0)  -->
<svg version="1.1" id="Layer_1" xmlns="http://www.w3.org/2000/svg" xmlns:xlink="http://www.w3.org/1999/xlink" x="0px" y="0px"
	 viewBox="0 0 40 40" style="enable-background:new 0 0 40 40;" xml:space="preserve">
<style type="text/css">
	.st0{fill:#060707;}
	.st1{opacity:0.2;enable-background:new    ;}
</style>
<title>arrow _right</title>
<desc>Created with Sketch.</desc>
<path id="Page-1" class="st0" d="M17,27.8c-0.1,0.1-0.2,0.2-0.4,0.2c-0.2,0-0.3-0.1-0.4-0.2c-0.2-0.2-0.2-0.6,0-0.8l7-7l-7-7
	c-0.2-0.2-0.2-0.6,0-0.8c0.2-0.2,0.6-0.2,0.8,0l7.4,7.4c0.2,0.2,0.2,0.6,0,0.8L17,27.8z"/>
<g id="Rectangle-2" class="st1">
	<path class="st0" d="M39,1v38H1V1H39 M40,0H0v40h40V0L40,0z"/>
</g>
</svg>
