<?xml version="1.0" encoding="UTF-8"?>
<svg width="50px" height="50px" viewBox="0 0 50 50" version="1.1" xmlns="http://www.w3.org/2000/svg" xmlns:xlink="http://www.w3.org/1999/xlink">
    <!-- Generator: Sketch 46.2 (44496) - http://www.bohemiancoding.com/sketch -->
    <title>Flexible Hours</title>
    <desc>Created with Sketch.</desc>
    <defs>
        <polygon id="path-1" points="27.0025951 0 0 0 0 37.0209 27.0025951 37.0209"></polygon>
        <polygon id="path-3" points="28.999 28.9997 28.999 0.1117 0.1122 0.1117 0.1122 28.9997 28.999 28.9997"></polygon>
    </defs>
    <g id="Desktop-design" stroke="none" stroke-width="1" fill="none" fill-rule="evenodd">
        <g id="Parkchester_Careers" transform="translate(-915.000000, -990.000000)">
            <g id="Group" transform="translate(55.000000, 990.000000)">
                <g id="Flexible-Hours" transform="translate(860.000000, 0.000000)">
                    <g>
                        <g id="Group-3">
                            <mask id="mask-2" fill="white">
                                <use xlink:href="#path-1"></use>
                            </mask>
                            <g id="Clip-2"></g>
                            <path d="M7.7827,24.3239 L5.5517,19.6049 L3.3717,18.3469 L2.6327,15.9889 C2.6737,15.7829 2.8567,15.6279 3.0747,15.6279 L3.5197,15.6279 L3.5197,15.6249 L5.9787,15.6249 L7.4737,11.8889 L7.4737,10.1559 C7.4737,8.8639 8.5247,7.8129 9.8167,7.8129 L11.0547,7.8129 C11.1987,8.5569 11.5567,9.2429 12.0997,9.7959 C12.8307,10.5409 13.8077,10.9549 14.8507,10.9649 L20.2797,11.0109 L22.1057,15.6249 L24.5227,15.6249 L24.5227,15.6259 L25.0297,15.6259 C25.1807,15.6259 25.2797,15.7039 25.3247,15.7499 C25.3637,15.7909 25.4267,15.8729 25.4377,15.9919 L24.9197,18.3389 L22.4407,19.5799 L20.0957,24.3689 C19.8127,25.1199 18.3657,26.3259 17.4077,27.1239 L16.9457,27.5099 C16.4607,27.9199 15.8397,28.1259 15.1447,28.1249 L12.7697,28.1249 C12.1307,28.1179 11.5127,27.8859 11.0287,27.4729 C10.7977,27.2759 10.5357,27.0629 10.2607,26.8399 C9.3297,26.0829 8.0547,25.0449 7.7827,24.3239 L7.7827,24.3239 Z M4.6687,8.5939 C4.6687,4.7169 7.8227,1.5629 11.6997,1.5629 L18.2877,1.5629 C19.4027,1.5629 20.3097,2.4699 20.3097,3.5839 L20.3097,4.6799 L21.4187,4.6909 C22.5207,4.7029 23.4187,5.6099 23.4187,6.7129 L23.4187,14.0619 L23.1687,14.0619 L21.3457,9.4579 L14.8637,9.4019 C14.2387,9.3969 13.6527,9.1479 13.2157,8.7019 C12.7767,8.2549 12.5397,7.6649 12.5457,7.0399 L12.5547,6.2499 L9.8167,6.2499 C7.6627,6.2499 5.9107,8.0029 5.9107,10.1559 L5.9107,11.5869 L4.9207,14.0619 L4.6687,14.0619 L4.6687,8.5939 Z M6.2497,31.7299 L6.2497,37.0209 L14.0627,34.4179 L19.1777,36.1229 C19.1717,35.9389 19.1497,35.7589 19.1497,35.5729 C19.1497,35.2059 19.1807,34.8469 19.2037,34.4849 L14.0627,32.7719 L7.8127,34.8539 L7.8127,31.1179 L9.3557,30.5139 L9.3557,28.1179 C9.5907,28.3079 9.8157,28.4919 10.0137,28.6609 C10.7757,29.3109 11.7477,29.6759 12.7607,29.6869 L15.1357,29.6869 C15.1527,29.6879 15.1707,29.6879 15.1877,29.6879 C16.2217,29.6879 17.2017,29.3399 17.9547,28.7029 L18.4067,28.3249 C18.5227,28.2289 18.6397,28.1309 18.7567,28.0329 L18.7497,30.4859 L19.8267,30.9109 C19.9757,30.4069 20.1477,29.9159 20.3417,29.4339 L20.3157,29.4239 L20.3227,26.6319 C20.8807,26.0729 21.3327,25.5139 21.5287,24.9869 L23.6117,20.7399 L26.2847,19.4029 L26.9837,16.2389 L27.0017,16.0919 C27.0177,15.5549 26.8187,15.0469 26.4447,14.6609 C26.0697,14.2759 25.5677,14.0629 25.0297,14.0629 L24.9807,14.0629 L24.9807,6.7129 C24.9807,4.8969 23.6087,3.3809 21.8467,3.1569 C21.6347,1.3809 20.1197,-0.0001 18.2877,-0.0001 L11.6997,-0.0001 C6.9617,-0.0001 3.1067,3.8559 3.1067,8.5939 L3.1067,14.0659 L3.0747,14.0659 C1.9637,14.0659 1.0607,14.9689 1.0607,16.0799 L2.0637,19.3949 L4.3477,20.7149 L6.3447,24.9309 C6.5747,25.5489 7.1347,26.1799 7.7937,26.7899 L7.7937,29.4469 L0.5667,32.2769 L-0.0003,32.2769 L-0.0003,33.8389 L0.8617,33.8389 L6.2497,31.7299 Z" id="Fill-1" fill="#060707" mask="url(#mask-2)"></path>
                        </g>
                        <path d="M36.7439,35.9053 C36.5959,36.4183 36.1339,36.7963 35.5559,36.7993 C34.8709,36.7993 34.3139,36.2423 34.3129,35.5573 C34.3129,35.3523 34.3669,35.1603 34.4559,34.9893 C34.6629,34.5903 35.0739,34.3143 35.5549,34.3133 C36.2389,34.2953 36.7979,34.8693 36.7989,35.5543 C36.7989,35.6773 36.7759,35.7933 36.7439,35.9053 M36.3349,32.8743 L36.3299,28.4713 L34.7669,28.4723 L34.7719,32.8753 C33.9799,33.1083 33.3319,33.6723 32.9979,34.4163 C32.8419,34.7663 32.7499,35.1513 32.7499,35.5593 C32.7509,35.7153 32.7719,35.8663 32.7969,36.0163 C32.8499,36.3333 32.9599,36.6293 33.1099,36.9013 L27.9259,42.0963 L29.0319,43.1993 L34.2159,38.0053 C34.6159,38.2253 35.0679,38.3613 35.5559,38.3613 L35.5589,38.3613 C36.0689,38.3603 36.5419,38.2133 36.9539,37.9733 C37.4169,37.7053 37.7909,37.3113 38.0379,36.8353 C38.2379,36.4493 38.3619,36.0173 38.3609,35.5533 C38.3599,34.2783 37.4999,33.2143 36.3349,32.8743" id="Fill-4" fill="#BD9042"></path>
                        <path d="M40.892,36.2872 L40.89,34.8142 L42.364,34.8122 L42.365,36.2852 L40.892,36.2872 Z M39.326,33.2532 L39.331,37.8512 L43.929,37.8462 L43.925,33.2472 L39.326,33.2532 Z" id="Fill-6" fill="#BD9042"></path>
                        <g id="Group-10" transform="translate(21.000000, 21.000000)">
                            <mask id="mask-4" fill="white">
                                <use xlink:href="#path-3"></use>
                            </mask>
                            <g id="Clip-9"></g>
                            <path d="M24.5822,9.6557 L26.0642,8.7977 C26.8222,10.3097 27.2872,11.9867 27.3972,13.7607 L24.3122,13.7647 L24.3132,15.3277 L27.3982,15.3237 C27.2932,17.0997 26.8302,18.7767 26.0742,20.2887 L24.5922,19.4357 L23.8122,20.7887 L25.3002,21.6457 C24.3452,23.0887 23.1092,24.3277 21.6682,25.2847 L20.8082,23.7997 L19.4562,24.5817 L20.3132,26.0627 C19.5912,26.4247 18.8332,26.7207 18.0422,26.9447 C17.5342,27.0877 17.0122,27.1967 16.4792,27.2777 C16.1082,27.3337 15.7322,27.3737 15.3502,27.3967 L15.3462,23.6637 L13.7842,23.6647 L13.7882,27.3947 C12.0422,27.2797 10.3612,26.8347 8.8242,26.0747 L9.6772,24.5927 L8.6682,24.0117 L8.3232,23.8127 L7.4632,25.3057 C7.3412,25.2247 7.2252,25.1327 7.1062,25.0477 C6.5262,24.6367 5.9712,24.1857 5.4572,23.6747 C4.8382,23.0567 4.2912,22.3857 3.8172,21.6737 L5.3122,20.8087 L4.5292,19.4567 L3.0412,20.3177 C2.2712,18.7817 1.8202,17.1007 1.7142,15.3507 L4.6672,15.3467 L4.6642,13.7847 L1.7122,13.7887 C1.7642,12.9077 1.9012,12.0457 2.1252,11.2087 C2.2602,10.7037 2.4172,10.2047 2.6132,9.7217 C2.7372,9.4147 2.8812,9.1157 3.0292,8.8187 L4.5192,9.6767 L5.2992,8.3227 L3.8022,7.4607 C4.2742,6.7477 4.8202,6.0757 5.4382,5.4577 C6.0562,4.8377 6.7262,4.2907 7.4382,3.8177 L8.3032,5.3117 L9.6562,4.5297 L8.7942,3.0417 C10.3302,2.2717 12.0112,1.8197 13.7612,1.7137 L13.7652,5.4487 L15.3272,5.4467 L15.3242,1.7107 C17.1012,1.8087 18.7812,2.2687 20.2952,3.0257 L19.4342,4.5187 L20.7882,5.2987 L21.6522,3.8007 C23.0932,4.7577 24.3302,5.9977 25.2882,7.4417 L23.7992,8.3037 L24.5822,9.6557 Z M14.5412,0.1117 L14.5412,0.1117 C8.4922,0.1187 3.3122,3.8647 1.1702,9.1537 C0.9752,9.6347 0.8102,10.1297 0.6672,10.6347 C0.3512,11.7507 0.1702,12.9207 0.1342,14.1277 C0.1292,14.2767 0.1122,14.4217 0.1122,14.5717 C0.1122,14.6627 0.1242,14.7507 0.1252,14.8427 C0.1992,18.5977 1.6872,22.1187 4.3532,24.7797 C5.1902,25.6147 6.1202,26.3207 7.1062,26.9167 C7.6112,27.2227 8.1312,27.4987 8.6682,27.7387 C10.4982,28.5567 12.4912,28.9997 14.5562,28.9997 L14.5712,28.9997 C15.2182,28.9987 15.8512,28.9407 16.4762,28.8567 C17.0072,28.7857 17.5272,28.6847 18.0392,28.5577 C24.3292,26.9917 29.0062,21.3067 28.9992,14.5407 C28.9912,6.5757 22.4772,0.1297 14.5412,0.1117 L14.5412,0.1117 Z" id="Fill-8" fill="#BD9042" mask="url(#mask-4)"></path>
                        </g>
                        <polygon id="Fill-11" fill="#BD9042" points="37.4977 40.3389 33.5367 40.3429 33.5387 41.9049 37.4937 41.9009 37.5867 41.9009 37.5847 40.3389"></polygon>
                    </g>
                </g>
            </g>
        </g>
    </g>
</svg>