
<svg width="48px" height="49px" viewBox="0 0 48 49" version="1.1" xmlns="http://www.w3.org/2000/svg" xmlns:xlink="http://www.w3.org/1999/xlink">
    <defs>
        <polygon id="path-1" points="0.000222222222 48.8888889 47.8122222 48.8888889 47.8122222 0.963333333 0.000222222222 0.963333333"></polygon>
    </defs>
    <g id="Desktop-design" stroke="none" stroke-width="1" fill="none" fill-rule="evenodd">
        <g id="Parkchester_HP_C1" transform="translate(-871.000000, -2124.000000)">
            <g id="Amenities-&amp;-Facilities" transform="translate(0.000000, 1692.000000)">
                <g id="icons" transform="translate(74.000000, 431.000000)">
                    <g id="Group" transform="translate(797.000000, 0.000000)">
                        <g id="garage">
                            <rect id="Background" x="0" y="0" width="48.8888889" height="50"></rect>
                            <g id="Page-1">
                                <g id="Group-3" transform="translate(0.000000, 0.148222)">
                                    <mask id="mask-2" fill="white">
                                        <use xlink:href="#path-1"></use>
                                    </mask>
                                    <g id="Clip-2"></g>
                                    <path d="M46.4235556,21.3325556 L43.0624444,21.3325556 C42.6791111,21.3325556 42.368,21.6436667 42.368,22.027 L42.368,47.5003333 L5.44466667,47.5003333 L5.44466667,22.7214444 L39.1268889,22.7214444 C39.5102222,22.7214444 39.8213333,22.4103333 39.8213333,22.027 C39.8213333,21.6436667 39.5102222,21.3325556 39.1268889,21.3325556 L1.38911111,21.3325556 L1.38911111,17.4725556 L22.7657778,2.49144444 L46.4235556,17.4936667 L46.4235556,21.3325556 Z M23.118,1.07033333 C22.8824444,0.920333333 22.5768889,0.928111111 22.3468889,1.08811111 L0.295777778,16.5425556 C0.110222222,16.6725556 0.000222222222,16.8847778 0.000222222222,17.1114444 L0.000222222222,22.027 C0.000222222222,22.4103333 0.311333333,22.7214444 0.694666667,22.7214444 L4.05577778,22.7214444 L4.05577778,48.1947778 C4.05577778,48.5781111 4.36577778,48.8892222 4.75022222,48.8892222 L43.0624444,48.8892222 C43.4457778,48.8892222 43.7568889,48.5781111 43.7568889,48.1947778 L43.7568889,22.7214444 L47.118,22.7214444 C47.5013333,22.7214444 47.8124444,22.4103333 47.8124444,22.027 L47.8124444,17.1114444 C47.8124444,16.8736667 47.6913333,16.6525556 47.4902222,16.5247778 L23.118,1.07033333 Z" id="Fill-1" fill="#060707" mask="url(#mask-2)"></path>
                                </g>
                                <path d="M24.8708889,35.6105556 C24.6186667,35.7216667 24.4553333,35.9705556 24.4553333,36.2461111 L24.4553333,39.9116667 L23.3564444,39.9116667 L23.3564444,36.2461111 C23.3564444,35.9705556 23.1942222,35.7216667 22.942,35.6105556 C22.0664444,35.2261111 21.5008889,34.3627778 21.5008889,33.4105556 C21.5008889,32.085 22.5808889,31.0061111 23.9064444,31.0061111 C25.232,31.0061111 26.3108889,32.085 26.3108889,33.4105556 C26.3108889,34.3627778 25.7464444,35.2261111 24.8708889,35.6105556 M23.9064444,29.6172222 C21.8142222,29.6172222 20.112,31.3194444 20.112,33.4105556 C20.112,34.7572222 20.8275556,35.9905556 21.9675556,36.6683333 L21.9675556,40.6061111 C21.9675556,40.9905556 22.2786667,41.3005556 22.662,41.3005556 L25.1497778,41.3005556 C25.5342222,41.3005556 25.8442222,40.9905556 25.8442222,40.6061111 L25.8442222,36.6683333 C26.9853333,35.9905556 27.6997778,34.7572222 27.6997778,33.4105556 C27.6997778,31.3194444 25.9986667,29.6172222 23.9064444,29.6172222" id="Fill-4" fill="#BE913A"></path>
                            </g>
                        </g>
                    </g>
                </g>
            </g>
        </g>
    </g>
</svg>