
<svg version="1.1" xmlns="http://www.w3.org/2000/svg" xmlns:xlink="http://www.w3.org/1999/xlink" x="0px" y="0px"
	 viewBox="0 0 58 50" style="enable-background:new 0 0 58 50;" xml:space="preserve">
<style type="text/css">
	.st0{fill:#060707;}
	.st1{fill:#BD9042;}
</style>
<g>
	<g transform="translate(-311.000000, -990.000000)">
		<g transform="translate(55.000000, 990.000000)">
			<g transform="translate(256.000000, 0.000000)">
				<path class="st0" d="M41.4,50c-0.1,0-0.2,0-0.4-0.1l-9.2-3.5c-0.5-0.2-0.7-0.7-0.5-1.2l1.5-3.8
					c0.2-0.5,0.7-0.7,1.2-0.5l0.1,0l0-1.1c0.3-3,1.8-5.3,5.1-7c1.2-0.6,2.2-1.3,3.1-2.3c1.2-1.3,2.4-2.5,3.5-3.1
					c1.3-0.7,2.6-0.8,3.7,0.5l0.2,0.3l1.7-4c0.4-0.9,0.9-2,1.6-2.8c0.8-0.9,1.8-1.4,3.3-1c0.9,0.2,1.5,0.9,1.7,1.8
					c0.1,0.6-0.1,1.3-0.3,2l-0.3,0.7l-3.2,8.8c0,0,0,0,0,0.1c-0.4,0.9-1.1,1.7-2.1,2.5l-0.4,0.3l-5.7,5c-0.5,0.5-1.6,1.6-2.4,2.7
					l-0.2,0.3l0.3,0.2c0.3,0.2,0.4,0.6,0.2,1l-1.5,3.8C42.1,49.8,41.8,50,41.4,50z M41.6,43.7l0.4-0.6c0.9-1.3,2.1-2.5,2.7-3.1
					l5.7-5c0,0,0.1-0.1,0.1-0.1c0.8-0.5,1.4-1,1.7-1.5l0.3-0.5l3.2-8.7c0,0,0-0.1,0-0.1c0.5-0.9,0.5-1.5,0.5-1.8
					c0-0.2-0.1-0.2-0.3-0.3c-0.6-0.1-1,0-1.4,0.5c-0.5,0.5-0.8,1.3-1.3,2.4L51,30l-0.2,0.5c-0.3,0.6-0.7,1.2-1.5,1.6l-2.7,1.6
					l-1.1,0.9c-1.1,0.9-1.8,1.9-2.2,2.4c-0.3,0.4-0.9,0.5-1.3,0.3c-0.4-0.3-0.5-0.9-0.3-1.3c0.5-0.8,1.6-2.1,3.1-3.3l0.6-0.5
					l0.6-0.5c0.6-0.5,1-1,1.4-1.5c0.4-0.5,0.6-0.8,0.6-1l0-0.1L48,29c-0.4-0.3-0.7-0.3-1.2,0c-0.8,0.5-1.8,1.5-3,2.8
					c-1,1.1-2.2,2-3.6,2.7c-2.8,1.4-4,3.4-4.1,6l0,1.1L41.6,43.7z M40.9,47.9l0.8-2.1l-0.2-0.1l-0.1-0.1l-7.2-2.8L33.4,45L40.9,47.9
					z"/>
				<path class="st0" d="M16.6,50c-0.4,0-0.7-0.2-0.8-0.6l-1.5-3.8c-0.1-0.4,0-0.7,0.2-1l0.3-0.2l-0.2-0.2
					c-0.8-1.1-1.9-2.2-2.4-2.7l-5.7-5L6,36.2c-1.1-0.8-1.8-1.6-2.1-2.5c0,0,0,0,0-0.1l-3.2-8.8l-0.3-0.7c-0.3-0.7-0.4-1.4-0.3-2
					c0.1-1,0.7-1.6,1.7-1.8c1.4-0.3,2.5,0.2,3.3,1c0.7,0.8,1.2,1.9,1.6,2.8l1.7,4l0.2-0.3c1.1-1.3,2.5-1.2,3.7-0.5
					c1.1,0.6,2.3,1.9,3.5,3.1c0.9,1,1.9,1.7,3.1,2.3c3.3,1.6,4.8,4,5.1,7l0,1l0.1,0c0.5-0.2,1,0,1.2,0.5l1.5,3.8
					c0.2,0.5,0,1-0.5,1.2l-9.2,3.5C16.8,50,16.7,50,16.6,50z M16.4,43.7l5.5-2.1l0-1.1c-0.1-2.6-1.3-4.6-4.1-6
					c-1.4-0.7-2.6-1.6-3.6-2.7c-1.3-1.4-2.2-2.3-3-2.8c-0.5-0.3-0.8-0.4-1.2,0l-0.1,0.1l0,0.1c0.1,0.2,0.2,0.5,0.6,1
					c0.4,0.5,0.8,1,1.4,1.5l0.6,0.5l0.6,0.5c1.5,1.2,2.6,2.5,3.1,3.3c0.3,0.4,0.2,1-0.3,1.3c-0.4,0.3-1,0.2-1.3-0.3
					c-0.4-0.6-1.1-1.5-2.2-2.4l-1.1-0.9l-2.7-1.6c-0.8-0.4-1.2-1-1.5-1.6L7,30l-2.2-5c-0.5-1-0.8-1.8-1.3-2.4
					c-0.4-0.4-0.8-0.6-1.4-0.5c-0.2,0.1-0.3,0.1-0.3,0.3c0,0.3,0.1,0.8,0.5,1.8c0,0,0,0.1,0,0.1L5.6,33l0.3,0.5
					c0.3,0.5,0.8,1,1.7,1.5c0,0,0.1,0.1,0.1,0.1l5.7,5c0.6,0.5,1.8,1.7,2.7,3.1L16.4,43.7z M17.1,47.9l7.5-2.9l-0.8-2.1l-7.2,2.8
					l-0.1,0.1l-0.2,0.1L17.1,47.9z"/>
				<path class="st1" d="M28.8,31.6c-0.5,0-0.9-0.2-1.5-0.5l0,0c-5.8-4.1-11.4-8.4-14.3-13.3l-0.5-0.9H8.7
					c-0.4,0-0.8-0.3-0.8-0.8c0-0.4,0.3-0.8,0.8-0.8h3l-0.1-0.3c-0.5-1.4-0.7-2.8-0.7-4.3C10.9,4.8,15.7,0,21.6,0
					c3,0,5.7,1.3,7.6,3.3l0,0L30,2.6C31.8,1,34.2,0,36.9,0c5.5,0,10,4.2,10.6,9.6l0.1,1.1v0l0,1.6c-0.1,1-0.3,1.9-0.6,2.9l-0.2,0.5
					h4.1c0.4,0,0.8,0.3,0.8,0.8c0,0.4-0.3,0.8-0.8,0.8H46l-0.3,0.6C42.8,23,36.7,27,31,31l0,0c-0.6,0.3-1.1,0.6-1.7,0.6
					C29.1,31.6,28.9,31.6,28.8,31.6z M30.1,20.9l3.5-7.7c0.3-0.6,1.1-0.6,1.4,0l1.3,2.4h8.8l0.1-0.1c0.6-1.5,0.9-3.1,0.8-4.8v0
					c0-5.1-4.1-9.2-9.1-9.2c-2.6,0-4.9,1.1-6.6,2.9c-0.1,0.1-0.2,0.2-0.4,0.3C29.6,5,29.1,5,28.7,4.8c-0.2-0.1-0.5-0.3-0.6-0.5
					c-1.7-1.7-4-2.8-6.5-2.8c-5,0-9.1,4.1-9.1,9.2c0,1.5,0.3,3,0.9,4.5l0,0.1h5l1.1-1.5c0.3-0.4,1-0.4,1.3,0l2.3,3.3l3-8.4
					c0.3-0.7,1.3-0.7,1.5,0.1L30.1,20.9z M29.1,30.1c0.2,0,0.3-0.1,0.5-0.1l0.5-0.3l3.1-2.1c4.5-3.1,8.5-6.3,10.8-9.8l0.3-0.5h-8.5
					c-0.3,0-0.6-0.2-0.7-0.4l-0.7-1.4l-3.8,8.4c-0.2,0.3-0.5,0.5-0.8,0.4c-0.3,0-0.6-0.2-0.7-0.6l-2.5-11.7L24,19.1
					c-0.2,0.6-1,0.7-1.4,0.2l-2.6-3.6l-0.7,0.9c-0.2,0.2-0.4,0.3-0.6,0.3h-4.6l0.3,0.5c2.2,3.5,6.1,6.9,10.5,10.2l3.1,2.2l0.5,0.2
					C28.8,30.1,28.9,30.1,29.1,30.1z"/>
				<path class="st1" d="M15.1,9.5c-0.1,0-0.2,0-0.3,0c-0.4-0.2-0.6-0.6-0.4-1c0.8-2.1,2.3-3.9,4.8-5c0.4-0.2,0.9,0,1,0.4
					c0.2,0.4,0,0.8-0.4,1c-2.1,0.9-3.2,2.4-4,4.2C15.7,9.4,15.5,9.5,15.1,9.5L15.1,9.5z"/>
			</g>
		</g>
	</g>
</g>
</svg>
