
<svg width="51px" height="50px" viewBox="0 0 51 50" version="1.1" xmlns="http://www.w3.org/2000/svg" xmlns:xlink="http://www.w3.org/1999/xlink">
    <g id="Desktop-design" stroke="none" stroke-width="1" fill="none" fill-rule="evenodd">
        <g id="Parkchester_HP_C1" transform="translate(-74.000000, -2323.000000)">
            <g id="Amenities-&amp;-Facilities" transform="translate(0.000000, 1692.000000)">
                <g id="icons" transform="translate(74.000000, 431.000000)">
                    <g id="Group" transform="translate(0.000000, 200.000000)">
                        <g id="internet">
                            <rect id="Background" x="0" y="0" width="51.1627907" height="50"></rect>
                            <g id="Page-1">
                                <path d="M1.45348837,6.35616279 L1.45348837,4.00383721 C1.45348837,2.59802326 2.59767442,1.45383721 4.00348837,1.45383721 L46.1523256,1.45383721 C47.5581395,1.45383721 48.7023256,2.59802326 48.7023256,4.00267442 L48.7,6.35616279 L1.45348837,6.35616279 Z M50.1523256,7.06197674 L50.155814,4.00383721 C50.155814,1.79686047 48.3593023,0.000348837209 46.1523256,0.000348837209 L4.00348837,0.000348837209 C1.79651163,0.000348837209 0,1.79686047 0,4.00383721 L0,35.255 C0,35.6561628 0.325581395,35.9817442 0.726744186,35.9817442 L17.5104651,35.9817442 C17.9116279,35.9817442 18.2372093,35.6561628 18.2372093,35.255 C18.2372093,34.8526744 17.9116279,34.5282558 17.5104651,34.5282558 L1.45348837,34.5282558 L1.45348837,7.80965116 L48.6976744,7.80965116 L48.6651163,31.255 C48.6651163,31.6561628 48.9895349,31.9817442 49.3906977,31.982907 L49.3918605,31.982907 C49.7930233,31.982907 50.1186047,31.6573256 50.1186047,31.2573256 L50.1523256,7.10383721 C50.1523256,7.09686047 50.155814,7.09104651 50.155814,7.08290698 C50.155814,7.07593023 50.1523256,7.06895349 50.1523256,7.06197674 L50.1523256,7.06197674 Z" id="Fill-1" fill="#060707"></path>
                                <path d="M4.73302326,2.56639535 C4.33186047,2.56639535 4.00627907,2.89197674 4.00627907,3.29313953 L4.00627907,4.45709302 C4.00627907,4.85825581 4.33186047,5.18383721 4.73302326,5.18383721 C5.13418605,5.18383721 5.45976744,4.85825581 5.45976744,4.45709302 L5.45976744,3.29313953 C5.45976744,2.89197674 5.13418605,2.56639535 4.73302326,2.56639535" id="Fill-3" fill="#BE913A"></path>
                                <path d="M8.65511628,2.56639535 C8.25395349,2.56639535 7.92837209,2.89197674 7.92837209,3.29313953 L7.92837209,4.45709302 C7.92837209,4.85825581 8.25395349,5.18383721 8.65511628,5.18383721 C9.05627907,5.18383721 9.38186047,4.85825581 9.38186047,4.45709302 L9.38186047,3.29313953 C9.38186047,2.89197674 9.05627907,2.56639535 8.65511628,2.56639535" id="Fill-5" fill="#BE913A"></path>
                                <path d="M12.5772093,2.56639535 C12.1760465,2.56639535 11.8504651,2.89197674 11.8504651,3.29313953 L11.8504651,4.45709302 C11.8504651,4.85825581 12.1760465,5.18383721 12.5772093,5.18383721 C12.9783721,5.18383721 13.3039535,4.85825581 13.3039535,4.45709302 L13.3039535,3.29313953 C13.3039535,2.89197674 12.9783721,2.56639535 12.5772093,2.56639535" id="Fill-7" fill="#BE913A"></path>
                                <path d="M43.7943023,43.5698837 L37.8617442,41.2501163 C38.8710465,39.685 39.8024419,37.9059302 40.6094186,35.9559302 L47.3454651,38.5896512 C46.4954651,40.4977907 45.2896512,42.1803488 43.7943023,43.5698837 L43.7943023,43.5698837 Z M31.4931395,47.5722093 C33.3524419,46.6594186 35.2722093,44.8931395 37.0210465,42.4815116 L42.5210465,44.6326744 C41.5896512,45.3245349 40.5838372,45.9280233 39.4954651,46.4047674 C36.9384884,47.5233721 34.1919767,47.9024419 31.4931395,47.5722093 L31.4931395,47.5722093 Z M18.2512791,35.140814 L23.7338372,37.285 C23.3838372,40.2326744 23.5919767,42.8280233 24.3315116,44.7582558 C21.1117442,42.4245349 18.9687209,38.9547674 18.2512791,35.140814 L18.2512791,35.140814 Z M22.8710465,21.0896512 L28.8024419,23.4094186 C27.7943023,24.9722093 26.8675581,26.7582558 26.0617442,28.7059302 L19.3175581,26.0687209 C20.1803488,24.1338372 21.3977907,22.4559302 22.8710465,21.0896512 L22.8710465,21.0896512 Z M33.3536047,16.9663953 C33.9547674,16.9663953 34.5582558,17.0163953 35.162907,17.0884884 C33.3059302,18.0036047 31.3884884,19.7710465 29.6431395,22.1780233 L24.1512791,20.0303488 C26.7919767,18.0652326 30.0222093,16.9663953 33.3536047,16.9663953 L33.3536047,16.9663953 Z M38.9303488,18.0222093 C40.4652326,18.6222093 41.4443023,20.6838372 41.6152326,23.6780233 C41.6722093,24.6663953 41.6326744,25.7256977 41.5210465,26.8233721 L31.0605814,22.7315116 C33.3268605,19.7059302 35.829186,17.8256977 37.8594186,17.8256977 C38.2338372,17.8256977 38.5931395,17.8896512 38.9303488,18.0222093 L38.9303488,18.0222093 Z M27.412907,29.2338372 C28.2210465,27.2919767 29.1698837,25.5047674 30.1954651,23.9547674 L41.3245349,28.3059302 C41.0222093,30.1652326 40.5036047,32.1152326 39.7838372,34.0722093 L27.412907,29.2338372 Z M18.7966279,27.4245349 L25.5315116,30.0594186 C24.8036047,32.0373256 24.2710465,33.9780233 23.9512791,35.8094186 L18.035,33.4954651 C17.879186,31.490814 18.1175581,29.4338372 18.7966279,27.4245349 L18.7966279,27.4245349 Z M25.3524419,36.3582558 C25.6501163,34.5210465 26.1605814,32.5652326 26.885,30.5884884 L39.2547674,35.4256977 C38.4454651,37.3710465 37.4943023,39.1524419 36.4675581,40.7047674 L25.3524419,36.3582558 Z M27.7384884,46.6384884 C25.5710465,45.790814 24.6943023,42.2943023 25.1536047,37.840814 L35.607093,41.929186 C32.9256977,45.5117442 29.9105814,47.4861628 27.7384884,46.6384884 L27.7384884,46.6384884 Z M47.8745349,37.2361628 L41.1384884,34.6024419 C41.8536047,32.6582558 42.3838372,30.7152326 42.7082558,28.8477907 L48.6443023,31.1687209 C48.8001163,33.2047674 48.5443023,35.2594186 47.8745349,37.2361628 L47.8745349,37.2361628 Z M47.4082558,26.1698837 C47.885,27.2594186 48.2152326,28.385 48.429186,29.5245349 L42.9245349,27.3710465 C43.0803488,26.0501163 43.135,24.7780233 43.0663953,23.5943023 C42.985,22.1687209 42.7326744,20.9315116 42.3361628,19.8943023 C44.5361628,21.4815116 46.2919767,23.6198837 47.4082558,26.1698837 L47.4082558,26.1698837 Z M50.0559302,30.7105814 C50.0605814,30.6466279 50.0536047,30.585 50.040814,30.5222093 C49.379186,24.4977907 45.485,19.0256977 39.4605814,16.6687209 C33.4315116,14.3105814 26.857093,15.6919767 22.2826744,19.6733721 C22.2338372,19.7082558 22.190814,19.7466279 22.1512791,19.7954651 C20.2338372,21.5001163 18.6698837,23.657093 17.6733721,26.2059302 C16.6768605,28.7524419 16.362907,31.3966279 16.6140698,33.9489535 C16.6094186,34.0152326 16.6152326,34.0768605 16.629186,34.140814 C17.2919767,40.1652326 21.185,45.6361628 27.2094186,47.9919767 C29.2152326,48.7768605 31.2815116,49.1477907 33.3152326,49.1477907 C37.3756977,49.1477907 41.2977907,47.6582558 44.3443023,45.0256977 C44.3640698,45.012907 44.3768605,44.9966279 44.3954651,44.9826744 C46.3710465,43.2605814 47.9780233,41.0605814 48.9966279,38.4559302 C49.9931395,35.9082558 50.307093,33.262907 50.0559302,30.7105814 L50.0559302,30.7105814 Z" id="Fill-9" fill="#BE913A"></path>
                            </g>
                        </g>
                    </g>
                </g>
            </g>
        </g>
    </g>
</svg>