
<svg width="40px" height="40px" viewBox="0 0 40 40" version="1.1" xmlns="http://www.w3.org/2000/svg" xmlns:xlink="http://www.w3.org/1999/xlink">
    <g stroke="none" stroke-width="1" fill="none" fill-rule="evenodd">
        <g transform="translate(-1085.000000, -6852.000000)">
            <g transform="translate(0.000000, 6573.000000)">
                <g transform="translate(1085.000000, 279.000000)">
                    <rect x="0" y="0" width="40" height="40"></rect>
                    <g>
                        <rect stroke="#FFFFFF" opacity="0.2" x="0.5" y="0.5" width="39" height="39"></rect>
                        <path d="M12.4035748,17.1304905 L15.5221072,17.1304905 L15.5221072,27.9989755 L12.4035748,27.9989755 L12.4035748,17.1304905 Z M13.883349,15.7710334 L13.8607714,15.7710334 C12.7318909,15.7710334 12,14.9401972 12,13.8880779 C12,12.8144449 12.7535278,12 13.9049859,12 C15.0555033,12 15.7629351,12.812396 15.7855127,13.8850045 C15.7855127,14.9371238 15.0555033,15.7710334 13.883349,15.7710334 L13.883349,15.7710334 Z M28,28 L24.4637817,28 L24.4637817,22.3746959 C24.4637817,20.9025483 23.9106303,19.8985786 22.6942615,19.8985786 C21.7638758,19.8985786 21.2464722,20.5757459 21.0056444,21.2303752 C20.915334,21.4639519 20.929445,21.7907543 20.929445,22.1185811 L20.929445,28 L17.4261524,28 C17.4261524,28 17.4713076,18.0361122 17.4261524,17.1304905 L20.929445,17.1304905 L20.929445,18.8362146 C21.1364064,18.0904085 22.2558796,17.0259956 24.042333,17.0259956 C26.2587018,17.0259956 28,18.5903445 28,21.9556922 L28,28 L28,28 Z" id="Shape" fill="#FFFFFF"></path>
                    </g>
                </g>
            </g>
        </g>
    </g>
</svg>