<?xml version="1.0" encoding="utf-8"?>
<!-- Generator: Adobe Illustrator 19.2.1, SVG Export Plug-In . SVG Version: 6.00 Build 0)  -->
<svg version="1.1" id="Layer_1" xmlns="http://www.w3.org/2000/svg" xmlns:xlink="http://www.w3.org/1999/xlink" x="0px" y="0px"
	 viewBox="0 0 12 12" style="enable-background:new 0 0 12 12;" xml:space="preserve">
<style type="text/css">
	.st0{fill:#060707;}
</style>
<g id="Parkchester_mobile_C1" transform="translate(-259.000000, -17.000000)">
	<g id="_x31_st-screen" transform="translate(0.000000, 10.000000)">
		<g id="Header" transform="translate(10.000000, 0.000000)">
			<g id="phone" transform="translate(249.000000, 7.000000)">
				<path class="st0" d="M9.5,12C8,12,6.3,11,4,8.9C1.5,6.7,0,4.1,0,2.2c0-0.8,0.3-1.3,1-1.8C1.4,0.2,2,0,2.3,0c0.5,0,1,0.5,2.5,3
					C5,3.2,4.9,3.6,4.7,3.7c0,0,0,0,0,0c0,0,0,0,0,0L4.5,3.9C4,4.6,4,4.7,4.1,4.9c0.4,0.9,1.7,2.2,2.8,3C7.1,8,7.3,8,7.7,7.7
					l0.1-0.1c0.2-0.2,0.5-0.4,0.8-0.4c0.2,0,0.5,0.1,0.7,0.3c0.3,0.2,0.7,0.4,1.1,0.7c0.4,0.3,0.7,0.5,1.1,0.9
					c0.3,0.3,0.7,0.9,0,1.8c-0.4,0.5-1,0.9-1.4,1C10,12,9.7,12,9.5,12z M2.2,1c0,0-0.4,0.1-0.7,0.3C1.2,1.5,1,1.8,1,2.2
					c0,1.7,1.4,3.9,3.7,6c2.4,2.2,4.1,3.1,5.3,2.8c0.1,0,0.6-0.3,0.9-0.7C11.1,10,11,10,10.9,9.9c-0.4-0.4-0.6-0.6-1-0.9
					C9.6,8.8,9.2,8.6,9,8.4C8.8,8.4,8.7,8.3,8.6,8.3c0,0-0.1,0.1-0.1,0.1L8.4,8.5c-0.3,0.2-1,0.8-2,0.2C5.2,8,3.8,6.6,3.2,5.3
					C2.9,4.6,3.2,4,3.6,3.4l0.2-0.2C2.8,1.5,2.4,1.1,2.2,1z"/>
			</g>
		</g>
	</g>
</g>
</svg>
