<?xml version="1.0" encoding="utf-8"?>
<!-- Generator: Adobe Illustrator 19.2.1, SVG Export Plug-In . SVG Version: 6.00 Build 0)  -->
<svg version="1.1" id="Layer_1" xmlns="http://www.w3.org/2000/svg" xmlns:xlink="http://www.w3.org/1999/xlink" x="0px" y="0px"
	 viewBox="0 0 24 24" style="enable-background:new 0 0 24 24;" xml:space="preserve">
<style type="text/css">
	.st0{fill:#FFFFFF;}
</style>
<g>
	<path id="path-1" class="st0" d="M22.9,15.6c0,0.1,0.1,0.2,0.1,0.4v6c0,0.6-0.4,1-1,1s-1-0.4-1-1v-3.7l-2.9,2.8
		c-2.4,2.4-5.9,3.4-9.3,2.7s-6.1-3.2-7.2-6.4c-0.2-0.5,0.1-1.1,0.6-1.3c0.5-0.2,1.1,0.1,1.3,0.6c0.9,2.6,3.1,4.5,5.8,5.1
		c2.7,0.6,5.5-0.2,7.4-2.2l2.8-2.6H16c-0.6,0-1-0.4-1-1s0.4-1,1-1h6C22.4,15,22.8,15.3,22.9,15.6L22.9,15.6z M0.1,10.4
		C0,10.2,0,10.1,0,10V4c0-0.6,0.4-1,1-1s1,0.4,1,1v3.7l2.9-2.8c2.4-2.4,5.9-3.4,9.3-2.7s6.1,3.2,7.2,6.4c0.2,0.5-0.1,1.1-0.6,1.3
		c-0.5,0.2-1.1-0.1-1.3-0.6c-0.9-2.6-3.1-4.5-5.8-5.1S8.3,4.4,6.3,6.4L3.5,9H7c0.6,0,1,0.4,1,1c0,0.6-0.4,1-1,1H1
		C0.6,11,0.2,10.7,0.1,10.4L0.1,10.4z"/>
</g>
<title>refresh-ccw</title>
<desc>Created with Sketch.</desc>
<path id="path-1_1_" d="M23.9,14.9c0,0.1,0.1,0.3,0.1,0.4v6.5c0,0.6-0.5,1.1-1,1.1c-0.6,0-1-0.5-1-1.1v-4l-3.1,3
	c-2.5,2.6-6.2,3.8-9.7,2.9c-3.5-0.8-6.3-3.5-7.5-7c-0.2-0.6,0.1-1.2,0.6-1.4c0.5-0.2,1.1,0.1,1.3,0.7c1,2.8,3.2,4.9,6,5.6
	c2.8,0.7,5.7-0.2,7.8-2.4l2.9-2.9h-3.6c-0.6,0-1-0.5-1-1.1s0.5-1.1,1-1.1H23C23.4,14.2,23.8,14.5,23.9,14.9L23.9,14.9z M0.1,9.1
	C0,9,0,8.9,0,8.7V2.2c0-0.6,0.5-1.1,1-1.1s1,0.5,1,1.1v4l3.1-3c2.5-2.6,6.2-3.8,9.7-2.9s6.3,3.5,7.5,7c0.2,0.6-0.1,1.2-0.6,1.4
	c-0.5,0.2-1.1-0.1-1.3-0.7c-1-2.8-3.2-4.9-6-5.6S8.6,2.6,6.6,4.8L3.7,7.6h3.6c0.6,0,1,0.5,1,1.1c0,0.6-0.5,1.1-1,1.1H1
	C0.6,9.8,0.2,9.5,0.1,9.1L0.1,9.1z"/>
</svg>
