
<svg width="49px" height="50px" viewBox="0 0 49 50" version="1.1" xmlns="http://www.w3.org/2000/svg" xmlns:xlink="http://www.w3.org/1999/xlink">
    <defs>
        <polygon id="path-1" points="25.8927273 29.5454545 0 29.5454545 0 0.434545455 25.8927273 0.434545455"></polygon>
    </defs>
    <g id="Desktop-design" stroke="none" stroke-width="1" fill="none" fill-rule="evenodd">
        <g id="Parkchester_HP_C1" transform="translate(-870.000000, -2223.000000)">
            <g id="Amenities-&amp;-Facilities" transform="translate(0.000000, 1692.000000)">
                <g id="icons" transform="translate(74.000000, 431.000000)">
                    <g id="Group" transform="translate(796.000000, 100.000000)">
                        <g id="security">
                            <rect id="Background" x="0" y="0" width="50" height="50"></rect>
                            <g id="Page-1">
                                <path d="M20.4234091,31.9023864 C20.0484091,31.7967045 19.6552273,32.0217045 19.5518182,32.40125 L19.0643182,34.1932955 C18.9609091,34.5717045 19.1847727,34.9614773 19.5631818,35.0648864 C19.6245455,35.0819318 19.6881818,35.0898864 19.7495455,35.0898864 C20.0620455,35.0898864 20.3484091,34.8819318 20.4347727,34.5660227 L20.9222727,32.7739773 C21.0256818,32.3955682 20.8018182,32.0057955 20.4234091,31.9023864" id="Fill-1" fill="#BE913A"></path>
                                <g id="Group-5" transform="translate(0.000000, 19.471136)">
                                    <mask id="mask-2" fill="white">
                                        <use xlink:href="#path-1"></use>
                                    </mask>
                                    <g id="Clip-4"></g>
                                    <path d="M24.5222727,1.35727273 L22.2268182,9.78568182 C21.9188636,9.62431818 21.595,9.48681818 21.2518182,9.3925 C20.9063636,9.29931818 20.5586364,9.25386364 20.2097727,9.23795455 L22.5052273,0.808409091 L24.5222727,1.35727273 Z M23.2427273,14.8970455 C22.7540909,16.6890909 20.8995455,17.7515909 19.1086364,17.2618182 C17.3177273,16.7731818 16.2563636,14.9197727 16.7438636,13.1277273 C16.9802273,12.2595455 17.5404545,11.5356818 18.3211364,11.0890909 C18.8370455,10.7936364 19.4086364,10.6436364 19.9870455,10.6436364 C20.2847727,10.6436364 20.5836364,10.6834091 20.8779545,10.7629545 C22.67,11.2504545 23.7302273,13.105 23.2427273,14.8970455 L23.2427273,14.8970455 Z M5.19272727,25.6845455 L5.19272727,22.5334091 L15.3802273,15.2220455 C15.4859091,15.6243182 15.6256818,16.0186364 15.8370455,16.3902273 C16.0654545,16.7879545 16.3586364,17.1288636 16.6790909,17.4390909 L5.19272727,25.6845455 Z M3.77227273,22.1686364 L3.77227273,27.0686364 L3.77227273,28.1254545 L1.42,28.1254545 L1.42,9.22886364 L3.77227273,9.22886364 L3.77227273,22.1686364 Z M18.6881818,9.42090909 C18.3188636,9.52659091 17.9575,9.66068182 17.6154545,9.85613636 C16.5063636,10.4913636 15.7097727,11.5209091 15.3734091,12.755 C15.2995455,13.0265909 15.2597727,13.3027273 15.2336364,13.5777273 L5.19272727,20.7845455 L5.19272727,8.51863636 C5.19272727,8.12545455 4.87454545,7.80840909 4.4825,7.80840909 L0.709772727,7.80840909 C0.317727273,7.80840909 -0.000454545455,8.12545455 -0.000454545455,8.51863636 L-0.000454545455,28.8356818 C-0.000454545455,29.2277273 0.317727273,29.5459091 0.709772727,29.5459091 L4.4825,29.5459091 C4.87454545,29.5459091 5.19272727,29.2277273 5.19272727,28.8356818 L5.19272727,27.4334091 L17.8972727,18.3140909 C18.1643182,18.4425 18.4427273,18.5527273 18.7347727,18.6322727 C19.1552273,18.7459091 19.5768182,18.8004545 19.9927273,18.8004545 C22.0984091,18.8004545 24.0336364,17.3981818 24.6131818,15.2709091 L24.6131818,15.2697727 C24.9484091,14.0356818 24.7836364,12.7447727 24.1495455,11.6345455 C23.9540909,11.2936364 23.7109091,10.9936364 23.4461364,10.7163636 L25.8927273,1.73 L21.1336364,0.434545455 L18.6881818,9.42090909 Z" id="Fill-3" fill="#060707" mask="url(#mask-2)"></path>
                                </g>
                                <path d="M18.24,17.6456818 L18.59,16.3593182 L22.2547727,17.3570455 L29.8831818,19.4343182 L29.5331818,20.7206818 L18.24,17.6456818 Z M13.6661364,13.5468182 C13.3513636,13.4604545 13.09,13.2581818 12.9286364,12.9752273 C12.7672727,12.6934091 12.7240909,12.3638636 12.8104545,12.0502273 L13.0354545,11.2240909 C13.0354545,11.2240909 13.0354545,11.2229545 13.0354545,11.2229545 L14.1354545,7.18545455 L15.4593182,2.32068182 C15.6365909,1.67181818 16.3059091,1.29113636 16.9559091,1.465 L22.2286364,2.90022727 L21.2809091,6.38431818 C20.9877273,7.46045455 21.1309091,8.58659091 21.6854545,9.55363636 C22.2388636,10.5218182 23.1365909,11.2172727 24.2127273,11.5104545 L40.7775,16.0195455 L39.8547727,19.4138636 C39.6775,20.0615909 39.0081818,20.4468182 38.3581818,20.2695455 L18.4536364,14.8502273 L18.2775,14.8025 L13.6661364,13.5468182 Z M11.8775,10.0695455 C11.5047727,9.84454545 11.1945455,9.52863636 10.9729545,9.14113636 C10.6309091,8.54227273 10.5411364,7.84454545 10.7229545,7.17977273 L11.1911364,5.46045455 C11.3729545,4.79454545 11.8013636,4.24 12.4002273,3.89681818 C12.7888636,3.67522727 13.2161364,3.56045455 13.6502273,3.55590909 L12.7638636,6.81272727 L11.8775,10.0695455 Z M22.6513636,6.75704545 L23.5990909,3.27295455 L46.8945455,9.61613636 L44.7809091,11.6025 L34.8672727,8.90363636 C34.4922727,8.80022727 34.0990909,9.02409091 33.9956818,9.4025 C33.8922727,9.78090909 34.1161364,10.1706818 34.4945455,10.2740909 L43.5672727,12.7445455 L41.4525,14.7309091 L24.5854545,10.1388636 C23.8752273,9.94681818 23.2831818,9.48772727 22.9184091,8.84909091 C22.5525,8.21045455 22.4581818,7.46727273 22.6513636,6.75704545 L22.6513636,6.75704545 Z M30.0320455,22.3025 C30.3445455,22.3025 30.6309091,22.0945455 30.7161364,21.7786364 L31.2536364,19.8070455 L37.9854545,21.64 C38.2161364,21.7025 38.4490909,21.7320455 38.6775,21.7320455 C39.8388636,21.7320455 40.9059091,20.9593182 41.2252273,19.7865909 L42.2820455,15.9013636 L48.7922727,9.78204545 C48.9786364,9.60477273 49.0570455,9.34113636 48.9945455,9.09227273 C48.9320455,8.84227273 48.74,8.64681818 48.4922727,8.57863636 L23.2865909,1.71613636 L17.3286364,0.0945454545 C16.6468182,-0.0918181818 15.9365909,0.000227272727 15.3252273,0.350227273 C14.7127273,0.699090909 14.2740909,1.26727273 14.0888636,1.94681818 L14.0320455,2.15590909 C13.2240909,2.08318182 12.4138636,2.2525 11.6956818,2.66386364 C10.7672727,3.19568182 10.1013636,4.05590909 9.82068182,5.08772727 L9.3525,6.80590909 C9.07181818,7.83886364 9.20931818,8.91727273 9.74,9.84568182 C10.1513636,10.565 10.7638636,11.1206818 11.4968182,11.4672727 L11.44,11.6775 C11.0570455,13.0809091 11.8888636,14.5343182 13.2922727,14.9172727 L17.2195455,15.9854545 L16.6831818,17.9581818 C16.5797727,18.3365909 16.8036364,18.7263636 17.1820455,18.8297727 L21.1343182,19.9059091 L25.8922727,21.2013636 L29.8445455,22.2775 C29.9070455,22.2945455 29.9695455,22.3025 30.0320455,22.3025 L30.0320455,22.3025 Z" id="Fill-6" fill="#BE913A"></path>
                            </g>
                        </g>
                    </g>
                </g>
            </g>
        </g>
    </g>
</svg>