<svg version="1.1" xmlns="http://www.w3.org/2000/svg" xmlns:xlink="http://www.w3.org/1999/xlink" x="0px" y="0px"
	 viewBox="0 0 56 50" style="enable-background:new 0 0 56 50;" xml:space="preserve">
<style type="text/css">
	.st0{fill:#BD9042;}
	.st1{filter:url(#Adobe_OpacityMaskFilter);}
	.st2{fill:#FFFFFF;}
	.st3{mask:url(#mask-2);fill:#BD9042;}
	.st4{filter:url(#Adobe_OpacityMaskFilter_1_);}
	.st5{mask:url(#mask-4);fill:#060707;}
	.st6{fill:#060707;}
</style>
<g>
	<g transform="translate(-112.000000, -990.000000)">
		<g transform="translate(55.000000, 990.000000)">
			<g transform="translate(57.000000, 0.000000)">
				<g>
					<path class="st0" d="M45.9,31.4l-12.7-5.2v6.2l-5.1-2.6l-5.3,2.6v-6.3l-12.7,5.2c-1.9,0.7-3.2,2.5-3.2,4.5v13.8
						h1.8V35.9c0-1.3,0.8-2.4,2.1-2.9l10.3-4.2v6.5l3.5-1.8l0.6,2.4l-1.1,13.7l1.7,0.1l1.1-14l-0.7-3.1l1.9-0.9l1.9,1l-0.8,3.2
						l1,13.9l1.8-0.1L31,36l0.6-2.5l3.4,1.7v-6.5L45.3,33c1.3,0.5,2.1,1.6,2.1,2.9v13.8h1.8V35.9C49.2,33.9,47.9,32.1,45.9,31.4"/>
					<g transform="translate(16.000000, 0.000000)">
						<g>
						</g>
						<defs>
							<filter filterUnits="userSpaceOnUse" x="0.6" y="0" width="22.5" height="25.8">
								<feColorMatrix  type="matrix" values="1 0 0 0 0  0 1 0 0 0  0 0 1 0 0  0 0 0 1 0"/>
							</filter>
						</defs>
						<mask maskUnits="userSpaceOnUse" x="0.6" y="0" width="22.5" height="25.8" id="mask-2">
							<g class="st1">
								<polygon class="st2" points="23.1,0 0.6,0 0.6,25.8 23.1,25.8 								"/>
							</g>
						</mask>
						<path class="st3" d="M2.6,13.8H4l-0.2-1c-0.1-0.9-0.2-1.8-0.2-2.5V9.9c0-4.5,3.7-8.2,8.3-8.2s8.3,3.7,8.3,8.2v0.3
							c0,0.7-0.1,1.5-0.2,2.5l-0.2,1h1.5c0,0,0.1,0,0.1,0c0,0,0,0,0,0.1l-0.4,2.1l-2.1,1l-2,4.1c-0.2,0.6-1.5,1.6-2.2,2.2l-0.4,0.3
							c-0.4,0.3-0.9,0.5-1.4,0.5l-2,0c-0.5,0-1-0.2-1.3-0.5C9.3,23.4,9,23.2,8.8,23c-0.7-0.6-1.8-1.5-2-2l-1.9-4l-1.8-1l-0.6-2.1
							C2.4,13.8,2.5,13.8,2.6,13.8L2.6,13.8z M3.5,18.2l1.7,3.5c0.4,0.9,1.5,1.9,2.6,2.7c0.2,0.2,0.4,0.4,0.6,0.5
							c0.7,0.6,1.6,0.9,2.5,0.9h2c0,0,0,0,0,0c0.9,0,1.8-0.3,2.5-0.9l0.4-0.3c1.3-1.1,2.4-2,2.7-2.9l1.7-3.5l2.3-1.1l0.6-3l0-0.1
							c0-0.5-0.2-1-0.5-1.4c-0.2-0.2-0.5-0.4-0.8-0.5c0.1-0.7,0.1-1.3,0.1-1.9V9.9c0-5.5-4.5-9.9-10-9.9s-10,4.5-10,9.9v0.3
							c0,0.6,0,1.2,0.1,1.9c-0.8,0.3-1.3,1-1.3,1.8l0.9,3.1L3.5,18.2z"/>
					</g>
					<g transform="translate(0.000000, 8.000000)">
						<g>
						</g>
						<defs>
							<filter filterUnits="userSpaceOnUse" x="0" y="0.1" width="19.2" height="41.9">
								<feColorMatrix  type="matrix" values="1 0 0 0 0  0 1 0 0 0  0 0 1 0 0  0 0 0 1 0"/>
							</filter>
						</defs>
						<mask maskUnits="userSpaceOnUse" x="0" y="0.1" width="19.2" height="41.9" id="mask-4">
							<g class="st4">
								<polygon class="st2" points="19.2,42 0,42 0,0.1 19.2,0.1 								"/>
							</g>
						</mask>
						<path class="st5" d="M6.1,7.6V4.1c0-0.3,0.1-0.5,0.3-0.7L8,2.1c0.2-0.1,0.4-0.2,0.6-0.2h2c0.2,0,0.4,0.1,0.6,0.2
							l1.6,1.4c0.2,0.2,0.3,0.4,0.3,0.7v3.5l-1.8,2v2.1l-0.1,2.1l-1.7-0.6l-1.7,0.6v-1.5v-0.6V9.5L6.1,7.6z M9.6,14.9l3.4,1.2
							l0.1-3.1l2.8,1.4l0.1,0c0.8,0.3,1.4,0.7,1.5,0.8v3h1.8v-3c0-1.4-1.9-2.2-2.6-2.4l-3.5-1.8v-0.9l1.8-2V4.1c0-0.8-0.3-1.5-0.9-2
							l-1.6-1.4c-0.5-0.4-1.1-0.6-1.7-0.6h-2C8,0.1,7.4,0.3,6.9,0.7L5.3,2.1c-0.6,0.5-0.9,1.2-0.9,2v4.2l1.8,1.9V11l-4.4,1.8
							c-1,0.4-1.8,1.4-1.8,2.5v17.6l1.7,1.4V42h1.8v-8.5l-1.7-1.4V15.3c0-0.4,0.2-0.7,0.6-0.8l3.7-1.5v3.2L9.6,14.9z"/>
					</g>
					<path class="st6" d="M48.1,17.5v2.1v0.6v1.5l-1.7-0.6l-1.7,0.6l-0.1-2.1v-2.1l-1.8-1.9v-3.5c0-0.3,0.1-0.5,0.3-0.7
						l1.6-1.4c0.2-0.1,0.4-0.2,0.6-0.2h2c0.2,0,0.4,0.1,0.6,0.2l1.6,1.4c0.2,0.2,0.3,0.4,0.3,0.7v3.5L48.1,17.5z M54.3,20.9L49.9,19
						v-0.8l1.8-2v-4.2c0-0.8-0.3-1.5-0.9-2l-1.6-1.4c-0.5-0.4-1.1-0.6-1.7-0.6h-2c-0.6,0-1.2,0.2-1.7,0.6L42,10.1
						c-0.6,0.5-0.9,1.2-0.9,2v4.2l1.8,2v0.9l-3.5,1.8c-0.7,0.2-2.6,1.1-2.6,2.4v3h1.8l0-2.9c0.1-0.2,0.7-0.6,1.5-0.9l2.9-1.5
						l0.1,3.1l3.4-1.2l3.5,1.2v-3.2l3.8,1.6c0.3,0.1,0.6,0.5,0.6,0.8v16.8l-1.7,1.4V50h1.8v-7.7l1.7-1.4V23.3
						C56,22.2,55.3,21.2,54.3,20.9L54.3,20.9z"/>
				</g>
			</g>
		</g>
	</g>
</g>
</svg>
