
<svg width="40px" height="40px" viewBox="0 0 40 40" version="1.1" xmlns="http://www.w3.org/2000/svg" xmlns:xlink="http://www.w3.org/1999/xlink">
    <g stroke="none" stroke-width="1" fill="none" fill-rule="evenodd">
        <g transform="translate(-1035.000000, -6852.000000)">
            <g transform="translate(0.000000, 6573.000000)">
                <g transform="translate(1035.000000, 279.000000)">
                    <rect x="0" y="0" width="40" height="40"></rect>
                    <g>
                        <path d="M26.1151611,15.2133468 C26.7932148,14.776542 27.3134942,14.0839232 27.5576686,13.2588473 C26.922815,13.6643074 26.2212831,13.9575329 25.4727945,14.1162791 C24.8755063,13.4287159 24.0218348,13 23.0770676,13 C21.2645419,13 19.7957387,14.5824065 19.7957387,16.5338726 C19.7957387,16.8109201 19.8229735,17.0808898 19.8793215,17.338726 C17.1520808,17.1911021 14.7338146,15.7856421 13.1138111,13.6461072 C12.8311322,14.1698686 12.6696015,14.776542 12.6696015,15.4236603 C12.6696015,16.6491405 13.2490462,17.7310415 14.1299525,18.3660263 C13.5918295,18.3478261 13.0856371,18.1870576 12.6423666,17.9241658 L12.6423666,17.9676441 C12.6423666,19.6804853 13.7730821,21.1092012 15.2766332,21.4327604 C15.0005283,21.5156724 14.7112755,21.5571284 14.4107531,21.5571284 C14.1994483,21.5571284 13.9928391,21.5358948 13.793743,21.4944388 C14.2107178,22.8978766 15.4231379,23.9211325 16.8600106,23.9484328 C15.735869,24.8968655 14.3205963,25.4610718 12.7832365,25.4610718 C12.5184011,25.4610718 12.2563832,25.445905 12,25.4125379 C13.4528379,26.4145602 15.1780243,27 17.0318718,27 C23.0704936,27 26.3706052,21.6147624 26.3706052,16.9443883 C26.3706052,16.7906977 26.3687269,16.6380182 26.362153,16.487361 C27.0035804,15.9888777 27.5614251,15.3660263 28,14.6572295 C27.4111639,14.9383215 26.7781886,15.1284125 26.1151611,15.2133468 Z" id="Shape" fill="#FFFFFF"></path>
                        <rect stroke="#FFFFFF" opacity="0.2" x="0.5" y="0.5" width="39" height="39"></rect>
                    </g>
                </g>
            </g>
        </g>
    </g>
</svg>