<?xml version="1.0" encoding="UTF-8"?>
<svg width="50px" height="50px" viewBox="0 0 50 50" version="1.1" xmlns="http://www.w3.org/2000/svg" xmlns:xlink="http://www.w3.org/1999/xlink">
    <!-- Generator: sketchtool 46.2 (44496) - http://www.bohemiancoding.com/sketch -->
    <title>EA9679F0-CEA9-401C-962D-A69C0E0F265B</title>
    <desc>Created with sketchtool.</desc>
    <defs></defs>
    <g id="Desktop-design" stroke="none" stroke-width="1" fill="none" fill-rule="evenodd">
        <g id="Parkchester_HP_C1" transform="translate(-475.000000, -2323.000000)">
            <g id="Amenities-&amp;-Facilities" transform="translate(0.000000, 1692.000000)">
                <g id="icons" transform="translate(74.000000, 431.000000)">
                    <g id="Group" transform="translate(401.000000, 200.000000)">
                        <g id="appliance">
                            <g id="Page-1">
                                <path d="M1.42045455,44.0679545 L1.42045455,4.9475 C1.42045455,3.00318182 3.00340909,1.42022727 4.94886364,1.42022727 L44.0681818,1.42022727 C46.0125,1.42022727 47.5954545,3.00318182 47.5954545,4.9475 L47.5954545,44.0679545 C47.5954545,46.0134091 46.0125,47.5952273 44.0681818,47.5952273 L4.94886364,47.5952273 C3.00340909,47.5952273 1.42045455,46.0134091 1.42045455,44.0679545 L1.42045455,44.0679545 Z M44.0681818,49.0156818 C46.7965909,49.0156818 49.0159091,46.7963636 49.0159091,44.0679545 L49.0159091,4.9475 C49.0159091,2.21909091 46.7965909,-0.000227272727 44.0681818,-0.000227272727 L4.94886364,-0.000227272727 C2.21931818,-0.000227272727 0,2.21909091 0,4.9475 L0,44.0679545 C0,46.7963636 2.21931818,49.0156818 4.94886364,49.0156818 L44.0681818,49.0156818 Z" id="Fill-1" fill="#060707"></path>
                                <path d="M14.5352273,39.9164773 C19.6965909,39.9164773 23.8943182,35.7176136 23.8943182,30.55625 C23.8943182,26.6482955 21.4238636,23.11875 17.7465909,21.7732955 C17.3784091,21.6392045 16.9715909,21.8278409 16.8352273,22.1960227 C16.7011364,22.5642045 16.8897727,22.9721591 17.2579545,23.1073864 C20.3784091,24.2482955 22.4738636,27.2426136 22.4738636,30.55625 C22.4738636,34.9346591 18.9136364,38.4960227 14.5352273,38.4960227 C10.1579545,38.4960227 6.59545455,34.9346591 6.59545455,30.55625 C6.59545455,27.2426136 8.69090909,24.2482955 11.8125,23.1073864 C12.1806818,22.9721591 12.3693182,22.5642045 12.2352273,22.1960227 C12.1,21.8278409 11.6943182,21.6392045 11.3238636,21.7732955 C7.64659091,23.11875 5.175,26.6482955 5.175,30.55625 C5.175,35.7176136 9.37386364,39.9164773 14.5352273,39.9164773" id="Fill-3" fill="#BE913A"></path>
                                <path d="M34.9897727,40.6278409 C39.1079545,40.6278409 42.4590909,37.2767045 42.4590909,33.1573864 C42.4590909,30.2607955 40.7556818,27.6017045 38.1193182,26.38125 C37.7636364,26.21875 37.3409091,26.3710227 37.1761364,26.7278409 C37.0113636,27.0835227 37.1659091,27.50625 37.5227273,27.6710227 C39.6579545,28.6585227 41.0386364,30.8130682 41.0386364,33.1573864 C41.0386364,36.49375 38.3261364,39.2073864 34.9897727,39.2073864 C31.6534091,39.2073864 28.9397727,36.49375 28.9397727,33.1573864 C28.9397727,30.8130682 30.3204545,28.6585227 32.4568182,27.6710227 C32.8125,27.50625 32.9670455,27.0835227 32.8022727,26.7278409 C32.6386364,26.3710227 32.2147727,26.2176136 31.8590909,26.38125 C29.2227273,27.6017045 27.5193182,30.2607955 27.5193182,33.1573864 C27.5193182,37.2767045 30.8704545,40.6278409 34.9897727,40.6278409" id="Fill-5" fill="#BE913A"></path>
                                <path d="M34.9897727,20.2271591 C39.1079545,20.2271591 42.4590909,16.8760227 42.4590909,12.7567045 C42.4590909,9.86011364 40.7556818,7.20102273 38.1193182,5.98056818 C37.7636364,5.81806818 37.3409091,5.97034091 37.1761364,6.32715909 C37.0113636,6.68284091 37.1659091,7.10556818 37.5227273,7.27034091 C39.6579545,8.25784091 41.0386364,10.4123864 41.0386364,12.7567045 C41.0386364,16.0930682 38.3261364,18.8067045 34.9897727,18.8067045 C31.6534091,18.8067045 28.9397727,16.0930682 28.9397727,12.7567045 C28.9397727,10.4123864 30.3204545,8.25784091 32.4568182,7.27034091 C32.8125,7.10556818 32.9670455,6.68284091 32.8022727,6.32715909 C32.6386364,5.97034091 32.2147727,5.81693182 31.8590909,5.98056818 C29.2227273,7.20102273 27.5193182,9.86011364 27.5193182,12.7567045 C27.5193182,16.8760227 30.8704545,20.2271591 34.9897727,20.2271591" id="Fill-7" fill="#BE913A"></path>
                                <path d="M14.5352273,15.0246591 C17.2659091,15.0246591 19.4875,12.8019318 19.4875,10.07125 C19.4875,8.48375 18.7113636,6.97920455 17.4079545,6.04738636 C17.0886364,5.81897727 16.6454545,5.89397727 16.4181818,6.21215909 C16.1897727,6.53034091 16.2625,6.97465909 16.5829545,7.20306818 C17.5125,7.86897727 18.0670455,8.94056818 18.0670455,10.07125 C18.0670455,12.0189773 16.4829545,13.6042045 14.5352273,13.6042045 C12.5863636,13.6042045 11.0022727,12.0189773 11.0022727,10.07125 C11.0022727,8.94056818 11.5579545,7.86784091 12.4875,7.20306818 C12.8079545,6.97465909 12.8806818,6.53147727 12.6534091,6.21215909 C12.4261364,5.89397727 11.9829545,5.81670455 11.6625,6.04738636 C10.3590909,6.97806818 9.58181818,8.48261364 9.58181818,10.07125 C9.58181818,12.8019318 11.8045455,15.0246591 14.5352273,15.0246591" id="Fill-9" fill="#BE913A"></path>
                                <path d="M19.3947727,42.6081818 C19.0027273,42.6081818 18.6845455,42.9263636 18.6845455,43.3184091 L18.6845455,44.9831818 C18.6845455,45.3763636 19.0027273,45.6934091 19.3947727,45.6934091 C19.7868182,45.6934091 20.105,45.3763636 20.105,44.9831818 L20.105,43.3184091 C20.105,42.9263636 19.7868182,42.6081818 19.3947727,42.6081818" id="Fill-11" fill="#BE913A"></path>
                                <path d="M22.8038636,42.6081818 C22.4118182,42.6081818 22.0936364,42.9263636 22.0936364,43.3184091 L22.0936364,44.9831818 C22.0936364,45.3763636 22.4118182,45.6934091 22.8038636,45.6934091 C23.1959091,45.6934091 23.5140909,45.3763636 23.5140909,44.9831818 L23.5140909,43.3184091 C23.5140909,42.9263636 23.1959091,42.6081818 22.8038636,42.6081818" id="Fill-13" fill="#BE913A"></path>
                                <path d="M26.2129545,45.69375 C26.605,45.69375 26.9231818,45.3755682 26.9231818,44.9835227 L26.9231818,43.31875 C26.9231818,42.9255682 26.605,42.6085227 26.2129545,42.6085227 C25.8209091,42.6085227 25.5027273,42.9255682 25.5027273,43.31875 L25.5027273,44.9835227 C25.5027273,45.3755682 25.8209091,45.69375 26.2129545,45.69375" id="Fill-15" fill="#BE913A"></path>
                                <path d="M29.6220455,42.6081818 C29.23,42.6081818 28.9118182,42.9263636 28.9118182,43.3184091 L28.9118182,44.9831818 C28.9118182,45.3763636 29.23,45.6934091 29.6220455,45.6934091 C30.0140909,45.6934091 30.3322727,45.3763636 30.3322727,44.9831818 L30.3322727,43.3184091 C30.3322727,42.9263636 30.0140909,42.6081818 29.6220455,42.6081818" id="Fill-17" fill="#BE913A"></path>
                            </g>
                        </g>
                    </g>
                </g>
            </g>
        </g>
    </g>
</svg>