<?xml version="1.0" encoding="UTF-8"?>
<svg width="16px" height="16px" viewBox="0 0 16 16" version="1.1" xmlns="http://www.w3.org/2000/svg" xmlns:xlink="http://www.w3.org/1999/xlink">
    <!-- Generator: sketchtool 46.2 (44496) - http://www.bohemiancoding.com/sketch -->
    <title>B340EAF4-3B71-4900-9F75-D1609B6E565C</title>
    <desc>Created with sketchtool.</desc>
    <defs>
        <polygon id="path-1" points="4.92368733e-16 15.9996 4.92368733e-16 0 15.80696 0 15.80696 15.9996"></polygon>
        <polygon id="path-3" points="2.92792 2.84217094e-15 0.32872 2.84217094e-15 0.32872 4.31728 2.92792 4.31728 2.92792 0"></polygon>
        <polygon id="path-5" points="3.188 2.84217094e-15 0.5872 2.84217094e-15 0.5872 4.31728 3.188 4.31728 3.188 0"></polygon>
    </defs>
    <g id="Desktop-design" stroke="none" stroke-width="1" fill="none" fill-rule="evenodd">
        <g id="Parkchester_HP_C1" transform="translate(-1209.000000, -3648.000000)">
            <g id="Events" transform="translate(0.000000, 3440.000000)">
                <g id="filter" transform="translate(855.000000, 208.000000)">
                    <g id="calendar" transform="translate(354.000000, 0.000000)">
                        <g>
                            <g id="Group-3">
                                <mask id="mask-2" fill="white">
                                    <use xlink:href="#path-1"></use>
                                </mask>
                                <g id="Clip-2"></g>
                                <path d="M14.38136,15.002 L1.42536,15.002 C1.19336,15.002 0.99816,14.806 0.99816,14.574 L0.99816,6.5956 L14.80936,6.5956 L14.80936,14.574 C14.80936,14.806 14.61336,15.002 14.38136,15.002 M14.38136,1.5436 L12.86376,1.5436 L12.86376,2.542 L14.38136,2.542 C14.61336,2.542 14.80936,2.738 14.80936,2.9692 L14.80936,5.5972 L0.99816,5.5972 L0.99816,2.9692 C0.99816,2.738 1.19336,2.542 1.42536,2.542 L3.24536,2.542 L3.24536,3.818 C3.24536,4.094 3.46936,4.3172 3.74456,4.3172 C4.01976,4.3172 4.24376,4.094 4.24376,3.818 L4.24376,2.542 L4.24696,2.542 L4.24696,1.5436 L4.24376,1.5436 L4.24376,0.4988 C4.24376,0.2236 4.01976,-0.0004 3.74456,-0.0004 C3.46936,-0.0004 3.24536,0.2236 3.24536,0.4988 L3.24536,1.5436 L1.42536,1.5436 C0.64136,1.5436 -0.00024,2.1852 -0.00024,2.9692 L-0.00024,14.574 C-0.00024,15.3588 0.64136,15.9996 1.42536,15.9996 L14.38136,15.9996 C15.16536,15.9996 15.80696,15.3588 15.80696,14.574 L15.80696,2.9692 C15.80696,2.1852 15.16536,1.5436 14.38136,1.5436" id="Fill-1" fill="#060707" mask="url(#mask-2)"></path>
                            </g>
                            <g id="Group-6" transform="translate(8.800000, 0.000000)">
                                <mask id="mask-4" fill="white">
                                    <use xlink:href="#path-3"></use>
                                </mask>
                                <g id="Clip-5"></g>
                                <path d="M1.93032,3.81808 C1.93032,4.09408 2.15352,4.31728 2.42952,4.31728 C2.70472,4.31728 2.92792,4.09408 2.92792,3.81808 L2.92792,0.49888 C2.92792,0.22368 2.70472,-0.00032 2.42952,-0.00032 C2.15352,-0.00032 1.93032,0.22368 1.93032,0.49888 L1.93032,1.54368 L0.32872,1.54368 L0.32872,2.54128 L1.93032,2.54128 L1.93032,3.81808 Z" id="Fill-4" fill="#060707" mask="url(#mask-4)"></path>
                            </g>
                            <g id="Group-9" transform="translate(4.800000, 0.000000)">
                                <mask id="mask-6" fill="white">
                                    <use xlink:href="#path-5"></use>
                                </mask>
                                <g id="Clip-8"></g>
                                <path d="M2.188,3.81808 C2.188,4.09408 2.4112,4.31728 2.6872,4.31728 C2.9624,4.31728 3.1856,4.09408 3.1856,3.81808 L3.1856,2.54128 L3.188,2.54128 L3.188,1.54368 L3.1856,1.54368 L3.1856,0.49888 C3.1856,0.22368 2.9624,-0.00032 2.6872,-0.00032 C2.4112,-0.00032 2.188,0.22368 2.188,0.49888 L2.188,1.54368 L0.5872,1.54368 L0.5872,2.54128 L2.188,2.54128 L2.188,3.81808 Z" id="Fill-7" fill="#060707" mask="url(#mask-6)"></path>
                            </g>
                            <polygon id="Fill-10" fill="#BE913A" points="2.8056 11.3792 3.9464 11.3792 3.9464 10.2384 2.8056 10.2384"></polygon>
                            <polygon id="Fill-12" fill="#BE913A" points="5.08 11.3792 6.2208 11.3792 6.2208 10.2384 5.08 10.2384"></polygon>
                            <polygon id="Fill-13" fill="#BE913A" points="7.3536 11.3792 8.4944 11.3792 8.4944 10.2384 7.3536 10.2384"></polygon>
                            <polygon id="Fill-14" fill="#BE913A" points="9.628 11.3792 10.7688 11.3792 10.7688 10.2384 9.628 10.2384"></polygon>
                            <polygon id="Fill-15" fill="#BE913A" points="11.9016 11.3792 13.0424 11.3792 13.0424 10.2384 11.9016 10.2384"></polygon>
                            <polygon id="Fill-16" fill="#BE913A" points="5.08 9.1032 6.2208 9.1032 6.2208 7.9624 5.08 7.9624"></polygon>
                            <polygon id="Fill-17" fill="#BE913A" points="7.3536 9.1032 8.4944 9.1032 8.4944 7.9624 7.3536 7.9624"></polygon>
                            <polygon id="Fill-18" fill="#BE913A" points="9.628 9.1032 10.7688 9.1032 10.7688 7.9624 9.628 7.9624"></polygon>
                            <polygon id="Fill-19" fill="#BE913A" points="11.9016 9.1032 13.0424 9.1032 13.0424 7.9624 11.9016 7.9624"></polygon>
                            <polygon id="Fill-20" fill="#BE913A" points="2.8056 13.656 3.9464 13.656 3.9464 12.5152 2.8056 12.5152"></polygon>
                            <polygon id="Fill-21" fill="#060707" points="5.08 13.656 6.2208 13.656 6.2208 12.5152 5.08 12.5152"></polygon>
                            <polygon id="Fill-22" fill="#060707" points="7.3536 13.656 8.4944 13.656 8.4944 12.5152 7.3536 12.5152"></polygon>
                            <polygon id="Fill-23" fill="#060707" points="9.628 13.656 10.7688 13.656 10.7688 12.5152 9.628 12.5152"></polygon>
                        </g>
                    </g>
                </g>
            </g>
        </g>
    </g>
</svg>