<?xml version="1.0" encoding="UTF-8"?>
<svg width="50px" height="50px" viewBox="0 0 50 50" version="1.1" xmlns="http://www.w3.org/2000/svg" xmlns:xlink="http://www.w3.org/1999/xlink">
    <!-- Generator: sketchtool 46.2 (44496) - http://www.bohemiancoding.com/sketch -->
    <title>8DF99C85-DB1D-4710-801C-AFE2AC46A4CC</title>
    <desc>Created with sketchtool.</desc>
    <defs>
        <polygon id="path-1" points="0 49.0054545 49.0159091 49.0054545 49.0159091 -0.000227272727 0 -0.000227272727"></polygon>
    </defs>
    <g id="Desktop-design" stroke="none" stroke-width="1" fill="none" fill-rule="evenodd">
        <g id="Parkchester_HP_C1" transform="translate(-75.000000, -2123.000000)">
            <g id="Amenities-&amp;-Facilities" transform="translate(0.000000, 1692.000000)">
                <g id="icons" transform="translate(74.000000, 431.000000)">
                    <g id="Group" transform="translate(1.000000, 0.000000)">
                        <g id="management">
                            <g id="Page-1">
                                <path d="M12.6959091,19.9798864 L12.6959091,18.4639773 L6.32318182,18.4639773 L6.32318182,19.9798864 L7.68795455,19.9798864 L11.33,19.9798864 L12.6959091,19.9798864 Z M8.39818182,37.76625 L10.6197727,37.76625 L10.6197727,21.4003409 L8.39818182,21.4003409 L8.39818182,37.76625 Z M12.6959091,40.7014773 L12.6959091,39.1867045 L11.33,39.1867045 L7.68795455,39.1867045 L6.32318182,39.1867045 L6.32318182,40.7014773 L12.6959091,40.7014773 Z M13.4061364,17.0435227 C13.7981818,17.0435227 14.1163636,17.3617045 14.1163636,17.75375 L14.1163636,20.6901136 C14.1163636,21.0821591 13.7981818,21.4003409 13.4061364,21.4003409 L12.0402273,21.4003409 L12.0402273,37.76625 L13.4061364,37.76625 C13.7981818,37.76625 14.1163636,38.0844318 14.1163636,38.4764773 L14.1163636,41.4117045 C14.1163636,41.8048864 13.7981818,42.1219318 13.4061364,42.1219318 L5.61295455,42.1219318 C5.21977273,42.1219318 4.90272727,41.8048864 4.90272727,41.4117045 L4.90272727,38.4764773 C4.90272727,38.0844318 5.21977273,37.76625 5.61295455,37.76625 L6.97772727,37.76625 L6.97772727,21.4003409 L5.61295455,21.4003409 C5.21977273,21.4003409 4.90272727,21.0821591 4.90272727,20.6901136 L4.90272727,17.75375 C4.90272727,17.3617045 5.21977273,17.0435227 5.61295455,17.0435227 L13.4061364,17.0435227 Z" id="Fill-1" fill="#BE913A"></path>
                                <mask id="mask-2" fill="white">
                                    <use xlink:href="#path-1"></use>
                                </mask>
                                <g id="Clip-4"></g>
                                <path d="M38.3954545,37.7656818 L40.6170455,37.7656818 L40.6170455,21.3997727 L38.3954545,21.3997727 L38.3954545,37.7656818 Z M42.6931818,40.7020455 L36.3193182,40.7020455 L36.3193182,39.1861364 L37.6852273,39.1861364 L41.3272727,39.1861364 L42.6931818,39.1861364 L42.6931818,40.7020455 Z M36.3193182,18.4645455 L42.6931818,18.4645455 L42.6931818,19.9804545 L41.3272727,19.9804545 L37.6852273,19.9804545 L36.3193182,19.9804545 L36.3193182,18.4645455 Z M43.4034091,21.4009091 C43.7954545,21.4009091 44.1136364,21.0827273 44.1136364,20.6906818 L44.1136364,17.7543182 C44.1136364,17.3622727 43.7954545,17.0440909 43.4034091,17.0440909 L35.6090909,17.0440909 C35.2170455,17.0440909 34.8988636,17.3622727 34.8988636,17.7543182 L34.8988636,20.6906818 C34.8988636,21.0827273 35.2170455,21.4009091 35.6090909,21.4009091 L36.975,21.4009091 L36.975,37.7656818 L35.6090909,37.7656818 C35.2170455,37.7656818 34.8988636,38.0838636 34.8988636,38.4759091 L34.8988636,41.4122727 C34.8988636,41.8043182 35.2170455,42.1225 35.6090909,42.1225 L43.4034091,42.1225 C43.7954545,42.1225 44.1136364,41.8043182 44.1136364,41.4122727 L44.1136364,38.4759091 C44.1136364,38.0838636 43.7954545,37.7656818 43.4034091,37.7656818 L42.0375,37.7656818 L42.0375,21.4009091 L43.4034091,21.4009091 Z" id="Fill-3" fill="#BE913A" mask="url(#mask-2)"></path>
                                <path d="M27.6944318,19.9798864 L26.3285227,19.9798864 L22.6864773,19.9798864 L21.3217045,19.9798864 L21.3217045,18.4639773 L27.6944318,18.4639773 L27.6944318,19.9798864 Z M23.3967045,37.76625 L25.6182955,37.76625 L25.6182955,21.4003409 L23.3967045,21.4003409 L23.3967045,37.76625 Z M27.6944318,40.7014773 L21.3217045,40.7014773 L21.3217045,39.1867045 L22.6864773,39.1867045 L26.3285227,39.1867045 L27.6944318,39.1867045 L27.6944318,40.7014773 Z M28.4046591,17.0435227 L20.6114773,17.0435227 C20.2182955,17.0435227 19.90125,17.3617045 19.90125,17.75375 L19.90125,20.6901136 C19.90125,21.0821591 20.2182955,21.4003409 20.6114773,21.4003409 L21.97625,21.4003409 L21.97625,37.76625 L20.6114773,37.76625 C20.2182955,37.76625 19.90125,38.0844318 19.90125,38.4764773 L19.90125,41.4117045 C19.90125,41.8048864 20.2182955,42.1219318 20.6114773,42.1219318 L28.4046591,42.1219318 C28.7967045,42.1219318 29.1148864,41.8048864 29.1148864,41.4117045 L29.1148864,38.4764773 C29.1148864,38.0844318 28.7967045,37.76625 28.4046591,37.76625 L27.03875,37.76625 L27.03875,21.4003409 L28.4046591,21.4003409 C28.7967045,21.4003409 29.1148864,21.0821591 29.1148864,20.6901136 L29.1148864,17.75375 C29.1148864,17.3617045 28.7967045,17.0435227 28.4046591,17.0435227 L28.4046591,17.0435227 Z" id="Fill-5" fill="#BE913A" mask="url(#mask-2)"></path>
                                <path d="M47.5952273,47.585 L24.5077273,47.585 L1.42022727,47.585 L1.42022727,45.5645455 L3.89863636,45.5645455 L24.5077273,45.5645455 L45.1168182,45.5645455 L47.5952273,45.5645455 L47.5952273,47.585 Z M4.60886364,42.1225 L24.5077273,42.1225 L44.4065909,42.1225 L44.4065909,44.1440909 L24.5077273,44.1440909 L4.60886364,44.1440909 L4.60886364,42.1225 Z M48.3054545,44.1440909 L45.8270455,44.1440909 L45.8270455,41.4122727 C45.8270455,41.0202273 45.5088636,40.7020455 45.1168182,40.7020455 L24.5077273,40.7020455 L3.89863636,40.7020455 C3.50659091,40.7020455 3.18840909,41.0202273 3.18840909,41.4122727 L3.18840909,44.1440909 L0.71,44.1440909 C0.317954545,44.1440909 -0.000227272727,44.4611364 -0.000227272727,44.8543182 L-0.000227272727,48.2952273 C-0.000227272727,48.6872727 0.317954545,49.0054545 0.71,49.0054545 L24.5077273,49.0054545 L48.3054545,49.0054545 C48.6975,49.0054545 49.0156818,48.6872727 49.0156818,48.2952273 L49.0156818,44.8543182 C49.0156818,44.4611364 48.6975,44.1440909 48.3054545,44.1440909 L48.3054545,44.1440909 Z" id="Fill-6" fill="#060707" mask="url(#mask-2)"></path>
                                <path d="M24.5078409,1.51772727 L45.6339773,13.6029545 L45.1169318,13.6029545 L24.5078409,13.6029545 L3.89875,13.6029545 L3.38170455,13.6029545 L24.5078409,1.51772727 Z M44.4067045,17.0438636 L24.5078409,17.0438636 L4.60897727,17.0438636 L4.60897727,15.0234091 L24.5078409,15.0234091 L44.4067045,15.0234091 L44.4067045,17.0438636 Z M0.710113636,15.0234091 L3.18852273,15.0234091 L3.18852273,17.7540909 C3.18852273,18.1461364 3.50670455,18.4643182 3.89875,18.4643182 L24.5078409,18.4643182 L45.1169318,18.4643182 C45.5089773,18.4643182 45.8271591,18.1461364 45.8271591,17.7540909 L45.8271591,15.0234091 L48.3055682,15.0234091 C48.6271591,15.0234091 48.9089773,14.8063636 48.9919318,14.4961364 C49.0748864,14.1847727 48.9373864,13.8563636 48.6589773,13.6961364 L24.86125,0.0825 C24.83625,0.0688636364 24.8078409,0.0677272727 24.7828409,0.0563636364 C24.73625,0.0370454545 24.6907955,0.0188636364 24.6407955,0.00977272727 C24.5953409,0.000681818182 24.5521591,-0.000454545455 24.5067045,-0.000454545455 C24.4623864,0.000681818182 24.4203409,0.000681818182 24.3760227,0.00977272727 C24.3260227,0.0188636364 24.2794318,0.0370454545 24.2317045,0.0575 C24.2067045,0.0677272727 24.1794318,0.0688636364 24.1544318,0.0825 L0.357840909,13.6961364 C0.0782954545,13.8563636 -0.0592045455,14.1847727 0.02375,14.4961364 C0.106704545,14.8063636 0.388522727,15.0234091 0.710113636,15.0234091 L0.710113636,15.0234091 Z" id="Fill-7" fill="#060707" mask="url(#mask-2)"></path>
                                <path d="M24.5078409,6.53386364 C25.4885227,6.53386364 26.2873864,7.33159091 26.2873864,8.31227273 C26.2873864,9.29409091 25.4885227,10.0918182 24.5078409,10.0918182 C23.5271591,10.0918182 22.7294318,9.29409091 22.7294318,8.31227273 C22.7294318,7.33159091 23.5271591,6.53386364 24.5078409,6.53386364 M24.5078409,11.5122727 C26.2726136,11.5122727 27.7078409,10.0770455 27.7078409,8.31227273 C27.7078409,6.54863636 26.2726136,5.11340909 24.5078409,5.11340909 C22.7442045,5.11340909 21.3089773,6.54863636 21.3089773,8.31227273 C21.3089773,10.0770455 22.7442045,11.5122727 24.5078409,11.5122727" id="Fill-8" fill="#060707" mask="url(#mask-2)"></path>
                            </g>
                        </g>
                    </g>
                </g>
            </g>
        </g>
    </g>
</svg>