<?xml version="1.0" encoding="UTF-8"?>
<svg width="33px" height="41px" viewBox="0 0 33 41" version="1.1" xmlns="http://www.w3.org/2000/svg" xmlns:xlink="http://www.w3.org/1999/xlink">
    <!-- Generator: sketchtool 46.2 (44496) - http://www.bohemiancoding.com/sketch -->
    <title>9E462A4C-0200-42F2-829E-357B52BF098A</title>
    <desc>Created with sketchtool.</desc>
    <defs></defs>
    <g id="Desktop-design" stroke="none" stroke-width="1" fill="none" fill-rule="evenodd">
        <g id="Parkchester_HP_C1" transform="translate(-584.000000, -2856.000000)" stroke="#FFFFFF" fill="#BE913A">
            <g id="The-Neighborhood" transform="translate(0.000000, 2574.000000)">
                <g id="map-pin_2" transform="translate(585.000000, 283.000000)">
                    <path d="M15.4551792,23.1218065 C11.3076375,23.1218065 7.94672083,19.7643871 7.94672083,15.6211613 C7.94672083,11.4779355 11.3076375,8.12180645 15.4551792,8.12180645 C19.6027208,8.12180645 22.9636375,11.4779355 22.9636375,15.6211613 C22.9636375,19.7643871 19.6027208,23.1218065 15.4551792,23.1218065 M14.9075125,0.0095483871 C7.2078875,0.279225806 0.812845833,6.28051613 0.0740125,13.9385806 C-0.0771125,15.4701935 0.00942916667,16.9553548 0.280679167,18.376 C0.280679167,18.376 0.303929167,18.5424516 0.3840125,18.859871 C0.621679167,19.9230968 0.979470833,20.9553548 1.42380417,21.9230968 C2.97380417,25.5901935 6.5568875,31.7256774 14.5975125,38.4005161 C15.0896375,38.8134194 15.8129708,38.8134194 16.3128458,38.4005161 C24.3534708,31.7334194 27.9365542,25.5979355 29.4943042,21.9153548 C29.9463875,20.9476129 30.2964292,19.9230968 30.5353875,18.852129 C30.6064292,18.5424516 30.6387208,18.3682581 30.6387208,18.3682581 C30.8208458,17.4147097 30.9164292,16.4392258 30.9164292,15.4392258 C30.9164292,6.7243871 23.6947208,-0.300129032 14.9075125,0.0095483871" id="Fill-1"></path>
                </g>
            </g>
        </g>
    </g>
</svg>