<?xml version="1.0" encoding="UTF-8"?>
<svg width="50px" height="50px" viewBox="0 0 50 50" version="1.1" xmlns="http://www.w3.org/2000/svg" xmlns:xlink="http://www.w3.org/1999/xlink">
    <!-- Generator: sketchtool 46.2 (44496) - http://www.bohemiancoding.com/sketch -->
    <title>DB2F2E5D-917A-4D74-A0EF-96D6B764A508</title>
    <desc>Created with sketchtool.</desc>
    <defs></defs>
    <g id="Style-Guide" stroke="none" stroke-width="1" fill="none" fill-rule="evenodd">
        <g transform="translate(-1009.000000, -4827.000000)" id="Accountability">
            <g transform="translate(1009.000000, 4827.000000)">
                <g>
                    <path d="M5.8463,28.3197 C6.2463,28.3197 6.5703,27.9957 6.5703,27.5957 L6.5703,26.4107 L23.2133,26.4107 C23.6133,26.4107 23.9373,26.0857 23.9373,25.6857 C23.9373,25.2857 23.6133,24.9617 23.2133,24.9617 L18.8653,24.9617 L18.8653,24.5267 C18.8653,24.1267 18.5413,23.8027 18.1413,23.8027 C17.7413,23.8027 17.4163,24.1267 17.4163,24.5267 L17.4163,24.9617 L9.4083,24.9617 L9.4083,24.5267 C9.4083,24.1267 9.0843,23.8027 8.6843,23.8027 C8.2843,23.8027 7.9593,24.1267 7.9593,24.5267 L7.9593,24.9617 L6.5703,24.9617 L6.5703,4.6537 C6.5703,4.2537 6.2463,3.9287 5.8463,3.9287 C5.4463,3.9287 5.1223,4.2537 5.1223,4.6537 L5.1223,24.9617 L4.0093,24.9617 C3.6093,24.9617 3.2853,25.2857 3.2853,25.6857 C3.2853,26.0857 3.6093,26.4107 4.0093,26.4107 L5.1223,26.4107 L5.1223,27.5957 C5.1223,27.9957 5.4463,28.3197 5.8463,28.3197" id="Fill-1" fill="#BE913A"></path>
                    <path d="M27.1769,21.1133 C26.7769,21.1133 26.4529,21.4373 26.4529,21.8383 L26.4529,22.9973 C26.4529,23.3973 26.7769,23.7213 27.1769,23.7213 C27.5769,23.7213 27.9019,23.3973 27.9019,22.9973 L27.9019,21.8383 C27.9019,21.4373 27.5769,21.1133 27.1769,21.1133" id="Fill-3" fill="#060707"></path>
                    <path d="M27.1769,10.8554 C26.7769,10.8554 26.4529,11.1794 26.4529,11.5794 L26.4529,13.6314 C26.4529,14.0324 26.7769,14.3564 27.1769,14.3564 C27.5769,14.3564 27.9019,14.0324 27.9019,13.6314 L27.9019,11.5794 C27.9019,11.1794 27.5769,10.8554 27.1769,10.8554" id="Fill-5" fill="#060707"></path>
                    <path d="M27.1769,15.9841 C26.7769,15.9841 26.4529,16.3081 26.4529,16.7081 L26.4529,18.7601 C26.4529,19.1601 26.7769,19.4851 27.1769,19.4851 C27.5769,19.4851 27.9019,19.1601 27.9019,18.7601 L27.9019,16.7081 C27.9019,16.3081 27.5769,15.9841 27.1769,15.9841" id="Fill-7" fill="#060707"></path>
                    <path d="M18.1411,21.3797 C18.5411,21.3797 18.8651,21.0557 18.8651,20.6557 L18.8651,18.0747 C18.8651,17.6737 18.5411,17.3497 18.1411,17.3497 C17.7411,17.3497 17.4171,17.6737 17.4171,18.0747 L17.4171,20.6557 C17.4171,21.0557 17.7411,21.3797 18.1411,21.3797" id="Fill-9" fill="#060707"></path>
                    <path d="M36.2133,21.1133 C35.8133,21.1133 35.4883,21.4373 35.4883,21.8383 L35.4883,22.9973 C35.4883,23.3973 35.8133,23.7213 36.2133,23.7213 C36.6133,23.7213 36.9373,23.3973 36.9373,22.9973 L36.9373,21.8383 C36.9373,21.4373 36.6133,21.1133 36.2133,21.1133" id="Fill-11" fill="#060707"></path>
                    <path d="M36.2133,13.9934 C35.8133,13.9934 35.4883,14.3174 35.4883,14.7174 L35.4883,17.5664 C35.4883,17.9664 35.8133,18.2904 36.2133,18.2904 C36.6133,18.2904 36.9373,17.9664 36.9373,17.5664 L36.9373,14.7174 C36.9373,14.3174 36.6133,13.9934 36.2133,13.9934" id="Fill-13" fill="#060707"></path>
                    <path d="M36.8335,7.9417 C36.8335,8.2837 36.5555,8.5627 36.2135,8.5627 C35.8715,8.5627 35.5925,8.2837 35.5925,7.9417 C35.5925,7.5997 35.8715,7.3217 36.2135,7.3217 C36.5555,7.3217 36.8335,7.5997 36.8335,7.9417 M27.1765,5.3777 C27.5195,5.3777 27.7975,5.6567 27.7975,5.9987 C27.7975,6.3407 27.5195,6.6197 27.1765,6.6197 C26.8345,6.6197 26.5565,6.3407 26.5565,5.9987 C26.5565,5.6567 26.8345,5.3777 27.1765,5.3777 M18.1415,11.0777 C18.4835,11.0777 18.7615,11.3567 18.7615,11.6987 C18.7615,12.0397 18.4835,12.3187 18.1415,12.3187 C17.7995,12.3187 17.5205,12.0397 17.5205,11.6987 C17.5205,11.3567 17.7995,11.0777 18.1415,11.0777 M8.6845,16.7747 C9.0265,16.7747 9.3045,17.0537 9.3045,17.3947 C9.3045,17.7367 9.0265,18.0157 8.6845,18.0157 C8.3425,18.0157 8.0635,17.7367 8.0635,17.3947 C8.0635,17.0537 8.3425,16.7747 8.6845,16.7747 M36.2135,5.8727 C35.7245,5.8727 35.2805,6.0497 34.9265,6.3337 C33.1165,5.5767 31.1655,5.2207 29.1085,5.2717 C28.8125,4.4897 28.0615,3.9287 27.1765,3.9287 C26.0355,3.9287 25.1075,4.8577 25.1075,5.9987 C25.1075,6.0717 25.1215,6.1417 25.1295,6.2127 C24.0805,6.7697 23.2395,7.5997 22.4355,8.4247 C21.6005,9.2817 20.7925,10.0737 19.8155,10.4927 C19.4395,9.9717 18.8315,9.6287 18.1415,9.6287 C17.1255,9.6287 16.2835,10.3647 16.1085,11.3307 C13.5055,12.0117 11.1335,13.4467 9.3225,15.4367 C9.1205,15.3707 8.9085,15.3257 8.6845,15.3257 C7.5435,15.3257 6.6145,16.2537 6.6145,17.3947 C6.6145,18.2807 7.1765,19.0317 7.9595,19.3267 L7.9595,19.8987 C7.9595,20.2997 8.2845,20.6237 8.6845,20.6237 C9.0845,20.6237 9.4085,20.2997 9.4085,19.8987 L9.4085,19.3267 C10.1925,19.0317 10.7535,18.2807 10.7535,17.3947 C10.7535,17.0087 10.6405,16.6517 10.4555,16.3427 C12.0465,14.6207 14.1095,13.3707 16.3735,12.7587 C16.6125,13.1557 16.9775,13.4647 17.4165,13.6297 L17.4165,14.2027 C17.4165,14.6027 17.7405,14.9267 18.1415,14.9267 C18.5415,14.9267 18.8655,14.6027 18.8655,14.2027 L18.8655,13.6297 C19.5775,13.3617 20.0965,12.7147 20.1865,11.9337 C21.5295,11.4267 22.5165,10.4177 23.4735,9.4357 C24.2185,8.6717 24.9355,7.9607 25.7715,7.5087 C25.9675,7.6907 26.1975,7.8347 26.4525,7.9307 L26.4525,8.5027 C26.4525,8.9037 26.7765,9.2277 27.1765,9.2277 C27.5775,9.2277 27.9015,8.9037 27.9015,8.5027 L27.9015,7.9307 C28.4605,7.7197 28.9015,7.2767 29.1105,6.7167 C30.9195,6.6667 32.5905,6.9577 34.1785,7.5937 C34.1595,7.7077 34.1435,7.8227 34.1435,7.9417 C34.1435,8.8267 34.7055,9.5787 35.4885,9.8737 L35.4885,10.4467 C35.4885,10.8467 35.8125,11.1707 36.2135,11.1707 C36.6135,11.1707 36.9375,10.8467 36.9375,10.4467 L36.9375,9.8737 C37.7205,9.5787 38.2825,8.8267 38.2825,7.9417 C38.2825,6.8007 37.3545,5.8727 36.2135,5.8727" id="Fill-15" fill="#BE913A"></path>
                    <g id="Group-19" fill="#060707">
                        <path d="M39.8787,0 L39.8757,0 L4.0687,0 C1.8257,0 -0.0003,1.825 -0.0003,4.069 L-0.0003,27.059 L-0.0003,31.869 C-0.0003,34.113 1.8257,35.938 4.0687,35.938 L21.2477,35.938 L21.2477,38.622 L12.2657,38.622 C9.8487,38.622 7.8827,40.588 7.8827,43.006 L7.8827,43.227 C7.8827,43.627 8.2067,43.951 8.6067,43.951 L26.4827,43.951 C26.8827,43.951 27.2077,43.627 27.2077,43.227 C27.2077,42.826 26.8827,42.502 26.4827,42.502 L9.3737,42.502 C9.6147,41.123 10.8197,40.071 12.2657,40.071 L26.4827,40.071 C26.8827,40.071 27.2077,39.747 27.2077,39.347 C27.2077,38.946 26.8827,38.622 26.4827,38.622 L22.6967,38.622 L22.6967,35.938 L26.4827,35.938 C26.8827,35.938 27.2077,35.614 27.2077,35.214 C27.2077,34.813 26.8827,34.489 26.4827,34.489 L4.0687,34.489 C2.6247,34.489 1.4487,33.314 1.4487,31.869 L1.4487,30.146 C2.1587,30.75 3.0667,31.128 4.0687,31.128 L25.7987,31.128 C26.1987,31.128 26.5227,30.804 26.5227,30.404 C26.5227,30.003 26.1987,29.679 25.7987,29.679 L4.0687,29.679 C2.6247,29.679 1.4487,28.504 1.4487,27.059 L1.4487,4.069 C1.4487,2.625 2.6247,1.449 4.0687,1.449 L39.8757,1.449 C41.3207,1.449 42.4957,2.625 42.4957,4.069 L42.4957,22.997 C42.4957,23.397 42.8207,23.721 43.2207,23.721 C43.2207,23.721 43.2217,23.721 43.2217,23.721 C43.2227,23.721 43.2227,23.721 43.2237,23.721 C43.6237,23.721 43.9487,23.397 43.9487,22.997 L43.9487,4.069 C43.9487,1.825 42.1227,0 39.8787,0" id="Fill-17"></path>
                    </g>
                    <path d="M35.4214,41.7985 C36.0634,42.2025 36.8014,42.4155 37.5554,42.4155 C38.3094,42.4155 39.0474,42.2025 39.6894,41.7985 C40.0284,41.5855 40.1304,41.1385 39.9174,40.7995 C39.7044,40.4605 39.2574,40.3585 38.9184,40.5715 C38.0954,41.0885 37.0154,41.0885 36.1924,40.5715 C35.8534,40.3585 35.4064,40.4605 35.1934,40.7995 C34.9804,41.1385 35.0824,41.5855 35.4214,41.7985" id="Fill-20" fill="#BE913A"></path>
                    <path d="M34.2616,38.4924 C34.6616,38.4924 34.9866,38.1684 34.9866,37.7684 L34.9866,36.6384 C34.9866,36.2384 34.6616,35.9134 34.2616,35.9134 C33.8616,35.9134 33.5376,36.2384 33.5376,36.6384 L33.5376,37.7684 C33.5376,38.1684 33.8616,38.4924 34.2616,38.4924" id="Fill-22" fill="#BE913A"></path>
                    <path d="M40.85,38.4924 C41.25,38.4924 41.574,38.1684 41.574,37.7684 L41.574,36.6384 C41.574,36.2384 41.25,35.9134 40.85,35.9134 C40.45,35.9134 40.125,36.2384 40.125,36.6384 L40.125,37.7684 C40.125,38.1684 40.45,38.4924 40.85,38.4924" id="Fill-24" fill="#BE913A"></path>
                    <g id="Group-28" transform="translate(21.000000, 22.000000)" fill="#BE913A">
                        <path d="M27.551,23.5665 C27.551,24.3465 27.244,25.0505 26.753,25.5825 C26.195,24.6685 25.316,23.9805 24.263,23.6765 L20.488,22.5865 L20.36,21.8625 C22.172,20.7035 23.391,18.7045 23.465,16.4155 C24.542,14.6495 25.515,12.6845 25.515,10.2965 C25.515,5.5905 21.913,2.4285 16.552,2.4285 C11.302,2.4285 7.774,5.5905 7.774,10.2965 C7.774,12.2385 8.356,14.1295 9.646,16.4015 C9.717,18.7595 11.006,20.8125 12.906,21.9565 L12.799,22.5855 L9.023,23.6765 C8.094,23.9455 7.305,24.5105 6.747,25.2695 C6.409,24.7855 6.207,24.2005 6.207,23.5665 L6.207,9.7295 C6.207,9.6135 6.18,9.4995 6.127,9.3965 L2.163,1.7215 L24.566,1.7215 C26.212,1.7215 27.551,3.0595 27.551,4.7055 L27.551,23.5665 Z M16.36,22.9215 L16.752,22.9215 C17.543,22.9215 18.3,22.7775 19.006,22.5245 L19.068,22.8745 C17.644,23.9685 15.64,23.9655 14.22,22.8725 L14.269,22.5845 C14.928,22.8005 15.629,22.9215 16.36,22.9215 L16.36,22.9215 Z M11.084,12.5365 C11.084,11.8475 11.22,11.1685 11.481,10.5355 C13.387,11.6715 15.265,12.1315 17.345,11.9845 C17.587,11.9665 17.804,11.8295 17.924,11.6185 C18.043,11.4085 18.049,11.1515 17.94,10.9345 L17.551,10.1645 C18.883,10.5905 20.3,10.8025 21.554,10.3595 C21.865,11.0405 22.027,11.7825 22.027,12.5365 L22.027,16.1965 C22.027,19.1055 19.661,21.4725 16.752,21.4725 L16.36,21.4725 C13.451,21.4725 11.084,19.1055 11.084,16.1965 L11.084,12.5365 Z M11.036,8.7865 C10.84,8.8295 10.672,8.9525 10.57,9.1245 C9.958,10.1575 9.635,11.3365 9.635,12.5365 L9.635,12.8945 C9.354,12.0035 9.223,11.1605 9.223,10.2965 C9.223,6.3975 12.1,3.8775 16.552,3.8775 C20.293,3.8775 24.066,5.8625 24.066,10.2965 C24.066,11.3395 23.848,12.2925 23.476,13.2365 L23.476,12.5365 C23.476,11.3005 23.135,10.0905 22.488,9.0365 C22.281,8.6975 21.84,8.5885 21.5,8.7925 C20.414,9.4395 18.824,9.2405 16.346,8.1435 C16.067,8.0195 15.739,8.0835 15.528,8.3065 C15.317,8.5285 15.269,8.8585 15.406,9.1325 L16.123,10.5505 C14.563,10.4635 13.131,9.9335 11.6,8.8935 C11.435,8.7815 11.231,8.7425 11.036,8.7865 L11.036,8.7865 Z M9.192,26.5515 C8.706,26.5515 8.254,26.4235 7.848,26.2165 C8.222,25.6665 8.771,25.2575 9.425,25.0695 L13.29,23.9525 C14.271,24.7305 15.452,25.1415 16.645,25.1415 C17.837,25.1415 19.018,24.7305 20,23.9535 L23.861,25.0695 C24.575,25.2755 25.166,25.7495 25.535,26.3755 C25.23,26.4815 24.907,26.5515 24.566,26.5515 L9.192,26.5515 Z M24.566,0.2725 L0.974,0.2725 C0.721,0.2725 0.487,0.4045 0.356,0.6195 C0.224,0.8365 0.215,1.1045 0.331,1.3295 L4.758,9.9055 L4.758,23.5665 C4.758,24.9245 5.385,26.1265 6.35,26.9405 C6.388,26.9835 6.434,27.0165 6.483,27.0505 C7.235,27.6365 8.167,28.0005 9.192,28.0005 L24.566,28.0005 C25.348,28.0005 26.073,27.7795 26.712,27.4225 C26.713,27.4215 26.714,27.4215 26.715,27.4215 C26.747,27.4115 26.77,27.3885 26.799,27.3745 C28.109,26.6035 29,25.1935 29,23.5665 L29,4.7055 C29,2.2615 27.011,0.2725 24.566,0.2725 L24.566,0.2725 Z" id="Fill-26"></path>
                    </g>
                </g>
            </g>
        </g>
    </g>
</svg>