<?xml version="1.0" encoding="UTF-8"?>
<svg width="30px" height="34px" viewBox="0 0 30 34" version="1.1" xmlns="http://www.w3.org/2000/svg" xmlns:xlink="http://www.w3.org/1999/xlink">
    <!-- Generator: sketchtool 46.2 (44496) - http://www.bohemiancoding.com/sketch -->
    <title>C720B853-7913-449F-AEDF-C322C0ED5E35</title>
    <desc>Created with sketchtool.</desc>
    <defs></defs>
    <g id="Style-Guide" stroke="none" stroke-width="1" fill="none" fill-rule="evenodd">
        <g transform="translate(-466.000000, -4915.000000)" id="bus">
            <g transform="translate(466.000000, 4915.000000)">
                <g id="Page-1">
                    <path d="M23.75,24.4396 L23.75,25.6816 C23.75,25.9386 23.731,26.0616 23.296,26.0616 L20.392,26.0616 C19.991,26.0616 19.79,25.9356 19.767,25.8946 C19.752,25.2086 19.986,24.8216 20.525,24.6416 L23.505,23.6496 C23.589,23.6166 23.646,23.6026 23.683,23.5966 C23.755,23.7796 23.75,24.2516 23.75,24.4396 M23.078,22.4756 L20.131,23.4556 C19.063,23.8116 18.49,24.6876 18.517,25.9226 C18.535,26.7406 19.306,27.3116 20.392,27.3116 L23.296,27.3116 C24.347,27.3116 25,26.6876 25,25.6816 L25,24.4486 C25,23.8966 25.01,23.1386 24.552,22.6776 C24.194,22.3166 23.618,22.2586 23.078,22.4756" id="Fill-1" fill="#BE913A"></path>
                    <path d="M9.3756,26.0619 L6.4716,26.0619 C6.3746,26.0619 6.3176,26.0529 6.2946,26.0529 C6.2906,26.0529 6.2876,26.0529 6.2856,26.0539 C6.2736,26.0179 6.2496,25.9189 6.2496,25.6819 L6.2496,24.5789 C6.2496,24.4889 6.2466,24.3899 6.2436,24.2859 C6.2376,24.1129 6.2276,23.7879 6.2596,23.6099 C6.2956,23.6199 6.3426,23.6349 6.4046,23.6589 L9.2426,24.6419 C9.6056,24.7629 10.0206,25.0149 10.0026,25.8919 C9.9776,25.9359 9.7766,26.0619 9.3756,26.0619 M9.6446,23.4589 L6.8396,22.4879 C6.2196,22.2429 5.7136,22.3149 5.3736,22.6669 C4.9546,23.0999 4.9766,23.7799 4.9946,24.3259 C4.9966,24.4159 4.9996,24.5019 4.9996,24.5789 L4.9996,25.6819 C4.9996,26.0849 4.9996,27.3119 6.4716,27.3119 L9.3756,27.3119 C10.4616,27.3119 11.2326,26.7409 11.2506,25.9229 C11.2776,24.6879 10.7056,23.8119 9.6446,23.4589" id="Fill-3" fill="#BE913A"></path>
                    <path d="M28.75,14.8119 C28.75,15.1569 28.47,15.4369 28.125,15.4369 L27.5,15.4369 L27.5,12.3119 L27.5,11.0619 C27.5,10.7169 27.22,10.4369 26.875,10.4369 C26.53,10.4369 26.25,10.7169 26.25,11.0619 L26.25,12.3119 L26.25,16.0249 C26.25,16.9929 25.247,18.1779 23.758,18.3999 C17.82,19.2489 12.047,19.2489 6.114,18.4009 C4.634,18.1799 3.75,17.0199 3.75,16.0249 L3.75,11.6869 L3.75,11.0619 C3.75,10.7169 3.47,10.4369 3.125,10.4369 C2.78,10.4369 2.5,10.7169 2.5,11.0619 L2.5,11.6869 L2.5,15.4369 L1.875,15.4369 C1.53,15.4369 1.25,15.1569 1.25,14.8119 L1.25,9.1869 C1.25,8.8419 1.53,8.5619 1.875,8.5619 L3.125,8.5619 C3.47,8.5619 3.75,8.2819 3.75,7.9369 L3.75,7.8389 C3.75,6.8599 4.675,5.6659 6.163,5.4429 C7.165,5.3039 8.239,5.1849 9.44,5.0809 C9.533,5.1559 9.616,5.2439 9.708,5.3419 C9.994,5.6459 10.386,6.0619 11.181,6.0619 L18.663,6.0619 C19.532,6.0619 19.989,5.5699 20.322,5.2099 C20.366,5.1629 20.409,5.1159 20.454,5.0699 C21.68,5.1739 22.794,5.2959 23.846,5.4419 C25.331,5.6639 26.25,6.8589 26.25,7.8389 L26.25,7.9369 C26.25,8.2819 26.53,8.5619 26.875,8.5619 L28.125,8.5619 C28.47,8.5619 28.75,8.8419 28.75,9.1869 L28.75,14.8119 Z M24.863,29.7579 C24.578,29.8219 24.375,30.0749 24.375,30.3679 L24.375,31.6869 C24.375,32.0319 24.095,32.3119 23.75,32.3119 L21.875,32.3119 C21.53,32.3119 21.25,32.0319 21.25,31.6869 L21.25,30.4369 C21.25,30.0919 20.97,29.8119 20.625,29.8119 L9.375,29.8119 C9.03,29.8119 8.75,30.0919 8.75,30.4369 L8.75,31.6869 C8.75,32.0319 8.47,32.3119 8.125,32.3119 L6.25,32.3119 C5.905,32.3119 5.625,32.0319 5.625,31.6869 L5.625,30.3939 C5.625,30.0909 5.408,29.8319 5.11,29.7779 C4.284,29.6299 3.75,28.9459 3.75,28.0349 L3.75,18.6229 C4.336,19.1379 5.084,19.5109 5.933,19.6369 C8.961,20.0699 11.946,20.2869 14.933,20.2869 C17.92,20.2869 20.908,20.0699 23.939,19.6369 C24.829,19.5039 25.632,19.1139 26.25,18.5709 L26.25,28.0349 C26.25,28.8789 25.692,29.5709 24.863,29.7579 L24.863,29.7579 Z M5.657,2.7129 C12.2,0.7669 17.783,0.7679 24.322,2.7129 C25.286,3.0039 26.129,4.1429 26.23,5.2249 C25.634,4.7029 24.87,4.3309 24.025,4.2049 C22.865,4.0439 21.642,3.9119 20.284,3.8009 C20.121,3.7849 19.967,3.8369 19.842,3.9369 C19.672,4.0739 19.531,4.2259 19.406,4.3599 C19.115,4.6729 18.973,4.8119 18.663,4.8119 L11.181,4.8119 C10.936,4.8119 10.862,4.7439 10.618,4.4849 C10.449,4.3059 10.239,4.0829 9.923,3.8989 C9.812,3.8339 9.684,3.8049 9.556,3.8159 C8.243,3.9269 7.077,4.0539 5.984,4.2059 C5.136,4.3329 4.367,4.7059 3.769,5.2309 C3.863,4.1289 4.685,3.0069 5.657,2.7129 L5.657,2.7129 Z M28.125,7.3119 L27.5,7.3119 L27.5,5.4369 C27.5,3.7439 26.236,1.9849 24.681,1.5149 C17.889,-0.5051 12.093,-0.5051 5.298,1.5159 C3.729,1.9899 2.5,3.7119 2.5,5.4369 L2.5,7.3119 L1.875,7.3119 C0.841,7.3119 0,8.1529 0,9.1869 L0,14.8119 C0,15.8459 0.841,16.6869 1.875,16.6869 L2.5,16.6869 L2.5,28.0349 C2.5,29.3669 3.235,30.4479 4.375,30.8689 L4.375,31.6869 C4.375,32.7209 5.216,33.5619 6.25,33.5619 L8.125,33.5619 C9.159,33.5619 10,32.7209 10,31.6869 L10,31.0619 L20,31.0619 L20,31.6869 C20,32.7209 20.841,33.5619 21.875,33.5619 L23.75,33.5619 C24.784,33.5619 25.625,32.7209 25.625,31.6869 L25.625,30.8249 C26.75,30.3669 27.5,29.2819 27.5,28.0349 L27.5,16.6869 L28.125,16.6869 C29.159,16.6869 30,15.8459 30,14.8119 L30,9.1869 C30,8.1529 29.159,7.3119 28.125,7.3119 L28.125,7.3119 Z" id="Fill-5" fill="#060707"></path>
                </g>
            </g>
        </g>
    </g>
</svg>