<?xml version="1.0" encoding="UTF-8"?>
<svg width="59px" height="44px" viewBox="0 0 59 44" version="1.1" xmlns="http://www.w3.org/2000/svg" xmlns:xlink="http://www.w3.org/1999/xlink">
    <!-- Generator: sketchtool 46.2 (44496) - http://www.bohemiancoding.com/sketch -->
    <title>BB1C2CD9-2380-4DB8-B33B-70065E2475CC</title>
    <desc>Created with sketchtool.</desc>
    <defs>
        <polygon id="path-1" points="58.7113636 44.6466529 58.7113636 1.02918235 0.00034182441 1.02918235 0.00034182441 44.6466529"></polygon>
    </defs>
    <g id="Style-Guide" stroke="none" stroke-width="1" fill="none" fill-rule="evenodd">
        <g transform="translate(-692.000000, -4828.000000)" id="parking">
            <g transform="translate(692.000000, 4827.000000)">
                <g id="Page-1">
                    <path d="M12.5237727,24.1930235 L3.34104545,24.1930235 C2.87059091,24.1930235 2.48877273,24.5718471 2.48877273,25.0386118 C2.48877273,25.5053765 2.87059091,25.8842 3.34104545,25.8842 L12.5237727,25.8842 C14.0074091,25.8842 15.2155909,27.0815529 15.2155909,28.5549059 C15.2155909,28.8755529 14.9510455,29.1366706 14.6278636,29.1366706 L3.01922727,29.1366706 C2.54877273,29.1366706 2.16695455,29.5154941 2.16695455,29.9822588 C2.16695455,30.4490235 2.54877273,30.8278471 3.01922727,30.8278471 L14.6278636,30.8278471 C15.8919545,30.8278471 16.9201364,29.8077294 16.9201364,28.5549059 C16.9201364,26.1493765 14.9469545,24.1930235 12.5237727,24.1930235" id="Fill-1" fill="#BE913A"></path>
                    <path d="M55.6881818,29.1370765 L44.0795455,29.1370765 C43.7563636,29.1370765 43.4918182,28.8759588 43.4918182,28.5539588 C43.4918182,27.0819588 44.6986364,25.8846059 46.1836364,25.8846059 L55.3677273,25.8846059 C55.8381818,25.8846059 56.22,25.5057824 56.22,25.0390176 C56.22,24.5722529 55.8381818,24.1934294 55.3677273,24.1934294 L46.1836364,24.1934294 C43.7590909,24.1934294 41.7872727,26.1497824 41.7872727,28.5539588 C41.7872727,29.8081353 42.8154545,30.8282529 44.0795455,30.8282529 L55.6881818,30.8282529 C56.1586364,30.8282529 56.5404545,30.4494294 56.5404545,29.9826647 C56.5404545,29.5159 56.1586364,29.1370765 55.6881818,29.1370765" id="Fill-3" fill="#BE913A"></path>
                    <path d="M35.8420909,34.3996118 L22.8643636,34.3996118 C22.3939091,34.3996118 22.0120909,34.7784353 22.0120909,35.2452 C22.0120909,35.7119647 22.3939091,36.0907882 22.8643636,36.0907882 L35.8420909,36.0907882 C36.3125455,36.0907882 36.6943636,35.7119647 36.6943636,35.2452 C36.6943636,34.7784353 36.3125455,34.3996118 35.8420909,34.3996118" id="Fill-5" fill="#BE913A"></path>
                    <path d="M22.0239545,27.5107059 C22.0239545,27.0439412 21.6421364,26.6651176 21.1716818,26.6651176 C20.7012273,26.6651176 20.3194091,27.0439412 20.3194091,27.5107059 L20.3194091,31.2664706 C20.3194091,31.7332353 20.7012273,32.1120588 21.1716818,32.1120588 C21.6421364,32.1120588 22.0239545,31.7332353 22.0239545,31.2664706 L22.0239545,27.5107059 Z" id="Fill-7" fill="#BE913A"></path>
                    <path d="M25.2625909,32.1117882 C25.7330455,32.1117882 26.1148636,31.7329647 26.1148636,31.2662 L26.1148636,27.5104353 C26.1148636,27.0436706 25.7330455,26.6648471 25.2625909,26.6648471 C24.7921364,26.6648471 24.4103182,27.0436706 24.4103182,27.5104353 L24.4103182,31.2662 C24.4103182,31.7329647 24.7921364,32.1117882 25.2625909,32.1117882" id="Fill-9" fill="#BE913A"></path>
                    <path d="M29.3535,32.1117882 C29.8239545,32.1117882 30.2057727,31.7329647 30.2057727,31.2662 L30.2057727,27.5104353 C30.2057727,27.0436706 29.8239545,26.6648471 29.3535,26.6648471 C28.8830455,26.6648471 28.5012273,27.0436706 28.5012273,27.5104353 L28.5012273,31.2662 C28.5012273,31.7329647 28.8830455,32.1117882 29.3535,32.1117882" id="Fill-11" fill="#BE913A"></path>
                    <path d="M33.4444091,32.1117882 C33.9148636,32.1117882 34.2966818,31.7329647 34.2966818,31.2662 L34.2966818,27.5104353 C34.2966818,27.0436706 33.9148636,26.6648471 33.4444091,26.6648471 C32.9739545,26.6648471 32.5921364,27.0436706 32.5921364,27.5104353 L32.5921364,31.2662 C32.5921364,31.7329647 32.9739545,32.1117882 33.4444091,32.1117882" id="Fill-13" fill="#BE913A"></path>
                    <path d="M37.5353182,26.6651176 C37.0648636,26.6651176 36.6830455,27.0439412 36.6830455,27.5107059 L36.6830455,31.2664706 C36.6830455,31.7332353 37.0648636,32.1120588 37.5353182,32.1120588 C38.0057727,32.1120588 38.3875909,31.7332353 38.3875909,31.2664706 L38.3875909,27.5107059 C38.3875909,27.0439412 38.0057727,26.6651176 37.5353182,26.6651176" id="Fill-15" fill="#BE913A"></path>
                    <g id="Group-19" transform="translate(0.000000, 0.324300)">
                        <mask id="mask-2" fill="white">
                            <use xlink:href="#path-1"></use>
                        </mask>
                        <g id="Clip-18"></g>
                        <path d="M56.565,15.9440059 C56.5227273,16.0982412 56.3809091,16.2051235 56.22,16.2051235 L53.5090909,16.2051235 L52.6322727,13.9457118 L56.6468182,13.9457118 C56.8022727,13.9457118 56.8922727,14.0323 56.9331818,14.0850647 C56.9727273,14.1378294 57.0340909,14.2474176 56.9931818,14.3948882 L56.565,15.9440059 Z M54.1186364,41.6160647 C54.1186364,42.3547706 53.5118182,42.9554765 52.7672727,42.9554765 L47.8309091,42.9554765 C47.0863636,42.9554765 46.4795455,42.3547706 46.4795455,41.6160647 L46.4795455,39.7395353 L52.4236364,39.7395353 C52.7181818,39.7395353 53.0031818,39.7070647 53.28,39.6475353 C53.3318182,39.6367118 53.3795455,39.6150647 53.43,39.6015353 C53.6577273,39.5447118 53.8813636,39.4757118 54.0913636,39.3823588 C54.1009091,39.3783 54.1090909,39.3769471 54.1186364,39.3728882 L54.1186364,41.6160647 Z M12.2277273,41.6160647 C12.2277273,42.3547706 11.6222727,42.9554765 10.8763636,42.9554765 L5.94,42.9554765 C5.19545455,42.9554765 4.59,42.3547706 4.59,41.6160647 L4.59,39.3728882 C4.59818182,39.3769471 4.60636364,39.3783 4.61454545,39.3810059 C4.82727273,39.4757118 5.05227273,39.5460647 5.28272727,39.6028882 C5.33045455,39.6164176 5.37681818,39.6380647 5.42590909,39.6475353 C5.70272727,39.7070647 5.98909091,39.7395353 6.28363636,39.7395353 L12.2277273,39.7395353 L12.2277273,41.6160647 Z M2.49272727,16.2051235 C2.33181818,16.2051235 2.18863636,16.0968882 2.14636364,15.9426529 L1.71818182,14.3948882 C1.67727273,14.2474176 1.73863636,14.1378294 1.77954545,14.0850647 C1.81909091,14.0323 1.90909091,13.9457118 2.06454545,13.9457118 L6.07909091,13.9457118 L5.20227273,16.2051235 L2.49272727,16.2051235 Z M54.8359091,35.6550059 C54.8359091,36.2110647 54.6368182,36.7170647 54.315,37.1229471 C54.3109091,37.1270059 54.3068182,37.1297118 54.3027273,37.1337706 C54.1868182,37.2785353 54.0572727,37.4070647 53.9168182,37.5207118 C53.9154545,37.5207118 53.9154545,37.5220647 53.9140909,37.5234176 C53.7818182,37.6275941 53.64,37.7155353 53.4913636,37.7899471 C53.4763636,37.7980647 53.4613636,37.8075353 53.4463636,37.8143 C53.31,37.8792412 53.1681818,37.9265941 53.0222727,37.9658294 C52.995,37.9725941 52.9718182,37.9834176 52.9445455,37.9888294 C52.7740909,38.0280647 52.6009091,38.0483588 52.4236364,38.0483588 L45.6272727,38.0483588 L13.08,38.0483588 L6.28363636,38.0483588 C6.10636364,38.0483588 5.93181818,38.0280647 5.76272727,37.9888294 C5.73681818,37.9834176 5.71227273,37.9725941 5.68636364,37.9658294 C5.54045455,37.9279471 5.39590909,37.8792412 5.25954545,37.8143 C5.24590909,37.8075353 5.23227273,37.7994176 5.21863636,37.7926529 C4.90909091,37.6370647 4.63090909,37.4151824 4.40454545,37.1337706 C4.39909091,37.1270059 4.39227273,37.1243 4.38818182,37.1175353 C4.06909091,36.7116529 3.87136364,36.2083588 3.87136364,35.6550059 L3.87136364,28.5818294 C3.87136364,25.9868882 4.33090909,23.4433588 5.19954545,21.0026529 C13.2163636,21.9443 21.285,22.4245941 29.3536364,22.4245941 C37.4222727,22.4245941 45.4909091,21.9443 53.5063636,21.0026529 C54.3763636,23.4420059 54.8359091,25.9855353 54.8359091,28.5818294 L54.8359091,35.6550059 Z M10.4727273,7.32441765 C11.5404545,4.56982941 14.2568182,2.72035882 17.2309091,2.72035882 L41.4763636,2.72035882 C44.4504545,2.72035882 47.1668182,4.56982941 48.2345455,7.32441765 L52.9036364,19.3655941 C37.2695455,21.1704176 21.4377273,21.1704176 5.80363636,19.3655941 L6.58227273,17.3564765 C6.58227273,17.3564765 6.58363636,17.3551235 6.58363636,17.3551235 L8.11636364,13.4031824 C8.11636364,13.4031824 8.11636364,13.4031824 8.11636364,13.4018294 L10.4727273,7.32441765 Z M58.2872727,13.0595353 C57.8945455,12.5467706 57.2959091,12.2545353 56.6468182,12.2545353 L51.9736364,12.2545353 L49.8259091,6.71694706 C48.5059091,3.3143 45.15,1.02918235 41.4763636,1.02918235 L17.2309091,1.02918235 C13.5559091,1.02918235 10.2013636,3.3143 8.88136364,6.71694706 L6.735,12.2545353 L2.06454545,12.2545353 C1.41545455,12.2545353 0.818181818,12.5467706 0.424090909,13.0595353 C0.0313636364,13.5709471 -0.0968181818,14.2217118 0.075,14.8427118 L0.501818182,16.3904765 C0.747272727,17.2766529 1.56545455,17.8963 2.49272727,17.8963 L4.54636364,17.8963 L3.81272727,19.7850059 C2.72045455,22.6045353 2.16681818,25.5634176 2.16681818,28.5818294 L2.16681818,35.6550059 C2.16681818,36.5087118 2.43272727,37.2988294 2.88545455,37.9550059 L2.88545455,41.6160647 C2.88545455,43.2869471 4.25590909,44.6466529 5.94,44.6466529 L10.8763636,44.6466529 C12.5604545,44.6466529 13.9322727,43.2869471 13.9322727,41.6160647 L13.9322727,39.7395353 L44.775,39.7395353 L44.775,41.6160647 C44.775,43.2869471 46.1454545,44.6466529 47.8309091,44.6466529 L52.7672727,44.6466529 C54.4513636,44.6466529 55.8231818,43.2869471 55.8231818,41.6160647 L55.8231818,37.9536529 C56.2745455,37.2988294 56.5404545,36.5073588 56.5404545,35.6550059 L56.5404545,28.5818294 C56.5404545,25.5620647 55.9868182,22.6018294 54.8931818,19.7850059 L54.1609091,17.8963 L56.22,17.8963 C57.1472727,17.8963 57.9654545,17.2766529 58.2095455,16.3904765 L58.6377273,14.8427118 C58.8081818,14.2217118 58.6813636,13.5709471 58.2872727,13.0595353 L58.2872727,13.0595353 Z" id="Fill-17" fill="#060707" mask="url(#mask-2)"></path>
                    </g>
                </g>
            </g>
        </g>
    </g>
</svg>