<?xml version="1.0" encoding="UTF-8"?>
<svg width="24px" height="24px" viewBox="0 0 24 24" version="1.1" xmlns="http://www.w3.org/2000/svg" xmlns:xlink="http://www.w3.org/1999/xlink">
    <!-- Generator: sketchtool 46.2 (44496) - http://www.bohemiancoding.com/sketch -->
    <title>CB5BBFB6-8034-49F3-8C42-327A1AA145E0</title>
    <desc>Created with sketchtool.</desc>
    <defs></defs>
    <g id="Style-Guide" stroke="none" stroke-width="1" fill="none" fill-rule="evenodd">
        <g transform="translate(-709.000000, -5075.000000)" id="search_hover" fill="#060707">
            <g transform="translate(709.000000, 5075.000000)">
                <path d="M10.0981557,18.3432323 C5.37918099,18.3432323 1.55373554,14.5845577 1.55373554,9.94060644 C1.55373554,5.2966552 5.37918099,1.53047827 10.0981557,1.53047827 C14.8171304,1.53047827 18.643326,5.2966552 18.643326,9.94060644 C18.643326,14.5845577 14.8171304,18.3432323 10.0981557,18.3432323 L10.0981557,18.3432323 Z M23.7734292,22.6945921 L17.5772429,16.595186 C19.1992498,14.832135 20.1963113,12.5064083 20.1963113,9.94060644 C20.1963113,4.44889028 15.6753986,0 10.0981557,0 C4.52091279,0 0,4.44889028 0,9.94060644 C0,15.4248203 4.52091279,19.8737105 10.0981557,19.8737105 C12.5079087,19.8737105 14.7180994,19.0409503 16.4541419,17.6530166 L22.675086,23.7749297 C22.9789309,24.0750234 23.4703345,24.0750234 23.7734292,23.7749297 C24.0772741,23.4823382 24.0772741,22.9946858 23.7734292,22.6945921 L23.7734292,22.6945921 Z" id="search"></path>
            </g>
        </g>
    </g>
</svg>