<?xml version="1.0" encoding="UTF-8"?>
<svg width="56px" height="50px" viewBox="0 0 56 50" version="1.1" xmlns="http://www.w3.org/2000/svg" xmlns:xlink="http://www.w3.org/1999/xlink">
    <!-- Generator: sketchtool 46.2 (44496) - http://www.bohemiancoding.com/sketch -->
    <title>9B768438-6976-4291-BAE1-D01237817B36</title>
    <desc>Created with sketchtool.</desc>
    <defs>
        <polygon id="path-1" points="22.6669332 0 0.4541 0 0.4541 25.8118 22.6669332 25.8118 22.6669332 0"></polygon>
        <polygon id="path-3" points="18.9987 42 0 42 0 0.1061 18.9987 0.1061"></polygon>
    </defs>
    <g id="Style-Guide" stroke="none" stroke-width="1" fill="none" fill-rule="evenodd">
        <g transform="translate(-55.000000, -4907.000000)" id="Teamwork">
            <g transform="translate(55.000000, 4907.000000)">
                <g>
                    <path d="M45.4191,31.3565 L32.8421,26.1945 L32.8421,32.4105 L27.7571,29.7965 L22.5491,32.4235 L22.5491,26.0915 L10.0301,31.3305 C8.1101,32.0625 6.8691,33.8445 6.8691,35.8695 L6.8691,49.6685 L8.6031,49.6685 L8.6031,35.8695 C8.6031,34.5695 9.4061,33.4235 10.6731,32.9405 L20.8161,28.6965 L20.8161,35.2395 L24.3191,33.4725 L24.8881,35.8905 L23.8241,49.6005 L25.5531,49.7345 L26.6371,35.7555 L25.9111,32.6695 L27.7501,31.7425 L29.6451,32.7165 L28.8701,35.8725 L29.8131,49.7265 L31.5431,49.6095 L30.6191,36.0235 L31.2311,33.5315 L34.5751,35.2525 L34.5751,28.7805 L44.7911,32.9725 C46.0351,33.4305 46.8721,34.6085 46.8721,35.9065 L46.8721,49.6685 L48.6061,49.6685 L48.6061,35.9065 C48.6061,33.8865 47.3131,32.0525 45.4191,31.3565" id="Fill-1" fill="#BD9042"></path>
                    <g id="Group-5" transform="translate(16.000000, 0.000000)">
                        <mask id="mask-2" fill="white">
                            <use xlink:href="#path-1"></use>
                        </mask>
                        <g id="Clip-4"></g>
                        <path d="M2.3571,13.7728 L3.7381,13.7728 L3.5881,12.7768 C3.4481,11.8478 3.3761,11.0048 3.3761,10.2728 L3.3761,9.9278 C3.3761,5.4088 7.0521,1.7338 11.5701,1.7338 C16.0881,1.7338 19.7641,5.4088 19.7641,9.9278 L19.7641,10.2728 C19.7641,10.9878 19.6811,11.8228 19.5181,12.7568 L19.3421,13.7728 L20.7991,13.7728 C20.8461,13.7728 20.8771,13.7958 20.8951,13.8138 C20.9071,13.8268 20.9211,13.8448 20.9291,13.8708 L20.5141,15.9288 L18.4661,16.9538 L16.4571,21.0588 C16.2391,21.6378 15.0011,22.6698 14.2611,23.2858 L13.8721,23.6108 C13.5041,23.9218 13.0281,24.0808 12.4951,24.0768 L10.5031,24.0778 C10.0151,24.0718 9.5431,23.8948 9.1751,23.5808 C8.9801,23.4138 8.7591,23.2338 8.5261,23.0458 C7.8061,22.4598 6.7171,21.5748 6.5021,21.0048 L4.6001,16.9818 L2.7941,15.9398 L2.2031,13.8728 C2.2301,13.8138 2.2891,13.7728 2.3571,13.7728 L2.3571,13.7728 Z M3.2641,18.2128 L4.9061,21.6788 C5.2581,22.6218 6.4131,23.5618 7.4331,24.3898 C7.6541,24.5698 7.8631,24.7408 8.0491,24.8988 C8.7261,25.4768 9.5901,25.8018 10.4931,25.8108 L12.4851,25.8108 C12.5011,25.8118 12.5171,25.8118 12.5321,25.8118 C13.4501,25.8118 14.3221,25.5018 14.9921,24.9348 L15.3701,24.6178 C16.6911,23.5178 17.7281,22.6028 18.0471,21.7458 L19.7651,18.2418 L22.0461,17.1008 L22.6501,14.1068 L22.6661,13.9598 C22.6811,13.4508 22.4931,12.9698 22.1391,12.6048 C21.9201,12.3808 21.6571,12.2188 21.3671,12.1268 C21.4541,11.4568 21.4971,10.8358 21.4971,10.2728 L21.4971,9.9278 C21.4971,4.4538 17.0441,-0.0002 11.5701,-0.0002 C6.0961,-0.0002 1.6431,4.4538 1.6431,9.9278 L1.6431,10.2728 C1.6431,10.8428 1.6801,11.4668 1.7551,12.1368 C1.0001,12.3888 0.4541,13.1028 0.4541,13.9418 L1.3191,17.0908 L3.2641,18.2128 Z" id="Fill-3" fill="#BD9042" mask="url(#mask-2)"></path>
                    </g>
                    <g id="Group-8" transform="translate(0.000000, 8.000000)">
                        <mask id="mask-4" fill="white">
                            <use xlink:href="#path-3"></use>
                        </mask>
                        <g id="Clip-7"></g>
                        <path d="M6.0317,7.5931 L6.0317,4.0951 C6.0317,3.8441 6.1407,3.6051 6.3307,3.4401 L7.9357,2.0511 C8.0927,1.9151 8.2947,1.8401 8.5027,1.8401 L10.5007,1.8401 C10.7077,1.8401 10.9077,1.9131 11.0647,2.0491 L12.6907,3.4421 C12.8837,3.6071 12.9937,3.8471 12.9937,4.1001 L12.9937,7.5961 L11.2597,9.5471 L11.2597,11.6001 L11.2087,13.6571 L9.5007,13.0581 L7.7927,13.6511 L7.7927,12.1881 L7.7927,11.6111 L7.7927,9.5431 L6.0317,7.5931 Z M9.4977,14.8941 L12.8827,16.0821 L12.9587,13.0121 L15.7187,14.4271 L15.8227,14.4721 C16.6047,14.7521 17.1957,15.1761 17.2647,15.2881 L17.2647,18.3041 L18.9987,18.3041 L18.9987,15.2881 C18.9987,13.9161 17.1257,13.1041 16.4617,12.8591 L12.9937,11.0811 L12.9937,10.2071 L14.7277,8.2561 L14.7277,4.1001 C14.7277,3.3401 14.3957,2.6211 13.8197,2.1261 L12.1927,0.7321 C11.7217,0.3291 11.1207,0.1061 10.5007,0.1061 L8.5027,0.1061 C7.8777,0.1061 7.2727,0.3311 6.8007,0.7401 L5.1957,2.1291 C4.6257,2.6231 4.2977,3.3401 4.2977,4.0951 L4.2977,8.2601 L6.0587,10.2101 L6.0587,11.0341 L1.7307,12.8401 C0.6957,13.2081 -0.0003,14.1921 -0.0003,15.2921 L-0.0003,32.8601 L1.6857,34.3051 L1.6857,42.0001 L3.4197,42.0001 L3.4197,33.5071 L1.7337,32.0621 L1.7337,15.2921 C1.7337,14.9251 1.9657,14.5961 2.3547,14.4581 L6.0587,12.9121 L6.0587,16.0881 L9.4977,14.8941 Z" id="Fill-6" fill="#060707" mask="url(#mask-4)"></path>
                    </g>
                    <path d="M47.564,17.5436 L47.564,19.6106 L47.564,20.1886 L47.564,21.6506 L45.855,21.0576 L44.148,21.6566 L44.097,19.5996 L44.097,17.5466 L42.363,15.5966 L42.363,12.1006 C42.363,11.8476 42.473,11.6076 42.665,11.4426 L44.292,10.0486 C44.448,9.9136 44.65,9.8396 44.856,9.8396 L46.854,9.8396 C47.062,9.8396 47.264,9.9156 47.421,10.0516 L49.026,11.4396 C49.215,11.6046 49.325,11.8436 49.325,12.0956 L49.325,15.5936 L47.564,17.5436 Z M53.669,20.8576 L49.298,19.0326 L49.298,18.2106 L51.058,16.2596 L51.058,12.0956 C51.058,11.3406 50.732,10.6236 50.16,10.1296 L48.556,8.7406 C48.083,8.3316 47.479,8.1056 46.854,8.1056 L44.856,8.1056 C44.235,8.1056 43.634,8.3286 43.164,8.7316 L41.538,10.1256 C40.96,10.6206 40.629,11.3406 40.629,12.1006 L40.629,16.2566 L42.363,18.2066 L42.363,19.0816 L38.894,20.8596 C38.23,21.1036 36.358,21.9156 36.358,23.2886 L36.358,26.3046 L38.092,26.3046 L38.08,23.3576 C38.16,23.1766 38.752,22.7516 39.533,22.4716 L42.397,21.0086 L42.474,24.0826 L45.859,22.8936 L49.298,24.0886 L49.298,20.9116 L53.046,22.4746 C53.391,22.5966 53.623,22.9256 53.623,23.2916 L53.623,40.0626 L51.936,41.5076 L51.936,49.9996 L53.67,49.9996 L53.67,42.3046 L55.357,40.8596 L55.357,23.2916 C55.357,22.1926 54.661,21.2076 53.669,20.8576 L53.669,20.8576 Z" id="Fill-9" fill="#060707"></path>
                </g>
            </g>
        </g>
    </g>
</svg>