<?xml version="1.0" encoding="UTF-8"?>
<svg width="44px" height="43px" viewBox="0 0 44 43" version="1.1" xmlns="http://www.w3.org/2000/svg" xmlns:xlink="http://www.w3.org/1999/xlink">
    <!-- Generator: sketchtool 46.2 (44496) - http://www.bohemiancoding.com/sketch -->
    <title>DD1C4FC4-BF86-481B-9481-A25829E11D20</title>
    <desc>Created with sketchtool.</desc>
    <defs></defs>
    <g id="Desktop-design" stroke="none" stroke-width="1" fill="none" fill-rule="evenodd">
        <g id="Parkchester_Apartment-Details" transform="translate(-668.000000, -1302.000000)">
            <g id="Property-Amenities" transform="translate(55.000000, 1123.000000)">
                <g id="icons" transform="translate(600.000000, 178.000000)">
                    <g id="Group-4" transform="translate(0.000000, 1.000000)">
                        <g id="internet" transform="translate(13.000000, 0.000000)">
                            <g id="Page-1">
                                <path d="M1.25,5.4663 L1.25,3.4433 C1.25,2.2343 2.234,1.2503 3.443,1.2503 L39.691,1.2503 C40.9,1.2503 41.884,2.2343 41.884,3.4423 L41.882,5.4663 L1.25,5.4663 Z M43.131,6.0733 L43.134,3.4433 C43.134,1.5453 41.589,0.0003 39.691,0.0003 L3.443,0.0003 C1.545,0.0003 0,1.5453 0,3.4433 L0,30.3193 C0,30.6643 0.28,30.9443 0.625,30.9443 L15.059,30.9443 C15.404,30.9443 15.684,30.6643 15.684,30.3193 C15.684,29.9733 15.404,29.6943 15.059,29.6943 L1.25,29.6943 L1.25,6.7163 L41.88,6.7163 L41.852,26.8793 C41.852,27.2243 42.131,27.5043 42.476,27.5053 L42.477,27.5053 C42.822,27.5053 43.102,27.2253 43.102,26.8813 L43.131,6.1093 C43.131,6.1033 43.134,6.0983 43.134,6.0913 C43.134,6.0853 43.131,6.0793 43.131,6.0733 L43.131,6.0733 Z" id="Fill-1" fill="#060707"></path>
                                <path d="M4.0704,2.2071 C3.7254,2.2071 3.4454,2.4871 3.4454,2.8321 L3.4454,3.8331 C3.4454,4.1781 3.7254,4.4581 4.0704,4.4581 C4.4154,4.4581 4.6954,4.1781 4.6954,3.8331 L4.6954,2.8321 C4.6954,2.4871 4.4154,2.2071 4.0704,2.2071" id="Fill-3" fill="#BE913A"></path>
                                <path d="M7.4434,2.2071 C7.0984,2.2071 6.8184,2.4871 6.8184,2.8321 L6.8184,3.8331 C6.8184,4.1781 7.0984,4.4581 7.4434,4.4581 C7.7884,4.4581 8.0684,4.1781 8.0684,3.8331 L8.0684,2.8321 C8.0684,2.4871 7.7884,2.2071 7.4434,2.2071" id="Fill-5" fill="#BE913A"></path>
                                <path d="M10.8164,2.2071 C10.4714,2.2071 10.1914,2.4871 10.1914,2.8321 L10.1914,3.8331 C10.1914,4.1781 10.4714,4.4581 10.8164,4.4581 C11.1614,4.4581 11.4414,4.1781 11.4414,3.8331 L11.4414,2.8321 C11.4414,2.4871 11.1614,2.2071 10.8164,2.2071" id="Fill-7" fill="#BE913A"></path>
                                <path d="M37.6631,37.4701 L32.5611,35.4751 C33.4291,34.1291 34.2301,32.5991 34.9241,30.9221 L40.7171,33.1871 C39.9861,34.8281 38.9491,36.2751 37.6631,37.4701 L37.6631,37.4701 Z M27.0841,40.9121 C28.6831,40.1271 30.3341,38.6081 31.8381,36.5341 L36.5681,38.3841 C35.7671,38.9791 34.9021,39.4981 33.9661,39.9081 C31.7671,40.8701 29.4051,41.1961 27.0841,40.9121 L27.0841,40.9121 Z M15.6961,30.2211 L20.4111,32.0651 C20.1101,34.6001 20.2891,36.8321 20.9251,38.4921 C18.1561,36.4851 16.3131,33.5011 15.6961,30.2211 L15.6961,30.2211 Z M19.6691,18.1371 L24.7701,20.1321 C23.9031,21.4761 23.1061,23.0121 22.4131,24.6871 L16.6131,22.4191 C17.3551,20.7551 18.4021,19.3121 19.6691,18.1371 L19.6691,18.1371 Z M28.6841,14.5911 C29.2011,14.5911 29.7201,14.6341 30.2401,14.6961 C28.6431,15.4831 26.9941,17.0031 25.4931,19.0731 L20.7701,17.2261 C23.0411,15.5361 25.8191,14.5911 28.6841,14.5911 L28.6841,14.5911 Z M33.4801,15.4991 C34.8001,16.0151 35.6421,17.7881 35.7891,20.3631 C35.8381,21.2131 35.8041,22.1241 35.7081,23.0681 L26.7121,19.5491 C28.6611,16.9471 30.8131,15.3301 32.5591,15.3301 C32.8811,15.3301 33.1901,15.3851 33.4801,15.4991 L33.4801,15.4991 Z M23.5751,25.1411 C24.2701,23.4711 25.0861,21.9341 25.9681,20.6011 L35.5391,24.3431 C35.2791,25.9421 34.8331,27.6191 34.2141,29.3021 L23.5751,25.1411 Z M16.1651,23.5851 L21.9571,25.8511 C21.3311,27.5521 20.8731,29.2211 20.5981,30.7961 L15.5101,28.8061 C15.3761,27.0821 15.5811,25.3131 16.1651,23.5851 L16.1651,23.5851 Z M21.8031,31.2681 C22.0591,29.6881 22.4981,28.0061 23.1211,26.3061 L33.7591,30.4661 C33.0631,32.1391 32.2451,33.6711 31.3621,35.0061 L21.8031,31.2681 Z M23.8551,40.1091 C21.9911,39.3801 21.2371,36.3731 21.6321,32.5431 L30.6221,36.0591 C28.3161,39.1401 25.7231,40.8381 23.8551,40.1091 L23.8551,40.1091 Z M41.1721,32.0231 L35.3791,29.7581 C35.9941,28.0861 36.4501,26.4151 36.7291,24.8091 L41.8341,26.8051 C41.9681,28.5561 41.7481,30.3231 41.1721,32.0231 L41.1721,32.0231 Z M40.7711,22.5061 C41.1811,23.4431 41.4651,24.4111 41.6491,25.3911 L36.9151,23.5391 C37.0491,22.4031 37.0961,21.3091 37.0371,20.2911 C36.9671,19.0651 36.7501,18.0011 36.4091,17.1091 C38.3011,18.4741 39.8111,20.3131 40.7711,22.5061 L40.7711,22.5061 Z M43.0481,26.4111 C43.0521,26.3561 43.0461,26.3031 43.0351,26.2491 C42.4661,21.0681 39.1171,16.3621 33.9361,14.3351 C28.7511,12.3071 23.0971,13.4951 19.1631,16.9191 C19.1211,16.9491 19.0841,16.9821 19.0501,17.0241 C17.4011,18.4901 16.0561,20.3451 15.1991,22.5371 C14.3421,24.7271 14.0721,27.0011 14.2881,29.1961 C14.2841,29.2531 14.2891,29.3061 14.3011,29.3611 C14.8711,34.5421 18.2191,39.2471 23.4001,41.2731 C25.1251,41.9481 26.9021,42.2671 28.6511,42.2671 C32.1431,42.2671 35.5161,40.9861 38.1361,38.7221 C38.1531,38.7111 38.1641,38.6971 38.1801,38.6851 C39.8791,37.2041 41.2611,35.3121 42.1371,33.0721 C42.9941,30.8811 43.2641,28.6061 43.0481,26.4111 L43.0481,26.4111 Z" id="Fill-9" fill="#BE913A"></path>
                            </g>
                        </g>
                    </g>
                </g>
            </g>
        </g>
    </g>
</svg>