<?xml version="1.0" encoding="UTF-8"?>
<svg width="44px" height="43px" viewBox="0 0 44 43" version="1.1" xmlns="http://www.w3.org/2000/svg" xmlns:xlink="http://www.w3.org/1999/xlink">
    <!-- Generator: sketchtool 46.2 (44496) - http://www.bohemiancoding.com/sketch -->
    <title>CB9235E6-58B7-4FC4-9E9F-F92C67FB079A</title>
    <desc>Created with sketchtool.</desc>
    <defs>
        <polygon id="path-1" points="0 42.9698 43.079 42.9698 43.079 -0.0002 0 -0.0002"></polygon>
    </defs>
    <g id="Desktop-design" stroke="none" stroke-width="1" fill="none" fill-rule="evenodd">
        <g id="Parkchester_Apartment-Details" transform="translate(-869.000000, -1302.000000)">
            <g id="Property-Amenities" transform="translate(55.000000, 1123.000000)">
                <g id="icons" transform="translate(600.000000, 178.000000)">
                    <g id="Group-6" transform="translate(201.000000, 1.000000)">
                        <g id="post-office" transform="translate(13.000000, 0.000000)">
                            <g id="Page-1">
                                <path d="M3.4863,14.3028 C3.5493,14.3028 3.6013,14.2508 3.6013,14.1878 L3.6013,13.8118 C3.6013,13.7488 3.5493,13.6978 3.4863,13.6978 L3.3143,13.6978 L3.3143,14.3028 L3.4863,14.3028 Z M3.4863,12.9338 C3.9703,12.9338 4.3653,13.3268 4.3653,13.8118 L4.3653,14.1878 C4.3653,14.6718 3.9703,15.0668 3.4863,15.0668 L3.3143,15.0668 L3.3143,16.3968 C3.3143,16.6078 3.1433,16.7788 2.9323,16.7788 C2.7213,16.7788 2.5503,16.6078 2.5503,16.3968 L2.5503,13.3158 C2.5503,13.1048 2.7213,12.9338 2.9323,12.9338 L3.4863,12.9338 Z" id="Fill-1" fill="#BE913A"></path>
                                <path d="M5.666,13.8379 L5.666,15.8739 C5.666,15.9509 5.602,16.0149 5.518,16.0149 C5.441,16.0149 5.378,15.9509 5.378,15.8739 L5.378,13.8379 C5.378,13.7589 5.442,13.6969 5.524,13.6969 C5.602,13.6969 5.666,13.7609 5.666,13.8379 M5.518,12.9339 C5.02,12.9339 4.614,13.3389 4.614,13.8379 L4.614,15.8739 C4.614,16.3729 5.02,16.7779 5.524,16.7779 C6.023,16.7779 6.429,16.3729 6.429,15.8739 L6.429,13.8379 C6.429,13.3389 6.02,12.9339 5.518,12.9339" id="Fill-3" fill="#BE913A"></path>
                                <path d="M7.5859,12.9336 C7.0859,12.9336 6.6789,13.3406 6.6789,13.8406 L6.6789,14.2336 C6.6789,14.6926 7.0529,15.0666 7.5119,15.0666 L7.6969,15.0666 C7.7149,15.0666 7.7299,15.0806 7.7299,15.0986 L7.7299,15.8716 C7.7299,15.9506 7.6649,16.0146 7.5859,16.0146 C7.5069,16.0146 7.4429,15.9506 7.4429,15.8716 L7.4429,15.7966 C7.4429,15.5856 7.2719,15.4146 7.0609,15.4146 C6.8499,15.4146 6.6789,15.5856 6.6789,15.7966 L6.6789,15.8716 C6.6789,16.3716 7.0859,16.7786 7.5859,16.7786 C8.0859,16.7786 8.4929,16.3716 8.4929,15.8716 L8.4929,15.0986 C8.4929,14.6606 8.1369,14.3026 7.6969,14.3026 L7.5119,14.3026 C7.4739,14.3026 7.4429,14.2716 7.4429,14.2336 L7.4429,13.8406 C7.4429,13.7616 7.5069,13.6976 7.5859,13.6976 C7.6649,13.6976 7.7299,13.7616 7.7299,13.8406 L7.7299,13.9146 C7.7299,14.1256 7.9009,14.2966 8.1109,14.2966 C8.3219,14.2966 8.4929,14.1256 8.4929,13.9146 L8.4929,13.8406 C8.4929,13.3406 8.0859,12.9336 7.5859,12.9336" id="Fill-5" fill="#BE913A"></path>
                                <path d="M10.1748,12.9336 L9.1238,12.9336 C8.9128,12.9336 8.7418,13.1046 8.7418,13.3156 C8.7418,13.5266 8.9128,13.6976 9.1238,13.6976 L9.2678,13.6976 L9.2678,16.3966 C9.2678,16.6076 9.4388,16.7786 9.6498,16.7786 C9.8608,16.7786 10.0308,16.6076 10.0308,16.3966 L10.0308,13.6976 L10.1748,13.6976 C10.3858,13.6976 10.5568,13.5266 10.5568,13.3156 C10.5568,13.1046 10.3858,12.9336 10.1748,12.9336" id="Fill-7" fill="#BE913A"></path>
                                <path d="M13.0898,13.8379 L13.0898,15.8739 C13.0898,15.9509 13.0268,16.0149 12.9428,16.0149 C12.8648,16.0149 12.8018,15.9509 12.8018,15.8739 L12.8018,13.8379 C12.8018,13.7589 12.8658,13.6969 12.9478,13.6969 C13.0268,13.6969 13.0898,13.7609 13.0898,13.8379 M12.9428,12.9339 C12.4438,12.9339 12.0378,13.3389 12.0378,13.8379 L12.0378,15.8739 C12.0378,16.3729 12.4438,16.7779 12.9478,16.7779 C13.4468,16.7779 13.8528,16.3729 13.8528,15.8739 L13.8528,13.8379 C13.8528,13.3389 13.4438,12.9339 12.9428,12.9339" id="Fill-9" fill="#BE913A"></path>
                                <path d="M15.5352,12.9336 L14.4842,12.9336 C14.2732,12.9336 14.1022,13.1046 14.1022,13.3156 L14.1022,16.3966 C14.1022,16.6076 14.2732,16.7786 14.4842,16.7786 C14.6952,16.7786 14.8662,16.6076 14.8662,16.3966 L14.8662,15.0666 L15.2692,15.0666 C15.4792,15.0666 15.6502,14.8956 15.6502,14.6846 C15.6502,14.4736 15.4792,14.3026 15.2692,14.3026 L14.8662,14.3026 L14.8662,13.6976 L15.5352,13.6976 C15.7462,13.6976 15.9172,13.5266 15.9172,13.3156 C15.9172,13.1046 15.7462,12.9336 15.5352,12.9336" id="Fill-11" fill="#BE913A"></path>
                                <path d="M17.5986,12.9336 L16.5476,12.9336 C16.3366,12.9336 16.1656,13.1046 16.1656,13.3156 L16.1656,16.3966 C16.1656,16.6076 16.3366,16.7786 16.5476,16.7786 C16.7586,16.7786 16.9296,16.6076 16.9296,16.3966 L16.9296,15.0666 L17.3326,15.0666 C17.5436,15.0666 17.7146,14.8956 17.7146,14.6846 C17.7146,14.4736 17.5436,14.3026 17.3326,14.3026 L16.9296,14.3026 L16.9296,13.6976 L17.5986,13.6976 C17.8096,13.6976 17.9806,13.5266 17.9806,13.3156 C17.9806,13.1046 17.8096,12.9336 17.5986,12.9336" id="Fill-13" fill="#BE913A"></path>
                                <path d="M18.6123,12.9336 C18.4013,12.9336 18.2303,13.1046 18.2303,13.3156 L18.2303,16.3966 C18.2303,16.6076 18.4013,16.7786 18.6123,16.7786 C18.8233,16.7786 18.9943,16.6076 18.9943,16.3966 L18.9943,13.3156 C18.9943,13.1046 18.8233,12.9336 18.6123,12.9336" id="Fill-15" fill="#BE913A"></path>
                                <path d="M20.1533,12.9336 C19.6533,12.9336 19.2463,13.3406 19.2463,13.8406 L19.2463,15.8716 C19.2463,16.3716 19.6533,16.7786 20.1533,16.7786 C20.6533,16.7786 21.0603,16.3716 21.0603,15.8716 L21.0603,15.7966 C21.0603,15.5856 20.8893,15.4146 20.6783,15.4146 C20.4673,15.4146 20.2973,15.5856 20.2973,15.7966 L20.2973,15.8716 C20.2973,15.9506 20.2323,16.0146 20.1533,16.0146 C20.0743,16.0146 20.0103,15.9506 20.0103,15.8716 L20.0103,13.8406 C20.0103,13.7616 20.0743,13.6976 20.1533,13.6976 C20.2323,13.6976 20.2973,13.7616 20.2973,13.8406 L20.2973,13.9146 C20.2973,14.1256 20.4673,14.2966 20.6783,14.2966 C20.8893,14.2966 21.0603,14.1256 21.0603,13.9146 L21.0603,13.8406 C21.0603,13.3406 20.6533,12.9336 20.1533,12.9336" id="Fill-17" fill="#BE913A"></path>
                                <path d="M22.7422,13.6973 C22.9532,13.6973 23.1242,13.5263 23.1242,13.3153 C23.1242,13.1043 22.9532,12.9333 22.7422,12.9333 L21.6912,12.9333 C21.4802,12.9333 21.3092,13.1043 21.3092,13.3153 L21.3092,16.3963 C21.3092,16.6073 21.4802,16.7783 21.6912,16.7783 L22.7422,16.7783 C22.9532,16.7783 23.1242,16.6073 23.1242,16.3963 C23.1242,16.1853 22.9532,16.0143 22.7422,16.0143 L22.0732,16.0143 L22.0732,15.0663 L22.4762,15.0663 C22.6872,15.0663 22.8582,14.8953 22.8582,14.6843 C22.8582,14.4733 22.6872,14.3023 22.4762,14.3023 L22.0732,14.3023 L22.0732,13.6973 L22.7422,13.6973 Z" id="Fill-19" fill="#BE913A"></path>
                                <mask id="mask-2" fill="white">
                                    <use xlink:href="#path-1"></use>
                                </mask>
                                <g id="Clip-22"></g>
                                <path d="M14.636,36.8018 L19.061,36.8018 L19.061,27.8378 L14.636,27.8378 L14.636,36.8018 Z M8.962,36.8018 L13.386,36.8018 L13.386,27.8378 L8.962,27.8378 L8.962,36.8018 Z M8.962,26.5878 L19.061,26.5878 L19.061,23.0298 L8.962,23.0298 L8.962,26.5878 Z M19.686,21.7808 L8.337,21.7808 C7.992,21.7808 7.712,22.0608 7.712,22.4058 L7.712,37.4268 C7.712,37.7718 7.992,38.0518 8.337,38.0518 L19.686,38.0518 C20.03,38.0518 20.311,37.7718 20.311,37.4268 L20.311,22.4058 C20.311,22.0608 20.03,21.7808 19.686,21.7808 L19.686,21.7808 Z" id="Fill-21" fill="#BE913A" mask="url(#mask-2)"></path>
                                <path d="M33.1426,30.9141 C32.7976,30.9141 32.5176,31.1941 32.5176,31.5391 L32.5176,33.2111 C32.5176,33.5561 32.7976,33.8361 33.1426,33.8361 C33.4876,33.8361 33.7676,33.5561 33.7676,33.2111 L33.7676,31.5391 C33.7676,31.1941 33.4876,30.9141 33.1426,30.9141" id="Fill-23" fill="#BE913A" mask="url(#mask-2)"></path>
                                <path d="M38.1211,41.7198 L36.0021,41.7198 L36.0021,22.4048 C36.0021,22.0608 35.7221,21.7798 35.3771,21.7798 L24.3691,21.7798 C24.0241,21.7798 23.7441,22.0608 23.7441,22.4048 L23.7441,41.7198 L4.8981,41.7198 L4.8981,19.4258 L38.1211,19.4258 L38.1211,41.7198 Z M24.9941,41.7198 L34.7521,41.7198 L34.7521,23.0298 L24.9941,23.0298 L24.9941,41.7198 Z M41.8221,11.9168 L41.7741,18.1758 L38.7461,18.1758 L1.2501,18.1758 L1.2501,11.6808 L24.2341,11.6808 L23.8311,10.4308 L0.6251,10.4308 C0.2801,10.4308 0.0001,10.7108 0.0001,11.0558 L0.0001,18.8008 C0.0001,19.1458 0.2801,19.4258 0.6251,19.4258 L3.6481,19.4258 L3.6481,42.3448 C3.6481,42.6898 3.9291,42.9698 4.2731,42.9698 L24.3691,42.9698 L35.3771,42.9698 L38.7461,42.9698 C39.0911,42.9698 39.3711,42.6898 39.3711,42.3448 L39.3711,19.4258 L42.3941,19.4258 C42.7381,19.4258 43.0171,19.1488 43.0191,18.8058 L43.0791,11.0608 C43.0811,10.8768 43.0001,10.7158 42.8751,10.6008 C42.9081,11.3678 41.8221,11.9168 41.8221,11.9168 L41.8221,11.9168 Z" id="Fill-24" fill="#060707" mask="url(#mask-2)"></path>
                                <path d="M41.5713,10.6846 L26.8623,15.4286 C26.8093,15.4436 26.7533,15.4176 26.7353,15.3646 L23.9123,6.6136 L32.2083,9.4676 C32.3493,9.5156 32.4963,9.5386 32.6413,9.5386 C33.0723,9.5386 33.4923,9.3326 33.7503,8.9696 L38.8143,1.8076 L41.6353,10.5566 C41.6503,10.6026 41.6163,10.6696 41.5713,10.6846 L41.5713,10.6846 Z M37.4323,1.5956 L32.7293,8.2466 C32.7023,8.2856 32.6563,8.3006 32.6133,8.2856 L24.9103,5.6356 L37.4323,1.5956 Z M39.8433,0.9256 C39.7383,0.6006 39.5123,0.3396 39.2173,0.1726 C39.2143,0.1706 39.2133,0.1676 39.2103,0.1656 C39.2083,0.1636 39.2063,0.1636 39.2043,0.1626 C39.1923,0.1556 39.1853,0.1436 39.1733,0.1376 C39.1493,0.1256 39.1233,0.1276 39.0993,0.1166 C39.0383,0.0896 38.9783,0.0706 38.9153,0.0636 C38.6603,-0.0084 38.3963,-0.0294 38.1423,0.0536 L23.4333,4.7986 C23.1773,4.8816 22.9753,5.0526 22.8113,5.2586 C22.7653,5.3006 22.7293,5.3496 22.6963,5.4046 C22.6823,5.4286 22.6583,5.4436 22.6453,5.4686 C22.6383,5.4826 22.6393,5.4986 22.6333,5.5126 C22.6333,5.5126 22.6333,5.5126 22.6333,5.5126 L22.6323,5.5136 C22.4873,5.8246 22.4573,6.1716 22.5623,6.4996 L23.8313,10.4306 L24.2343,11.6806 L25.5463,15.7466 C25.6563,16.0906 25.8943,16.3716 26.2143,16.5356 C26.4083,16.6336 26.6183,16.6846 26.8293,16.6846 C26.9683,16.6846 27.1083,16.6616 27.2453,16.6186 L41.8223,11.9166 C41.8223,11.9166 42.9083,11.3686 42.8753,10.6006 C42.8763,10.4576 42.8703,10.3136 42.8253,10.1736 L39.8433,0.9256 Z" id="Fill-25" fill="#BE913A" mask="url(#mask-2)"></path>
                            </g>
                        </g>
                    </g>
                </g>
            </g>
        </g>
    </g>
</svg>