<?xml version="1.0" encoding="UTF-8"?>
<svg width="44px" height="44px" viewBox="0 0 44 44" version="1.1" xmlns="http://www.w3.org/2000/svg" xmlns:xlink="http://www.w3.org/1999/xlink">
    <!-- Generator: sketchtool 46.2 (44496) - http://www.bohemiancoding.com/sketch -->
    <title>AABEF6C1-0CBE-4882-A2F9-B07227B6D52B</title>
    <desc>Created with sketchtool.</desc>
    <defs>
        <polygon id="path-1" points="22.7856 26 0 26 0 0.3824 22.7856 0.3824"></polygon>
    </defs>
    <g id="Desktop-design" stroke="none" stroke-width="1" fill="none" fill-rule="evenodd">
        <g id="Parkchester_Apartment-Details" transform="translate(-1168.000000, -1301.000000)">
            <g id="Property-Amenities" transform="translate(55.000000, 1123.000000)">
                <g id="icons" transform="translate(600.000000, 178.000000)">
                    <g id="Group-6" transform="translate(500.000000, 0.000000)">
                        <g id="security" transform="translate(13.000000, 0.000000)">
                            <g id="Page-1">
                                <path d="M17.9726,28.0741 C17.6426,27.9811 17.2966,28.1791 17.2056,28.5131 L16.7766,30.0901 C16.6856,30.4231 16.8826,30.7661 17.2156,30.8571 C17.2696,30.8721 17.3256,30.8791 17.3796,30.8791 C17.6546,30.8791 17.9066,30.6961 17.9826,30.4181 L18.4116,28.8411 C18.5026,28.5081 18.3056,28.1651 17.9726,28.0741" id="Fill-1" fill="#BE913A"></path>
                                <g id="Group-5" transform="translate(0.000000, 17.134600)">
                                    <mask id="mask-2" fill="white">
                                        <use xlink:href="#path-1"></use>
                                    </mask>
                                    <g id="Clip-4"></g>
                                    <path d="M21.5796,1.1944 L19.5596,8.6114 C19.2886,8.4694 19.0036,8.3484 18.7016,8.2654 C18.3976,8.1834 18.0916,8.1434 17.7846,8.1294 L19.8046,0.7114 L21.5796,1.1944 Z M20.4536,13.1094 C20.0236,14.6864 18.3916,15.6214 16.8156,15.1904 C15.2396,14.7604 14.3056,13.1294 14.7346,11.5524 C14.9426,10.7884 15.4356,10.1514 16.1226,9.7584 C16.5766,9.4984 17.0796,9.3664 17.5886,9.3664 C17.8506,9.3664 18.1136,9.4014 18.3726,9.4714 C19.9496,9.9004 20.8826,11.5324 20.4536,13.1094 L20.4536,13.1094 Z M4.5696,22.6024 L4.5696,19.8294 L13.5346,13.3954 C13.6276,13.7494 13.7506,14.0964 13.9366,14.4234 C14.1376,14.7734 14.3956,15.0734 14.6776,15.3464 L4.5696,22.6024 Z M3.3196,19.5084 L3.3196,23.8204 L3.3196,24.7504 L1.2496,24.7504 L1.2496,8.1214 L3.3196,8.1214 L3.3196,19.5084 Z M16.4456,8.2904 C16.1206,8.3834 15.8026,8.5014 15.5016,8.6734 C14.5256,9.2324 13.8246,10.1384 13.5286,11.2244 C13.4636,11.4634 13.4286,11.7064 13.4056,11.9484 L4.5696,18.2904 L4.5696,7.4964 C4.5696,7.1504 4.2896,6.8714 3.9446,6.8714 L0.6246,6.8714 C0.2796,6.8714 -0.0004,7.1504 -0.0004,7.4964 L-0.0004,25.3754 C-0.0004,25.7204 0.2796,26.0004 0.6246,26.0004 L3.9446,26.0004 C4.2896,26.0004 4.5696,25.7204 4.5696,25.3754 L4.5696,24.1414 L15.7496,16.1164 C15.9846,16.2294 16.2296,16.3264 16.4866,16.3964 C16.8566,16.4964 17.2276,16.5444 17.5936,16.5444 C19.4466,16.5444 21.1496,15.3104 21.6596,13.4384 L21.6596,13.4374 C21.9546,12.3514 21.8096,11.2154 21.2516,10.2384 C21.0796,9.9384 20.8656,9.6744 20.6326,9.4304 L22.7856,1.5224 L18.5976,0.3824 L16.4456,8.2904 Z" id="Fill-3" fill="#060707" mask="url(#mask-2)"></path>
                                </g>
                                <path d="M16.0512,15.5282 L16.3592,14.3962 L19.5842,15.2742 L26.2972,17.1022 L25.9892,18.2342 L16.0512,15.5282 Z M12.0262,11.9212 C11.7492,11.8452 11.5192,11.6672 11.3772,11.4182 C11.2352,11.1702 11.1972,10.8802 11.2732,10.6042 L11.4712,9.8772 C11.4712,9.8772 11.4712,9.8762 11.4712,9.8762 L12.4392,6.3232 L13.6042,2.0422 C13.7602,1.4712 14.3492,1.1362 14.9212,1.2892 L19.5612,2.5522 L18.7272,5.6182 C18.4692,6.5652 18.5952,7.5562 19.0832,8.4072 C19.5702,9.2592 20.3602,9.8712 21.3072,10.1292 L35.8842,14.0972 L35.0722,17.0842 C34.9162,17.6542 34.3272,17.9932 33.7552,17.8372 L16.2392,13.0682 L16.0842,13.0262 L12.0262,11.9212 Z M10.4522,8.8612 C10.1242,8.6632 9.8512,8.3852 9.6562,8.0442 C9.3552,7.5172 9.2762,6.9032 9.4362,6.3182 L9.8482,4.8052 C10.0082,4.2192 10.3852,3.7312 10.9122,3.4292 C11.2542,3.2342 11.6302,3.1332 12.0122,3.1292 L11.2322,5.9952 L10.4522,8.8612 Z M19.9332,5.9462 L20.7672,2.8802 L41.2672,8.4622 L39.4072,10.2102 L30.6832,7.8352 C30.3532,7.7442 30.0072,7.9412 29.9162,8.2742 C29.8252,8.6072 30.0222,8.9502 30.3552,9.0412 L38.3392,11.2152 L36.4782,12.9632 L21.6352,8.9222 C21.0102,8.7532 20.4892,8.3492 20.1682,7.7872 C19.8462,7.2252 19.7632,6.5712 19.9332,5.9462 L19.9332,5.9462 Z M26.4282,19.6262 C26.7032,19.6262 26.9552,19.4432 27.0302,19.1652 L27.5032,17.4302 L33.4272,19.0432 C33.6302,19.0982 33.8352,19.1242 34.0362,19.1242 C35.0582,19.1242 35.9972,18.4442 36.2782,17.4122 L37.2082,13.9932 L42.9372,8.6082 C43.1012,8.4522 43.1702,8.2202 43.1152,8.0012 C43.0602,7.7812 42.8912,7.6092 42.6732,7.5492 L20.4922,1.5102 L15.2492,0.0832 C14.6492,-0.0808 14.0242,0.0002 13.4862,0.3082 C12.9472,0.6152 12.5612,1.1152 12.3982,1.7132 L12.3482,1.8972 C11.6372,1.8332 10.9242,1.9822 10.2922,2.3442 C9.4752,2.8122 8.8892,3.5692 8.6422,4.4772 L8.2302,5.9892 C7.9832,6.8982 8.1042,7.8472 8.5712,8.6642 C8.9332,9.2972 9.4722,9.7862 10.1172,10.0912 L10.0672,10.2762 C9.7302,11.5112 10.4622,12.7902 11.6972,13.1272 L15.1532,14.0672 L14.6812,15.8032 C14.5902,16.1362 14.7872,16.4792 15.1202,16.5702 L18.5982,17.5172 L22.7852,18.6572 L26.2632,19.6042 C26.3182,19.6192 26.3732,19.6262 26.4282,19.6262 L26.4282,19.6262 Z" id="Fill-6" fill="#BE913A"></path>
                            </g>
                        </g>
                    </g>
                </g>
            </g>
        </g>
    </g>
</svg>