<?xml version="1.0" encoding="UTF-8"?>
<svg width="44px" height="44px" viewBox="0 0 44 44" version="1.1" xmlns="http://www.w3.org/2000/svg" xmlns:xlink="http://www.w3.org/1999/xlink">
    <!-- Generator: sketchtool 46.2 (44496) - http://www.bohemiancoding.com/sketch -->
    <title>BF791FBD-E14C-4B44-BD42-9CCF7C66ACD9</title>
    <desc>Created with sketchtool.</desc>
    <defs>
        <polygon id="path-1" points="0 43.1338 43.134 43.1338 43.134 -0.0002 0 -0.0002"></polygon>
    </defs>
    <g id="Desktop-design" stroke="none" stroke-width="1" fill="none" fill-rule="evenodd">
        <g id="Parkchester_Apartment-Details" transform="translate(-768.000000, -1301.000000)">
            <g id="Property-Amenities" transform="translate(55.000000, 1123.000000)">
                <g id="icons" transform="translate(600.000000, 178.000000)">
                    <g id="Group-5" transform="translate(100.000000, 0.000000)">
                        <g id="shop" transform="translate(13.000000, 0.000000)">
                            <g id="Page-1">
                                <path d="M39.0185,17.3252 C40.5635,17.3252 41.8175,16.0792 41.8735,14.5282 L36.1155,1.2502 L32.3705,1.2502 L36.1285,14.2502 C36.1375,14.2802 36.1325,14.3092 36.1365,14.3382 C36.1405,14.3672 36.1535,14.3932 36.1535,14.4232 C36.1535,16.0232 37.4385,17.3252 39.0185,17.3252 Z M32.0385,17.3252 C33.5955,17.3252 34.8615,16.0582 34.8965,14.4892 L31.0695,1.2502 L27.2755,1.2502 L29.1665,14.3342 C29.1685,14.3492 29.1625,14.3642 29.1635,14.3792 C29.1645,14.3942 29.1725,14.4082 29.1725,14.4232 C29.1725,16.0232 30.4585,17.3252 32.0385,17.3252 Z M25.0575,17.3252 C26.6285,17.3252 27.9055,16.0372 27.9205,14.4502 L26.0125,1.2502 L22.1915,1.2502 L22.1915,14.4232 C22.1915,16.0232 23.4765,17.3252 25.0575,17.3252 Z M20.9415,14.4232 L20.9415,1.2502 L17.1215,1.2502 L15.2145,14.4502 C15.2285,16.0372 16.5055,17.3252 18.0765,17.3252 C19.6565,17.3252 20.9415,16.0232 20.9415,14.4232 Z M13.9705,14.3792 C13.9715,14.3642 13.9655,14.3492 13.9675,14.3342 L15.8585,1.2502 L12.0645,1.2502 L8.2375,14.4892 C8.2725,16.0582 9.5385,17.3252 11.0965,17.3252 C12.6765,17.3252 13.9615,16.0232 13.9615,14.4232 C13.9615,14.4082 13.9695,14.3942 13.9705,14.3792 Z M7.0045,14.2492 L10.7635,1.2502 L7.0185,1.2502 L1.2605,14.5282 C1.3165,16.0792 2.5705,17.3252 4.1155,17.3252 C5.6955,17.3252 6.9805,16.0232 6.9805,14.4232 C6.9805,14.3932 6.9935,14.3672 6.9975,14.3382 C7.0015,14.3092 6.9965,14.2792 7.0045,14.2492 Z M43.1335,14.4232 C43.1335,16.4972 41.6145,18.2052 39.6435,18.5112 C39.0265,18.6572 38.3935,18.5112 38.3935,18.5112 C37.1825,18.3232 36.1495,17.6082 35.5285,16.5972 C34.8025,17.7792 33.5155,18.5752 32.0385,18.5752 C30.5615,18.5752 29.2735,17.7792 28.5475,16.5972 C27.8215,17.7792 26.5345,18.5752 25.0575,18.5752 C23.5805,18.5752 22.2925,17.7792 21.5665,16.5972 C20.8405,17.7792 19.5535,18.5752 18.0765,18.5752 C16.5995,18.5752 15.3125,17.7792 14.5865,16.5972 C13.8605,17.7792 12.5735,18.5752 11.0965,18.5752 C9.6185,18.5752 8.3315,17.7792 7.6055,16.5972 C6.9845,17.6082 5.9515,18.3232 4.7405,18.5112 C4.2275,18.6252 3.4905,18.5112 3.4905,18.5112 C1.5185,18.2052 0.0005,16.4972 0.0005,14.4232 C0.0005,14.4222 0.0005,14.4222 0.0005,14.4212 C0.0005,14.3822 0.0165,14.3432 0.0245,14.3042 C0.0325,14.2612 0.0345,14.2162 0.0515,14.1772 C0.0515,14.1762 0.0515,14.1752 0.0515,14.1752 L6.0355,0.3762 C6.1345,0.1482 6.3595,0.0002 6.6085,0.0002 L11.5945,0.0002 L16.5805,0.0002 L21.5665,0.0002 L26.5535,0.0002 L31.5395,0.0002 L36.5255,0.0002 C36.7745,0.0002 36.9995,0.1482 37.0985,0.3762 L43.0815,14.1752 C43.0825,14.1752 43.0825,14.1762 43.0825,14.1772 C43.0995,14.2162 43.1015,14.2612 43.1095,14.3042 C43.1175,14.3432 43.1335,14.3822 43.1335,14.4212 C43.1335,14.4222 43.1335,14.4222 43.1335,14.4232 Z" id="Fill-1" fill="#BE913A"></path>
                                <mask id="mask-2" fill="white">
                                    <use xlink:href="#path-1"></use>
                                </mask>
                                <g id="Clip-4"></g>
                                <path d="M8.673,41.8838 L19.068,41.8838 L19.068,24.8978 L8.673,24.8978 L8.673,41.8838 Z M38.393,18.5118 L38.393,41.8838 L20.318,41.8838 L20.318,24.2728 C20.318,23.9268 20.038,23.6478 19.693,23.6478 L8.048,23.6478 C7.703,23.6478 7.423,23.9268 7.423,24.2728 L7.423,41.8838 L4.74,41.8838 L4.74,18.5118 C4.227,18.6258 3.49,18.5118 3.49,18.5118 L3.49,42.5088 C3.49,42.8538 3.77,43.1338 4.115,43.1338 L8.048,43.1338 L19.693,43.1338 L39.018,43.1338 C39.364,43.1338 39.643,42.8538 39.643,42.5088 L39.643,18.5118 C39.027,18.6568 38.393,18.5118 38.393,18.5118 L38.393,18.5118 Z" id="Fill-3" fill="#060707" mask="url(#mask-2)"></path>
                                <path d="M17.311,32.063 C16.966,32.063 16.686,32.343 16.686,32.688 L16.686,35.219 C16.686,35.564 16.966,35.844 17.311,35.844 C17.656,35.844 17.936,35.564 17.936,35.219 L17.936,32.688 C17.936,32.343 17.656,32.063 17.311,32.063" id="Fill-5" fill="#BE913A" mask="url(#mask-2)"></path>
                                <path d="M30.098,36.7028 L34.461,36.7028 L34.461,29.6228 L30.098,29.6228 L30.098,36.7028 Z M24.486,36.7028 L28.848,36.7028 L28.848,29.6228 L24.486,29.6228 L24.486,36.7028 Z M24.486,28.3728 L34.461,28.3728 L34.461,24.8978 L24.486,24.8978 L24.486,28.3728 Z M35.086,23.6478 L23.861,23.6478 C23.516,23.6478 23.236,23.9268 23.236,24.2728 L23.236,37.3278 C23.236,37.6738 23.516,37.9528 23.861,37.9528 L35.086,37.9528 C35.431,37.9528 35.711,37.6738 35.711,37.3278 L35.711,24.2728 C35.711,23.9268 35.431,23.6478 35.086,23.6478 L35.086,23.6478 Z" id="Fill-6" fill="#060707" mask="url(#mask-2)"></path>
                            </g>
                        </g>
                    </g>
                </g>
            </g>
        </g>
    </g>
</svg>