<?xml version="1.0" encoding="UTF-8"?>
<svg width="30px" height="44px" viewBox="0 0 30 44" version="1.1" xmlns="http://www.w3.org/2000/svg" xmlns:xlink="http://www.w3.org/1999/xlink">
    <!-- Generator: sketchtool 46.2 (44496) - http://www.bohemiancoding.com/sketch -->
    <title>6FA45360-D061-40EE-A166-A24368F35177</title>
    <desc>Created with sketchtool.</desc>
    <defs></defs>
    <g id="Desktop-design" stroke="none" stroke-width="1" fill="none" fill-rule="evenodd">
        <g id="Parkchester_Apartment-Details" transform="translate(-975.000000, -1301.000000)">
            <g id="Property-Amenities" transform="translate(55.000000, 1123.000000)">
                <g id="icons" transform="translate(600.000000, 178.000000)">
                    <g id="Group-4" transform="translate(300.000000, 0.000000)">
                        <g id="train" transform="translate(20.000000, 0.000000)">
                            <g id="Page-1">
                                <path d="M3.8666,40.4897 L4.2686,39.7397 L25.0136,39.7397 L25.4166,40.4897 L3.8666,40.4897 Z M23.9416,37.7397 L24.3436,38.4897 L4.9386,38.4897 L5.3406,37.7397 L23.9416,37.7397 Z M27.7246,42.1507 L23.8516,34.9257 C23.6876,34.6227 23.3106,34.5077 23.0056,34.6707 C22.7016,34.8337 22.5866,35.2127 22.7496,35.5167 L23.2716,36.4897 L6.0106,36.4897 L6.5326,35.5167 C6.6956,35.2127 6.5816,34.8337 6.2776,34.6707 C5.9726,34.5077 5.5946,34.6217 5.4316,34.9257 L1.5586,42.1507 C1.3946,42.4547 1.5096,42.8337 1.8136,42.9967 C1.9076,43.0467 2.0086,43.0707 2.1086,43.0707 C2.3306,43.0707 2.5466,42.9517 2.6596,42.7407 L3.1966,41.7397 L26.0866,41.7397 L26.6226,42.7407 C26.7356,42.9517 26.9516,43.0707 27.1746,43.0707 C27.2736,43.0707 27.3746,43.0467 27.4696,42.9967 C27.7736,42.8337 27.8876,42.4547 27.7246,42.1507 L27.7246,42.1507 Z" id="Fill-1" fill="#060707"></path>
                                <path d="M24.229,24.2412 C24.875,24.2412 25.401,24.7672 25.401,25.4132 C25.401,26.0602 24.875,26.5862 24.229,26.5862 C23.583,26.5862 23.056,26.0602 23.056,25.4132 C23.056,24.7672 23.583,24.2412 24.229,24.2412 M24.229,27.8362 C25.564,27.8362 26.651,26.7492 26.651,25.4132 C26.651,24.0772 25.564,22.9912 24.229,22.9912 C22.893,22.9912 21.806,24.0772 21.806,25.4132 C21.806,26.7492 22.893,27.8362 24.229,27.8362" id="Fill-3" fill="#060707"></path>
                                <path d="M5.0542,24.2412 C5.7002,24.2412 6.2262,24.7672 6.2262,25.4132 C6.2262,26.0602 5.7002,26.5862 5.0542,26.5862 C4.4082,26.5862 3.8812,26.0602 3.8812,25.4132 C3.8812,24.7672 4.4082,24.2412 5.0542,24.2412 M5.0542,27.8362 C6.3892,27.8362 7.4762,26.7492 7.4762,25.4132 C7.4762,24.0772 6.3892,22.9912 5.0542,22.9912 C3.7182,22.9912 2.6312,24.0772 2.6312,25.4132 C2.6312,26.7492 3.7182,27.8362 5.0542,27.8362" id="Fill-5" fill="#060707"></path>
                                <path d="M1.7182,34.2051 C1.6712,34.2051 1.6322,34.1951 1.5912,34.1871 L14.6412,28.3421 L27.6912,34.1871 C27.6502,34.1951 27.6112,34.2051 27.5642,34.2051 L1.7182,34.2051 Z M29.2682,13.3561 C29.2652,13.3321 29.2712,13.3081 29.2652,13.2831 L27.7522,6.9521 C27.0262,3.9171 24.3402,1.7971 21.2192,1.7971 L16.4392,1.7971 C16.0942,1.7971 15.8142,2.0771 15.8142,2.4221 C15.8142,2.7681 16.0942,3.0471 16.4392,3.0471 L21.2192,3.0471 C23.7592,3.0471 25.9462,4.7721 26.5362,7.2431 L28.0322,13.5021 L28.0322,32.9711 L14.8972,27.0861 C14.7352,27.0131 14.5482,27.0131 14.3862,27.0861 L1.2502,32.9711 L1.2502,13.5021 L2.7462,7.2431 C3.3372,4.7721 5.5232,3.0471 8.0632,3.0471 L12.8432,3.0471 C13.1882,3.0471 13.4682,2.7681 13.4682,2.4221 C13.4682,2.0771 13.1882,1.7971 12.8432,1.7971 L8.0632,1.7971 C4.9422,1.7971 2.2562,3.9171 1.5312,6.9521 L0.0172,13.2831 C0.0112,13.3081 0.0172,13.3321 0.0142,13.3561 C0.0112,13.3811 0.0002,13.4031 0.0002,13.4281 L0.0002,33.9351 C0.0002,34.7731 0.7712,35.4551 1.7182,35.4551 L27.5642,35.4551 C28.5122,35.4551 29.2822,34.7731 29.2822,33.9351 L29.2822,13.4281 C29.2822,13.4031 29.2712,13.3811 29.2682,13.3561 L29.2682,13.3561 Z" id="Fill-7" fill="#BE913A"></path>
                                <path d="M14.0163,9.2047 L14.0163,10.8927 L4.0153,12.9767 C3.7953,13.0227 3.6533,12.9027 3.6023,12.8487 C3.5513,12.7957 3.4373,12.6477 3.4913,12.4307 L4.5383,8.2917 C4.7113,7.6077 5.3253,7.1297 6.0313,7.1297 L14.0163,7.1297 L14.0163,9.2047 Z M15.2663,9.2047 L15.2663,7.1297 L23.2503,7.1297 C23.9563,7.1297 24.5713,7.6077 24.7443,8.2927 L25.7913,12.4307 C25.8453,12.6477 25.7323,12.7957 25.6803,12.8487 C25.6283,12.9027 25.4873,13.0227 25.2673,12.9767 L15.2663,10.8927 L15.2663,9.2047 Z M3.3263,7.9857 L2.2803,12.1247 C2.1353,12.6957 2.2923,13.2897 2.7003,13.7147 C3.0253,14.0527 3.4643,14.2367 3.9203,14.2367 C4.0363,14.2367 4.1533,14.2247 4.2703,14.2007 L14.6413,12.0397 L25.0123,14.2007 C25.1293,14.2247 25.2463,14.2367 25.3623,14.2367 C25.8193,14.2367 26.2583,14.0527 26.5823,13.7147 C26.9903,13.2897 27.1473,12.6957 27.0033,12.1247 L25.9563,7.9857 C25.6423,6.7457 24.5303,5.8797 23.2503,5.8797 L14.6413,5.8797 L6.0313,5.8797 C4.7523,5.8797 3.6393,6.7457 3.3263,7.9857 L3.3263,7.9857 Z" id="Fill-9" fill="#BE913A"></path>
                                <path d="M14.6416,1.25 C15.2876,1.25 15.8136,1.776 15.8136,2.422 C15.8136,3.069 15.2876,3.595 14.6416,3.595 C13.9956,3.595 13.4686,3.069 13.4686,2.422 C13.4686,1.776 13.9956,1.25 14.6416,1.25 M14.6416,4.845 C15.9776,4.845 17.0636,3.758 17.0636,2.422 C17.0636,1.086 15.9776,-7.10542736e-15 14.6416,-7.10542736e-15 C13.3056,-7.10542736e-15 12.2186,1.086 12.2186,2.422 C12.2186,3.758 13.3056,4.845 14.6416,4.845" id="Fill-11" fill="#060707"></path>
                            </g>
                        </g>
                    </g>
                </g>
            </g>
        </g>
    </g>
</svg>