<?xml version="1.0" encoding="UTF-8"?>
<svg width="12px" height="12px" viewBox="0 0 12 12" version="1.1" xmlns="http://www.w3.org/2000/svg" xmlns:xlink="http://www.w3.org/1999/xlink">
    <!-- Generator: sketchtool 46.2 (44496) - http://www.bohemiancoding.com/sketch -->
    <title>9EB068DF-4582-4FC9-BFA8-DC5AAE0174C3</title>
    <desc>Created with sketchtool.</desc>
    <defs></defs>
    <g id="Desktop-design" stroke="none" stroke-width="1" fill="none" fill-rule="evenodd">
        <g id="Parkchester_mobile_C1" transform="translate(-259.000000, -17.000000)" stroke="#060707">
            <g id="1st-screen" transform="translate(0.000000, 10.000000)">
                <g id="Header" transform="translate(10.000000, 0.000000)">
                    <g id="phone" transform="translate(249.000000, 7.000000)">
                        <path d="M0.5,2.18345241 C0.5,3.9387336 1.83855511,6.30682346 4.31736503,8.55143732 C6.9261786,10.9137722 8.69824078,11.7604579 10.07896,11.4309519 C10.3482876,11.3666774 10.9044802,10.9831968 11.2212419,10.5838859 C11.5723229,10.1413118 11.5958511,9.81371442 11.2633551,9.50786023 C10.8422319,9.12048019 10.5993807,8.90943823 10.1942435,8.60801407 C9.84292153,8.34662865 9.50577179,8.13237612 9.19542138,7.9805429 C8.97065378,7.8705795 8.76634065,7.79673645 8.5888788,7.76181124 C8.51801005,7.74786398 8.43108645,7.79096698 8.18752723,7.98983218 C8.12487519,8.04112404 8.0923873,8.06753261 8.05639576,8.09596456 C7.58050464,8.47190051 7.15955391,8.58824985 6.65946323,8.27475149 C5.49157613,7.54262286 4.1519793,6.19029494 3.65280776,5.08644642 C3.45156135,4.64141794 3.59558415,4.31137303 4.0178333,3.71406328 C4.04213378,3.67976125 4.04213378,3.67976125 4.06605861,3.64615799 C4.29040207,3.33117636 4.3560338,3.19287757 4.39785719,3.26342357 C3.18159523,1.21188232 2.63018481,0.5 2.31706674,0.5 C2.08638095,0.5 1.61625688,0.632128319 1.25721763,0.854894418 C0.770778007,1.15670615 0.5,1.58228875 0.5,2.18345241 Z"></path>
                    </g>
                </g>
            </g>
        </g>
    </g>
</svg>